<svg width="76" height="27" viewBox="0 0 76 27" fill="none" xmlns="http://www.w3.org/2000/svg">
<path d="M33.6209 4.36754C29.7192 5.26381 25.9886 6.78652 22.5745 8.87643C19.4013 10.8286 15.935 13.388 13.8089 16.4987C12.871 17.873 12.5166 19.7639 13.7369 21.0982C14.8026 22.27 16.4785 22.4857 17.9785 22.523C22.713 22.6349 27.4929 22.1262 32.1502 21.3086C33.6662 21.0423 33.024 18.7332 31.5107 18.9969C27.7219 19.6649 23.8872 20.0389 20.0408 20.1154C18.8924 20.1368 16.8009 20.4697 15.7911 19.708C14.3577 18.624 16.9474 16.4534 17.7387 15.6731C22.3112 11.2115 28.0277 8.09908 34.2576 6.67924C35.7629 6.33035 35.1263 4.02131 33.6209 4.36754Z" fill="#992965"/>
<path d="M10.1561 13.6838L9.98293 13.7211C10.1654 10.5658 10.1601 7.40244 9.96693 4.2478C9.90032 3.15319 8.29909 2.50069 7.73425 3.64323C5.02729 9.11181 2.48459 14.655 0.106232 20.2727C-0.487914 21.6789 1.57695 22.9013 2.17642 21.4845C2.75014 20.1351 3.33104 18.791 3.91897 17.4523L7.3532 16.7252C7.15427 18.7866 6.87097 20.84 6.5033 22.8853C6.3449 22.9851 6.2115 23.1198 6.11314 23.279C6.01478 23.4383 5.9541 23.6179 5.93582 23.8042C5.87019 24.3774 6.00376 24.9557 6.31414 25.4421C6.80171 26.2944 8.29646 26.1878 8.50428 25.1571C9.10222 22.1997 9.5353 19.2113 9.80171 16.2059L10.7955 15.9955C12.3035 15.6759 11.6641 13.3642 10.1561 13.6838ZM5.12313 14.7491C5.97038 12.8741 6.83546 11.0099 7.71825 9.15621C7.71825 10.8536 7.66411 12.5483 7.55576 14.2404L5.12313 14.7491Z" fill="#992965"/>
<path d="M45.2081 6.97226H45.2241L45.7089 6.94297C47.2383 6.83644 47.2542 4.45015 45.7089 4.54603C43.0233 4.72358 40.3359 4.79105 37.6467 4.74844C36.1041 4.7218 36.1041 7.11875 37.6467 7.14538C38.4993 7.16136 39.3545 7.16136 40.2071 7.14538L37.5054 22.2275C37.3656 22.5775 37.3029 22.9536 37.3216 23.3301C37.3216 24.6431 39.4319 25.0106 39.677 23.6496C39.7116 23.4499 39.7489 23.2502 39.7835 23.0504L39.8395 22.8027C39.9102 22.6346 39.9386 22.4517 39.9221 22.2701C40.8297 17.2099 41.7365 12.1497 42.6424 7.08946C43.4976 7.06815 44.3528 7.02819 45.2081 6.97226Z" fill="#992965"/>
<path d="M59.9392 6.05633C59.1772 8.87407 58.4792 11.7078 57.8451 14.5575C57.7758 14.166 57.7091 13.7585 57.6479 13.3777C57.4054 11.8223 57.2322 10.259 56.5448 8.8501C56.6434 8.58377 56.7366 8.29614 56.8379 8.01916C57.3708 6.57034 55.0555 5.94447 54.5253 7.38263L54.424 7.67025C54.2935 7.72749 54.1762 7.81088 54.0792 7.91525C53.9823 8.01962 53.9079 8.14277 53.8604 8.27706C53.813 8.41136 53.7936 8.55395 53.8034 8.69603C53.8133 8.83811 53.8522 8.97665 53.9178 9.10309C53.4196 10.5652 52.9666 12.046 52.5856 13.5428C52.3316 14.5051 52.1016 15.4719 51.8956 16.4431C51.7224 17.2421 51.6424 18.1369 51.4479 18.9545C51.3782 19.0208 51.3213 19.0993 51.2801 19.1862L51.2481 19.2608C51.1268 19.4927 51.0797 19.7563 51.1131 20.0159C51.1464 20.2754 51.2587 20.5185 51.4347 20.7123C51.4507 20.7309 51.464 20.7496 51.48 20.7656C51.6676 20.9522 51.9114 21.0719 52.1739 21.1061C52.4363 21.1403 52.7029 21.087 52.9321 20.9546C53.782 20.422 53.7313 19.4392 53.9125 18.5577C54.1292 17.4178 54.3761 16.2842 54.6532 15.1567C54.8264 14.4483 55.0182 13.7479 55.2154 13.0474C55.2846 13.5428 55.3486 14.0408 55.4258 14.5255C55.7669 16.6322 56.1958 18.7228 56.6914 20.8002C56.9578 21.9108 58.7776 21.972 59.0041 20.8002C59.9153 16.0596 61.0014 11.3545 62.2626 6.68486C62.6622 5.20142 60.3495 4.55425 59.9392 6.05633Z" fill="#992965"/>
<path d="M48.4373 4.43677C47.6042 9.76331 46.7685 15.0898 45.9301 20.4164C45.7659 20.5569 45.6431 20.7395 45.5751 20.9446C45.507 21.1497 45.4962 21.3695 45.5438 21.5802C45.6025 21.8625 45.6584 22.1422 45.717 22.4245C45.9408 23.543 47.8484 23.5963 48.0269 22.4245C48.9346 16.6452 49.8422 10.8659 50.7498 5.08659C50.9869 3.56587 48.6771 2.91604 48.4373 4.43677Z" fill="#992965"/>
<path d="M74.7982 11.0205L67.9429 11.4493C66.4109 11.5452 66.4003 13.9421 67.9429 13.8463L73.0051 13.5293C72.1161 15.4117 70.9553 17.1534 69.5601 18.6987C68.878 19.4631 67.6418 20.8293 66.5015 20.8293C65.3611 20.8293 65.1826 18.0356 65.124 17.1514C64.9647 14.3378 65.5143 11.5292 66.7226 8.98312C67.2574 7.84143 67.881 6.74347 68.5877 5.69932C69.3203 4.60472 70.1862 3.26244 71.553 2.97214C73.0637 2.65255 72.4244 0.343478 70.9163 0.660407C69.2511 1.01196 68.1108 2.285 67.1383 3.59C65.9903 5.14225 65.0297 6.82466 64.2767 8.60226C62.806 12.0645 62.2173 16.0115 63.0965 19.7187C63.4349 21.1356 63.989 22.8401 65.601 23.181C67.1223 23.5166 68.7555 22.6084 69.8906 21.6869C72.6348 19.4577 74.8675 15.8544 75.9545 12.52C75.9993 12.3432 76.0034 12.1586 75.9663 11.98C75.9293 11.8015 75.8523 11.6337 75.7409 11.4893C75.6295 11.3449 75.4869 11.2277 75.3236 11.1465C75.1602 11.0653 74.9806 11.0222 74.7982 11.0205Z" fill="#992965"/>
</svg>
