<svg width="204" height="46" viewBox="0 0 204 46" fill="none" xmlns="http://www.w3.org/2000/svg">
<path d="M10.1561 19.6822L9.98293 19.7195C10.1654 16.5651 10.1601 13.4027 9.96693 10.2489C9.90032 9.15164 8.29909 8.5018 7.73425 9.64167C5.02729 15.1103 2.48459 20.6543 0.106232 26.2738C-0.487913 27.6773 1.57695 28.8998 2.17642 27.4829C2.74659 26.1353 3.32742 24.7913 3.91891 23.4508L7.3532 22.7236C7.15426 24.785 6.87097 26.8384 6.5033 28.8838C6.3449 28.9836 6.21144 29.1182 6.11308 29.2775C6.01472 29.4367 5.9541 29.6163 5.93582 29.8026C5.87045 30.3766 6.00396 30.9557 6.31414 31.4432C6.80171 32.2927 8.29639 32.1863 8.50421 31.1556C9.10232 28.1982 9.53553 25.2098 9.80177 22.2043L10.7956 21.9939C12.3036 21.6743 11.6641 19.3653 10.1561 19.6822ZM5.12319 20.7475C5.97045 18.8761 6.83546 17.0118 7.71825 15.1546C7.71825 16.8538 7.66404 18.5485 7.55569 20.2388L5.12319 20.7475Z" fill="#992965"/>
<path d="M58.7295 19.051L58.5537 19.0882C58.7428 15.9333 58.7428 12.7699 58.5537 9.61498C58.487 8.52038 56.8832 7.86787 56.3184 9.01042C53.6132 14.4772 51.0714 20.0204 48.693 25.6399C48.0989 27.0461 50.1637 28.2685 50.7632 26.8517C51.3334 25.5023 51.9142 24.1573 52.5057 22.8168L55.9373 22.0924C55.7384 24.1538 55.4551 26.2071 55.0874 28.2525C54.929 28.3523 54.7955 28.487 54.6971 28.6462C54.5988 28.8055 54.5382 28.9852 54.5199 29.1714C54.4553 29.7449 54.5898 30.3231 54.9009 30.8093C55.3884 31.6615 56.8832 31.555 57.091 30.5243C57.6876 27.5666 58.1208 24.5784 58.3886 21.5731L59.3796 21.3627C60.877 21.0431 60.2376 18.7314 58.7295 19.051ZM53.6966 20.1163C54.5438 18.2414 55.4089 16.3771 56.2917 14.5234C56.2917 16.219 56.2366 17.9137 56.1265 19.6076L53.6966 20.1163Z" fill="#992965"/>
<path d="M189.929 9.67073C190.785 9.64232 191.641 9.60061 192.495 9.54556H192.508L192.996 9.5163C194.523 9.40977 194.541 7.02615 192.996 7.11936C190.31 7.29691 187.623 7.36528 184.934 7.32444C183.388 7.29514 183.388 9.69209 184.934 9.72138C185.786 9.73736 186.639 9.72138 187.491 9.72138L184.79 24.8168C184.652 25.1666 184.59 25.5412 184.606 25.9167C184.606 27.2297 186.719 27.5972 186.961 26.2363C186.998 26.0366 187.033 25.8368 187.07 25.6371L187.126 25.3893C187.196 25.221 187.225 25.0383 187.209 24.8567C188.115 19.7947 189.022 14.7327 189.929 9.67073Z" fill="#992965"/>
<path d="M179.453 8.03814C178.691 10.8594 177.993 13.694 177.359 16.5419C177.292 16.1478 177.223 15.7563 177.162 15.3621C176.919 13.8041 176.746 12.2434 176.059 10.8346C176.157 10.5682 176.251 10.2806 176.352 10.0063C176.885 8.55479 174.572 7.93161 174.042 9.36711C174.005 9.46299 173.973 9.55889 173.938 9.65476C173.808 9.71261 173.691 9.79627 173.595 9.90074C173.498 10.0052 173.424 10.1282 173.377 10.2623C173.329 10.3964 173.31 10.5388 173.319 10.6807C173.329 10.8226 173.367 10.961 173.432 11.0876C172.934 12.5524 172.481 14.0305 172.1 15.5273C171.846 16.4896 171.616 17.4572 171.409 18.4302C171.236 19.2292 171.156 20.1214 170.962 20.939C170.893 21.0057 170.836 21.0842 170.794 21.1707L170.762 21.2453C170.641 21.4778 170.594 21.742 170.627 22.0022C170.661 22.2623 170.774 22.5058 170.951 22.6995L170.994 22.7527C171.182 22.9389 171.426 23.0581 171.688 23.0918C171.951 23.1255 172.217 23.0718 172.446 22.9391C173.299 22.4065 173.245 21.4237 173.426 20.5422C173.641 19.4023 173.888 18.2686 174.167 17.1412C174.34 16.4354 174.532 15.7323 174.729 15.0319C174.799 15.5299 174.862 16.0253 174.94 16.5127C175.281 18.6193 175.71 20.71 176.205 22.7847C176.472 23.8979 178.292 23.9592 178.518 22.7847C179.429 18.0476 180.515 13.3478 181.776 8.6853C182.171 7.18588 179.858 6.54937 179.453 8.03814Z" fill="#992965"/>
<path d="M89.9021 18.4413C90.4883 16.5051 88.9882 14.2733 87.7493 12.9204C86.3532 11.3943 84.5521 10.2571 82.7937 9.21305C81.5627 8.47533 80.4384 10.2011 81.3336 11.0907C80.7883 15.1566 80.2404 19.2234 79.6897 23.2911C79.3887 23.4296 79.0877 23.5574 78.7813 23.6906C78.7287 23.7061 78.6771 23.7248 78.6267 23.7465L78.1951 23.9356C76.9668 24.4683 77.8593 26.6388 79.1195 26.1275C81.3245 25.2527 83.424 24.1324 85.3781 22.7877C86.8648 21.7464 89.3453 20.2896 89.9021 18.4413ZM87.339 18.1057C86.9713 18.6997 86.0975 19.2403 85.554 19.6797C84.8693 20.231 84.1526 20.745 83.4225 21.2271C83.0442 21.4721 82.6622 21.7091 82.2768 21.9382L83.5477 12.5075C84.1908 12.9363 84.8009 13.4125 85.3728 13.9324C86.3106 14.8112 88.1756 16.7714 87.339 18.1057Z" fill="#992965"/>
<path d="M127.808 0.565346C127.531 0.412119 127.207 0.371185 126.901 0.451039C126.596 0.530893 126.332 0.725422 126.166 0.994161C124.863 2.94723 123.562 4.89584 122.263 6.84002L116.684 15.2C114.624 18.2894 112.561 21.3761 110.498 24.4602C108.59 27.301 106.677 30.1463 104.759 32.996C103.363 35.068 101.956 37.1329 100.538 39.1908L100.181 39.7047C100.023 39.9796 99.9784 40.306 100.059 40.6131C100.139 40.9202 100.337 41.1833 100.61 41.3454C100.887 41.4977 101.212 41.5378 101.517 41.4575C101.823 41.3772 102.086 41.1826 102.251 40.9139C103.584 38.9937 104.916 37.0548 106.216 35.1133C108.093 32.3381 109.964 29.5586 111.827 26.7746C113.893 23.6906 115.956 20.6047 118.016 17.5171L123.723 8.95998L127.885 2.72529L128.234 2.19263C128.389 1.9193 128.431 1.59635 128.351 1.29248C128.272 0.988604 128.077 0.727733 127.808 0.565346Z" fill="#992965"/>
<path d="M45.5465 9.23959C45.3326 9.37509 45.1562 9.56226 45.0338 9.78382C44.9113 10.0054 44.8467 10.2542 44.8458 10.5073C44.8544 10.8499 44.9913 11.1768 45.2294 11.4235C45.2108 11.5486 45.1921 11.6712 45.1707 11.7964C45.0855 12.3574 44.9967 12.9167 44.9043 13.4742C44.7125 14.5714 44.4968 15.6652 44.257 16.7553C43.7854 18.8859 43.2151 21.0166 42.5677 23.1126C42.3306 23.8796 42.0802 24.6439 41.8271 25.4056C41.3928 25.1233 40.9612 24.8383 40.5376 24.5401C40.193 24.3004 39.8536 24.0544 39.5197 23.8023C39.4543 23.7462 39.3858 23.6938 39.3146 23.6452L39.4132 23.7065L39.272 23.6106C39.1228 23.4934 38.9735 23.3762 38.827 23.2563C37.5774 22.247 36.3785 21.1764 35.1289 20.167C34.0419 19.2854 32.9282 18.4332 31.7985 17.6049C31.6159 17.495 31.4068 17.4369 31.1937 17.4369C30.9805 17.4369 30.7715 17.495 30.5889 17.6049C25.8171 20.3774 21.016 23.1418 16.468 26.2685L15.6899 26.8012C15.7246 26.6574 15.7539 26.5136 15.7912 26.3698C16.0923 25.134 16.4573 23.9169 16.8356 22.7051C17.6029 20.2522 18.4555 17.8233 19.0843 15.3331C19.432 13.9935 19.6717 12.6283 19.8011 11.2504C19.799 10.9332 19.6719 10.6295 19.4475 10.4052C19.2231 10.1809 18.9194 10.054 18.6021 10.0519C18.2865 10.0593 17.9858 10.188 17.7625 10.4111C17.5393 10.6343 17.4106 10.9349 17.4032 11.2504C17.3898 11.3862 17.3791 11.5167 17.3632 11.6579C17.3632 11.6925 17.3471 11.7963 17.3391 11.8735C17.3072 12.1399 17.2566 12.4222 17.2086 12.6938C17.102 13.2824 16.9742 13.8657 16.833 14.4463C16.5319 15.6794 16.1669 16.8992 15.7886 18.111C15.0186 20.5612 14.166 22.99 13.5399 25.4829C13.1909 26.8222 12.9512 28.1876 12.8231 29.5657C12.8237 29.8007 12.8942 30.0303 13.0256 30.2252C13.157 30.4201 13.3434 30.5715 13.5611 30.6602C13.78 30.7487 14.0197 30.7724 14.2516 30.7285C14.4836 30.6845 14.698 30.5749 14.8694 30.4126C15.0648 30.251 15.2619 30.0912 15.4608 29.9332L15.5541 29.8586L15.9404 29.5683C16.4226 29.2088 16.9103 28.8625 17.4032 28.519C18.5595 27.72 19.7371 26.9503 20.9227 26.1966C23.3792 24.6359 25.8757 23.1392 28.3829 21.669C29.2941 21.1364 30.2079 20.6037 31.1245 20.0711C31.4682 20.3374 31.8145 20.5851 32.1582 20.8461L32.2461 20.9154L32.3047 20.9606L32.6351 21.227L33.2559 21.7197C33.9407 22.271 34.6148 22.8356 35.2862 23.4055C36.5064 24.4442 37.7293 25.4749 39.0321 26.407C39.954 27.0648 40.8972 27.6774 41.8723 28.2713C42.0318 28.3608 42.2095 28.4133 42.3921 28.4248C42.5746 28.4362 42.7573 28.4065 42.9268 28.3376C43.0962 28.2688 43.248 28.1627 43.3708 28.0271C43.4936 27.8916 43.5843 27.7302 43.6362 27.5549C44.5713 24.8597 45.4265 22.1378 46.1139 19.368C46.447 18.0364 46.7401 16.7047 46.9986 15.3518C47.1282 14.6682 47.2498 13.982 47.3635 13.2931C47.4967 12.4941 47.6593 11.6951 47.7259 10.8961C47.7512 10.6467 47.7238 10.3947 47.6453 10.1566C47.5668 9.91844 47.439 9.69947 47.2703 9.51391C47.057 9.27919 46.7699 9.1241 46.4566 9.07424C46.1433 9.02438 45.8222 9.0827 45.5465 9.23959Z" fill="#992965"/>
<path d="M100.33 8.7495C100.021 8.24164 99.5785 7.82848 99.0503 7.55513C98.5222 7.28177 97.929 7.15878 97.3357 7.19953C96.0035 7.28741 94.9378 8.04376 94.1944 9.10907C92.6571 11.2876 92.897 14.2092 93.3312 16.6887C93.5444 17.9085 93.8215 19.115 93.9973 20.3401V20.356C93.9973 20.4306 94.016 20.5025 94.024 20.5745C94.04 20.705 94.0532 20.8408 94.0665 20.9633C94.0985 21.2616 94.1198 21.5598 94.1385 21.8581C94.1704 22.4334 94.1785 23.0086 94.1545 23.5866C94.1545 23.8529 94.1252 24.1379 94.0959 24.4149C94.0959 24.5214 94.0745 24.6306 94.0612 24.7398C94.0612 24.7638 94.0612 24.793 94.0612 24.8064C94.0479 24.8969 94.0319 24.9875 94.0159 25.0727C93.9211 25.6294 93.7831 26.178 93.603 26.7133C93.5577 26.8491 93.507 26.9796 93.4564 27.1234C93.4351 27.174 93.4138 27.2246 93.3951 27.2752C93.2646 27.5415 93.1447 27.8079 93.0008 28.0582C92.8569 28.3085 92.7344 28.5056 92.5851 28.7187L92.4893 28.8492L92.4626 28.8812C92.3747 28.985 92.2868 29.0889 92.1962 29.1874C92.1056 29.286 91.9804 29.4032 91.8685 29.5044L91.754 29.6056L91.7113 29.6429C91.7015 29.6512 91.6908 29.6583 91.6793 29.6642C91.5701 29.7414 91.4608 29.8133 91.3463 29.8826L91.1731 29.9784L91.032 30.0477H91.0132C90.92 30.0796 90.8268 30.1116 90.7335 30.1382C90.6403 30.1649 90.4404 30.1915 90.4671 30.1941C90.3544 30.2008 90.2414 30.2008 90.1287 30.1941H90.0834C90.0376 30.186 89.9922 30.1754 89.9475 30.1622C89.8516 30.1383 89.5691 30.0104 89.7983 30.1249C89.6712 30.0659 89.5484 29.9983 89.4306 29.9225L89.38 29.8879L89.2735 29.7973C89.2069 29.7334 89.1456 29.6642 89.0843 29.5949C89.1483 29.6535 88.9803 29.4085 88.943 29.3659C88.9057 29.3233 88.9217 29.2886 88.9084 29.2487C88.9084 29.2487 88.8792 29.1422 88.8792 29.0916C88.8792 29.0916 88.8792 29.0596 88.8792 29.0303C88.8891 28.9818 88.9014 28.9338 88.9164 28.8865C89.0012 28.58 88.9607 28.2523 88.8038 27.9756C88.6469 27.6989 88.3865 27.4958 88.0799 27.411C87.7732 27.3263 87.4454 27.3668 87.1685 27.5236C86.8917 27.6804 86.6886 27.9407 86.6038 28.2473C86.4484 28.8561 86.4706 29.4968 86.6679 30.0934C86.8653 30.6899 87.2295 31.2175 87.7174 31.6137C88.1983 32.0282 88.7711 32.3221 89.3882 32.4713C90.0054 32.6204 90.6492 32.6204 91.2664 32.4713C93.7202 31.8827 95.2629 29.4139 95.9663 27.1714C96.723 24.8064 96.6723 22.2736 96.3419 19.8421C96.1714 18.601 95.8917 17.3785 95.6732 16.1454C95.6172 15.8365 95.5665 15.5275 95.5212 15.2159C95.5212 15.176 95.492 14.9816 95.4894 14.9496C95.4681 14.7685 95.452 14.5847 95.4386 14.4036C95.3898 13.7677 95.3969 13.1287 95.46 12.4941C95.476 12.4009 95.4893 12.3076 95.508 12.2277C95.5426 12.052 95.5826 11.8762 95.6305 11.6951C95.6785 11.514 95.7318 11.3462 95.7957 11.1624L95.8383 11.0506L95.889 10.9414C96.0074 10.7005 96.1455 10.4698 96.3019 10.2516L96.3339 10.2143C96.4006 10.1424 96.4672 10.0679 96.5391 9.99862L96.6457 9.89739L96.699 9.8548C96.8136 9.78289 96.9333 9.71896 97.0479 9.64706C97.1092 9.63108 97.1705 9.60445 97.2345 9.58847L97.3384 9.56181H97.3863C97.4529 9.56181 97.5541 9.5485 97.6527 9.56181L97.7274 9.5858L97.8926 9.62839L97.9911 9.65772L98.0338 9.69231L98.1537 9.76689C98.1685 9.78316 98.1845 9.79827 98.2016 9.81214C98.2256 9.84943 98.2496 9.88676 98.2709 9.92671C98.3492 10.0649 98.454 10.1862 98.5795 10.2835C98.705 10.3808 98.8487 10.4522 99.0021 10.4936C99.1554 10.5349 99.3154 10.5454 99.4729 10.5244C99.6303 10.5034 99.7821 10.4513 99.9192 10.3712C100.056 10.2911 100.176 10.1846 100.272 10.0578C100.367 9.93099 100.437 9.78641 100.476 9.63256C100.515 9.4787 100.524 9.31862 100.5 9.16154C100.477 9.00446 100.423 8.85355 100.341 8.71758L100.33 8.7495ZM93.9999 20.3614C94.0292 20.5505 93.9999 20.4173 93.9999 20.3614V20.3614ZM88.8711 29.0223C88.8669 28.9968 88.8669 28.9707 88.8711 28.9451V29.0223ZM96.699 9.87339C96.7443 9.84143 96.7629 9.83344 96.699 9.87339V9.87339ZM97.6714 9.57781C97.6936 9.57605 97.7159 9.57605 97.7381 9.57781H97.6714ZM98.2043 9.86546C98.2256 9.88677 98.2443 9.90806 98.2443 9.91605L98.2043 9.86546Z" fill="#992965"/>
<path d="M203.608 7.62032C203.008 6.89591 201.961 6.62696 201.063 6.60299C200.039 6.57923 199.037 6.91249 198.231 7.54574C197.437 8.17234 196.874 9.04582 196.633 10.0279C196.405 11.1022 196.431 12.2148 196.71 13.2771C196.918 14.2146 197.243 15.1228 197.44 16.0603C197.488 16.2787 197.525 16.4997 197.562 16.7181C197.562 16.7447 197.562 16.7634 197.562 16.7767V16.8059C197.576 16.9258 197.589 17.0456 197.6 17.1628C197.633 17.5865 197.633 18.0122 197.6 18.4359C197.6 18.5371 197.581 18.6383 197.573 18.7395C197.589 18.5237 197.573 18.7235 197.557 18.822C197.52 19.0394 197.471 19.2545 197.411 19.4665C197.357 19.6556 197.291 19.8394 197.221 20.0258C197.203 20.0631 197.187 20.1031 197.168 20.143C197.115 20.2522 197.056 20.3614 196.995 20.4679C196.888 20.6514 196.771 20.8292 196.646 21.0006L196.609 21.0565L196.558 21.1125C196.486 21.1977 196.412 21.2829 196.334 21.3788C196.205 21.5135 196.069 21.6414 195.927 21.7623L195.855 21.8236C195.764 21.8848 195.673 21.9514 195.588 22.01C195.388 22.1378 195.178 22.239 194.967 22.3482C195.167 22.247 194.895 22.3722 194.818 22.3988C194.685 22.4441 194.552 22.4841 194.413 22.5187C194.275 22.5533 194.216 22.5613 194.115 22.5799C194.133 22.5799 193.926 22.5985 193.867 22.6012C193.739 22.6012 193.614 22.6012 193.489 22.6012H193.454L193.332 22.5826C193.212 22.5581 193.093 22.527 192.977 22.4894L192.831 22.4414C192.735 22.3908 192.636 22.3455 192.543 22.287L192.452 22.2284C192.436 22.2097 192.404 22.1858 192.372 22.1565C192.601 21.5732 192.106 20.8248 191.533 20.6863C190.84 20.5292 190.308 20.8994 190.057 21.5226C189.628 22.5879 190.323 23.6532 191.179 24.2551C192.053 24.8376 193.104 25.0958 194.149 24.9848C195.166 24.8692 196.141 24.5141 196.993 23.9488C197.846 23.3835 198.552 22.6241 199.055 21.733C200.075 19.9619 200.182 17.9112 199.854 15.9377C199.689 14.9763 199.377 14.0521 199.134 13.1093C199.076 12.8803 199.023 12.6486 198.977 12.4195C198.951 12.289 198.929 12.1532 198.908 12.0334C198.908 11.9615 198.892 11.8922 198.887 11.8203C198.871 11.5933 198.871 11.3655 198.887 11.1385C198.887 11.0852 198.919 10.8722 198.916 10.8722C198.937 10.7656 198.959 10.6618 198.988 10.5579C199.001 10.5126 199.073 10.2916 199.065 10.3076C199.109 10.2091 199.158 10.113 199.212 10.0199C199.262 9.93204 199.324 9.85215 199.377 9.76693C199.412 9.72964 199.441 9.68971 199.476 9.65509C199.55 9.57519 199.638 9.50859 199.713 9.42869L199.816 9.35944C199.93 9.28616 200.047 9.21947 200.168 9.15969L200.208 9.1437L200.325 9.10644C200.432 9.07182 200.538 9.04783 200.645 9.02386H200.741C200.867 9.01721 200.993 9.01721 201.119 9.02386H201.261H201.298C201.383 9.04251 201.514 9.07979 201.532 9.08511L201.66 9.12244H201.684L201.799 9.18635C201.836 9.23536 201.878 9.28083 201.924 9.32218C202.326 9.8069 203.208 9.76961 203.618 9.32218C203.837 9.0921 203.958 8.78637 203.956 8.4691C203.954 8.15184 203.829 7.84765 203.608 7.62032ZM192.255 22.0153L192.314 22.0819C192.313 22.0872 192.313 22.0926 192.314 22.0979C192.287 22.0739 192.255 22.0419 192.255 22.0153ZM201.21 8.99994C201.226 8.99685 201.242 8.99685 201.258 8.99994H201.21ZM201.823 9.19968C201.857 9.22099 201.884 9.23961 201.881 9.24494C201.879 9.25026 201.849 9.23164 201.823 9.19968Z" fill="#992965"/>
<path d="M74.4011 25.2673C72.0432 22.4762 69.7812 19.5147 67.2768 16.8301C68.3305 16.6227 69.3686 16.3424 70.3834 15.9912C71.6143 15.5571 73.9696 14.9738 73.847 13.2534C73.7511 11.7859 71.7156 11.1787 70.5566 10.8564C69.2324 10.4861 67.8495 10.3731 66.4828 10.5235C65.8673 10.0441 64.9002 10.0867 64.695 10.9656C64.5257 11.1382 64.4152 11.3599 64.3793 11.599C64.3434 11.8381 64.384 12.0825 64.4952 12.2972C64.3656 13.2436 64.2314 14.1899 64.0928 15.1362C63.9651 15.2233 63.8569 15.3359 63.7749 15.4669C63.6929 15.5979 63.6388 15.7445 63.6163 15.8974C63.5938 16.0503 63.6031 16.2062 63.6439 16.3553C63.6846 16.5043 63.7559 16.6433 63.8531 16.7635C63.3451 20.1974 62.806 23.6241 62.2359 27.0438C62.1848 27.1031 62.1385 27.1663 62.0973 27.2329C61.8775 27.567 61.7604 27.9581 61.7604 28.358C61.7604 28.758 61.8775 29.1492 62.0973 29.4833C62.5982 30.2823 64.1089 30.2823 64.2901 29.1956C64.8691 25.7813 65.4144 22.3608 65.926 18.9341C68.2893 21.5121 70.4553 24.3246 72.6853 26.9799L81.4776 37.4065C82.4714 38.5864 84.1607 36.8738 83.1722 35.7127L74.4011 25.2673ZM69.0938 12.9604C69.6914 13.0489 70.2812 13.1843 70.8576 13.3652C70.0573 13.6504 69.2426 13.894 68.417 14.0949C67.8185 14.2725 67.2136 14.418 66.6026 14.5317C66.6825 13.9777 66.7598 13.4212 66.8398 12.8645C67.5919 12.7911 68.3506 12.8233 69.0938 12.9604Z" fill="#992965"/>
<path d="M168.372 16.079L168.199 16.1163C168.381 12.9611 168.376 9.7977 168.183 6.64306C168.116 5.54846 166.515 4.89595 165.95 6.03849C163.243 11.5071 160.701 17.0502 158.322 22.6679C157.728 24.0715 159.793 25.2966 160.392 23.8771C160.963 22.5294 161.543 21.1854 162.135 19.8449L165.569 19.1178C165.37 21.1828 165.087 23.237 164.719 25.2806C164.561 25.3795 164.427 25.5136 164.329 25.6725C164.23 25.8314 164.17 26.0107 164.152 26.1968C164.086 26.7708 164.22 27.35 164.53 27.8374C165.018 28.6896 166.512 28.5831 166.72 27.5524C167.318 24.5949 167.751 21.6065 168.018 18.6011L169.012 18.3908C170.504 18.0712 169.875 15.7621 168.372 16.079ZM163.339 17.1443C164.186 15.2694 165.051 13.4051 165.934 11.5514C165.934 13.2471 165.88 14.9418 165.772 16.6356L163.339 17.1443Z" fill="#992965"/>
<path d="M142.203 16.028L135.348 16.4595C133.816 16.5554 133.805 18.9523 135.348 18.8565L140.41 18.5395C139.521 20.4219 138.36 22.1636 136.965 23.7089C136.283 24.4733 135.047 25.8396 133.906 25.8396C132.766 25.8396 132.588 23.0458 132.529 22.1616C132.369 19.348 132.919 16.5394 134.128 13.9933C134.662 12.8516 135.286 11.7536 135.993 10.7095C136.725 9.6149 137.591 8.27262 138.958 7.98232C140.469 7.66273 139.829 5.35103 138.321 5.67062C136.656 6.02217 135.516 7.29255 134.543 8.60022C133.396 10.1532 132.436 11.8355 131.682 13.6124C130.211 17.0747 129.622 21.0243 130.501 24.7316C130.84 26.1485 131.394 27.8503 133.006 28.1938C134.527 28.5294 136.16 27.6213 137.295 26.6998C140.04 24.4706 142.27 20.8672 143.359 17.5328C143.405 17.3557 143.409 17.1707 143.372 16.9917C143.335 16.8127 143.258 16.6444 143.147 16.4995C143.036 16.3546 142.893 16.2368 142.729 16.1552C142.566 16.0735 142.386 16.03 142.203 16.028Z" fill="#992965"/>
<path d="M167.501 42.3362C167.184 41.9021 166.829 41.2336 166.726 41.0845C166.345 40.5332 165.966 39.9845 165.591 39.4332C164.791 38.2578 164 37.0789 163.217 35.8964C161.607 33.4604 160.036 30.9987 158.501 28.5112C155.696 23.9677 153.022 19.346 150.478 14.6462C151.56 14.0499 152.582 13.3526 153.532 12.5635C154.51 11.7485 155.946 10.63 155.866 9.19983C155.714 6.4753 151.531 6.30483 149.13 6.44065C148.48 5.93463 147.191 6.23822 147.097 7.3488C146.547 13.7726 145.818 20.1769 144.91 26.5617C144.7 28.0424 146.876 28.7429 147.223 27.2008C147.417 26.3379 147.609 25.4777 147.803 24.6148C147.874 24.3296 147.835 24.0283 147.694 23.7706C148.028 21.2635 148.336 18.7547 148.616 16.2442C151.298 21.1712 154.122 26.0183 157.089 30.7856C158.687 33.3352 160.317 35.86 161.978 38.36C162.866 39.6792 163.758 40.9904 164.655 42.2936C165.321 43.2551 165.988 44.8077 167.256 45.0287C167.511 45.0882 167.779 45.0672 168.022 44.9685C168.264 44.8697 168.471 44.6982 168.612 44.4775C168.799 44.1964 168.875 43.8561 168.826 43.5222C168.777 43.1883 168.606 42.8844 168.346 42.6691C168.115 42.4573 167.814 42.3387 167.501 42.3362ZM149.362 8.8376C149.991 8.80875 150.622 8.82655 151.249 8.89085C151.808 8.95477 152.336 9.0933 152.882 9.19716C153.566 9.325 153.476 9.31968 153.015 9.80173C151.84 10.9894 150.481 11.9788 148.989 12.7313C149.122 11.4299 149.247 10.1319 149.362 8.8376Z" fill="#992965"/>
</svg>
