<svg width="175" height="41" viewBox="0 0 175 41" fill="none" xmlns="http://www.w3.org/2000/svg">
<path d="M32.6912 7.14072C31.9949 8.95884 31.3733 10.8009 30.8262 12.667C30.3386 12.7522 29.8537 12.8322 29.3635 12.9041L30.8421 8.44836C31.327 6.9809 29.0117 6.34973 28.5295 7.81187C27.9309 9.61401 27.3323 11.4188 26.7337 13.2263L26.065 13.2929C24.5916 13.4154 24.533 15.6526 25.9184 15.6898L23.6884 22.4279C23.6671 22.4598 23.6458 22.4918 23.6272 22.5264C23.3961 22.9059 23.2821 23.345 23.2994 23.7888C23.3154 25.1684 25.2337 25.3868 25.6547 24.1057C26.6138 21.2134 27.5721 18.3203 28.5295 15.4262C29.0624 15.3605 29.5997 15.2859 30.1414 15.2024L30.1094 15.3276C29.7773 16.6788 29.4869 18.0379 29.2382 19.4051C29.121 20.0496 29.0135 20.695 28.9158 21.3413C28.8785 21.589 28.8679 22.6729 28.7373 23.1043C27.922 23.637 27.7968 25.0512 28.9744 25.235C30.4558 25.4613 30.8981 24.3987 31.066 23.1203C31.3004 21.3626 31.605 19.6155 31.9798 17.879C32.7279 14.4423 33.7379 11.0678 35.0011 7.78521C35.5553 6.33639 33.2374 5.71321 32.6912 7.14072Z" fill="#992965"/>
<path d="M158.706 4.25923C158.011 6.07558 157.39 7.91678 156.841 9.78284C156.353 9.87073 155.866 9.948 155.378 10.0199C155.87 8.53558 156.362 7.05037 156.854 5.56427C157.342 4.09681 155.026 3.46824 154.544 4.92771C153.946 6.73341 153.347 8.53824 152.749 10.3422C152.527 10.3635 152.304 10.3901 152.08 10.4087C150.606 10.5312 150.548 12.7684 151.933 12.8057C151.191 15.0517 150.446 17.2977 149.7 19.5438C149.682 19.5757 149.661 19.6076 149.642 19.6423C149.41 20.0213 149.296 20.4607 149.314 20.9047C149.33 22.2842 151.248 22.5027 151.669 21.2243L154.544 12.5447C155.077 12.4754 155.614 12.4 156.156 12.3183L156.124 12.4434C155.792 13.7928 155.502 15.152 155.253 16.5209C155.136 17.1654 155.028 17.8108 154.931 18.4571C154.893 18.7048 154.883 19.7888 154.752 20.2202C153.937 20.7529 153.811 22.1671 154.989 22.3509C156.47 22.5772 156.913 21.5145 157.081 20.2362C157.315 18.4784 157.62 16.7313 157.995 14.9949C158.742 11.558 159.752 8.18359 161.016 4.90112C161.57 3.4523 159.252 2.82905 158.706 4.25923Z" fill="#992965"/>
<path d="M133.344 11.7642L133.168 11.8014C133.356 8.64647 133.356 5.48312 133.168 2.32816C133.099 1.23356 131.498 0.583718 130.933 1.7236C128.229 7.19218 125.687 12.7363 123.305 18.3558C122.711 19.7593 124.776 20.9817 125.378 19.5648C125.948 18.2137 126.528 16.8696 127.118 15.5327L130.552 14.8056C130.353 16.867 130.07 18.9203 129.702 20.9657C129.544 21.0655 129.41 21.2002 129.312 21.3594C129.213 21.5187 129.153 21.6983 129.134 21.8846C129.069 22.4578 129.202 23.0361 129.513 23.5225C130 24.3747 131.498 24.2682 131.706 23.2375C132.303 20.28 132.735 17.2917 133 14.2863L133.994 14.0759C135.489 13.7563 134.852 11.4446 133.344 11.7642ZM128.311 12.8295C129.159 10.9545 130.024 9.09025 130.906 7.23662C130.906 8.93223 130.851 10.6269 130.741 12.3208L128.311 12.8295Z" fill="#992965"/>
<path d="M60.9916 19.3651C58.6364 16.574 56.3744 13.6125 53.8699 10.9279C54.9228 10.7209 55.96 10.4406 56.9738 10.089C58.2047 9.65755 60.56 9.07162 60.4374 7.35115C60.3442 5.88369 58.3059 5.27647 57.147 4.95421C55.8237 4.5838 54.4418 4.47078 53.0759 4.6213C52.4605 4.14458 51.4906 4.1845 51.2882 5.06605C51.1181 5.23825 51.007 5.46003 50.9711 5.69935C50.9352 5.93867 50.9763 6.18317 51.0883 6.39768C50.9551 7.34403 50.8209 8.29042 50.686 9.23677C50.5586 9.32441 50.4506 9.4373 50.3688 9.56844C50.2869 9.69958 50.2329 9.84613 50.2102 9.99901C50.1875 10.1519 50.1965 10.3078 50.2366 10.4571C50.2767 10.6064 50.3472 10.7458 50.4436 10.8667C49.9356 14.2969 49.3964 17.7228 48.8263 21.1442C48.7761 21.2036 48.7307 21.2668 48.6904 21.3333C48.4696 21.6671 48.3519 22.0584 48.3519 22.4586C48.3519 22.8587 48.4696 23.25 48.6904 23.5838C49.1887 24.3827 50.6993 24.3827 50.8804 23.2961C51.4595 19.8818 52.0057 16.4613 52.519 13.0346C54.8796 15.6126 57.0484 18.425 59.2784 21.0803L68.0707 31.507C69.0672 32.6868 70.7563 30.9744 69.7652 29.8132L60.9916 19.3651ZM55.6843 7.05817C56.2776 7.15004 56.8629 7.28807 57.4347 7.47099C56.6352 7.75612 55.8216 7.99969 54.9969 8.20072C54.3974 8.37117 53.7899 8.51768 53.1797 8.63753C53.2597 8.08357 53.3387 7.52783 53.4169 6.97032C54.173 6.89295 54.9364 6.92249 55.6843 7.05817Z" fill="#992965"/>
<path d="M79.1943 16.7979C75.1801 17.3306 71.1498 17.7106 67.1036 17.9378C67.3541 16.3292 67.6062 14.7223 67.8602 13.1173C70.9366 12.8971 74.0069 12.5989 77.0709 12.2225C78.5816 12.036 78.6029 9.63643 77.0709 9.82552C74.1348 10.1806 71.1916 10.47 68.2413 10.6937L68.8168 7.02909C71.5753 6.81602 74.3284 6.54079 77.0762 6.20345C78.5869 6.01702 78.6082 3.61741 77.0762 3.8065C73.6766 4.2273 70.2671 4.55137 66.8478 4.77864C65.4864 4.86919 65.3291 6.77337 66.3949 7.1196C65.7785 11.0417 65.1622 14.9647 64.5458 18.8886C64.4313 19.613 64.8495 20.4466 65.7021 20.4067C70.2173 20.1972 74.7165 19.7932 79.1996 19.1949C80.6997 18.9978 80.721 16.6009 79.1943 16.7979Z" fill="#992965"/>
<path d="M20.667 5.06079C16.7652 5.95706 13.0347 7.47984 9.62065 9.56975C6.44476 11.5193 2.97849 14.0813 0.855021 17.192C-0.0854883 18.5662 -0.43985 20.4572 0.783078 21.7915C1.84881 22.9606 3.52199 23.1791 5.02467 23.2163C9.75653 23.3282 14.5363 22.8195 19.1936 22.0019C20.7122 21.7355 20.0675 19.4265 18.5568 19.6902C14.7725 20.3573 10.9422 20.7313 7.1002 20.8087C5.95187 20.83 3.85771 21.1629 2.83727 20.4012C1.40119 19.3173 3.9936 17.1441 4.78491 16.3664C9.35712 11.9045 15.0737 8.792 21.3038 7.37255C22.8064 7.01301 22.1696 4.7119 20.667 5.06079Z" fill="#992965"/>
<path d="M43.8174 5.05264C43.1389 5.10216 42.4782 5.29267 41.8776 5.61195C41.3448 5.19915 40.5455 5.16183 40.1405 5.9182C39.5186 7.08826 38.9627 8.29217 38.4753 9.52428C37.9201 10.6856 37.5077 11.9099 37.2471 13.1703C37.2374 13.2161 37.2302 13.2622 37.2257 13.3088C36.8475 14.7268 36.5628 16.1681 36.3732 17.6233C36.1574 19.3198 36.1334 21.2054 37.3083 22.5876C38.3927 23.8633 40.1246 24.348 41.6246 23.5038C44.7579 21.7327 45.6691 17.1386 46.2765 13.916C46.7081 11.6176 47.8831 4.75435 43.8174 5.05264ZM44.3049 9.97175C44.2896 10.9191 44.2005 11.8639 44.0385 12.7974C43.7559 14.4806 43.3433 16.1395 42.8048 17.7592C42.4371 18.8724 41.51 21.4877 40.0393 21.557C38.113 21.6475 38.6752 18.1693 38.8324 17.1572C39.1981 14.8378 39.8237 12.5668 40.6974 10.3872C40.796 10.1981 40.8999 10.0117 41.0145 9.82793C41.3789 9.21973 41.8458 8.67911 42.3945 8.22997C42.621 8.04886 43.7507 7.19395 44.0518 7.43099C44.4674 7.7559 44.3103 9.51367 44.3049 9.97175Z" fill="#992965"/>
<path d="M107.178 11.7085L100.325 12.1373C98.7904 12.2331 98.7798 14.6301 100.325 14.5342L105.387 14.2173C104.499 16.1 103.338 17.8418 101.942 19.3867C101.26 20.151 100.024 21.5173 98.8836 21.5173C97.7433 21.5173 97.5515 18.7235 97.5062 17.8393C97.3466 15.0266 97.8963 12.2188 99.1048 9.67375C99.641 8.53195 100.265 7.43318 100.97 6.38725C101.705 5.29265 102.568 3.95036 103.938 3.66006C105.446 3.34314 104.807 1.03144 103.299 1.34837C101.633 1.69992 100.493 2.97296 99.5204 4.27796C98.3734 5.83087 97.4131 7.51319 96.659 9.29025C95.191 12.7525 94.5994 16.6995 95.4813 20.4067C95.817 21.8236 96.3712 23.5281 97.9831 23.869C99.5071 24.2046 101.138 23.2964 102.273 22.3749C105.02 20.1484 107.25 16.5423 108.337 13.2079C108.382 13.031 108.386 12.8461 108.348 12.6674C108.311 12.4887 108.234 12.3207 108.122 12.1762C108.011 12.0318 107.868 11.9146 107.704 11.8336C107.54 11.7525 107.36 11.7097 107.178 11.7085Z" fill="#992965"/>
<path d="M132.476 38.0241C132.161 37.5873 131.804 36.9188 131.7 36.7697L130.565 35.1185C129.766 33.9466 128.976 32.7686 128.194 31.5843C126.583 29.1465 125.01 26.6839 123.476 24.1964C120.669 19.6529 117.996 15.0312 115.456 10.3314C116.536 9.73508 117.558 9.03772 118.507 8.24871C119.487 7.44973 120.923 6.3152 120.84 4.88503C120.689 2.1605 116.506 1.99003 114.105 2.12585C113.458 1.62249 112.168 1.92615 112.072 3.03673C111.523 9.46054 110.795 15.8648 109.887 22.2495C109.674 23.7303 111.854 24.4308 112.197 22.8861C112.392 22.0259 112.586 21.1629 112.778 20.3027C112.85 20.0167 112.811 19.7141 112.669 19.4558C113.005 16.9523 113.312 14.4444 113.591 11.932C116.276 16.8591 119.102 21.7054 122.066 26.4708C123.654 29.0223 125.284 31.547 126.955 34.0452C127.843 35.3626 128.731 36.6738 129.619 37.9788C130.288 38.9429 130.952 40.4929 132.223 40.714C132.477 40.7744 132.744 40.754 132.987 40.6557C133.229 40.5574 133.435 40.386 133.576 40.1653C133.764 39.884 133.84 39.5431 133.791 39.2086C133.742 38.8741 133.57 38.5697 133.309 38.3543C133.081 38.1472 132.784 38.0299 132.476 38.0241ZM114.34 4.51746C114.969 4.4873 115.599 4.50515 116.226 4.57078C116.783 4.63204 117.31 4.77316 117.859 4.87436C118.541 5.0022 118.451 4.99688 117.99 5.47893C116.814 6.66483 115.456 7.654 113.967 8.40853C114.096 7.12306 114.221 5.82602 114.34 4.51746Z" fill="#992965"/>
<path d="M149.426 7.68688C150.47 6.84529 151.763 5.70805 151.8 4.26189C151.845 2.52544 150.063 1.76907 148.675 1.33229C147.453 0.951394 146.173 0.788277 144.894 0.850293C144.747 0.675375 144.548 0.552124 144.326 0.498723C144.02 0.420388 143.695 0.464064 143.42 0.620573C143.145 0.777081 142.942 1.03416 142.853 1.33763L138.193 19.8607C138.049 20.2916 137.959 20.739 137.927 21.1923C137.932 21.5514 138.075 21.8948 138.325 22.1519C138.576 22.409 138.916 22.5603 139.275 22.5745C139.997 22.6065 140.567 21.9087 140.565 21.2429C140.567 21.0587 140.526 20.8765 140.447 20.7102L140.466 20.6303C140.551 20.2894 140.639 19.9459 140.732 19.6023L141.201 17.7381C141.521 16.4739 141.839 15.2088 142.155 13.9429C142.37 13.0907 142.584 12.2393 142.797 11.3888C145.123 10.3634 147.425 9.2955 149.426 7.68688ZM140.327 21.1736C140.325 21.2043 140.32 21.2346 140.311 21.2642C140.309 21.2338 140.311 21.2032 140.319 21.1736H140.327ZM149.426 4.28055C149.469 4.3205 149.45 4.30985 149.426 4.28322V4.28055ZM149.389 4.23263C149.389 4.23263 149.389 4.21396 149.389 4.20864C149.388 4.2177 149.386 4.22668 149.383 4.2353L149.389 4.23263ZM148.701 3.87573C148.672 3.86774 148.573 3.81714 148.696 3.8784L148.701 3.87573ZM145.888 3.22591L146.303 3.25783C146.351 3.25783 146.615 3.30048 146.57 3.28982C146.868 3.34043 147.167 3.39634 147.46 3.47091C147.753 3.54548 147.993 3.62009 148.259 3.71064C148.412 3.76391 148.561 3.8198 148.707 3.8784C148.789 3.91302 148.872 3.95028 148.952 3.99023C149.057 4.04 149.159 4.09514 149.258 4.15539L149.346 4.2113L149.373 4.23263L149.357 4.28855C149.298 4.37644 149.245 4.46965 149.189 4.55488C149.124 4.62536 149.063 4.69917 149.005 4.77595C148.904 4.88248 148.803 4.98899 148.696 5.09286C148.515 5.27396 148.326 5.44974 148.134 5.62552C148.025 5.72406 147.913 5.81729 147.798 5.9105L147.569 6.09159C146.692 6.73783 145.764 7.31059 144.793 7.80405C144.374 8.01978 143.948 8.22487 143.522 8.42461L144.055 6.26467L144.822 3.21258H144.905C145.237 3.20548 145.563 3.21082 145.883 3.22857L145.888 3.22591Z" fill="#992965"/>
<path d="M85.6927 19.445L85.746 19.4584L85.6899 19.4424L85.6927 19.445Z" fill="#992965"/>
<path d="M91.1147 3.28452C90.5876 2.94156 89.9937 2.7146 89.3722 2.6187C89.2774 2.47204 89.1485 2.35049 88.9965 2.26446C88.3623 1.93155 87.7655 2.16063 87.3552 2.69594C87.3126 2.74921 87.2726 2.80777 87.2326 2.8637C86.8679 3.01234 86.5282 3.21626 86.2256 3.46827C86.0583 3.63194 85.9436 3.84176 85.8962 4.07088C85.8487 4.3 85.8706 4.53804 85.9591 4.75465C84.725 6.81304 83.8173 9.05004 83.2681 11.3862C82.8954 12.9745 82.6874 14.5971 82.6473 16.228C82.6127 17.6529 82.5941 19.3493 83.46 20.5638C83.7238 20.9499 84.0735 21.2697 84.4817 21.4979C84.8899 21.7262 85.3455 21.8568 85.8127 21.8795C86.6815 21.8807 87.5257 21.591 88.2106 21.0565C89.5427 20.0791 90.5604 18.6383 91.3677 17.2108C92.1502 15.8332 92.7393 14.3545 93.1182 12.8164C93.523 11.2644 93.675 9.65737 93.5685 8.05707C93.4006 6.21409 92.7346 4.34982 91.1147 3.28452ZM85.4023 19.1869L85.4822 19.2828C85.4582 19.2801 85.429 19.2375 85.4023 19.1896V19.1869ZM91.1679 9.86544C91.1545 10.0519 91.1386 10.2357 91.1173 10.4194C91.1173 10.4727 91.0853 10.6857 91.0826 10.715C91.032 11.0586 90.9708 11.4022 90.8988 11.7404C90.7548 12.4084 90.5688 13.0666 90.342 13.7112C90.2861 13.8683 90.2274 14.0255 90.1687 14.1799C90.1421 14.2492 90.1128 14.3184 90.0861 14.385L90.0649 14.4383V14.4569C89.921 14.7792 89.7771 15.0988 89.6173 15.4104C89.2961 16.035 88.9347 16.6382 88.5355 17.2161C88.4503 17.3359 88.365 17.4584 88.2691 17.5756L88.1705 17.7088L88.0507 17.8606C87.8384 18.1318 87.6106 18.3905 87.3686 18.6356C87.254 18.7501 87.1314 18.8593 87.0089 18.9658L86.9369 19.0245L86.8197 19.107C86.6705 19.2055 86.5159 19.2881 86.3614 19.3733H86.3481C86.3002 19.3946 86.2256 19.4133 86.2762 19.3973L86.0738 19.4585H86.0471C85.9859 19.4532 85.9244 19.4532 85.8633 19.4585H85.8445L85.7461 19.4293C85.786 19.4453 85.746 19.4293 85.6927 19.416H85.6554H85.69H85.6741L85.5808 19.352L85.5089 19.2881L85.4502 19.2269L85.4023 19.1682C85.3624 19.0963 85.325 19.0031 85.3063 18.9685C85.285 18.9125 85.2664 18.8567 85.2478 18.8007C85.2063 18.6694 85.1716 18.5361 85.1438 18.4012C85.1438 18.3426 85.1226 18.2787 85.1092 18.2201C85.1092 18.2042 85.1092 18.1935 85.1092 18.1828C85.0529 17.5133 85.035 16.841 85.0559 16.1694C85.0745 15.4743 85.1252 14.7792 85.2105 14.0894C85.2105 14.0548 85.2265 13.9589 85.2318 13.9296C85.2371 13.9003 85.2317 13.839 85.2504 13.7938C85.277 13.626 85.3037 13.4582 85.333 13.2931C85.3943 12.9416 85.4636 12.5899 85.5409 12.2411C85.7141 11.4705 85.9275 10.7096 86.1803 9.96135C86.3082 9.58583 86.4467 9.21559 86.5906 8.84806C86.6173 8.77881 86.6465 8.70962 86.6758 8.64038L86.7078 8.5578C86.7162 8.54239 86.7233 8.52638 86.7292 8.50988C86.8171 8.32345 86.897 8.13167 86.9956 7.94524C87.4861 6.90027 88.0571 5.89496 88.7034 4.9384L88.8526 4.95172H88.9379H88.9725C89.1164 4.98901 89.2602 5.01829 89.4014 5.06623H89.436C89.462 5.07169 89.4872 5.08067 89.5107 5.09289L89.572 5.11421C89.5538 5.10926 89.536 5.10301 89.5187 5.09555H89.5321C89.6786 5.17545 89.8224 5.25 89.961 5.34322C89.9929 5.36452 90.0436 5.40715 90.0649 5.42313L90.1075 5.46039C90.2087 5.55094 90.2914 5.65483 90.3873 5.74804H90.4006L90.4192 5.77736L90.5338 5.95045C90.627 6.09427 90.7043 6.24606 90.7842 6.39786L90.8109 6.44845L90.8828 6.6376C90.9334 6.78407 90.9787 6.9332 91.0186 7.08234C91.0586 7.23148 91.0933 7.38861 91.1226 7.54308C91.1226 7.59901 91.1439 7.65758 91.1519 7.71617L91.1785 7.90265C91.2311 8.55869 91.2275 9.218 91.1679 9.87344V9.86544Z" fill="#992965"/>
<path d="M89.498 5.12744L89.4227 5.10059L89.498 5.12744Z" fill="#992965"/>
<path d="M86.3487 19.3865L86.2761 19.4107L86.3487 19.3865Z" fill="#992965"/>
<path d="M174.327 0.418522C173.885 0.0137056 173.061 -0.0954885 172.633 0.418522C170.44 3.04184 168.687 5.96877 167.128 8.99957C167.072 8.39234 167.024 7.7665 166.971 7.09536C166.814 5.1272 166.627 3.1404 166.094 1.23616C166.052 1.08437 165.981 0.942319 165.884 0.818078C165.788 0.693837 165.667 0.589801 165.53 0.512023C165.393 0.434245 165.243 0.384224 165.086 0.36475C164.93 0.345276 164.771 0.356766 164.62 0.398561C164.468 0.440356 164.326 0.511619 164.201 0.608319C164.077 0.70502 163.973 0.82528 163.895 0.962165C163.817 1.09905 163.767 1.2499 163.748 1.40613C163.728 1.56236 163.74 1.72087 163.782 1.87266C163.915 2.34672 164.028 2.82615 164.12 3.31086C164.163 3.53191 164.203 3.75563 164.24 3.97668L164.296 4.34418L164.317 4.49334C164.44 5.4388 164.517 6.39224 164.584 7.34569C164.69 9.16513 164.916 10.9756 165.26 12.7655C164.235 14.8961 163.238 17.0453 162.226 19.1812L159.428 25.0751C159.162 25.6424 159.252 26.4067 159.857 26.7156C160.39 26.9979 161.211 26.8915 161.498 26.2869L166.406 15.9401C167.885 12.8267 169.337 9.68934 171.108 6.72246C171.593 5.91016 172.102 5.10852 172.643 4.32552C172.923 3.9207 173.211 3.52653 173.509 3.12438L173.658 2.92997C173.68 2.906 173.813 2.7356 173.831 2.71163C173.991 2.51188 174.154 2.31214 174.319 2.11506C174.737 1.633 174.833 0.887258 174.327 0.418522Z" fill="#992965"/>
</svg>
