<svg width="165" height="24" viewBox="0 0 165 24" fill="none" xmlns="http://www.w3.org/2000/svg">
<path d="M132.061 2.08853L114.09 1.51855C113.384 1.61202 112.74 1.97109 112.289 2.52261L107.813 17.4769C107.766 17.6548 107.761 17.8409 107.797 18.0211C107.833 18.2014 107.91 18.3711 108.021 18.5174C108.132 18.6636 108.276 18.7826 108.44 18.8654C108.604 18.9481 108.785 18.9924 108.969 18.995L118.8 18.9816H123.458C124.681 18.9816 126.418 19.3199 127.473 18.5688C128.72 17.6819 127.523 15.6019 126.261 16.4994C125.882 16.7658 124.942 16.5847 124.491 16.5847H122.163H117.767H110.573C111.106 14.8092 111.639 13.0337 112.172 11.2581C117.598 11.9752 123.061 12.3789 128.533 12.4673C130.078 12.4886 130.078 10.0916 128.533 10.0703C123.292 9.99209 118.06 9.61865 112.862 8.95178C113.363 7.27215 113.865 5.59247 114.37 3.91283L132.058 4.47214C133.603 4.5334 133.603 2.13647 132.061 2.08853Z" fill="#992965"/>
<path d="M96.5986 0.0643363C93.9165 0.241888 91.229 0.30936 88.5363 0.266747C86.9936 0.240115 86.9936 2.63706 88.5363 2.66369C89.3915 2.67967 90.2442 2.67967 91.0968 2.66369L88.3951 17.7565C88.2576 18.1062 88.1949 18.4809 88.2113 18.8564C88.2113 20.1694 90.3241 20.5369 90.5665 19.176C90.6038 18.9762 90.6385 18.7765 90.6758 18.5767L90.7317 18.3291C90.8013 18.1606 90.8296 17.978 90.8143 17.7964C91.7202 12.7362 92.627 7.67598 93.5346 2.61577C94.3899 2.58381 95.2451 2.54387 96.1003 2.4906H96.1137L96.5986 2.46128C98.1279 2.35475 98.1466 -0.0315414 96.5986 0.0643363Z" fill="#992965"/>
<path d="M105.583 2.61577C106.44 2.58381 107.296 2.54387 108.151 2.4906H108.164L108.649 2.46128C110.179 2.35475 110.197 -0.0315414 108.649 0.0643363C105.964 0.241888 103.276 0.30936 100.587 0.266747C99.0443 0.240115 99.0443 2.63706 100.587 2.66369C101.442 2.67967 102.295 2.67967 103.147 2.66369L100.446 17.7485C100.306 18.0975 100.243 18.4728 100.262 18.8484C100.262 20.1614 102.372 20.5289 102.617 19.168L102.724 18.5687L102.782 18.3211C102.851 18.1524 102.879 17.9698 102.862 17.7884C103.772 12.7317 104.678 7.6742 105.583 2.61577Z" fill="#992965"/>
<path d="M148.26 1.72107L136.27 2.31237C135.234 2.36297 134.895 3.46821 135.258 4.16066L133.26 16.8671C133.145 17.5915 133.563 18.4224 134.416 18.3825C138.931 18.1748 143.43 17.7717 147.913 17.1734C149.419 16.9709 149.44 14.5713 147.913 14.7764C143.897 15.3091 139.867 15.6881 135.823 15.9136C136.077 14.3157 136.329 12.7098 136.579 11.0958C139.656 10.8721 142.726 10.5729 145.79 10.1983C147.303 10.0118 147.322 7.61224 145.79 7.80133C142.854 8.15643 139.911 8.44584 136.96 8.66956C137.17 7.32727 137.381 5.98584 137.594 4.64533L148.252 4.11268C149.794 4.04077 149.805 1.64383 148.26 1.72107Z" fill="#992965"/>
<path d="M74.6203 1.04465C71.9933 3.70792 70.8051 7.19413 69.3717 10.5552C69.4085 8.28969 69.5775 6.02824 69.8779 3.78243C70.0431 2.56532 68.3645 1.52665 67.6877 2.85829C65.7339 6.70937 63.9196 10.628 62.2446 14.614C61.6478 16.0335 63.9657 16.654 64.5571 15.2505C65.3387 13.3915 66.1558 11.5468 67.0084 9.7162C66.9418 11.6018 66.9577 13.4901 67.0696 15.3863C67.0773 15.6458 67.1682 15.896 67.3291 16.0998C67.4899 16.3036 67.7122 16.4503 67.9629 16.5181C68.2136 16.5859 68.4793 16.5712 68.7211 16.4763C68.9628 16.3813 69.1676 16.2111 69.3051 15.9909C70.8397 13.578 71.7429 10.7762 72.9045 8.14224C72.0634 12.884 71.5842 17.6828 71.4711 22.4972C71.4338 24.0739 73.7012 23.994 73.869 22.4972C73.9063 22.1404 73.9463 21.7835 73.9862 21.4319C74.0086 21.2518 73.9867 21.069 73.9224 20.8993C74.1802 14.5973 75.0855 8.33864 76.6239 2.22179C76.9117 1.0686 75.4782 0.173761 74.6203 1.04465Z" fill="#992965"/>
<path d="M81.0388 1.1694C80.204 6.49593 79.3682 11.8225 78.5316 17.149C78.367 17.2886 78.2438 17.4707 78.1757 17.6755C78.1076 17.8803 78.097 18.0998 78.1453 18.3102C78.2039 18.5925 78.2599 18.8748 78.3158 19.1571C78.5423 20.273 80.4473 20.3263 80.6285 19.1571C81.5362 13.3778 82.4437 7.59851 83.3514 1.81922C83.5992 0.295829 81.2786 -0.353993 81.0388 1.1694Z" fill="#992965"/>
<path d="M29.5132 0.716795C28.835 0.767616 28.1747 0.958055 27.5737 1.27611C27.0408 0.863301 26.2415 0.828655 25.8365 1.58502C25.2141 2.75392 24.6582 3.95697 24.1713 5.18843C23.6169 6.35007 23.2044 7.57427 22.9429 8.8345C22.9334 8.88116 22.9263 8.92821 22.9216 8.9756C22.5434 10.3927 22.2587 11.8331 22.0691 13.2875C21.8506 14.984 21.8293 16.8722 23.0042 18.2544C24.0886 19.5275 25.8204 20.0149 27.3178 19.1679C30.4537 17.3995 31.3649 12.8027 31.9724 9.58016C32.3934 7.27377 33.5683 0.421172 29.5132 0.716795ZM30.0008 5.63591C29.9856 6.58419 29.8965 7.52981 29.7344 8.46427C29.4514 10.1465 29.039 11.8045 28.5008 13.4233C28.1332 14.5366 27.2059 17.1519 25.7352 17.2211C23.8089 17.3143 24.3711 13.8361 24.5283 12.8241C24.8936 10.5045 25.5192 8.2335 26.3933 6.054C26.4919 5.8649 26.5958 5.67585 26.7103 5.49475C27.0757 4.88721 27.5425 4.34674 28.0905 3.89679C28.317 3.71835 29.4466 2.86344 29.7477 3.09781C30.1526 3.42006 29.9955 5.17783 29.9902 5.63591H30.0008Z" fill="#992965"/>
<path d="M60.2702 1.00208C54.4087 3.76122 48.5072 6.61628 43.6021 10.8935C42.1589 7.79131 40.5234 4.78216 38.7051 1.88363C38.0976 0.916866 36.8001 1.32701 36.507 2.14996C36.3693 2.22287 36.2484 2.32379 36.152 2.44626C36.0557 2.56873 35.9859 2.71003 35.9475 2.86103C34.7326 7.07077 33.3879 11.2432 31.9137 15.3784C31.8534 15.4739 31.806 15.5769 31.7725 15.6847C31.6686 16.007 31.5647 16.3319 31.4634 16.6541C30.9892 18.1402 33.2539 18.7235 33.7761 17.2907C35.245 13.2496 36.5869 9.16593 37.8019 5.03963C39.4173 7.77521 40.8728 10.6021 42.1608 13.5061C42.4832 14.2385 43.5382 14.2306 44.0417 13.7485C48.4565 9.51391 53.8998 6.69617 59.375 4.08616C58.7089 8.8037 58.224 13.5398 57.9203 18.2947C57.8217 19.834 60.2196 19.8287 60.3182 18.2947C60.6539 12.9681 61.2249 7.66118 62.0313 2.3737C62.1938 1.29774 61.2667 0.53334 60.2702 1.00208Z" fill="#992965"/>
<path d="M163.937 1.97394C163.337 1.25219 162.29 0.983183 161.39 0.95655C160.365 0.935 159.364 1.26808 158.557 1.89936C157.763 2.52568 157.2 3.39921 156.959 4.38148C156.731 5.45668 156.758 6.57019 157.036 7.63338C157.244 8.56819 157.569 9.47635 157.766 10.4165C157.811 10.6349 157.851 10.8533 157.889 11.0716V11.1302C157.888 11.1408 157.888 11.1516 157.889 11.1622C157.902 11.2794 157.915 11.3992 157.923 11.5191C157.957 11.9427 157.957 12.3684 157.923 12.7921C157.923 12.8933 157.905 12.9919 157.897 13.0931C157.913 12.8774 157.897 13.0771 157.881 13.1756C157.844 13.393 157.795 13.6082 157.734 13.8202C157.681 14.0092 157.614 14.193 157.545 14.3794C157.526 14.4167 157.51 14.4567 157.489 14.4966C157.436 14.6085 157.38 14.715 157.318 14.8242C157.212 15.0133 157.095 15.1917 156.969 15.3701L156.932 15.4234L156.881 15.4794C156.807 15.5646 156.735 15.6498 156.655 15.7457C156.527 15.881 156.392 16.009 156.25 16.1292L156.178 16.1904C156.085 16.2517 155.997 16.3183 155.912 16.3769C155.711 16.5 155.503 16.6129 155.291 16.7151C155.491 16.6139 155.219 16.7417 155.142 16.7683C155.009 16.8136 154.875 16.8536 154.737 16.8856C154.598 16.9175 154.54 16.9282 154.438 16.9468C154.454 16.9468 154.249 16.9654 154.191 16.9681C154.063 16.9681 153.937 16.9681 153.812 16.9681H153.775L153.655 16.9495C153.534 16.9259 153.415 16.8957 153.298 16.8589C153.25 16.8429 153.202 16.8216 153.154 16.8083C153.058 16.7551 152.96 16.7098 152.866 16.6538L152.776 16.5926C152.75 16.5673 152.723 16.5441 152.693 16.5233C152.925 15.9401 152.427 15.1917 151.857 15.0505C151.164 14.8934 150.631 15.2636 150.381 15.8895C149.952 16.9548 150.647 18.0201 151.502 18.6194C152.376 19.2044 153.428 19.4628 154.473 19.3491C155.489 19.2339 156.464 18.8789 157.316 18.3136C158.168 17.7482 158.874 16.9886 159.375 16.0972C160.399 14.3288 160.505 12.2755 160.175 10.302C160.01 9.34054 159.7 8.41636 159.458 7.47356C159.399 7.24452 159.346 7.01546 159.298 6.78375C159.274 6.65591 159.253 6.51744 159.229 6.39759C159.229 6.32835 159.216 6.25642 159.21 6.18452C159.194 5.95753 159.194 5.72975 159.21 5.50277C159.21 5.45217 159.242 5.23644 159.239 5.23644C159.261 5.13257 159.282 5.026 159.311 4.92213C159.325 4.87685 159.397 4.65582 159.389 4.6718C159.432 4.5739 159.481 4.47871 159.535 4.38681C159.586 4.29626 159.644 4.21636 159.7 4.12048L159.799 4.00865C159.874 3.93141 159.962 3.86214 160.036 3.78224L160.14 3.71039C160.253 3.63699 160.37 3.57108 160.492 3.51325L160.532 3.49732L160.649 3.45733C160.755 3.42537 160.862 3.40145 160.969 3.37749H161.065C161.191 3.37083 161.317 3.37083 161.443 3.37749C161.491 3.37749 161.539 3.37749 161.584 3.37749H161.621C161.707 3.39613 161.837 3.43074 161.856 3.43607L161.984 3.47333H162.008C162.042 3.49197 162.085 3.51327 162.122 3.53724C162.16 3.5854 162.202 3.62998 162.247 3.67041C162.65 4.15512 163.532 4.11783 163.942 3.67041C164.16 3.44128 164.281 3.13708 164.28 2.8211C164.279 2.50511 164.156 2.2017 163.937 1.97394ZM152.584 16.3689C152.6 16.3928 152.619 16.4151 152.64 16.4354V16.4514C152.605 16.4301 152.584 16.3955 152.584 16.3689ZM161.539 3.35616C161.539 3.35616 161.56 3.35616 161.587 3.35616H161.539ZM162.152 3.5559C162.173 3.56661 162.193 3.58101 162.21 3.59849C162.197 3.61714 162.178 3.58785 162.152 3.54524V3.5559Z" fill="#992965"/>
<path d="M20.665 1.09772C16.7633 1.994 13.0328 3.51671 9.61873 5.60662C6.44551 7.5588 2.97651 10.1182 0.853041 13.2289C-0.0848037 14.6032 -0.439165 16.4967 0.781099 17.831C1.84683 19.0002 3.52008 19.2186 5.02276 19.2532C9.75728 19.3677 14.5371 18.859 19.1943 18.0414C20.7103 17.7751 20.0683 15.4634 18.5549 15.7297C14.7707 16.3974 10.9403 16.7705 7.09828 16.8456C5.94996 16.8669 3.85579 17.1998 2.83535 16.4381C1.40194 15.3542 3.99162 13.1836 4.78293 12.406C9.35466 7.94281 15.0713 4.82937 21.3018 3.40942C22.8071 3.0632 22.1704 0.7515 20.665 1.09772Z" fill="#992965"/>
</svg>
