<svg width="118" height="24" viewBox="0 0 118 24" fill="none" xmlns="http://www.w3.org/2000/svg">
<path d="M115.582 5.07737C114.82 7.8951 114.121 10.7288 113.485 13.5785C113.419 13.1843 113.352 12.7929 113.291 12.3987C113.049 10.8433 112.873 9.28 112.188 7.87113C112.284 7.60481 112.38 7.31448 112.481 7.04016C113.014 5.59134 110.699 4.9655 110.168 6.40367C110.134 6.49688 110.102 6.59278 110.067 6.68866C109.566 6.95498 109.249 7.52223 109.561 8.12146C109.063 9.58626 108.61 11.051 108.215 12.5611C107.965 13.5252 107.735 14.4929 107.525 15.4641C107.355 16.2631 107.275 17.1579 107.08 17.9729C107.011 18.0406 106.954 18.1199 106.913 18.2073L106.881 18.2818C106.759 18.5136 106.712 18.7773 106.745 19.037C106.778 19.2966 106.891 19.5398 107.067 19.7333L107.11 19.7866C107.298 19.973 107.542 20.0923 107.805 20.126C108.068 20.1597 108.335 20.1059 108.564 19.973C109.414 19.4404 109.364 18.4576 109.542 17.5627C109.761 16.4229 110.008 15.2901 110.283 14.1644C110.461 13.4542 110.649 12.7502 110.848 12.0525C110.917 12.5505 110.978 13.0459 111.058 13.5332C111.399 15.6399 111.826 17.7306 112.321 19.8053C112.588 20.9185 114.407 20.9798 114.634 19.8053C115.549 15.0682 116.636 10.3684 117.895 5.70586C118.297 4.22242 115.99 3.58594 115.582 5.07737Z" fill="#992965"/>
<path d="M75.0656 11.2906L74.8899 11.3253C75.0724 8.1709 75.067 5.00844 74.8739 1.85469C74.8072 0.757419 73.2059 0.107576 72.641 1.25012C69.9341 6.7187 67.3915 12.2619 65.0131 17.8796C64.4189 19.2832 66.4838 20.5056 67.0833 19.0887C67.657 17.7411 68.2378 16.397 68.8258 15.0565L72.2601 14.3295C72.0612 16.3908 71.7779 18.4451 71.4102 20.4922C71.2516 20.5912 71.1178 20.7252 71.0194 20.8841C70.921 21.043 70.8605 21.2224 70.8426 21.4085C70.777 21.9825 70.9107 22.5616 71.2211 23.049C71.7086 23.8986 73.206 23.792 73.4138 22.7613C74.0097 19.8037 74.442 16.8154 74.7086 13.8101L75.7024 13.5997C77.2104 13.2828 76.571 10.971 75.0656 11.2906ZM70.0327 12.3559C70.8781 10.481 71.7424 8.61671 72.6252 6.76307C72.6252 8.45869 72.5709 10.1525 72.4626 11.8446L70.0327 12.3559Z" fill="#992965"/>
<path d="M88.7471 3.7353C85.2231 3.80454 81.6982 3.78413 78.1724 3.67405C76.6271 3.62611 76.6297 6.02305 78.1724 6.07099C79.5525 6.1136 80.9326 6.13759 82.3128 6.15357C81.1103 10.5924 79.9682 15.0533 78.8865 19.5365C78.746 19.6418 78.6373 19.7838 78.5724 19.9468C78.5076 20.1099 78.489 20.2877 78.5187 20.4606C78.5374 20.6284 78.5561 20.7935 78.572 20.9586C78.7106 22.2077 80.5889 22.6977 80.9273 21.2782C82.1404 16.2198 83.4291 11.1827 84.7933 6.16683C86.1095 6.16683 87.4274 6.15532 88.7471 6.13224C90.2871 6.10028 90.2924 3.70334 88.7471 3.7353Z" fill="#992965"/>
<path d="M63.3027 3.565C59.4001 4.461 55.6686 5.98373 52.2537 8.0739C49.0804 10.0234 45.6142 12.5854 43.4908 15.6961C42.5503 17.0677 42.1959 18.9613 43.4188 20.2956C44.4846 21.4648 46.1577 21.6832 47.6604 21.7205C52.3923 21.8323 57.1721 21.3236 61.8294 20.506C63.348 20.2397 62.7032 17.928 61.1926 18.1943C57.4038 18.8622 53.569 19.2361 49.7225 19.3129C48.5742 19.3342 46.4801 19.6671 45.473 18.9054C44.0369 17.8214 46.6293 15.6482 47.4207 14.8706C51.9929 10.4086 57.7095 7.29615 63.9395 5.8767C65.4422 5.53048 64.8054 3.21611 63.3027 3.565Z" fill="#992965"/>
<path d="M11.5481 2.91981C9.20444 2.97465 6.86627 3.1712 4.54632 3.50838C4.33789 3.52173 4.14022 3.60587 3.98614 3.74681C3.83206 3.88775 3.73077 4.07708 3.69902 4.28343C3.56669 4.4253 3.47076 4.59706 3.41932 4.78409C2.05518 9.49453 0.922838 14.2635 0.0222939 19.0912C-0.108258 19.8023 0.341972 20.6652 1.17857 20.6093L7.22653 20.2018C8.64395 20.1059 10.7914 20.4681 11.6946 19.1365C12.4939 17.978 10.8501 16.8833 9.89359 17.637C8.56142 17.9034 7.04277 17.8128 5.71327 17.9034L2.64656 18.1111C2.96272 16.5131 3.30645 14.9152 3.67768 13.3172C5.48616 13.5406 7.31945 13.456 9.09962 13.0669C10.6103 12.75 9.97082 10.4382 8.46281 10.7578C7.07372 11.0456 5.64913 11.122 4.23722 10.9842C4.67062 9.23354 5.13688 7.49268 5.63599 5.76156C7.5971 5.50546 9.57076 5.35694 11.5481 5.31675C13.0775 5.28212 13.0828 2.88518 11.5481 2.91981Z" fill="#992965"/>
<path d="M45.1026 7.62062C45.9925 6.35557 43.9143 5.15709 43.0298 6.41149C41.9774 7.90558 41.8281 9.84173 41.3006 11.5569C40.7202 13.5114 39.9072 15.3891 38.8787 17.1497C38.7615 17.3468 38.3458 18.2577 37.9328 18.01C37.7943 17.9248 37.8423 17.1737 37.8423 17.0459C37.8591 16.0444 37.9267 15.0444 38.0448 14.0497C38.3013 11.8334 38.7551 9.64437 39.4009 7.50872C39.8405 6.02794 37.5359 5.39411 37.091 6.87223C36.2468 9.69564 35.7187 12.604 35.5163 15.5438C35.3938 17.3708 35.2951 20.4283 37.8715 20.5348C40.3627 20.6387 41.5297 17.4321 42.3343 15.5944C42.89 14.3387 43.3626 13.0477 43.7491 11.73C44.1461 10.3691 44.266 8.80578 45.1026 7.62062Z" fill="#992965"/>
<path d="M93.3882 3.63364L90.881 19.6C90.717 19.7401 90.5945 19.9222 90.5264 20.1269C90.4583 20.3315 90.4474 20.5508 90.4948 20.7611C90.5534 21.0434 90.6093 21.3258 90.6679 21.6081C90.8917 22.7267 92.7994 22.7799 92.9779 21.6081C93.8855 15.8288 94.7932 10.0495 95.7009 4.27019C95.938 2.76278 93.628 2.11291 93.3882 3.63364Z" fill="#992965"/>
<path d="M103.702 3.7534C103.023 3.80474 102.363 3.99605 101.762 4.31531C101.229 3.89984 100.43 3.86526 100.022 4.62163C99.4023 5.79251 98.8464 6.99626 98.3573 8.22764C97.8033 9.38826 97.3919 10.6116 97.1318 11.871C97.1214 11.9177 97.1133 11.9648 97.1077 12.0122C96.7291 13.4291 96.4452 14.8695 96.2578 16.324C96.0393 18.0232 96.0181 19.9087 97.193 21.291C98.2748 22.564 100.007 23.0515 101.507 22.2045C104.642 20.4361 105.554 15.8393 106.158 12.6168C106.593 10.3237 107.768 3.45778 103.702 3.7534ZM104.19 8.67512C104.174 9.62251 104.085 10.5672 103.923 11.5008C103.638 13.1837 103.225 14.8425 102.687 16.4625C102.322 17.5758 101.392 20.1911 99.9213 20.2577C97.9976 20.3509 98.5572 16.8727 98.7144 15.8606C99.0813 13.5414 99.7069 11.2706 100.579 9.0906C100.681 8.90151 100.784 8.71505 100.899 8.53129C101.263 7.92384 101.729 7.38335 102.276 6.93333C102.503 6.75489 103.635 5.89998 103.934 6.13435C104.349 6.4566 104.192 8.21437 104.19 8.67512Z" fill="#992965"/>
<path d="M30.7659 7.184C28.2108 5.76448 25.36 5.02942 22.5198 4.39556C22.3166 4.18653 22.0519 4.04796 21.7642 4.00004C21.4766 3.95212 21.1813 3.99738 20.9212 4.12924C20.7419 4.16384 20.5719 4.23609 20.4226 4.34114C20.2732 4.4462 20.1478 4.58165 20.0547 4.73868C19.9615 4.89571 19.9027 5.07075 19.8822 5.25215C19.8616 5.43356 19.8797 5.61723 19.9354 5.79111C18.4144 9.65335 17.1375 13.6072 16.112 17.6293C15.8883 17.6001 15.6609 17.6346 15.4558 17.7288C15.2508 17.823 15.0765 17.9732 14.953 18.162L14.4016 18.9476C13.7515 19.8745 14.8199 20.8998 15.7551 20.7081C19.1036 20.0374 22.389 19.0832 25.5757 17.8557C28.2587 16.8117 31.4532 15.4588 33.265 13.1071C35.0767 10.7554 32.8387 8.33453 30.7659 7.184ZM30.9977 12.0205C30.546 12.4854 30.0375 12.8916 29.4843 13.2296C26.3137 15.3895 22.4132 16.6919 18.5819 17.6107C19.5479 13.9278 20.7248 10.3033 22.1068 6.75525C24.1477 7.21067 26.1939 7.71668 28.1149 8.54496C29.1141 8.97641 30.3449 9.50108 31.0643 10.356C31.6291 11.0271 31.5572 11.3654 30.9977 12.0205Z" fill="#992965"/>
</svg>
