<svg width="119" height="24" viewBox="0 0 119 24" fill="none" xmlns="http://www.w3.org/2000/svg">
<path d="M30.4262 13.526C25.1854 13.4478 19.9533 13.0744 14.7546 12.4075C15.2555 10.7296 15.7582 9.04997 16.2626 7.36856L33.9511 7.92784C35.4937 7.97844 35.4937 5.5815 33.9511 5.5309L15.9802 4.96362C15.2727 5.0534 14.6273 5.41318 14.1791 5.96768L9.70306 20.9219C9.6565 21.0997 9.65102 21.2857 9.68713 21.4658C9.72323 21.646 9.79994 21.8155 9.91141 21.9616C10.0229 22.1076 10.1662 22.2264 10.3304 22.3089C10.4947 22.3913 10.6756 22.4352 10.8593 22.4373H20.6907H25.3479C26.5709 22.4373 28.3054 22.7729 29.3604 22.0219C30.61 21.1377 29.4137 19.0577 28.1508 19.9525C27.7725 20.2188 26.8188 20.0377 26.3818 20.0377H24.0585H19.6597H12.4659L14.0645 14.7112C19.4915 15.4286 24.9554 15.8314 30.4289 15.9177C31.9716 15.9443 31.9715 13.5473 30.4262 13.526Z" fill="#992965"/>
<path d="M59.3475 3.49875C56.6619 3.67631 53.9744 3.74467 51.2852 3.70383C49.7399 3.67454 49.7399 6.07148 51.2852 6.10077C52.1378 6.11675 52.9904 6.11675 53.843 6.10077L51.1413 21.1829C51.0038 21.5336 50.9412 21.9091 50.9575 22.2855C50.9575 23.5958 53.0703 23.9633 53.3127 22.6024C53.35 22.4026 53.3847 22.2029 53.422 22.0031L53.4779 21.7555C53.5479 21.5871 53.5762 21.4044 53.5606 21.2228C54.4664 16.1608 55.3732 11.1006 56.2808 6.04219C57.1361 6.01289 57.9913 5.97292 58.8465 5.91699H58.8599L59.3475 5.8877C60.8742 5.79182 60.8929 3.40554 59.3475 3.49875Z" fill="#992965"/>
<path d="M8.46137 12.3701C7.07258 12.6601 5.64779 12.7373 4.23577 12.5992C4.67095 10.8503 5.13632 9.10942 5.63188 7.37652C7.59036 7.12091 9.56133 6.97242 11.536 6.93174C13.076 6.89711 13.0813 4.50017 11.536 4.5348C9.19232 4.58965 6.85409 4.78619 4.53415 5.12337C4.32572 5.13672 4.12811 5.22083 3.97403 5.36177C3.81995 5.50271 3.71866 5.69204 3.68691 5.89839C3.55842 6.04096 3.46693 6.2129 3.42047 6.39908C2.05634 11.1113 0.923995 15.8803 0.0234513 20.7062C-0.256303 22.2136 2.05365 22.8607 2.33607 21.3427C2.73572 19.1961 3.17978 17.0593 3.66824 14.9322C5.47672 15.1555 7.31 15.0708 9.09018 14.6818C10.6062 14.3649 9.96938 12.0532 8.46137 12.3701Z" fill="#992965"/>
<path d="M62.9096 4.50809C62.0765 9.83463 61.2409 15.1567 60.4025 20.4744C60.2385 20.6145 60.1158 20.7967 60.0478 21.0013C59.9797 21.2059 59.9688 21.4252 60.0161 21.6356C60.0748 21.9179 60.1307 22.2002 60.1893 22.4825C60.4131 23.6011 62.3208 23.6517 62.502 22.4825C63.4079 16.7032 64.3146 10.9239 65.2223 5.14462C65.4594 3.63721 63.1494 2.9847 62.9096 4.50809Z" fill="#992965"/>
<path d="M99.1394 21.2576L98.9342 20.8901L98.4201 19.9633L97.389 18.099L95.3294 14.3971L94.9005 13.6274C94.9685 13.4771 94.9995 13.3127 94.9911 13.148C94.9671 12.6153 94.5434 11.9868 93.9653 11.9468L91.2077 6.99316L89.3426 3.65078L89.356 3.63212C89.5155 3.3574 89.5598 3.03081 89.4795 2.72351C89.3991 2.41622 89.2007 2.15312 88.9271 1.99154C88.6658 1.84698 88.3604 1.8035 88.0691 1.8693C87.7778 1.9351 87.5208 2.10562 87.3471 2.34844C87.3125 2.36708 87.2779 2.37772 87.2459 2.39902C87.087 2.4987 86.9526 2.63279 86.8525 2.79136C86.7524 2.94994 86.6893 3.12896 86.6678 3.31521L79.6579 13.4356C79.4634 13.4516 79.2662 13.4702 79.0691 13.4835C78.4456 13.5315 77.8408 14.0029 77.8701 14.682C77.8879 14.9916 78.0109 15.2857 78.219 15.5156L77.609 16.3945L74.8886 20.3255C74.7557 20.5547 74.7019 20.8213 74.7356 21.0841C74.7693 21.347 74.8887 21.5914 75.0752 21.7796C75.2651 21.9624 75.5089 22.0792 75.7704 22.1127C76.0319 22.1463 76.2973 22.0949 76.5273 21.9661L76.9242 21.7264C77.0947 21.6197 77.2373 21.4739 77.3401 21.3011C77.443 21.1284 77.5032 20.9336 77.5158 20.733L80.9794 15.7234C84.8693 15.3984 88.7521 14.9874 92.6278 14.4903L96.0489 20.6371C96.2647 21.0233 96.4778 21.4095 96.6936 21.793C96.8975 22.2164 97.1325 22.6241 97.3969 23.0127C97.5725 23.2426 97.812 23.4157 98.0854 23.5104C98.3587 23.6051 98.654 23.6173 98.9342 23.5454C99.6749 23.3456 100.179 22.3682 99.675 21.6997C99.5304 21.5156 99.3476 21.3648 99.1394 21.2576ZM82.7484 13.1959L86.6411 7.57644L87.8266 5.86127L91.3916 12.2531C88.5177 12.6118 85.6365 12.9261 82.7484 13.1959Z" fill="#992965"/>
<path d="M111.449 19.7473C108.884 19.671 106.319 19.5689 103.754 19.441C104.997 14.9135 106.195 10.377 107.348 5.83173C107.712 4.39889 108.074 2.96516 108.433 1.53054C108.517 1.22399 108.476 0.896469 108.319 0.620019C108.162 0.343568 107.901 0.140855 107.595 0.0564471C107.288 -0.0279608 106.96 0.0128616 106.684 0.169942C106.407 0.327022 106.204 0.587465 106.12 0.894018C104.864 5.9276 103.562 10.9505 102.214 15.9628C101.834 17.3992 101.448 18.8276 101.058 20.248C101.012 20.4258 101.008 20.6116 101.044 20.7914C101.081 20.9713 101.157 21.1405 101.269 21.2865C101.38 21.4325 101.523 21.5515 101.686 21.6345C101.85 21.7176 102.03 21.7625 102.214 21.7661C105.294 21.9259 108.376 22.0519 111.459 22.1443C111.777 22.1422 112.08 22.0152 112.305 21.7909C112.529 21.5666 112.656 21.263 112.658 20.9458C112.652 20.628 112.522 20.3252 112.296 20.1015C112.071 19.8778 111.766 19.7507 111.449 19.7473Z" fill="#992965"/>
<path d="M44.795 4.2952C43.77 4.27331 42.7691 4.60746 41.9629 5.24067C41.1686 5.86728 40.6061 6.74072 40.3643 7.72283C40.1366 8.79713 40.1631 9.90976 40.4416 10.972C40.6494 11.9095 40.9744 12.8177 41.1715 13.7551C41.2168 13.9735 41.2568 14.1919 41.2941 14.413C41.2941 14.4396 41.2941 14.4583 41.2941 14.4689V14.5009C41.3074 14.6207 41.3207 14.7379 41.3287 14.8577C41.362 15.2814 41.362 15.7071 41.3287 16.1308C41.3287 16.232 41.3101 16.3332 41.3021 16.4344C41.3181 16.2187 41.3021 16.4184 41.2861 16.5169C41.2493 16.7335 41.2003 16.9478 41.1395 17.1588C41.0862 17.3506 41.0196 17.5343 40.9504 17.7181C40.9317 17.758 40.9158 17.798 40.8971 17.8353C40.8412 17.9471 40.7851 18.0563 40.7239 18.1629C40.6168 18.3463 40.5004 18.5241 40.3749 18.6955C40.3612 18.7132 40.3487 18.7319 40.3376 18.7514L40.287 18.8074C40.2124 18.8926 40.1404 18.9778 40.0605 19.0604C39.9326 19.1935 39.7941 19.3267 39.6555 19.4439L39.5836 19.5025C39.4903 19.5664 39.4024 19.6303 39.3171 19.6916C39.1173 19.8167 38.9068 19.9206 38.6963 20.0272C38.8962 19.9259 38.6244 20.0538 38.5471 20.0804C38.4139 20.1257 38.2807 20.1656 38.1421 20.2002C38.0036 20.2349 37.9451 20.2402 37.8438 20.2589C37.8598 20.2589 37.6546 20.2802 37.596 20.2828C37.4681 20.2828 37.3429 20.2828 37.2177 20.2828H37.183L37.0604 20.2642C36.9405 20.2376 36.8207 20.2082 36.7062 20.1709C36.6555 20.155 36.6075 20.1337 36.5595 20.1204C36.4636 20.0698 36.365 20.0245 36.2718 19.9659L36.1812 19.9046C36.1561 19.8799 36.1294 19.8567 36.1013 19.8354C36.3305 19.2521 35.8348 18.5038 35.262 18.3653C34.5693 18.2081 34.0364 18.5756 33.7859 19.2015C33.357 20.2668 34.0525 21.3321 34.9077 21.9314C35.7814 22.5161 36.8329 22.7753 37.8784 22.6638C38.8945 22.5475 39.8685 22.1922 40.7206 21.6269C41.5728 21.0617 42.2788 20.3026 42.7808 19.4119C43.8039 17.6408 43.9105 15.5875 43.5801 13.614C43.4149 12.6525 43.1058 11.7284 42.8634 10.7856C42.8048 10.5592 42.7515 10.3275 42.7035 10.0958C42.6795 9.96797 42.6582 9.82949 42.6369 9.70965C42.6369 9.6404 42.6209 9.56848 42.6156 9.49924C42.5996 9.27225 42.5996 9.04441 42.6156 8.81743C42.6156 8.76416 42.6475 8.5511 42.6448 8.5511C42.6661 8.44457 42.6875 8.34072 42.7168 8.23419C42.7301 8.19157 42.802 7.96784 42.794 7.98382C42.8381 7.88644 42.8871 7.79135 42.9407 7.69887C42.9913 7.61098 43.0526 7.52842 43.1059 7.43254C43.1379 7.39792 43.1697 7.35796 43.2044 7.32334C43.279 7.24344 43.3669 7.1742 43.4415 7.09697L43.5455 7.02505C43.6574 6.95314 43.7772 6.88923 43.8971 6.82797L43.9371 6.81201L44.0543 6.77472C44.1608 6.7401 44.2675 6.71611 44.374 6.69214H44.4699C44.5959 6.68549 44.7222 6.68549 44.8482 6.69214H44.9895H45.0269L45.2613 6.75073L45.3892 6.79068H45.4131L45.5277 6.8546C45.5659 6.90302 45.6077 6.94843 45.6529 6.99043C46.0552 7.47514 46.9372 7.43786 47.3475 6.99043C47.5647 6.76136 47.6857 6.45779 47.6857 6.14219C47.6857 5.82659 47.5647 5.52299 47.3475 5.29393C46.7427 4.59082 45.6956 4.32183 44.795 4.2952ZM35.9893 19.7075C36.0069 19.7322 36.0265 19.7554 36.048 19.7768V19.7928C36.0214 19.7688 35.9893 19.7368 35.9893 19.7155V19.7075ZM44.9442 6.69481C44.9601 6.69172 44.9763 6.69172 44.9921 6.69481H44.9442ZM45.557 6.89455C45.5916 6.91586 45.6183 6.93451 45.6157 6.93984C45.613 6.94517 45.5836 6.93184 45.557 6.89455Z" fill="#992965"/>
<path d="M76.4339 4.46831C76.1275 4.39183 75.8034 4.43597 75.5287 4.59162C75.2539 4.74727 75.0496 5.00253 74.9578 5.30458C73.7003 8.72066 72.4418 12.1359 71.1825 15.5502C70.9534 14.3837 70.7455 13.2118 70.5696 12.0347C70.5243 11.7364 70.4818 11.4408 70.4391 11.1425L70.4071 10.9187C70.4071 10.8948 70.4071 10.8655 70.4071 10.8255C70.3831 10.6551 70.3618 10.4846 70.3405 10.3142C70.2659 9.71937 70.1993 9.1237 70.1407 8.52713C70.011 7.24876 69.9151 5.96685 69.8529 4.68138C69.8474 4.36524 69.7194 4.06356 69.4957 3.83997C69.272 3.61639 68.9702 3.48839 68.654 3.48291C68.0305 3.51221 67.4204 4.01556 67.455 4.68138C67.7235 9.88486 68.4918 15.0505 69.7491 20.107C69.8209 20.359 69.9722 20.581 70.1806 20.7398C70.389 20.8987 70.6433 20.986 70.9054 20.9886C71.1657 20.9794 71.4168 20.8897 71.6239 20.7318C71.831 20.5739 71.984 20.3556 72.0617 20.107L77.281 5.94377C77.3642 5.63581 77.3218 5.30745 77.1629 5.03081C77.0041 4.75416 76.7418 4.55185 76.4339 4.46831Z" fill="#992965"/>
<path d="M115.81 3.17114L115.843 3.1956L115.81 3.17114Z" fill="#992965"/>
<path d="M114.776 0.774301C113.026 1.26967 112.309 3.21118 112.261 4.85708C112.21 6.74001 112.959 8.38324 113.873 9.97854C114.062 10.3115 114.251 10.6417 114.43 10.9799C114.518 11.1477 114.603 11.3182 114.696 11.4886C114.696 11.4886 114.768 11.6537 114.784 11.6884C114.816 11.7683 114.848 11.8482 114.878 11.9307C114.939 12.1039 114.989 12.277 115.035 12.4634C115.053 12.5486 115.069 12.6338 115.085 12.7297C115.095 12.7727 115.101 12.8163 115.104 12.8602C115.12 13.0387 115.104 13.2171 115.104 13.3929C115.103 13.3981 115.103 13.4036 115.104 13.4088C115.103 13.4195 115.103 13.4302 115.104 13.4408C115.072 13.5606 115.037 13.6778 115.003 13.7977L114.971 13.8376C114.942 13.8909 114.91 13.9415 114.878 13.9921C114.846 14.0427 114.787 14.0933 114.739 14.1386L114.64 14.2291C114.571 14.2664 114.507 14.317 114.438 14.3543C114.414 14.3676 114.249 14.4422 114.203 14.4688L114.094 14.5061C113.982 14.5407 113.87 14.5674 113.758 14.5913L113.652 14.61C113.545 14.61 113.436 14.626 113.33 14.6286C113.223 14.6313 113.122 14.6286 113.018 14.6286L112.77 14.6126H112.706L112.474 14.5727C112.33 14.546 112.189 14.5141 112.048 14.4821C111.782 14.4182 111.515 14.3463 111.262 14.2691C110.956 14.1878 110.63 14.2299 110.354 14.3863C110.079 14.5426 109.876 14.8008 109.789 15.1053C109.71 15.4117 109.753 15.7366 109.909 16.0117C110.065 16.2868 110.322 16.4908 110.625 16.5808C112.293 17.0682 114.166 17.3425 115.733 16.389C116.521 15.9159 117.103 15.1655 117.366 14.2851C117.582 13.4445 117.568 12.5612 117.323 11.7283C116.905 10.149 115.89 8.83603 115.192 7.37655L115.128 7.23806C115.144 7.27268 115.051 7.04896 115.045 7.03565C114.976 6.85455 114.915 6.66813 114.862 6.4817C114.808 6.29527 114.768 6.08485 114.726 5.88776C114.718 5.858 114.711 5.82776 114.707 5.79722C114.694 5.69336 114.686 5.58684 114.678 5.48031C114.664 5.2779 114.659 5.07548 114.664 4.87308C114.664 4.76122 114.68 4.64936 114.683 4.53484C114.683 4.53484 114.683 4.51086 114.683 4.49755C114.703 4.36489 114.73 4.23334 114.763 4.10339C114.784 4.02349 114.806 3.94892 114.832 3.87168C114.859 3.79445 114.894 3.72788 114.912 3.6826C114.976 3.56542 115.04 3.44822 115.115 3.33636L115.136 3.31507L115.245 3.21386C115.245 3.21386 115.362 3.1313 115.397 3.10999H115.445H115.56L115.701 3.14462L115.778 3.19254H115.794C115.794 3.19254 115.781 3.17924 115.794 3.17657C115.797 3.17494 115.8 3.17407 115.803 3.17407C115.807 3.17407 115.81 3.17494 115.813 3.17657L115.839 3.21386H115.826C115.826 3.24849 115.826 3.28311 115.826 3.31774C115.746 3.94094 116.434 4.54284 117.025 4.51621C117.742 4.48425 118.139 3.98355 118.224 3.31774C118.461 1.50938 116.316 0.340188 114.776 0.774301ZM115.589 3.0807H115.645C115.645 3.0807 115.618 3.08603 115.589 3.0807ZM115.783 3.13662C115.783 3.13662 115.791 3.13928 115.783 3.13662V3.13662ZM115.837 3.13662V3.11799C115.837 3.11799 115.831 3.10997 115.837 3.12329V3.13662ZM115.821 3.15791C115.821 3.15791 115.837 3.17389 115.845 3.18721L115.821 3.15791ZM115.866 3.24849C115.882 3.28045 115.885 3.30973 115.866 3.23516V3.24849ZM115.866 3.22716C115.906 3.22982 115.898 3.22717 115.877 3.2032L115.866 3.22716Z" fill="#992965"/>
</svg>
