<svg width="185" height="31" viewBox="0 0 185 31" fill="none" xmlns="http://www.w3.org/2000/svg">
<path d="M149.109 14.1467L148.936 14.184C149.118 11.0287 149.113 7.86538 148.92 4.71073C148.853 3.61613 147.252 2.96629 146.687 4.10617C143.98 9.57297 141.437 15.1171 139.059 20.7383C138.465 22.1419 140.53 23.3643 141.129 21.9474C141.699 20.5998 142.28 19.2558 142.872 17.9152L146.303 17.1775C146.101 19.2389 145.817 21.2922 145.451 23.3376C145.293 23.438 145.16 23.5729 145.062 23.732C144.965 23.8912 144.904 24.0706 144.886 24.2565C144.821 24.8305 144.954 25.4096 145.264 25.8971C145.752 26.7466 147.246 26.6401 147.454 25.6094C148.052 22.652 148.486 19.6637 148.752 16.6582L149.746 16.4478C151.256 16.1388 150.617 13.8298 149.109 14.1467ZM144.076 15.2121C144.923 13.3407 145.788 11.4764 146.671 9.61918C146.671 11.3184 146.616 13.013 146.506 14.7033L144.076 15.2121Z" fill="#992965"/>
<path d="M140.418 5.02245C140.706 3.87991 139.27 2.98502 138.414 3.85591C135.785 6.51918 134.596 10.008 133.163 13.3664C133.2 11.1009 133.369 8.83956 133.669 6.59376C133.834 5.37931 132.158 4.33798 131.479 5.67228C129.525 9.51981 127.711 13.4375 126.036 17.4253C125.439 18.8448 127.757 19.4654 128.348 18.0645C129.132 16.2037 129.949 14.359 130.8 12.5302C130.736 14.4158 130.752 16.3041 130.861 18.1976C130.869 18.4571 130.959 18.7073 131.12 18.9111C131.281 19.1149 131.503 19.2616 131.754 19.3294C132.005 19.3972 132.271 19.3825 132.512 19.2876C132.754 19.1926 132.959 19.0225 133.096 18.8022C134.631 16.3893 135.534 13.5901 136.699 10.9535C135.855 15.6959 135.375 20.4958 135.262 25.3112C135.225 26.8852 137.495 26.808 137.66 25.3112C137.7 24.9543 137.74 24.5975 137.778 24.2459C137.801 24.0658 137.779 23.8827 137.713 23.7133C137.97 17.4067 138.876 11.1433 140.418 5.02245Z" fill="#992965"/>
<path d="M115.704 3.61075C113.361 10.236 111.548 17.0361 110.279 23.9474C103.021 18.3333 95.7637 12.3649 91.317 4.19399C90.5789 2.84105 88.5061 4.04752 89.2468 5.40579L89.3666 5.62153L85.2262 20.6743C85.0693 20.8372 84.9694 21.0465 84.9412 21.2709L84.7813 22.2909C84.5495 23.7797 86.6757 24.4535 87.094 22.9301C88.4226 18.0989 89.7547 13.2677 91.0905 8.43656C96.1021 15.963 103.389 21.6411 110.511 27.1194C111.092 27.5695 112.152 27.1194 112.272 26.4056C113.552 18.8684 115.478 11.4551 118.027 4.24724C118.53 2.79576 116.215 2.16193 115.704 3.61075Z" fill="#992965"/>
<path d="M82.7697 5.5681C82.0912 5.61723 81.4304 5.80777 80.83 6.12741C80.2971 5.71461 79.4979 5.67996 79.0902 6.43633C78.469 7.60577 77.913 8.80876 77.425 10.0397C76.8714 11.2014 76.4599 12.4256 76.1994 13.6857C76.1888 13.7323 76.1809 13.7794 76.1755 13.8269C75.7966 15.2437 75.5127 16.6842 75.3256 18.1388C75.1071 19.8353 75.0857 21.7235 76.2607 23.1058C77.3424 24.3788 79.0742 24.8662 80.5742 24.0192C83.7101 22.2508 84.6213 17.654 85.2261 14.4315C85.6604 12.1357 86.8355 5.27248 82.7697 5.5681ZM83.2573 10.4871C83.2405 11.4353 83.1514 12.3809 82.9909 13.3156C82.7057 14.9976 82.2924 16.6555 81.7546 18.2746C81.3896 19.3879 80.4597 22.0031 78.989 22.0724C77.0627 22.1656 77.6248 18.6874 77.782 17.6754C78.1473 15.355 78.773 13.083 79.647 10.9026C79.7456 10.7135 79.8522 10.5272 79.9641 10.3461C80.3303 9.7391 80.797 9.19875 81.3443 8.74809C81.5707 8.56965 82.7031 7.71474 83.0015 7.94911C83.4252 8.27137 83.26 10.0291 83.2573 10.4871Z" fill="#992965"/>
<path d="M184.361 23.0364C184.22 22.8451 184.037 22.6877 183.828 22.5757L183.623 22.2055L183.108 21.2813L182.077 19.417L180.018 15.7151L179.589 14.9455C179.657 14.7951 179.688 14.6308 179.679 14.4661C179.655 13.9334 179.232 13.3049 178.654 13.2622L175.877 8.32187L174.012 4.97945L174.026 4.95819C174.185 4.68388 174.229 4.35768 174.149 4.05082C174.069 3.74396 173.87 3.48132 173.597 3.32024C173.335 3.17493 173.029 3.13101 172.737 3.19683C172.445 3.26266 172.188 3.43365 172.014 3.67714C171.982 3.69312 171.948 3.70642 171.916 3.72507C171.756 3.82502 171.622 3.95951 171.522 4.11857C171.422 4.27764 171.359 4.45717 171.337 4.64388L164.328 14.7643C164.13 14.7776 163.936 14.7963 163.739 14.8123C163.115 14.8602 162.51 15.329 162.54 16.0108C162.558 16.3197 162.68 16.6135 162.886 16.8443L162.279 17.7232L159.556 21.6542C159.423 21.8832 159.369 22.1496 159.404 22.4121C159.438 22.6746 159.558 22.9184 159.745 23.1057C159.935 23.2885 160.178 23.4055 160.44 23.4395C160.701 23.4735 160.967 23.4228 161.197 23.2948L161.594 23.0551C161.765 22.9482 161.907 22.8019 162.01 22.6286C162.112 22.4553 162.171 22.26 162.183 22.059L165.646 17.0494C169.538 16.7245 173.422 16.3134 177.298 15.8163L180.719 21.9631C180.932 22.3484 181.147 22.7346 181.363 23.1217C181.567 23.545 181.802 23.9527 182.067 24.3414C182.243 24.5707 182.482 24.7434 182.756 24.8381C183.029 24.9328 183.324 24.9453 183.604 24.8741C184.363 24.6796 184.867 23.7049 184.361 23.0364ZM167.426 14.514L171.319 8.89445L172.504 7.18198L176.069 13.5738C173.195 13.9343 170.314 14.2476 167.426 14.514Z" fill="#992965"/>
<path d="M11.536 6.95585C13.076 6.92389 13.0813 4.52695 11.536 4.55891C9.1924 4.61509 6.85424 4.81162 4.53415 5.14748C4.32588 5.16131 4.12853 5.24558 3.97455 5.38644C3.82056 5.52729 3.71912 5.71632 3.68691 5.92247C3.55939 6.06572 3.46803 6.23743 3.42047 6.4232C2.05634 11.1372 0.923995 15.9071 0.0234513 20.7329C-0.256303 22.2404 2.05365 22.8875 2.33607 21.3694C2.73572 19.2228 3.17978 17.086 3.66824 14.9589C5.47681 15.1799 7.30969 15.0953 9.09018 14.7086C10.6009 14.3917 9.96144 12.08 8.45343 12.3969C7.06433 12.6847 5.63968 12.7609 4.22777 12.6232C4.66295 10.8761 5.12921 9.13616 5.62655 7.40326C7.58659 7.14506 9.55943 6.9957 11.536 6.95585Z" fill="#992965"/>
<path d="M52.1405 21.6704C52.4762 16.3438 53.0472 11.0377 53.8536 5.75201C54.0161 4.6867 53.0863 3.93031 52.0925 4.39905C46.231 7.1582 40.3295 10.0132 35.4245 14.2904C33.9812 11.1882 32.3457 8.17914 30.5274 5.28061C29.92 4.31384 28.6224 4.72398 28.3267 5.54693C28.1896 5.6204 28.0694 5.72153 27.9735 5.84395C27.8776 5.96637 27.8083 6.10737 27.7699 6.25801C26.555 10.4695 25.2103 14.6375 23.7361 18.762C23.676 18.858 23.6277 18.9609 23.5922 19.0684L23.2858 20.0378C22.8116 21.5239 25.0762 22.1071 25.5984 20.6743C27.0656 16.6332 28.4075 12.5495 29.6242 8.42321C31.2398 11.1583 32.6944 13.9853 33.9804 16.8898C34.3055 17.6195 35.3606 17.6142 35.8642 17.1322C40.2763 12.8976 45.7221 10.0798 51.1973 7.46981C50.5313 12.1856 50.0464 16.9208 49.7426 21.6756C49.6441 23.2123 52.042 23.2071 52.1405 21.6704Z" fill="#992965"/>
<path d="M14.8292 4.56695C13.9926 9.89349 13.1569 15.2156 12.3221 20.5333C12.1566 20.6723 12.033 20.8544 11.9648 21.0593C11.8966 21.2643 11.8865 21.4841 11.9357 21.6944C11.9917 21.9768 12.0477 22.259 12.1063 22.5413C12.3328 23.6573 14.2377 23.7105 14.4189 22.5413C15.3248 16.7621 16.2315 10.9828 17.1392 5.20351C17.3763 3.69343 15.0664 3.04356 14.8292 4.56695Z" fill="#992965"/>
<path d="M26.8401 25.7158C24.245 25.6182 21.6508 25.4895 19.0575 25.3297C20.3257 19.4865 21.5522 13.6343 22.737 7.77336C23.1029 5.96234 23.4643 4.15045 23.8214 2.33766C23.9439 1.7251 23.6482 1.00601 22.9847 0.86486C22.3906 0.729033 21.6393 1.04327 21.5114 1.7011C20.2556 8.045 18.9536 14.3783 17.6055 20.7009C17.2218 22.5066 16.8328 24.3123 16.4385 26.118C16.3936 26.2958 16.3893 26.4814 16.4261 26.661C16.4628 26.8406 16.5397 27.0096 16.6508 27.1555C16.7619 27.3013 16.9045 27.4203 17.0679 27.5035C17.2314 27.5867 17.4114 27.632 17.5948 27.636C20.6748 27.8367 23.7566 27.9956 26.8401 28.1128C27.1572 28.11 27.4605 27.9828 27.6848 27.7587C27.909 27.5345 28.0362 27.2313 28.039 26.9143C28.0316 26.5988 27.9028 26.2982 27.6796 26.0751C27.4563 25.8519 27.1557 25.7233 26.8401 25.7158Z" fill="#992965"/>
<path d="M62.3583 5.02741C61.0262 5.11529 59.9604 5.87171 59.2171 6.93968C57.6798 9.11823 57.9195 12.0372 58.3538 14.5167C58.5669 15.7364 58.844 16.9429 59.0199 18.168C59.0211 18.1741 59.0211 18.1805 59.0199 18.1867C59.0199 18.2586 59.0385 18.3305 59.0465 18.4024C59.0625 18.5329 59.0759 18.6687 59.0892 18.7939C59.1212 19.0895 59.1451 19.3878 59.1611 19.6861C59.1931 20.2613 59.2011 20.8392 59.1771 21.4145C59.1771 21.6808 59.1478 21.9685 59.1185 22.2428C59.1185 22.352 59.0972 22.4585 59.0839 22.5677C59.0839 22.5917 59.0839 22.621 59.0839 22.6343C59.0839 22.7249 59.0546 22.8154 59.0386 22.9006C58.9437 23.4565 58.8056 24.0041 58.6255 24.5385C58.5802 24.677 58.5297 24.8049 58.479 24.9487C58.4604 24.9993 58.4391 25.0499 58.4178 25.1005C58.2872 25.3668 58.1673 25.6331 58.0235 25.8835C57.8796 26.1338 57.757 26.3309 57.6078 26.544L57.5119 26.6718C57.504 26.6832 57.4951 26.6939 57.4853 26.7038C57.3973 26.8077 57.3094 26.9115 57.2188 27.01C57.1282 27.1086 57.003 27.2285 56.8911 27.3297L56.7765 27.4282L56.7338 27.4655L56.702 27.4894C56.5927 27.564 56.4835 27.6386 56.3689 27.7052C56.313 27.7398 56.2543 27.7717 56.1956 27.801L56.0545 27.8729H56.0359C55.9426 27.9049 55.8493 27.9369 55.756 27.9635C55.6628 27.9901 55.463 28.0194 55.4896 28.0194C55.3769 28.0261 55.2639 28.0261 55.1512 28.0194H55.122H55.106C55.0601 28.0113 55.0148 28.0007 54.9701 27.9875C54.8742 27.9635 54.5918 27.8357 54.8209 27.9528C54.6947 27.8922 54.5719 27.8247 54.4532 27.7504L54.4025 27.7158C54.3652 27.6812 54.2987 27.6279 54.296 27.6226C54.2296 27.5593 54.1665 27.4926 54.1068 27.4229C54.1708 27.4788 54.003 27.2365 53.9657 27.1912C53.9284 27.1459 53.9443 27.1139 53.931 27.0766C53.931 27.0766 53.9017 26.9675 53.9017 26.9195C53.9017 26.9195 53.9017 26.8876 53.9017 26.8583C53.9113 26.8088 53.9238 26.7599 53.939 26.7118C53.9808 26.56 53.9923 26.4014 53.9728 26.2452C53.9534 26.089 53.9033 25.9381 53.8254 25.8012C53.7476 25.6643 53.6436 25.5442 53.5193 25.4475C53.395 25.3507 53.2529 25.2794 53.1011 25.2376C52.9492 25.1958 52.7906 25.1843 52.6343 25.2038C52.478 25.2233 52.3271 25.2734 52.1902 25.3512C52.0532 25.4289 51.9329 25.5329 51.8362 25.6571C51.7394 25.7814 51.6681 25.9234 51.6263 26.0752C51.4709 26.6841 51.4932 27.3247 51.6906 27.9213C51.888 28.5179 52.2521 29.0455 52.7401 29.4416C53.2203 29.8572 53.793 30.1516 54.4105 30.3004C55.0279 30.4491 55.6721 30.4478 56.2889 30.2965C58.7428 29.708 60.2721 27.2418 60.9888 24.9967C61.7455 22.6317 61.6976 20.1016 61.3645 17.6673C61.194 16.4263 60.9142 15.2064 60.6957 13.9734C60.6398 13.6644 60.5892 13.3528 60.5439 13.0412C60.5439 13.0013 60.5146 12.8068 60.5119 12.7749C60.4906 12.5938 60.4746 12.4127 60.4613 12.2422C60.4138 11.6072 60.4209 10.9692 60.4826 10.3353C60.4986 10.2421 60.5119 10.1489 60.5305 10.069C60.5651 9.89325 60.6051 9.71747 60.6531 9.53637C60.701 9.35527 60.7543 9.19016 60.8183 9.01971C60.8316 8.98242 60.8476 8.94509 60.8609 8.90514L60.9142 8.79597C61.0281 8.56106 61.161 8.33572 61.3112 8.12216L61.3432 8.08756C61.4098 8.01299 61.4764 7.9384 61.5484 7.86916L61.6575 7.76792L61.7083 7.72533C61.8228 7.65342 61.9426 7.5895 62.0572 7.51759C62.1211 7.50161 62.1798 7.47765 62.2437 7.46167L62.3477 7.43235H62.3955C62.4621 7.43235 62.5634 7.41908 62.662 7.41908C62.6862 7.42907 62.7112 7.43704 62.7366 7.44301C62.7899 7.45899 62.8486 7.46969 62.9019 7.48833L63.0003 7.51492C63.0143 7.52792 63.0294 7.53955 63.0456 7.54958C63.0831 7.57691 63.1223 7.60176 63.163 7.62409C63.1621 7.62849 63.1621 7.63303 63.163 7.63742L63.2108 7.68274C63.2348 7.72003 63.2589 7.7573 63.2802 7.79725C63.3598 7.93312 63.4653 8.05198 63.5908 8.14706C63.7164 8.24214 63.8596 8.3116 64.012 8.35142C64.1644 8.39124 64.3231 8.40063 64.4791 8.37912C64.6352 8.35761 64.7854 8.30556 64.9213 8.22599C65.0573 8.14643 65.1763 8.0409 65.2714 7.91539C65.3665 7.78988 65.4359 7.64691 65.4758 7.49457C65.5156 7.34223 65.525 7.18351 65.5035 7.02752C65.482 6.87154 65.43 6.72132 65.3504 6.58544C65.0425 6.07652 64.6004 5.66201 64.0727 5.38723C63.545 5.11246 62.952 4.98796 62.3583 5.02741ZM59.0252 18.1893C59.0518 18.3811 59.0252 18.2453 59.0252 18.1893V18.1893ZM53.8937 26.853C53.8878 26.8266 53.8878 26.7993 53.8937 26.773C53.8991 26.7997 53.8964 26.8263 53.8937 26.853ZM55.0394 28.0488H55.0074H55.0394ZM60.472 10.3673C60.472 10.4099 60.456 10.4658 60.472 10.3673V10.3673ZM61.7215 7.704C61.7668 7.66938 61.7855 7.66139 61.7215 7.704V7.704ZM62.694 7.40575C62.7168 7.40794 62.7392 7.41333 62.7606 7.42175L62.694 7.40575ZM63.2402 7.69334C63.2616 7.71465 63.2802 7.73601 63.2802 7.74666L63.2402 7.69334Z" fill="#992965"/>
<path d="M164.314 6.15684C164.597 5.74936 164.884 5.35786 165.183 4.95571L165.332 4.76123C165.351 4.73726 165.484 4.56685 165.505 4.54289C165.665 4.34048 165.828 4.1434 165.993 3.94632C166.395 3.46426 166.499 2.71585 165.993 2.24978C165.55 1.8423 164.727 1.73577 164.298 2.24978C162.106 4.8731 160.35 7.80003 158.794 10.8308C158.738 10.2236 158.69 9.59776 158.637 8.92662C158.477 6.95846 158.29 4.97166 157.76 3.06742C157.718 2.91563 157.647 2.77358 157.55 2.6494C157.453 2.52523 157.332 2.42139 157.195 2.34374C157.058 2.26608 156.907 2.21617 156.751 2.19686C156.594 2.17754 156.436 2.18915 156.284 2.23112C156.132 2.27309 155.99 2.3446 155.866 2.44146C155.742 2.53833 155.638 2.65869 155.56 2.7957C155.482 2.93271 155.432 3.08363 155.413 3.23993C155.394 3.39622 155.405 3.55479 155.447 3.70658C155.581 4.18064 155.693 4.66007 155.786 5.14479C155.828 5.36584 155.868 5.58955 155.903 5.8106C155.924 5.93311 155.943 6.05559 155.959 6.17544L155.98 6.32726C156.105 7.27272 156.183 8.22616 156.247 9.17695C156.35 10.9975 156.577 12.8091 156.923 14.5994C155.898 16.73 154.901 18.8792 153.886 21.0152L151.088 26.909C150.822 27.4763 150.913 28.2406 151.52 28.5496C152.053 28.8319 152.874 28.7254 153.159 28.1208C154.796 24.671 156.433 21.222 158.069 17.774C159.548 14.6606 161 11.5233 162.769 8.55639C163.267 7.73876 163.776 6.93718 164.314 6.15684Z" fill="#992965"/>
</svg>
