<svg width="100" height="42" viewBox="0 0 100 42" fill="none" xmlns="http://www.w3.org/2000/svg">
<path d="M88.6313 9.30467C85.9492 9.48222 83.2617 9.55058 80.569 9.50974C79.0263 9.48045 79.0263 11.8774 80.569 11.9067C81.4242 11.9067 82.2768 11.9067 83.1294 11.9067L80.4278 27.0021C80.2903 27.3518 80.2277 27.7265 80.244 28.102C80.244 29.415 82.3568 29.7825 82.5992 28.4216L82.7085 27.8224L82.7644 27.5747C82.834 27.4062 82.8623 27.2236 82.8471 27.042C83.7529 21.9818 84.6597 16.9216 85.5673 11.8614C86.4235 11.833 87.2787 11.7912 88.133 11.7362H88.1463L88.6313 11.7069C90.1606 11.5951 90.1793 9.21145 88.6313 9.30467Z" fill="#992965"/>
<path d="M11.5494 10.1354C13.0894 10.1007 13.0947 7.70379 11.5494 7.73841C9.20572 7.79326 6.86742 7.9898 4.54748 8.32698C4.33905 8.34033 4.1415 8.42447 3.98742 8.56541C3.83334 8.70635 3.73206 8.89569 3.70031 9.10203C3.56798 9.2439 3.47191 9.41567 3.42047 9.6027C2.05634 14.3131 0.923995 19.0822 0.0234507 23.9098C-0.256304 25.4172 2.05372 26.0644 2.33614 24.5463C2.73579 22.3997 3.17984 20.2629 3.6683 18.1358C5.47678 18.3592 7.31007 18.2746 9.09024 17.8855C10.6009 17.5686 9.96144 15.2569 8.45343 15.5765C7.06434 15.8643 5.63975 15.9406 4.22784 15.8028C4.66124 14.0539 5.12749 12.3131 5.62661 10.5802C7.59125 10.3237 9.56849 10.1752 11.5494 10.1354Z" fill="#992965"/>
<path d="M49.7559 24.8502C49.6573 26.3896 52.0552 26.3843 52.1538 24.8502C52.4895 19.5237 53.0606 14.2176 53.867 8.93189C54.0295 7.86658 53.0996 7.11025 52.1058 7.57899C46.2442 10.3355 40.3427 13.1931 35.4377 17.4703C33.9944 14.3673 32.359 11.3573 30.5407 8.45788C29.9332 7.49111 28.6357 7.90392 28.34 8.72421C28.2026 8.79727 28.0821 8.89829 27.9862 9.02077C27.8902 9.14325 27.821 9.28444 27.7831 9.43528C26.5681 13.6468 25.2236 17.8148 23.7494 21.9393C23.6888 22.035 23.6405 22.1379 23.6055 22.2456C23.5042 22.5678 23.4004 22.8901 23.2991 23.215C22.8249 24.6985 25.0895 25.2817 25.6117 23.8515C27.0806 19.8087 28.4226 15.725 29.6376 11.6005C31.2521 14.3361 32.7065 17.1631 33.9936 20.067C34.3187 20.7994 35.3739 20.7941 35.8774 20.312C40.2895 16.0748 45.7354 13.2571 51.2106 10.6471C50.5445 15.3611 50.0596 20.0954 49.7559 24.8502Z" fill="#992965"/>
<path d="M14.8531 7.74388C14.0165 13.0704 13.1808 18.3925 12.3459 23.7102C12.181 23.8495 12.0578 24.0317 11.9896 24.2365C11.9215 24.4414 11.9111 24.661 11.9597 24.8714C12.0156 25.1537 12.0715 25.436 12.1301 25.7183C12.3566 26.8369 14.2616 26.8875 14.4428 25.7183C15.3487 19.939 16.2554 14.1597 17.1631 8.38044C17.3895 6.87303 15.0796 6.22848 14.8531 7.74388Z" fill="#992965"/>
<path d="M76.719 0.902043C76.4431 0.748959 76.1189 0.708127 75.8137 0.787996C75.5084 0.867864 75.2457 1.06231 75.0803 1.33086C73.7748 3.28392 72.4737 5.23699 71.1771 7.19005L65.6007 15.55C63.5385 18.6394 61.4755 21.7261 59.4115 24.8102C57.5038 27.651 55.5917 30.4919 53.6751 33.3327C52.2763 35.4047 50.8776 37.4741 49.4549 39.5274L49.0951 40.0414C48.9366 40.3166 48.893 40.6432 48.9738 40.9504C49.0546 41.2575 49.2533 41.5204 49.5268 41.682C49.8036 41.8337 50.1281 41.8735 50.4334 41.7932C50.7387 41.713 51.0016 41.5187 51.1679 41.2506C52.5001 39.3303 53.819 37.3915 55.1326 35.45C57.0082 32.6748 58.8733 29.8953 60.7277 27.1112C62.7952 24.0272 64.8591 20.9413 66.9195 17.8537L72.6265 9.29667C74.0119 7.21932 75.3992 5.14111 76.7882 3.06198L77.1372 2.54259C77.2962 2.26883 77.3415 1.94366 77.2633 1.63691C77.1851 1.33017 76.9897 1.06634 76.719 0.902043Z" fill="#992965"/>
<path d="M26.8427 28.8958C24.2476 28.7945 21.6535 28.6649 19.0602 28.5069C20.3284 22.6636 21.5549 16.8116 22.7397 10.9506C23.1038 9.13959 23.4662 7.32859 23.8267 5.51757C23.9466 4.90235 23.6508 4.18592 22.9874 4.04211C22.3932 3.90628 21.6552 4.22052 21.514 4.87834C20.26 11.2223 18.958 17.5564 17.6081 23.8808C17.2244 25.6865 16.8355 27.4922 16.4411 29.2979C16.3962 29.4755 16.3919 29.6609 16.4287 29.8404C16.4654 30.0199 16.5423 30.1889 16.6535 30.3345C16.7646 30.4802 16.9072 30.5989 17.0707 30.6818C17.2341 30.7647 17.4142 30.8097 17.5974 30.8133C20.6774 31.0139 23.7592 31.1737 26.8427 31.2927C27.1596 31.2892 27.4625 31.1618 27.6866 30.9378C27.9107 30.7138 28.0382 30.411 28.0417 30.0942C28.0349 29.7785 27.9064 29.4776 27.683 29.2543C27.4596 29.031 27.1586 28.9025 26.8427 28.8958Z" fill="#992965"/>
<path d="M99.0914 12.2686C98.7854 12.1922 98.4617 12.2365 98.1874 12.3921C97.9131 12.5478 97.7093 12.8031 97.6181 13.1049L93.8428 23.3505C93.6137 22.184 93.4058 21.0122 93.2273 19.835C93.182 19.5367 93.1394 19.2411 93.0994 18.9428L93.0674 18.7164C93.0674 18.6951 93.0673 18.6658 93.054 18.6259L92.9901 18.1145C92.9155 17.5197 92.848 16.924 92.7876 16.3274C92.6597 15.0455 92.5639 13.7636 92.4999 12.4817C92.4999 12.1638 92.3735 11.859 92.1487 11.6343C91.9238 11.4095 91.619 11.2832 91.301 11.2832C90.983 11.2832 90.678 11.4095 90.4532 11.6343C90.2283 11.859 90.1021 12.1638 90.1021 12.4817C90.3716 17.6852 91.1406 22.8508 92.3986 27.9073C92.4704 28.1593 92.6219 28.3813 92.8303 28.5402C93.0387 28.699 93.2929 28.7863 93.555 28.7889C93.8151 28.779 94.0659 28.689 94.2729 28.5312C94.4799 28.3734 94.6329 28.1555 94.7113 27.9073L99.9307 13.7414C100.013 13.4349 99.9716 13.1082 99.8144 12.8323C99.6572 12.5565 99.3973 12.3539 99.0914 12.2686Z" fill="#992965"/>
</svg>
