<svg width="181" height="51" viewBox="0 0 181 51" fill="none" xmlns="http://www.w3.org/2000/svg">
<path d="M75.6174 9.17211C74.519 12.0374 73.5383 14.9434 72.6753 17.8899C71.9103 18.0244 71.1426 18.149 70.372 18.2639C71.1454 15.9195 71.9216 13.5765 72.7005 11.2349C73.4655 8.91999 69.8132 7.92431 69.0524 10.2267C68.1082 13.0752 67.1638 15.9237 66.2195 18.7722L65.1687 18.873C62.8403 19.0705 62.7479 22.5954 64.9377 22.6543C63.7608 26.2002 62.5866 29.7448 61.4154 33.2879C61.3817 33.3383 61.3481 33.3845 61.3187 33.4392C60.9551 34.0381 60.7754 34.7305 60.8017 35.4306C60.8269 37.6111 63.8533 37.9514 64.5173 35.9347C66.0304 31.3721 67.5421 26.808 69.0524 22.2425C69.893 22.1389 70.7406 22.0199 71.5952 21.8854L71.5447 22.0871C71.0207 24.2158 70.5626 26.3598 70.1703 28.5193C69.9854 29.5319 69.8173 30.5528 69.6618 31.5737C69.6029 31.9645 69.5903 33.6744 69.3802 34.355C68.0941 35.1953 67.8966 37.4262 69.7543 37.7161C72.0912 38.0732 72.7889 36.3969 73.0537 34.3803C73.4236 31.6046 73.904 28.8484 74.4952 26.112C75.6759 20.6893 77.2692 15.3646 79.2614 10.1846C80.1357 7.90326 76.4832 6.92018 75.6174 9.17211Z" fill="#992965"/>
<path d="M30.5021 33.3048C31.4016 31.1789 32.3178 29.0586 33.2509 26.944L38.6687 25.797C38.3549 29.0489 37.908 32.2895 37.3279 35.519C37.0777 35.675 36.8667 35.8865 36.7114 36.1372C36.5562 36.3878 36.4608 36.6708 36.4325 36.9642C36.3291 37.8698 36.5397 38.7834 37.0293 39.5522C37.7985 40.8925 40.1565 40.7286 40.4843 39.0985C41.4278 34.4331 42.1112 29.719 42.5312 24.9778L44.099 24.6458C46.4779 24.1459 45.4692 20.4991 43.0903 21.0032L42.8169 21.0579C43.1048 16.0818 43.0966 11.093 42.7919 6.11785C42.6868 4.38689 40.1606 3.36175 39.2696 5.16414C34.9993 13.7881 30.9883 22.5326 27.2363 31.3974C26.2991 33.6326 29.548 35.5399 30.5021 33.3048ZM35.1507 22.6838C36.4873 19.726 37.8517 16.7851 39.2443 13.8609C39.2443 16.5358 39.1589 19.2079 38.988 21.8772L35.1507 22.6838Z" fill="#992965"/>
<path d="M154.172 21.0032L153.895 21.0579C154.184 16.0818 154.177 11.093 153.874 6.11785C153.764 4.38689 151.238 3.36175 150.347 5.16414C146.08 13.7881 142.069 22.5326 138.314 31.3974C137.377 33.6116 140.634 35.5399 141.584 33.3048C142.483 31.1789 143.398 29.0586 144.328 26.944L149.746 25.797C149.432 29.0489 148.985 32.2895 148.405 35.519C148.155 35.675 147.944 35.8865 147.789 36.1372C147.634 36.3878 147.538 36.6708 147.51 36.9642C147.407 37.8698 147.617 38.7834 148.107 39.5522C148.876 40.8925 151.238 40.7286 151.566 39.0985C152.508 34.4331 153.19 29.7189 153.609 24.9778L155.176 24.6458C157.555 24.1459 156.551 20.4991 154.172 21.0032ZM146.233 22.6838C147.569 19.726 148.934 16.7851 150.326 13.8609C150.326 16.5358 150.239 19.2079 150.066 21.8772L146.233 22.6838Z" fill="#992965"/>
<path d="M60.764 10.8819H60.7849L61.55 10.8357C63.9625 10.6719 63.992 6.90744 61.55 7.05449C57.3133 7.33458 53.0738 7.44242 48.8315 7.378C46.398 7.33179 46.398 11.113 48.8315 11.1592C50.1807 11.1844 51.5258 11.1844 52.8708 11.1592L48.6088 34.9515C48.3879 35.5036 48.289 36.097 48.3189 36.6909C48.3189 38.758 51.6476 39.3419 52.0343 37.1908C52.0889 36.8757 52.1477 36.5606 52.2024 36.2455C52.2318 36.1153 52.2613 35.9851 52.2949 35.8548C52.4061 35.5896 52.4494 35.3008 52.4209 35.0146C53.8528 27.0264 55.2832 19.0438 56.7122 11.0668C58.0782 11.0332 59.4274 10.9702 60.764 10.8819Z" fill="#992965"/>
<path d="M126.331 20.323C131.156 16.2645 135.892 12.1052 140.537 7.84502C142.336 6.19809 139.655 3.53023 137.864 5.17296C133.804 8.90097 129.674 12.5421 125.474 16.0965C126.499 12.4805 127.613 8.88976 128.815 5.32421C129.601 3.01346 125.949 2.02193 125.171 4.32008C121.716 14.4959 119.01 24.9109 117.076 35.4816C116.924 35.6521 116.808 35.8518 116.736 36.0685C116.664 36.2852 116.637 36.5144 116.656 36.742C116.656 37.0991 116.656 37.4562 116.69 37.8133C116.753 39.8426 120.018 40.5022 120.405 38.3175C121.296 33.2002 122.372 28.1264 123.633 23.096C127.046 28.5073 130.408 33.9495 133.72 39.4224C134.981 41.4979 138.255 39.6031 136.99 37.5108C133.49 31.7493 129.937 26.0201 126.331 20.323Z" fill="#992965"/>
<path d="M177.075 5.97975C175.755 14.3825 174.436 22.7852 173.119 31.1879C172.859 31.4072 172.663 31.6944 172.556 32.0177C172.448 32.3411 172.433 32.6879 172.51 33.0197C172.598 33.465 172.691 33.9103 172.779 34.3557C173.136 36.1161 176.141 36.2001 176.427 34.3557C177.856 25.2387 179.288 16.1218 180.723 7.00486C181.097 4.60588 177.453 3.58077 177.075 5.97975Z" fill="#992965"/>
<path d="M113.386 38.5779L113.062 37.9982L112.251 36.5361L110.625 33.5951L107.376 27.7552L106.699 26.541C106.806 26.3039 106.855 26.0446 106.842 25.7848C106.804 24.9445 106.136 23.953 105.224 23.89L100.874 16.0754L97.9315 10.8028L97.9524 10.7733C98.204 10.34 98.2742 9.82481 98.1474 9.34004C98.0207 8.85528 97.7074 8.44023 97.2758 8.18534C96.863 7.95703 96.3805 7.8882 95.9203 7.99199C95.46 8.09577 95.054 8.36493 94.7792 8.7483C94.7244 8.77153 94.6709 8.79817 94.6194 8.82811C94.37 8.98626 94.1591 9.19812 94.002 9.44816C93.845 9.6982 93.7458 9.98014 93.7117 10.2734L82.6534 26.2386C82.3424 26.2638 82.0356 26.2932 81.7246 26.3142C80.7411 26.3898 79.787 27.1292 79.8332 28.2048C79.8617 28.6922 80.0542 29.1556 80.3795 29.5198L79.4213 30.9063L75.1257 37.1075C74.9161 37.4687 74.8319 37.8889 74.8858 38.303C74.9398 38.7171 75.1289 39.1017 75.4241 39.3972C75.723 39.6867 76.1074 39.8722 76.52 39.9259C76.9327 39.9796 77.3518 39.8989 77.7149 39.6955L78.341 39.3174C78.6089 39.1484 78.833 38.9181 78.9945 38.6457C79.156 38.3733 79.2502 38.0664 79.2699 37.7503L84.7338 29.8475C90.8759 29.3349 97.0025 28.6865 103.114 27.9023L108.511 37.599L109.523 39.4224C109.847 40.09 110.22 40.7331 110.637 41.3466C110.914 41.7093 111.292 41.9823 111.723 42.1317C112.154 42.2811 112.62 42.3004 113.062 42.1869C114.231 41.8718 115.025 40.3299 114.227 39.2754C114.001 38.9843 113.714 38.7462 113.386 38.5779ZM87.529 25.8604L93.6696 16.9956L95.54 14.2899L101.164 24.3731C96.6243 24.9445 92.0795 25.4403 87.529 25.8604Z" fill="#992965"/>
<path d="M174.431 40.1027C170.337 39.9458 166.246 39.7413 162.158 39.4893C164.156 30.2715 166.089 21.0397 167.958 11.7939C168.538 8.94262 169.11 6.08568 169.673 3.22316C169.862 2.25684 169.4 1.12246 168.353 0.895588C167.412 0.685521 166.252 1.18129 166.025 2.21903C164.049 12.2211 161.997 22.2119 159.867 32.1915C159.256 35.04 158.641 37.8886 158.022 40.7371C157.951 41.0175 157.945 41.3103 158.003 41.5936C158.061 41.877 158.182 42.1437 158.357 42.3738C158.532 42.6039 158.757 42.7916 159.015 42.9228C159.273 43.0541 159.557 43.1255 159.846 43.1319C164.705 43.4484 169.566 43.6991 174.431 43.8839C174.931 43.8806 175.411 43.6803 175.765 43.3265C176.119 42.9726 176.319 42.4937 176.322 41.9933C176.311 41.4952 176.109 41.0205 175.756 40.6683C175.404 40.316 174.929 40.1134 174.431 40.1027Z" fill="#992965"/>
<path d="M46.7763 45.816C46.5174 45.3889 46.1025 45.0792 45.6194 44.9521C45.1363 44.8251 44.6227 44.8909 44.1871 45.1354C44.1367 45.169 44.0947 45.211 44.0443 45.2488C38.7527 42.8204 33.4946 40.2996 28.493 37.3041C27.0219 36.4274 25.5789 35.5031 24.1638 34.5312C23.4619 34.048 22.7642 33.5522 22.0623 33.0439L21.5201 32.6237L21.3142 32.4725L20.3181 31.6784C17.6631 29.5435 15.226 27.1511 13.0426 24.5361C11.7439 22.9606 10.4157 21.3179 8.83959 20.0785C8.90683 19.7886 8.96986 19.4987 9.03291 19.2088C14.5495 16.1739 20.3527 13.6914 26.3578 11.7976C26.824 11.6497 27.2148 11.3271 27.4481 10.8974C27.6814 10.4677 27.739 9.96442 27.6091 9.49313C27.4791 9.02183 27.1715 8.6192 26.7509 8.36971C26.3303 8.12021 25.8294 8.04326 25.3533 8.15502C20.0921 9.82307 14.9755 11.9167 10.0543 14.4151C10.399 12.7807 10.7436 11.1464 11.0756 9.51205C11.269 8.54574 10.7982 7.41141 9.75582 7.18874C8.81013 6.97447 7.65439 7.47019 7.42742 8.50792C6.86702 11.2556 6.29116 14.0005 5.69993 16.7426C4.79207 17.2608 3.89266 17.7915 3.00161 18.3349C2.64632 18.5497 2.37 18.8736 2.21396 19.2583C2.05792 19.6429 2.0305 20.0677 2.13577 20.4692C2.25735 20.8615 2.49848 21.206 2.82553 21.4546C3.15258 21.7032 3.54924 21.8434 3.95992 21.8556H4.14062L4.56092 21.9523C3.68669 25.8427 2.78025 29.729 1.84157 33.611C1.26155 35.989 0.67034 38.3698 0.0679049 40.7533C-0.0653035 41.2369 -0.000930959 41.7537 0.246965 42.1898C0.494861 42.6259 0.905982 42.9457 1.38977 43.0788C1.87355 43.212 2.39038 43.1476 2.82666 42.8998C3.26294 42.652 3.5829 42.2411 3.71611 41.7575C5.19558 35.9596 6.59659 30.1408 7.91915 24.3009C8.70091 25.1411 9.41543 26.0234 10.1342 26.9015C12.2545 29.4894 14.6223 31.8646 17.2037 33.9934C22.5163 38.4006 28.4929 41.8919 34.6546 44.9715C38.1137 46.6983 41.6274 48.3074 45.1622 49.9039C45.527 50.1037 45.9458 50.1824 46.3582 50.1288C46.7707 50.0752 47.1555 49.892 47.457 49.6056C47.746 49.3064 47.9308 48.922 47.9838 48.5095C48.0368 48.097 47.9553 47.6784 47.7513 47.3159L46.7763 45.816Z" fill="#992965"/>
</svg>
