<svg width="115" height="32" viewBox="0 0 115 32" fill="none" xmlns="http://www.w3.org/2000/svg">
<path d="M47.9344 5.65749C47.2381 7.47384 46.6164 9.31593 46.0694 11.1838C45.5844 11.269 45.0978 11.348 44.6093 11.4208C45.0995 9.9347 45.5916 8.44946 46.0854 6.96513C46.5703 5.49767 44.255 4.8665 43.7728 6.32597C43.1742 8.13167 42.5756 9.93735 41.977 11.743L41.3109 11.807C39.8349 11.9321 39.7763 14.1666 41.1644 14.2039C40.4184 16.4517 39.6741 18.6986 38.9316 20.9447C38.9103 20.9766 38.889 21.0059 38.8703 21.0405C38.6399 21.4202 38.5259 21.8591 38.5426 22.3029C38.5586 23.6852 40.477 23.9009 40.898 22.6225C41.8571 19.7302 42.8154 16.837 43.7728 13.9429C44.3057 13.8772 44.8429 13.8018 45.3847 13.7165L45.3527 13.8444C45.0205 15.1938 44.7301 16.5529 44.4814 17.9218C44.3642 18.5637 44.2576 19.2108 44.1591 19.858C44.1218 20.1057 44.1138 21.1897 43.9806 21.6211C43.1653 22.1538 43.0401 23.568 44.2177 23.7517C45.6991 23.9781 46.1414 22.9155 46.3093 21.6371C46.5437 19.8776 46.8483 18.1304 47.223 16.3958C47.9715 12.9583 48.9815 9.58298 50.2443 6.29931C50.7985 4.85316 48.4832 4.22997 47.9344 5.65749Z" fill="#992965"/>
<path d="M19.3355 20.9551C19.9056 19.6075 20.4865 18.2635 21.0779 16.923L24.5123 16.1959C24.3134 18.2573 24.0301 20.3115 23.6624 22.3587C23.5038 22.4576 23.37 22.5917 23.2716 22.7506C23.1732 22.9095 23.1127 23.0889 23.0948 23.2749C23.0292 23.8489 23.1627 24.428 23.4731 24.9154C23.9607 25.765 25.4554 25.6611 25.6632 24.6278C26.2613 21.6704 26.6946 18.682 26.9608 15.6766L27.9546 15.4662C29.4626 15.1492 28.8232 12.8375 27.3152 13.1571L27.1419 13.1917C27.3244 10.0373 27.3192 6.87489 27.126 3.72114C27.0594 2.62387 25.458 1.97403 24.8932 3.11657C22.1862 8.58338 19.6436 14.1265 17.2653 19.746C16.6711 21.1629 18.7306 22.372 19.3355 20.9551ZM22.2822 14.2224C23.1295 12.3475 23.9944 10.4832 24.8772 8.62953C24.8772 10.3251 24.8231 12.019 24.7147 13.7111L22.2822 14.2224Z" fill="#992965"/>
<path d="M97.7308 13.1571L97.5549 13.1917C97.7383 10.0374 97.7337 6.87495 97.5415 3.72114C97.4722 2.62387 95.871 1.97403 95.3062 3.11657C92.601 8.58338 90.0583 14.1265 87.6781 19.746C87.084 21.1496 89.1489 22.372 89.751 20.9551C90.3212 19.6075 90.9011 18.2635 91.4908 16.923L94.9252 16.1959C94.7262 18.2573 94.4429 20.3115 94.0753 22.3587C93.9166 22.4576 93.783 22.5917 93.6846 22.7506C93.5862 22.9095 93.5257 23.0889 93.5078 23.2749C93.4422 23.8489 93.5757 24.428 93.8861 24.9154C94.3737 25.765 95.871 25.6611 96.0788 24.6278C96.6761 21.6703 97.1083 18.682 97.3737 15.6766L98.3675 15.4662C99.8755 15.1492 99.2388 12.8375 97.7308 13.1571ZM92.6978 14.2224C93.5451 12.3475 94.41 10.4832 95.2928 8.62953C95.2928 10.3251 95.2378 12.019 95.1277 13.7111L92.6978 14.2224Z" fill="#992965"/>
<path d="M38.5187 6.74115H38.5319L39.0169 6.71186C40.5463 6.60799 40.5649 4.2217 39.0169 4.31492C36.3313 4.49247 33.6438 4.56083 30.9546 4.51999C29.4119 4.4907 29.4119 6.88764 30.9546 6.91694C31.8098 6.93292 32.6625 6.93292 33.5151 6.91694L30.8134 21.999C30.6734 22.349 30.6107 22.7251 30.6296 23.1016C30.6296 24.412 32.7397 24.7821 32.9848 23.4185C33.0195 23.2188 33.0568 23.019 33.0914 22.8193C33.11 22.7367 33.1288 22.6542 33.1501 22.5716C33.2206 22.4035 33.248 22.2204 33.2299 22.039C34.1376 16.9752 35.0443 11.915 35.9502 6.85835C36.8161 6.83705 37.6714 6.79708 38.5187 6.74115Z" fill="#992965"/>
<path d="M80.0822 12.7257C83.1408 10.153 86.1426 7.5164 89.0876 4.81585C90.2279 3.77185 88.5281 2.08067 87.3931 3.12201C84.8193 5.48522 82.2012 7.79339 79.5386 10.0465C80.1887 7.75432 80.8948 5.47811 81.6568 3.21789C82.1551 1.75309 79.8398 1.12455 79.3469 2.58136C77.1564 9.03185 75.4413 15.634 74.2153 22.3348C74.1189 22.4429 74.0456 22.5695 73.9998 22.7069C73.9539 22.8443 73.9366 22.9895 73.9489 23.1338C73.9489 23.3602 73.9489 23.5866 73.9702 23.8129C74.0102 25.0993 76.0803 25.5174 76.3254 24.1325C76.8903 20.8887 77.5724 17.6723 78.3717 14.4835C80.5351 17.9138 82.6666 21.3636 84.7661 24.833C85.5654 26.1486 87.6409 24.9475 86.8389 23.6212C84.6204 19.969 82.3682 16.3371 80.0822 12.7257Z" fill="#992965"/>
<path d="M112.249 3.6333C111.412 8.95984 110.576 14.2864 109.742 19.6129C109.576 19.7519 109.453 19.934 109.384 20.1389C109.316 20.3439 109.306 20.5638 109.355 20.7741C109.411 21.0564 109.47 21.3387 109.526 21.621C109.752 22.7369 111.657 22.7902 111.838 21.621C112.744 15.8417 113.652 10.0624 114.561 4.28313C114.799 2.7624 112.489 2.11258 112.249 3.6333Z" fill="#992965"/>
<path d="M71.8762 24.2977L71.6711 23.9302L71.1568 23.0033L70.1257 21.1391L68.0661 17.4371L67.6372 16.6674C67.7052 16.5171 67.7362 16.3527 67.7278 16.188C67.7038 15.6554 67.2801 15.0269 66.702 14.9869L63.9445 10.0332L62.0795 6.69082L62.0927 6.67216C62.2522 6.39745 62.2967 6.07089 62.2163 5.76359C62.136 5.45629 61.9374 5.19319 61.6638 5.03161C61.4021 4.88689 61.0963 4.84326 60.8045 4.90905C60.5128 4.97484 60.2554 5.14546 60.0812 5.38848C60.0464 5.4032 60.0125 5.42009 59.9799 5.43907C59.8218 5.53932 59.6881 5.67362 59.5885 5.83212C59.489 5.99062 59.4261 6.16935 59.4045 6.35525L52.3946 16.4757C52.1974 16.4917 52.0029 16.5103 51.8058 16.5236C51.1823 16.5715 50.5775 17.0403 50.6068 17.7221C50.6249 18.031 50.7469 18.3248 50.9531 18.5557L50.3457 19.4346L47.6227 23.3655C47.4899 23.5945 47.4364 23.8609 47.4706 24.1234C47.5049 24.3859 47.6248 24.6297 47.8119 24.817C48.0013 25.0006 48.245 25.1181 48.5066 25.1522C48.7682 25.1862 49.0338 25.135 49.264 25.0061L49.6609 24.7664C49.8307 24.6593 49.9728 24.5133 50.0751 24.3406C50.1775 24.1679 50.2373 23.9734 50.2497 23.773L53.7134 18.7634C57.6068 18.4385 61.4905 18.0275 65.3645 17.5303L68.7856 23.6771L69.4276 24.833C69.633 25.2562 69.8691 25.6639 70.1337 26.0528C70.3093 26.2826 70.5487 26.4557 70.8221 26.5504C71.0954 26.6452 71.3908 26.6573 71.6711 26.5854C72.4117 26.3857 72.9153 25.4083 72.4091 24.7398C72.2659 24.5553 72.084 24.4044 71.8762 24.2977ZM55.4852 16.236L59.3778 10.6165L60.5635 8.90132L64.1283 15.2932C61.2508 15.6554 58.3698 15.9696 55.4852 16.236Z" fill="#992965"/>
<path d="M110.573 25.2643C107.978 25.1649 105.385 25.0353 102.793 24.8755C104.06 19.0323 105.285 13.1802 106.47 7.31923C106.837 5.51175 107.2 3.70073 107.557 1.88615C107.677 1.2736 107.384 0.554507 106.72 0.41069C106.123 0.277527 105.388 0.591799 105.244 1.24963C103.992 7.58998 102.691 13.9232 101.341 20.2494C100.954 22.0551 100.564 23.8608 100.171 25.6665C100.126 25.8443 100.122 26.0298 100.159 26.2094C100.196 26.3891 100.272 26.5581 100.384 26.704C100.495 26.8499 100.637 26.9688 100.801 27.052C100.964 27.1352 101.144 27.1805 101.328 27.1845C104.408 27.3852 107.489 27.5441 110.573 27.6613C110.89 27.6592 111.194 27.5322 111.418 27.3079C111.643 27.0836 111.77 26.78 111.772 26.4628C111.765 26.1471 111.636 25.8462 111.413 25.6229C111.19 25.3996 110.889 25.2711 110.573 25.2643Z" fill="#992965"/>
<path d="M29.6518 28.8863C29.4877 28.6156 29.2247 28.4192 28.9185 28.3387C28.6122 28.2582 28.2866 28.2999 28.0105 28.4549C27.9786 28.4762 27.952 28.5028 27.92 28.5268C24.5656 26.9874 21.2324 25.3895 18.0619 23.4906C17.1294 22.9348 16.2146 22.3489 15.3176 21.7328C14.8727 21.4265 14.4304 21.1123 13.9854 20.79L13.6417 20.5237L13.5112 20.4278L12.8798 19.9244C11.1967 18.5711 9.65187 17.0545 8.2678 15.3969C7.44452 14.3982 6.6026 13.3568 5.60347 12.5712C5.6461 12.3874 5.68606 12.2036 5.72602 12.0199C9.22303 10.096 12.9017 8.52236 16.7084 7.32186C17.0039 7.22811 17.2516 7.02357 17.3995 6.7512C17.5474 6.47883 17.584 6.15978 17.5016 5.86103C17.4192 5.56227 17.2242 5.30704 16.9576 5.14888C16.691 4.99073 16.3735 4.94195 16.0716 5.01279C12.7365 6.07018 9.49309 7.39733 6.3735 8.98107C6.59197 7.94506 6.81043 6.90904 7.02091 5.87302C7.14347 5.26047 6.84503 4.54141 6.18428 4.40026C5.5848 4.26443 4.85217 4.57867 4.70829 5.2365C4.35305 6.97828 3.98801 8.7183 3.61322 10.4565C3.03773 10.785 2.46758 11.1214 1.90274 11.4659C1.67752 11.6021 1.50236 11.8074 1.40344 12.0512C1.30453 12.295 1.28714 12.5643 1.35388 12.8188C1.43095 13.0675 1.5838 13.2859 1.79112 13.4435C1.99844 13.6011 2.24989 13.6899 2.51022 13.6977H2.62477L2.8912 13.759C2.33702 16.2251 1.76242 18.6887 1.16739 21.1495C0.799708 22.6569 0.424933 24.1661 0.0430453 25.6771C-0.0413963 25.9836 -0.000590141 26.3112 0.156553 26.5876C0.313695 26.8641 0.574308 27.0668 0.880983 27.1512C1.18766 27.2356 1.51528 27.1948 1.79184 27.0377C2.0684 26.8806 2.27123 26.6202 2.35567 26.3136C3.29351 22.6383 4.18162 18.9497 5.02 15.2478C5.51556 15.7804 5.96851 16.3397 6.42411 16.8963C7.76823 18.5368 9.26914 20.0425 10.9055 21.3919C14.2732 24.1857 18.0619 26.3988 21.9678 28.351C24.1605 29.4456 26.3879 30.4657 28.6286 31.4777C28.8598 31.6043 29.1253 31.6542 29.3868 31.6203C29.6483 31.5863 29.8922 31.4701 30.0833 31.2886C30.2665 31.0989 30.3837 30.8553 30.4173 30.5938C30.4509 30.3323 30.3992 30.0669 30.2699 29.8371L29.6518 28.8863Z" fill="#992965"/>
</svg>
