<svg width="182" height="22" viewBox="0 0 182 22" fill="none" xmlns="http://www.w3.org/2000/svg">
<path d="M156.29 1.97281L138.319 1.40283C137.612 1.49669 136.967 1.85561 136.515 2.40689C135.025 7.39253 133.534 12.3773 132.042 17.3612C131.995 17.5391 131.99 17.7251 132.026 17.9054C132.062 18.0857 132.139 18.2554 132.25 18.4017C132.361 18.5479 132.505 18.6669 132.669 18.7496C132.833 18.8324 133.014 18.8767 133.198 18.8792L143.029 18.8659H147.684C148.909 18.8659 150.644 19.2041 151.699 18.4531C152.946 17.5662 151.75 15.4862 150.489 16.3837C150.111 16.65 149.157 16.4663 148.72 16.469H146.392H141.993H134.799L136.398 11.1424C141.825 11.8598 147.289 12.2626 152.762 12.3489C154.305 12.3729 154.307 9.97592 152.762 9.95195C147.521 9.87592 142.287 9.50337 137.088 8.83606C137.592 7.15642 138.095 5.47585 138.596 3.79444L156.287 4.35642C157.832 4.41768 157.83 2.02075 156.29 1.97281Z" fill="#992965"/>
<path d="M7.08983 0.982348C6.87836 0.886754 6.6396 0.869922 6.41679 0.934882C6.19398 0.999843 6.00179 1.14227 5.87488 1.33652C5.25143 0.99562 4.36689 1.13679 4.16174 2.02366L2.15549 10.8125C1.83932 12.1902 1.52403 13.5672 1.20964 14.9432C0.943202 16.1124 0.778013 17.4147 0.410336 18.5892C-0.0505937 18.9327 -0.0985517 19.6545 0.143903 20.1259C0.162553 20.1579 0.178523 20.1925 0.194509 20.2271C0.357612 20.499 0.62078 20.6961 0.927591 20.7762C1.2344 20.8564 1.56047 20.8132 1.83578 20.6559C2.83757 20.0407 2.86421 18.4214 3.09867 17.388C3.47345 15.7528 3.84823 14.1176 4.22301 12.4823L4.85709 9.70722C6.92195 9.07336 9.93529 7.94145 10.6387 5.82149C11.4699 3.28605 9.10673 1.73605 7.08983 0.982348ZM7.41754 5.9094C6.80887 6.29743 6.16797 6.63247 5.5019 6.91079L6.34114 3.24613C6.37844 3.26211 6.41306 3.28073 6.45302 3.29405C6.95125 3.48048 7.61467 3.68555 7.98768 4.09303C8.72836 4.88402 8.16622 5.41669 7.41754 5.9094Z" fill="#992965"/>
<path d="M179.291 5.05149C177.895 3.5281 176.094 2.38824 174.335 1.34691C173.107 0.60918 171.98 2.33498 172.878 3.21119L171.231 15.4143C170.933 15.5528 170.629 15.6806 170.323 15.8138C170.271 15.8277 170.22 15.8464 170.171 15.8697L169.739 16.0588C168.511 16.5915 169.401 18.762 170.664 18.2507C172.868 17.3753 174.966 16.255 176.92 14.9109C178.409 13.8696 180.887 12.4102 181.449 10.5645C182.03 8.63896 180.53 6.40709 179.291 5.05149ZM178.881 10.2396C178.513 10.8308 177.642 11.3741 177.096 11.8109C176.412 12.3633 175.701 12.8798 174.964 13.3583C174.588 13.606 174.205 13.843 173.818 14.072L175.089 4.6414C175.733 5.07074 176.344 5.54695 176.917 6.06621C177.863 6.94509 179.712 8.9053 178.881 10.2396Z" fill="#992965"/>
<path d="M165.66 16.4822C163.734 16.4103 161.808 16.397 159.881 16.3171C160.244 14.6153 160.593 12.9081 160.904 11.1956C161.19 9.6163 161.437 8.03164 161.736 6.44966C161.997 5.00617 162.271 3.56445 162.559 2.12451C162.679 1.51196 162.383 0.792932 161.72 0.649115C161.126 0.513288 160.374 0.830191 160.246 1.48802C159.503 5.25388 158.914 9.04905 158.163 12.8122C157.875 14.2531 157.569 15.6886 157.257 17.1214C157.212 17.2992 157.207 17.485 157.243 17.6648C157.28 17.8447 157.357 18.0139 157.468 18.1599C157.579 18.3059 157.722 18.4249 157.886 18.5079C158.049 18.591 158.23 18.6359 158.413 18.6394C160.827 18.7939 163.244 18.7886 165.66 18.8792C165.978 18.8771 166.281 18.7502 166.506 18.5259C166.73 18.3015 166.857 17.9979 166.859 17.6807C166.854 17.3646 166.726 17.0629 166.502 16.8393C166.278 16.6158 165.977 16.4877 165.66 16.4822Z" fill="#992965"/>
<path d="M48.4162 2.154C48.1101 2.07486 47.7851 2.11789 47.5101 2.27396C47.2351 2.43004 47.0318 2.68689 46.9429 2.99024C45.9784 6.85553 44.9712 10.7075 43.9215 14.5462L42.8824 18.328C42.8406 18.4798 42.8291 18.6383 42.8486 18.7946C42.868 18.9508 42.9182 19.1017 42.996 19.2386C43.0738 19.3755 43.1778 19.4957 43.3021 19.5924C43.4264 19.6891 43.5685 19.7603 43.7203 19.8021C43.8722 19.8439 44.0308 19.8554 44.1871 19.8359C44.3434 19.8165 44.4943 19.7664 44.6312 19.6887C44.7682 19.6109 44.8885 19.5069 44.9852 19.3827C45.082 19.2584 45.1533 19.1164 45.1951 18.9646C46.2608 15.1242 47.3106 11.2837 48.2964 7.42196C48.6214 6.15957 48.9384 4.89452 49.2555 3.62946C49.3346 3.32274 49.2914 2.99726 49.1347 2.7219C48.9781 2.44653 48.7204 2.24286 48.4162 2.154Z" fill="#992965"/>
<path d="M42.5786 1.95412C41.9791 1.23238 40.9348 0.960704 40.0342 0.936735C39.0093 0.912972 38.0081 1.24629 37.2021 1.87954C36.4078 2.50614 35.8453 3.37962 35.6035 4.36173C35.3758 5.43603 35.4023 6.54862 35.6808 7.6109C35.8886 8.54837 36.2136 9.45653 36.4108 10.394C36.4587 10.6124 36.496 10.8334 36.5333 11.0518V11.1104C36.5333 11.1104 36.5333 11.1264 36.5333 11.1424C36.5466 11.2596 36.5599 11.3795 36.5706 11.4993C36.6026 11.9222 36.6026 12.3468 36.5706 12.7697C36.5706 12.8709 36.5493 12.9721 36.5413 13.0733C36.5573 12.8575 36.5413 13.0573 36.5253 13.1558C36.4885 13.3732 36.4396 13.5884 36.3788 13.8003C36.3255 13.9894 36.2589 14.1732 36.1896 14.3596C36.171 14.3969 36.155 14.4369 36.1363 14.4768C36.0831 14.586 36.0244 14.6952 35.9658 14.8044C35.8592 14.9908 35.7394 15.1719 35.6141 15.3504L35.5768 15.4036L35.5262 15.4595C35.4543 15.5448 35.3796 15.63 35.3024 15.7125C35.1731 15.8472 35.037 15.9752 34.8947 16.0961L34.8228 16.1574C34.7322 16.2186 34.6416 16.2852 34.5563 16.3438C34.3552 16.4669 34.1481 16.5798 33.9356 16.682C34.1354 16.5808 33.8637 16.7086 33.7864 16.7326C33.6538 16.7802 33.5186 16.8202 33.3814 16.8524C33.2828 16.8764 33.1842 16.895 33.0856 16.9137C33.1016 16.9137 32.8938 16.9323 32.8352 16.935C32.7073 16.935 32.5821 16.935 32.4569 16.935H32.4222L32.2997 16.9163C32.1798 16.8924 32.0626 16.8605 31.9454 16.8258C31.8974 16.8099 31.8468 16.7885 31.7988 16.7752C31.7029 16.7219 31.6043 16.6767 31.511 16.6181L31.4204 16.5595C31.3953 16.5348 31.3686 16.5116 31.3405 16.4903C31.5697 15.907 31.0741 15.1586 30.5012 15.0175C29.8085 14.8603 29.2783 15.2305 29.0252 15.8564C28.5962 16.9217 29.2917 17.987 30.1469 18.5862C31.021 19.17 32.0724 19.4283 33.1176 19.316C34.1344 19.2007 35.1092 18.8458 35.962 18.2805C36.8147 17.7152 37.521 16.9555 38.0227 16.0641C39.0432 14.293 39.1497 12.2423 38.822 10.2688C38.6568 9.3074 38.3451 8.38328 38.1053 7.44048C38.0467 7.21144 37.9907 6.98238 37.9454 6.75067C37.9188 6.62284 37.8974 6.48436 37.8761 6.36451C37.8761 6.2926 37.8601 6.22334 37.8548 6.15144C37.8401 5.92441 37.8401 5.69665 37.8548 5.46962C37.8548 5.41636 37.8868 5.21661 37.8842 5.2033C37.9055 5.09943 37.9268 4.99292 37.9561 4.88905C37.9561 4.84377 38.044 4.62274 38.0334 4.63872C38.0769 4.54022 38.1258 4.44418 38.1799 4.35106C38.2305 4.26318 38.2918 4.18329 38.3451 4.09807L38.4437 3.98617C38.5183 3.90627 38.6061 3.83972 38.6807 3.75983C38.7154 3.73586 38.75 3.70922 38.7847 3.68791C38.898 3.61464 39.0154 3.54794 39.1363 3.48817L39.1764 3.47217L39.2936 3.43492C39.4002 3.40296 39.5067 3.37897 39.6132 3.35234H39.7093C39.8353 3.34568 39.9615 3.34568 40.0876 3.35234H40.2315H40.2661C40.3513 3.37098 40.4818 3.40826 40.5005 3.41359L40.6284 3.45091H40.6523L40.7669 3.51216C40.8044 3.56117 40.8464 3.60664 40.8922 3.64799C41.2945 4.1327 42.1764 4.09542 42.5867 3.64799C42.8032 3.41865 42.9232 3.11481 42.9217 2.79946C42.9202 2.48411 42.7973 2.18141 42.5786 1.95412ZM31.2259 16.3491L31.2846 16.4157V16.4317C31.258 16.4157 31.2259 16.3811 31.2259 16.3544V16.3491ZM40.1807 3.33634C40.1807 3.33634 40.2021 3.33634 40.2287 3.33634H40.1807ZM40.7962 3.53609C40.8308 3.55739 40.8549 3.57342 40.8549 3.57874C40.8549 3.58407 40.8202 3.57339 40.7962 3.55208V3.53609Z" fill="#992965"/>
<path d="M108.409 0.942022C107.384 0.919148 106.383 1.25237 105.577 1.88483C104.781 2.51046 104.219 3.38433 103.978 4.36701C103.75 5.44111 103.775 6.5537 104.053 7.61619C104.263 8.55366 104.586 9.46182 104.783 10.3993C104.831 10.6177 104.871 10.8387 104.908 11.0571C104.907 11.0766 104.907 11.0962 104.908 11.1157C104.908 11.1157 104.908 11.1317 104.908 11.1477C104.921 11.2649 104.932 11.3847 104.943 11.5046C104.975 11.9274 104.975 12.3521 104.943 12.7749C104.943 12.8761 104.921 12.9774 104.913 13.0786C104.929 12.8628 104.913 13.0626 104.9 13.1611C104.863 13.3795 104.812 13.5926 104.754 13.8056C104.695 14.0187 104.631 14.1785 104.564 14.3649L104.508 14.4821C104.455 14.5913 104.399 14.7005 104.338 14.8097C104.231 14.9961 104.111 15.1772 103.989 15.3557L103.949 15.4089L103.901 15.4648C103.826 15.5501 103.752 15.6353 103.674 15.7178C103.546 15.8538 103.41 15.9819 103.267 16.1014L103.195 16.1626C103.104 16.2239 103.016 16.2905 102.928 16.3491C102.726 16.4722 102.518 16.5851 102.305 16.6873C102.505 16.5861 102.233 16.7139 102.158 16.7379C102.025 16.7859 101.889 16.8259 101.751 16.8577C101.652 16.8817 101.554 16.9003 101.455 16.919C101.471 16.919 101.266 16.9376 101.205 16.9403C101.079 16.9403 100.954 16.9403 100.826 16.9403H100.792L100.672 16.9216C100.552 16.8977 100.432 16.8657 100.315 16.8311C100.267 16.8151 100.219 16.7938 100.168 16.7805C100.072 16.7272 99.9738 16.682 99.8805 16.6234L99.79 16.5648C99.7644 16.5395 99.7367 16.5163 99.7073 16.4956C99.9391 15.9123 99.4408 15.1639 98.868 15.0228C98.1752 14.8656 97.6451 15.2358 97.3947 15.8617C96.963 16.927 97.6611 17.9923 98.5163 18.5915C99.3895 19.1751 100.44 19.4334 101.484 19.3212C102.501 19.2064 103.476 18.8517 104.329 18.2864C105.182 17.721 105.888 16.9611 106.389 16.0694C107.412 14.2983 107.516 12.2476 107.189 10.2741C107.023 9.31269 106.714 8.38857 106.472 7.44577C106.413 7.21673 106.358 6.98766 106.312 6.75596C106.286 6.62812 106.264 6.48965 106.243 6.3698C106.243 6.29789 106.227 6.22863 106.222 6.15672C106.208 5.92965 106.208 5.70198 106.222 5.47491C106.222 5.42165 106.256 5.2219 106.251 5.20858C106.272 5.10472 106.293 4.9982 106.323 4.89434C106.336 4.84906 106.411 4.62803 106.4 4.644C106.445 4.54546 106.493 4.44957 106.547 4.35635C106.6 4.26314 106.659 4.18858 106.712 4.10335L106.81 3.99145C106.888 3.91155 106.973 3.84501 107.048 3.76511C107.082 3.74114 107.114 3.71451 107.149 3.6932C107.262 3.62049 107.38 3.55381 107.501 3.49345L107.54 3.47746L107.66 3.4402C107.764 3.40824 107.871 3.38426 107.98 3.35763H108.076C108.203 3.35097 108.33 3.35097 108.457 3.35763H108.598H108.633C108.721 3.37627 108.851 3.41355 108.867 3.41887L108.995 3.45613H109.022L109.136 3.51745C109.155 3.56006 109.232 3.61859 109.259 3.65321C109.661 4.13793 110.546 4.10064 110.956 3.65321C111.173 3.42459 111.294 3.12147 111.294 2.80631C111.294 2.49115 111.173 2.18803 110.956 1.95941C110.354 1.23766 109.31 0.965991 108.409 0.942022ZM99.6034 16.3544L99.6593 16.421V16.4369C99.6327 16.4156 99.6034 16.381 99.6034 16.3544ZM108.558 3.34163C108.558 3.34163 108.577 3.34163 108.606 3.34163H108.558ZM109.171 3.54137C109.206 3.56268 109.23 3.5787 109.23 3.58403C109.23 3.58936 109.198 3.57334 109.171 3.55204V3.54137Z" fill="#992965"/>
<path d="M130.864 1.48801C130.166 3.30436 129.544 5.14556 128.999 7.01163C128.511 7.09951 128.024 7.17672 127.536 7.24863C128.028 5.7643 128.52 4.27909 129.012 2.79298C129.5 1.32552 127.185 0.69702 126.7 2.15649C126.103 3.96219 125.505 5.76702 124.907 7.57094C124.683 7.59491 124.462 7.61888 124.238 7.63752C122.762 7.76003 122.706 9.99718 124.091 10.0345L121.859 16.7725C121.837 16.8044 121.819 16.8364 121.8 16.8711C121.567 17.2499 121.452 17.6892 121.47 18.1334C121.486 19.513 123.404 19.7314 123.825 18.453L126.702 9.77347C127.235 9.70422 127.768 9.62962 128.314 9.54706C128.314 9.58967 128.29 9.62962 128.282 9.67223C127.95 11.0234 127.659 12.3826 127.408 13.7497C127.294 14.3942 127.185 15.0387 127.089 15.6859C127.049 15.9336 127.041 17.0175 126.908 17.449C126.095 17.9816 125.97 19.3958 127.147 19.5796C128.629 19.806 129.068 18.7433 129.239 17.465C129.47 15.7072 129.774 13.9601 130.153 12.2237C130.899 8.78689 131.908 5.41236 133.171 2.12983C133.728 0.681014 131.41 0.0578327 130.864 1.48801Z" fill="#992965"/>
<path d="M96.0786 1.93063C94.6878 6.2327 93.4374 10.5739 92.3272 14.9541C92.0128 13.6064 91.7304 12.2526 91.4799 10.8926C91.1176 8.91909 90.8033 7.04415 89.8228 5.36629C89.9427 5.08398 90.0626 4.80429 90.1878 4.52465C90.8033 3.12644 88.7384 1.90405 88.1176 3.31292C88.0244 3.52065 87.9365 3.73101 87.8512 3.93875C87.5436 4.07707 87.2998 4.32694 87.1692 4.63785C87.0387 4.94877 87.0311 5.29759 87.1478 5.61395C86.4231 7.38503 85.7624 9.18007 85.1815 11.0071C84.7837 12.2499 84.4213 13.5096 84.0945 14.7862C83.828 15.8356 83.6922 17.0288 83.3831 18.0994C83.257 18.1882 83.1531 18.3048 83.0793 18.4402L83.0313 18.5335C82.9037 18.7637 82.853 19.0287 82.8865 19.2898C82.9201 19.5509 83.0362 19.7944 83.2179 19.9849L83.2818 20.0515C83.4721 20.2345 83.7162 20.3517 83.978 20.3857C84.2399 20.4198 84.5058 20.3689 84.7366 20.2406C85.7357 19.7213 85.725 18.2938 85.9461 17.327C86.2711 15.8924 86.6424 14.472 87.0598 13.0658C87.5181 11.5158 88.0297 9.98437 88.5946 8.47163C88.9702 9.80327 89.1087 11.2414 89.3619 12.5385C89.8654 15.1271 90.4915 17.6866 91.2269 20.222C91.5413 21.3193 93.2677 21.4018 93.5394 20.222C94.9036 14.2723 96.5262 8.39088 98.4072 2.57785C98.8601 1.09707 96.5529 0.465832 96.0786 1.93063Z" fill="#992965"/>
<path d="M64.5248 1.7812C60.999 1.85044 57.4741 1.83003 53.9501 1.71995C52.4048 1.67201 52.4075 4.06895 53.9501 4.11689C55.3302 4.16217 56.7104 4.18609 58.0905 4.20207C56.8898 8.64085 55.7467 13.1018 54.6615 17.585C54.5213 17.6904 54.413 17.8325 54.3486 17.9956C54.2842 18.1587 54.2662 18.3364 54.2965 18.5091C54.3152 18.6743 54.3338 18.8421 54.3497 19.0072C54.4883 20.2563 56.3666 20.7436 56.705 19.3268C57.9164 14.2683 59.2051 9.23122 60.571 4.2154C61.8872 4.2154 63.2051 4.203 64.5248 4.17814C66.0648 4.14884 66.0701 1.7519 64.5248 1.7812Z" fill="#992965"/>
<path d="M68.9609 2.9901L66.659 17.6381C66.4948 17.778 66.372 17.9602 66.3039 18.1649C66.2358 18.3696 66.225 18.5889 66.2726 18.7993C66.3313 19.0816 66.3872 19.3639 66.4458 19.6462C66.6696 20.7621 68.5772 20.8154 68.7558 19.6462L71.2736 3.61866C71.5107 2.11924 69.2007 1.46937 68.9609 2.9901Z" fill="#992965"/>
<path d="M79.4796 1.80272C78.8011 1.85185 78.1405 2.04239 77.5401 2.36203C77.0072 1.94922 76.2079 1.91458 75.8003 2.67095C75.179 3.84039 74.6231 5.04338 74.1351 6.27436C73.5819 7.43646 73.1694 8.66046 72.9067 9.92036C72.9067 9.9683 72.8907 10.0136 72.8854 10.0589C72.5068 11.4766 72.2229 12.9179 72.0355 14.3733C71.817 16.0698 71.7958 17.9581 72.9708 19.3404C74.0525 20.6134 75.7843 21.1008 77.2843 20.2539C80.4175 18.4854 81.3314 13.8886 81.9362 10.6661C82.3705 8.37035 83.5454 1.5071 79.4796 1.80272ZM79.9672 6.72177C79.9504 7.66996 79.8613 8.61553 79.7008 9.55019C79.4157 11.2323 79.0025 12.89 78.4646 14.5092C78.0996 15.6224 77.1697 18.2377 75.699 18.307C73.7726 18.4002 74.3349 14.922 74.4921 13.9099C74.8574 11.5895 75.483 9.31767 76.3571 7.13725C76.4557 6.94816 76.5622 6.76178 76.6741 6.58067C77.0403 5.97371 77.507 5.43337 78.0543 4.98271C78.2808 4.80427 79.4131 3.94936 79.7115 4.18373C80.1271 4.50599 79.9699 6.26369 79.9672 6.72177Z" fill="#992965"/>
<path d="M28.0527 6.40439C26.4541 5.02215 23.9789 4.50015 21.9834 4.07936C19.521 3.56701 17.0035 3.36924 14.4913 3.49079C12.9566 3.56269 12.946 5.95964 14.4913 5.88773L15.168 5.86374C13.3589 7.52562 11.8456 9.51246 11.1955 11.9041C10.7905 13.4035 10.604 15.3184 11.5312 16.666C12.5197 18.1015 14.5046 18.3651 16.1165 18.4344C19.7373 18.5862 23.7978 17.2439 26.566 14.8923C28.8813 12.9241 30.8369 8.82263 28.0527 6.40439ZM26.0705 11.9387C25.1246 13.2357 23.6938 14.1332 22.2445 14.7724C20.6083 15.5075 18.8508 15.9355 17.0597 16.0348C16.1325 16.0721 15.1014 16.0641 14.2195 15.7392C13.2977 15.4009 13.2231 14.6579 13.2897 13.7604C13.5401 10.4499 16.2364 7.82656 18.7862 5.99157C19.399 6.05549 20.0064 6.13805 20.6139 6.25789C22.367 6.57749 24.4505 6.9557 25.9985 7.89051C27.6024 8.84929 27.003 10.6603 26.0705 11.9387Z" fill="#992965"/>
</svg>
