<svg width="258" height="46" viewBox="0 0 258 46" fill="none" xmlns="http://www.w3.org/2000/svg">
<g clip-path="url(#clip0_568_1732)">
<path d="M196.849 16.9857L196.679 17.0225C196.859 13.9041 196.853 10.7776 196.663 7.65978C196.597 6.57794 195.015 5.93304 194.457 7.06226C191.789 12.4671 189.281 17.9456 186.935 23.4978C186.348 24.8876 188.385 26.0958 188.977 24.6955C189.539 23.36 190.112 22.0317 190.696 20.7103L194.084 19.9917C193.884 22.029 193.604 24.0585 193.243 26.08C193.087 26.1788 192.956 26.3119 192.859 26.4693C192.763 26.6267 192.703 26.8042 192.686 26.9881C192.621 27.5546 192.753 28.1262 193.059 28.6069C193.54 29.4492 195.015 29.344 195.22 28.3253C195.808 25.4021 196.236 22.4487 196.5 19.4784L197.478 19.2705C198.968 18.9546 198.342 16.6698 196.849 16.9857ZM191.884 18.0386C192.72 16.1855 193.573 14.343 194.444 12.5109C194.444 14.1885 194.39 15.8635 194.281 17.5358L191.884 18.0386Z" fill="#992965"/>
<path d="M208.752 7.17548C206.102 7.35097 203.451 7.41853 200.797 7.37817C199.276 7.34922 199.276 9.71821 200.797 9.74716C201.641 9.76032 202.482 9.76032 203.324 9.74716L200.658 24.656C200.52 25.0011 200.458 25.3719 200.477 25.7431C200.477 27.0408 202.559 27.404 202.8 26.059L202.906 25.4667C202.924 25.3851 202.942 25.3036 202.963 25.222C203.033 25.0556 203.06 24.8748 203.042 24.6955L205.726 9.6919C206.572 9.66206 207.417 9.62083 208.26 9.56819H208.273L208.752 9.53924C210.26 9.43921 210.279 7.08336 208.752 7.17548Z" fill="#992965"/>
<path d="M168.679 23.7189C166.356 20.9604 164.124 18.0307 161.653 15.3774C162.692 15.1728 163.715 14.8958 164.715 14.5483C165.932 14.1219 168.253 13.5428 168.146 11.8424C168.051 10.392 166.043 9.7919 164.899 9.4734C163.593 9.10742 162.229 8.99573 160.88 9.14437C160.273 8.67321 159.316 8.71267 159.117 9.58393C158.949 9.75413 158.839 9.97329 158.804 10.2098C158.768 10.4464 158.809 10.688 158.919 10.9C158.788 11.8371 158.657 12.7716 158.522 13.706C158.039 14.0929 157.837 14.7589 158.283 15.3169C157.784 18.7072 157.253 22.094 156.69 25.4772C156.639 25.5343 156.594 25.596 156.554 25.6615C156.337 25.9916 156.221 26.3783 156.221 26.7736C156.221 27.1689 156.337 27.5556 156.554 27.8857C157.045 28.6754 158.536 28.6754 158.717 27.6041C159.285 24.2278 159.823 20.8463 160.331 17.4595C162.66 20.0101 164.799 22.7871 167 25.4114L175.674 35.7166C176.657 36.8853 178.323 35.1901 177.348 34.0425L168.679 23.7189ZM163.443 11.5528C164.029 11.6436 164.608 11.78 165.173 11.9608C164.383 12.2433 163.579 12.4849 162.765 12.6847C162.174 12.8532 161.577 12.9953 160.975 13.1164C161.051 12.5662 161.13 12.0161 161.206 11.4686C161.952 11.39 162.705 11.4184 163.443 11.5528Z" fill="#992965"/>
<path d="M185.365 8.27305L173.537 8.8574C172.514 8.90741 172.18 9.99979 172.538 10.6842L170.567 23.2398C170.456 23.9558 170.866 24.7797 171.707 24.7402C176.164 24.5349 180.602 24.1357 185.024 23.5425C186.511 23.3451 186.53 20.9735 185.024 21.1735C181.063 21.7 177.087 22.0755 173.095 22.3001C173.344 20.7208 173.593 19.1336 173.842 17.5384C176.879 17.3173 179.907 17.0216 182.929 16.6514C184.422 16.4671 184.44 14.0955 182.929 14.2824C180.032 14.6333 177.128 14.9194 174.218 15.1405C174.428 13.8139 174.636 12.4872 174.843 11.1606L185.357 10.6341C186.879 10.571 186.89 8.20198 185.365 8.27305Z" fill="#992965"/>
<path d="M139.426 20.9077C143.935 16.495 149.576 13.4176 155.723 12.0161C157.206 11.6739 156.577 9.38387 155.095 9.73132C151.245 10.6178 147.564 12.1227 144.194 14.1876C141.064 16.1171 137.644 18.6466 135.549 21.721C134.621 23.0793 134.272 24.9508 135.478 26.2695C136.529 27.4251 138.18 27.6409 139.663 27.6751C144.331 27.7883 149.047 27.2856 153.641 26.4775C155.137 26.2142 154.503 23.9295 153.013 24.1927C149.275 24.8532 145.492 25.2219 141.697 25.2956C140.564 25.3167 138.498 25.6457 137.505 24.8929C136.088 23.8031 138.645 21.6658 139.426 20.9077Z" fill="#992965"/>
<path d="M242.778 10.5525C242.026 13.3374 241.338 16.138 240.712 18.9545C240.644 18.5649 240.578 18.178 240.518 17.7884C240.278 16.2512 240.107 14.7061 239.429 13.3137C239.527 13.0504 239.619 12.7635 239.718 12.4924C240.244 11.0605 237.96 10.4419 237.437 11.8633C237.403 11.9581 237.371 12.0528 237.337 12.1449C236.843 12.4082 236.53 12.9688 236.838 13.5637C236.346 15.0088 235.899 16.4592 235.523 17.9516C235.275 18.9027 235.047 19.8582 234.842 20.8181C234.672 21.6078 234.593 22.4922 234.401 23.3003C234.332 23.3657 234.276 23.4434 234.235 23.5293L234.204 23.603C234.084 23.8322 234.038 24.0927 234.07 24.3492C234.103 24.6058 234.214 24.846 234.388 25.0375L234.432 25.0902C234.617 25.275 234.858 25.3934 235.117 25.4267C235.377 25.46 235.639 25.4065 235.865 25.2744C236.704 24.748 236.654 23.7793 236.832 22.9054C237.044 21.7788 237.288 20.6584 237.563 19.5441C237.734 18.8439 237.92 18.1517 238.118 17.4594C238.186 17.949 238.249 18.4412 238.325 18.9203C238.662 21.0023 239.082 23.0686 239.574 25.1218C239.837 26.2194 241.632 26.2799 241.853 25.1218C242.755 20.4364 243.828 15.7862 245.07 11.171C245.457 9.70752 243.175 9.07843 242.778 10.5525Z" fill="#992965"/>
<path d="M254.375 16.4328C253.744 16.1177 253.155 15.7242 252.622 15.2615C252.007 14.6956 251.505 14.2402 252.172 13.5321C253.25 12.3845 254.948 12.0212 256.454 12.1186C257.961 12.216 257.968 9.84702 256.454 9.74962C254.128 9.59959 251.46 10.4577 250.03 12.4029C248.453 14.535 250.233 16.567 252.031 17.8016C252.948 18.4333 254.086 18.786 254.938 19.5099C256.202 20.5812 255.398 22.0368 254.068 22.5843C251.544 23.6214 248.416 22.5843 246.484 20.8444C245.357 19.8257 243.677 21.4972 244.813 22.5185C246.768 24.3276 249.334 25.3282 251.996 25.3192C254.472 25.2797 257.277 24.2084 257.897 21.5367C258.497 18.9466 256.341 17.4857 254.375 16.4328Z" fill="#992965"/>
<path d="M212.345 10.6183C211.351 14.9843 210.482 19.3774 209.737 23.7978C209.474 25.2718 211.596 25.9246 212.016 24.4269L212.192 23.8083C212.244 23.6314 212.254 23.4448 212.221 23.2634C212.922 19.2396 213.724 15.2343 214.626 11.2474C214.965 9.76282 212.684 9.12846 212.345 10.6183Z" fill="#992965"/>
<path d="M232.395 13.3454C230.818 11.9819 228.379 11.4634 226.407 11.0501C223.978 10.5438 221.494 10.3483 219.016 10.4684C217.502 10.5395 217.494 12.9085 219.016 12.8374L219.684 12.8137C217.901 14.4562 216.406 16.4199 215.767 18.7836C215.365 20.2655 215.181 22.1581 216.096 23.49C217.071 24.9088 219.029 25.1693 220.619 25.2351C224.192 25.3878 228.198 24.0612 230.929 21.7369C233.213 19.7917 235.142 15.7381 232.395 13.3454ZM230.44 18.8178C229.506 20.0971 228.095 20.9841 226.665 21.6158C225.052 22.3448 223.317 22.7679 221.55 22.8635C220.635 22.9004 219.618 22.8951 218.748 22.574C217.838 22.2397 217.765 21.5027 217.833 20.6182C218.078 17.3438 220.738 14.7537 223.253 12.9401C223.858 13.0032 224.457 13.0822 225.056 13.2033C226.786 13.5165 228.841 13.8903 230.369 14.8142C231.951 15.7618 231.36 17.5543 230.44 18.8178Z" fill="#992965"/>
<path d="M114.904 9.06269C112.944 12.6504 112.208 16.8198 109.984 20.2654C109.937 20.3391 109.763 20.5497 109.569 20.7918C109.684 19.5152 109.852 18.2438 110.081 16.9804C110.517 14.5999 111.133 12.2559 111.921 9.96815C112.413 8.52043 110.128 7.90189 109.64 9.33908C108.615 12.3397 107.885 15.4331 107.46 18.5755C107.253 20.1259 106.357 25.385 109.676 24.0084C110.704 23.5794 111.453 22.3685 112.042 21.4683C112.735 20.3503 113.326 19.1715 113.806 17.9464C114.857 15.3826 115.627 12.7057 116.96 10.263C117.678 8.93109 115.638 7.74658 114.904 9.06269Z" fill="#992965"/>
<path d="M99.5484 26.5327C102.64 24.7849 103.541 20.2417 104.138 17.0567C104.566 14.7851 105.715 8.00189 101.714 8.29407C101.045 8.34392 100.394 8.53216 99.8008 8.84686C99.2751 8.43886 98.4866 8.40462 98.0844 9.15217C97.4714 10.3089 96.923 11.4987 96.4415 12.7162C95.895 13.8633 95.489 15.0724 95.2324 16.3171C95.2222 16.3632 95.2143 16.4097 95.2088 16.4566C94.8353 17.8569 94.5552 19.2806 94.3703 20.7181C94.1547 22.3975 94.1336 24.2611 95.2928 25.6272C96.3548 26.888 98.0686 27.3697 99.5484 26.5327ZM101.954 10.6578C102.353 10.9684 102.198 12.7057 102.195 13.161C102.179 14.0973 102.091 15.031 101.933 15.9538C101.651 17.6171 101.244 19.2565 100.713 20.8576C100.353 21.9579 99.4355 24.5427 97.9845 24.6086C96.0841 24.7007 96.6386 21.263 96.7937 20.2628C97.1545 17.9704 97.7717 15.7259 98.6337 13.5717C98.731 13.3848 98.8361 13.2005 98.9465 13.0189C99.3077 12.419 99.7682 11.885 100.308 11.4396C100.542 11.2711 101.659 10.4262 101.954 10.6578Z" fill="#992965"/>
<path d="M78.344 18.1676L71.5807 18.594C69.9168 18.6967 69.9063 21.3052 71.5807 21.1999L76.3778 20.9078C75.5156 22.6869 74.4068 24.3351 73.0843 25.8037C72.4455 26.5223 71.218 27.9094 70.135 27.8699C69.1204 27.8331 68.9626 25.1456 68.9101 24.3507C68.7529 21.5911 69.2898 18.8362 70.4714 16.3382C70.999 15.2099 71.6142 14.1247 72.3114 13.0927C73.0185 12.0398 73.8439 10.7237 75.1661 10.4605C76.8037 10.1157 76.1123 7.60192 74.4747 7.94938C72.8371 8.29683 71.6543 9.58398 70.6765 10.908C69.5439 12.4421 68.5962 14.1049 67.8534 15.8618C66.3893 19.3232 65.8005 23.232 66.6785 26.9408C67.0228 28.3938 67.5958 30.0837 69.2308 30.4574C70.7711 30.8102 72.4297 29.8863 73.5784 28.9518C76.3016 26.7355 78.5122 23.1609 79.5899 19.8391C79.6443 19.645 79.6534 19.4411 79.6166 19.243C79.5798 19.0448 79.498 18.8578 79.3777 18.6963C79.2573 18.5348 79.1015 18.4032 78.9223 18.3115C78.7431 18.2198 78.5452 18.1706 78.344 18.1676Z" fill="#992965"/>
<path d="M103.586 43.0866C103.273 42.655 102.923 41.9943 102.821 41.8469C102.444 41.3046 102.071 40.7606 101.701 40.2149C100.913 39.0567 100.132 37.8924 99.3592 36.7219C97.7715 34.3143 96.2206 31.8804 94.7066 29.4202C91.9378 24.9296 89.2997 20.3671 86.7921 15.7327C87.8592 15.143 88.8679 14.4529 89.8044 13.6716C90.769 12.882 92.1858 11.7607 92.1069 10.3472C91.9571 7.65441 87.8303 7.48595 85.462 7.62019C84.8206 7.1227 83.5484 7.42276 83.4564 8.52039C82.9115 14.8693 82.1921 21.1989 81.2984 27.5092C81.0908 28.9727 83.2382 29.665 83.5799 28.1383C83.7718 27.2881 83.9611 26.4353 84.153 25.585C84.223 25.3032 84.1845 25.0053 84.0452 24.7506C84.3746 22.2746 84.6778 19.795 84.9546 17.312C87.6007 22.1816 90.387 26.9714 93.3135 31.6813C94.8906 34.2029 96.4983 36.6982 98.1368 39.1673C99.013 40.4693 99.8936 41.7653 100.779 43.055C101.436 44.0079 102.093 45.5399 103.344 45.761C103.596 45.8198 103.86 45.7989 104.099 45.7014C104.339 45.6038 104.543 45.4343 104.682 45.2161C104.867 44.9379 104.942 44.6011 104.893 44.2707C104.845 43.9402 104.676 43.6394 104.419 43.4262C104.193 43.2135 103.896 43.0925 103.586 43.0866ZM85.6907 9.97074C86.3115 9.94224 86.9334 9.95985 87.5516 10.0234C88.1036 10.0839 88.6242 10.2235 89.163 10.3235C89.8385 10.4498 89.7492 10.4446 89.2944 10.921C88.1363 12.0946 86.7959 13.0724 85.3253 13.8164C85.4532 12.5372 85.5751 11.2553 85.6907 9.97074Z" fill="#992965"/>
<path d="M125.342 8.99428C124.137 8.61652 122.874 8.45525 121.612 8.51786C121.469 8.34382 121.272 8.22175 121.053 8.17039C120.751 8.09218 120.43 8.1347 120.159 8.28896C119.887 8.44321 119.687 8.6971 119.599 8.99691L115.002 27.304C114.859 27.7299 114.771 28.1721 114.739 28.6201C114.744 28.9749 114.885 29.3144 115.132 29.5685C115.379 29.8226 115.715 29.9721 116.069 29.9862C116.781 30.0178 117.344 29.3255 117.341 28.6543C117.342 28.4723 117.303 28.2924 117.225 28.1279C117.225 28.1042 117.225 28.0778 117.244 28.0515C117.328 27.712 117.415 27.3724 117.507 27.0355C117.662 26.4195 117.817 25.8062 117.969 25.1929C118.285 23.9435 118.598 22.6932 118.91 21.442C119.123 20.6024 119.334 19.76 119.544 18.9203C121.846 17.9175 124.115 16.862 126.084 15.2721C127.114 14.4403 128.386 13.3164 128.426 11.8871C128.47 10.1788 126.712 9.43123 125.342 8.99428ZM117.12 28.6095C117.117 28.6397 117.112 28.6697 117.104 28.699C117.104 28.6685 117.11 28.6382 117.12 28.6095ZM126.06 11.8634C126.06 11.8634 126.06 11.8476 126.06 11.8397C126.06 11.8486 126.059 11.8574 126.057 11.866L126.06 11.8634ZM125.382 11.5107C125.348 11.5054 125.25 11.4607 125.371 11.5133L125.382 11.5107ZM125.382 12.7346C125.203 12.9136 125.016 13.0847 124.827 13.2611C124.719 13.3558 124.609 13.4506 124.496 13.5428L124.27 13.7217C123.405 14.3604 122.489 14.9265 121.531 15.4143C121.118 15.6275 120.698 15.8275 120.277 16.0249L120.803 13.8928L121.56 10.8763H121.641C121.957 10.8763 122.272 10.8763 122.585 10.8763C122.724 10.8763 122.861 10.8947 122.998 10.9079L123.261 10.9421C123.555 10.9921 123.849 11.0474 124.139 11.1211C124.428 11.1948 124.664 11.2685 124.927 11.358C125.078 11.4089 125.225 11.4642 125.369 11.5238C125.45 11.5581 125.532 11.5949 125.61 11.6344C125.714 11.6836 125.815 11.7381 125.913 11.7976L125.999 11.8529L126.026 11.8739L126.01 11.9266C125.952 12.0134 125.9 12.1082 125.844 12.1898C125.78 12.2594 125.72 12.3323 125.663 12.4083C125.584 12.5293 125.484 12.6346 125.379 12.7478L125.382 12.7346ZM126.089 11.9134C126.134 11.9581 126.115 11.9397 126.086 11.916L126.089 11.9134Z" fill="#992965"/>
<path d="M67.8666 1.77416C68.0223 1.50201 68.0648 1.17944 67.9851 0.876089C67.9055 0.572743 67.71 0.312941 67.4407 0.152712C67.1686 0.00141325 66.8486 -0.0389743 66.5475 0.0399627C66.2464 0.1189 65.9874 0.311077 65.8242 0.576495C64.5362 2.50678 63.2526 4.43708 61.9734 6.36737L56.4718 14.6299C54.4373 17.6833 52.4019 20.734 50.3657 23.7821C48.4836 26.5898 46.5971 29.4019 44.7063 32.2183C43.3263 34.2662 41.9464 36.3114 40.5402 38.3409C40.4245 38.512 40.3061 38.6804 40.1879 38.8489C40.0314 39.1209 39.9885 39.4436 40.0682 39.7472C40.148 40.0507 40.3439 40.3106 40.6137 40.4703C40.8863 40.6207 41.2062 40.6604 41.5071 40.581C41.8081 40.5016 42.067 40.3093 42.2302 40.0439C43.5445 38.1461 44.8588 36.2298 46.1442 34.311C47.9947 31.5682 49.839 28.821 51.6772 26.0695C53.717 23.0214 55.7533 19.9715 57.786 16.9199L63.4164 8.4626C64.7832 6.40947 66.1518 4.35549 67.5222 2.30061L67.8666 1.77416Z" fill="#992965"/>
<path d="M33.5561 30.3309C30.9959 30.2309 28.4375 30.1028 25.8808 29.9466C27.1302 24.1715 28.3403 18.3877 29.5108 12.5951C29.8701 10.8052 30.2266 9.01524 30.5806 7.22534C30.7015 6.6173 30.4097 5.90922 29.7552 5.76708C29.169 5.63284 28.4278 5.94345 28.299 6.5936C27.0723 12.8635 25.7887 19.1238 24.4482 25.3744C24.0662 27.1591 23.6816 28.9437 23.2943 30.7284C23.2499 30.9039 23.2457 31.0872 23.282 31.2646C23.3182 31.442 23.394 31.6089 23.5037 31.7529C23.6133 31.8969 23.7541 32.0143 23.9154 32.0962C24.0766 32.1781 24.2542 32.2225 24.435 32.2261C27.4736 32.4244 30.514 32.5823 33.5561 32.6999C33.8692 32.6978 34.1688 32.5724 34.3902 32.3507C34.6116 32.129 34.7369 31.8289 34.7389 31.5154C34.7329 31.2032 34.6064 30.9054 34.3858 30.6846C34.1653 30.4637 33.8679 30.337 33.5561 30.3309Z" fill="#992965"/>
<path d="M39.0712 11.1898L38.9972 11.1633L39.0712 11.1898Z" fill="#992965"/>
<path d="M42.6377 18.8018C43.037 17.268 43.187 15.6797 43.0819 14.0981C42.9242 12.2555 42.2645 10.4314 40.6663 9.38377C40.1464 9.04481 39.5604 8.8205 38.9472 8.72572C38.8559 8.57898 38.7282 8.45839 38.5766 8.37564C37.951 8.04399 37.3621 8.27299 36.9573 8.80206L36.8364 8.96789C36.476 9.11377 36.1408 9.3154 35.8429 9.56541C35.6779 9.72717 35.5647 9.93449 35.5179 10.1609C35.4711 10.3874 35.4927 10.6227 35.58 10.8368C34.3633 12.8713 33.4687 15.0822 32.9279 17.391C32.558 18.9605 32.3518 20.5642 32.3127 22.1763C32.2785 23.5846 32.2602 25.2613 33.1145 26.4616C33.375 26.8435 33.7204 27.1597 34.1235 27.3854C34.5267 27.611 34.9767 27.7399 35.4381 27.7619C36.2951 27.7621 37.1277 27.4759 37.8038 26.9485C39.118 25.9825 40.1222 24.5585 40.9186 23.1476C41.6884 21.785 42.2668 20.3227 42.6377 18.8018ZM35.0307 25.1007L35.1095 25.1955C35.0725 25.1688 35.0449 25.131 35.0307 25.0876V25.1007ZM40.7188 15.888C40.7048 16.0635 40.6891 16.2451 40.6716 16.4328C40.6716 16.4881 40.6374 16.6961 40.6347 16.7277C40.5848 17.0672 40.5243 17.4041 40.4534 17.741C40.3113 18.4012 40.1278 19.0518 39.904 19.6889C39.8488 19.8442 39.7909 19.9995 39.7331 20.1522C39.7068 20.2206 39.6779 20.2864 39.6516 20.3549L39.6307 20.4075V20.4259C39.4887 20.7444 39.3467 21.0576 39.189 21.3682C38.8716 21.9852 38.5151 22.5813 38.1218 23.1529L37.859 23.5082L37.7617 23.6398C37.7222 23.6872 37.6356 23.7978 37.6435 23.7899C37.4334 24.0573 37.2087 24.3131 36.9705 24.5559C36.8575 24.669 36.7366 24.7743 36.6157 24.8822C36.5934 24.9024 36.5697 24.9209 36.5447 24.9375L36.429 25.0218C36.2818 25.1192 36.1293 25.2008 35.9769 25.285H35.9638H35.9796H35.9638C35.9165 25.306 35.8429 25.3245 35.8928 25.306L35.6957 25.3692H35.6668C35.6064 25.3652 35.5458 25.3652 35.4854 25.3692H35.467L35.3698 25.3402C35.4092 25.356 35.3697 25.3403 35.3172 25.3271H35.2803H35.3145H35.2988L35.2068 25.2639L35.1358 25.2008L35.0779 25.1402L35.0307 25.0823C34.9913 25.0086 34.9544 24.9165 34.936 24.8849C34.915 24.8296 34.8966 24.7743 34.8782 24.719C34.8397 24.5892 34.8055 24.4576 34.7757 24.3242C34.7757 24.2637 34.7547 24.2032 34.7415 24.1452C34.7415 24.1295 34.7415 24.1189 34.7415 24.1084V24.0952C34.6859 23.4343 34.6683 22.7708 34.6889 22.1079C34.7073 21.4209 34.7573 20.7339 34.8414 20.0521C34.8414 20.0179 34.8572 19.9232 34.8624 19.8942C34.8677 19.8653 34.8624 19.8047 34.8808 19.76C34.9071 19.5941 34.9334 19.4283 34.9623 19.2651C35.0228 18.915 35.0912 18.5702 35.1674 18.2122C35.3382 17.4507 35.5488 16.6985 35.7982 15.959C35.9244 15.5879 36.0611 15.222 36.203 14.8588L36.2871 14.6535C36.2871 14.6271 36.3081 14.5982 36.3212 14.5719L36.3397 14.5245C36.4265 14.3402 36.5053 14.1507 36.6026 13.9665C37.0865 12.9337 37.6498 11.9401 38.2874 10.9947H38.4373H38.5188H38.5529C38.6949 11.0315 38.8369 11.0605 38.9788 11.1079H39.0102C39.0358 11.1133 39.0607 11.1221 39.0839 11.1342L39.1444 11.1552L39.0917 11.1368H39.105C39.2495 11.2158 39.3914 11.2895 39.5307 11.3816C39.5655 11.406 39.5989 11.4324 39.6307 11.4606L39.6753 11.4974C39.7726 11.5869 39.8541 11.6896 39.9382 11.7817H39.9513L39.9698 11.8107C40.0066 11.8686 40.0459 11.9212 40.0827 11.9791C40.1747 12.1239 40.2535 12.274 40.3298 12.424L40.3561 12.4714L40.4271 12.6583C40.4779 12.8057 40.5226 12.9531 40.5612 13.1005C40.6032 13.2505 40.6347 13.4032 40.6636 13.5558C40.6636 13.6111 40.6847 13.669 40.6926 13.7269C40.6926 13.7453 40.7135 13.8559 40.7188 13.9112C40.7754 14.5663 40.7754 15.225 40.7188 15.8801V15.888Z" fill="#992965"/>
<path d="M35.9643 25.2825L35.8928 25.3037L35.9643 25.2825Z" fill="#992965"/>
<path d="M35.3172 25.3403L35.3701 25.3534L35.3145 25.3376L35.3172 25.3403Z" fill="#992965"/>
<path d="M13.6606 9.18376C13.3556 8.68182 12.9188 8.27348 12.3977 8.00332C11.8767 7.73315 11.2915 7.61155 10.7061 7.65183C9.39183 7.73869 8.34046 8.48625 7.6071 9.53914C6.0878 11.6923 6.327 14.5798 6.75282 17.0304C6.9631 18.236 7.23641 19.4283 7.41252 20.6392V20.655C7.41252 20.7287 7.43095 20.7997 7.43884 20.8708C7.45461 20.9998 7.46773 21.134 7.48087 21.2551C7.50978 21.5499 7.53344 21.8447 7.54921 22.1369C7.58425 22.7065 7.59041 23.2776 7.56763 23.8478C7.55449 24.1111 7.5361 24.3927 7.50981 24.6665C7.50981 24.7717 7.48618 24.8797 7.47304 24.9876C7.47304 25.0113 7.47304 25.0402 7.47304 25.0534C7.45727 25.1429 7.44408 25.2324 7.42831 25.3166C7.33225 25.8663 7.19607 26.4083 7.02087 26.9381C6.97356 27.0723 6.92629 27.2013 6.87372 27.3434L6.8159 27.4935C6.68973 27.7567 6.56876 28.0199 6.42682 28.2673C6.30167 28.492 6.16484 28.7099 6.01681 28.9201C5.9879 28.9648 5.95633 29.007 5.92479 29.0491L5.89854 29.0807C5.80917 29.1833 5.72243 29.2833 5.63569 29.3834C5.54894 29.4834 5.42534 29.5966 5.31232 29.6966L5.20194 29.7966L5.1599 29.8335L5.12833 29.8545C5.02056 29.9309 4.91279 30.002 4.79976 30.0704L4.62893 30.1652L4.48698 30.2336H4.46856C4.37656 30.2652 4.28718 30.2968 4.19255 30.3231C4.10836 30.3369 4.02501 30.3553 3.94285 30.3784C3.83167 30.3849 3.7202 30.3849 3.60902 30.3784H3.56173L3.42767 30.3468C3.33304 30.3204 3.0544 30.1967 3.28045 30.3099C3.15679 30.25 3.0366 30.1832 2.92037 30.1099C2.90256 30.1003 2.88583 30.0888 2.87045 30.0756L2.76264 29.9862C2.69692 29.923 2.63911 29.8545 2.57865 29.7861C2.63911 29.844 2.4735 29.6019 2.43933 29.5597C2.40516 29.5176 2.4157 29.4834 2.40256 29.4439C2.40256 29.4439 2.37362 29.3386 2.37362 29.2886C2.37362 29.2886 2.37362 29.257 2.37362 29.2281C2.37362 29.1991 2.39731 29.1307 2.41045 29.0859C2.45718 28.9345 2.47304 28.7752 2.45717 28.6175C2.4413 28.4598 2.394 28.3069 2.31804 28.1678C2.24208 28.0288 2.139 27.9064 2.01495 27.8079C1.8909 27.7095 1.74838 27.637 1.59583 27.5947C1.44329 27.5524 1.28386 27.5412 1.12692 27.5618C0.96997 27.5823 0.818749 27.6342 0.682193 27.7144C0.545638 27.7945 0.426527 27.9013 0.331934 28.0284C0.237341 28.1555 0.169145 28.3003 0.131456 28.4542C-0.0218978 29.056 7.96653e-05 29.6891 0.194795 30.2787C0.389511 30.8683 0.748861 31.3898 1.23024 31.7813C1.70398 32.192 2.26905 32.4831 2.87821 32.6301C3.48738 32.7771 4.12286 32.7758 4.73142 32.6263C7.14968 32.0472 8.67428 29.6071 9.36821 27.3908C10.1121 25.0534 10.0648 22.5501 9.73619 20.1469C9.57059 18.9203 9.29459 17.7121 9.07642 16.4934C9.02385 16.1881 8.97126 15.8801 8.9292 15.5748C8.9292 15.5353 8.90032 15.3432 8.89506 15.3116C8.87666 15.1326 8.85828 14.951 8.84514 14.7851C8.79911 14.1565 8.80699 13.5251 8.86875 12.8978C8.88452 12.8057 8.89771 12.7136 8.91611 12.6346C8.94765 12.4609 8.9897 12.2871 9.03701 12.1081C9.08433 11.9292 9.13686 11.7633 9.19732 11.5949C9.19732 11.558 9.22628 11.5212 9.24205 11.4843C9.25782 11.4475 9.26832 11.4212 9.29198 11.3738C9.40842 11.1363 9.54472 10.9091 9.69941 10.6947L9.72829 10.6578C9.79663 10.5868 9.85972 10.513 9.9307 10.4446L10.0385 10.3446L10.0884 10.3025C10.2015 10.2314 10.3197 10.1656 10.4354 10.0972C10.4958 10.0814 10.5563 10.055 10.6168 10.0392L10.7193 10.0129H10.7692C10.8349 10.0129 10.9322 9.99976 11.032 10.0129L11.103 10.0366L11.2687 10.0787L11.3632 10.1077L11.408 10.1419L11.5236 10.2156C11.5394 10.2314 11.5561 10.2464 11.5735 10.2604C11.5972 10.2972 11.6209 10.334 11.6419 10.3735C11.7191 10.5101 11.8226 10.63 11.9464 10.7261C12.0702 10.8223 12.212 10.8929 12.3633 10.9338C12.5146 10.9747 12.6724 10.985 12.8277 10.9643C12.9831 10.9435 13.1328 10.8921 13.2681 10.8129C13.4034 10.7337 13.5216 10.6284 13.6159 10.5031C13.7102 10.3778 13.7788 10.2349 13.8175 10.0829C13.8562 9.9308 13.8644 9.77253 13.8415 9.61728C13.8186 9.46203 13.7652 9.31288 13.6843 9.17849L13.6606 9.18376ZM7.41516 20.6602C7.44144 20.8471 7.41516 20.7129 7.41516 20.6602V20.6602ZM2.35257 29.2202C2.34798 29.1949 2.34798 29.1691 2.35257 29.1439C2.35384 29.1693 2.35384 29.1947 2.35257 29.2202ZM8.8425 12.9268C8.8425 12.9689 8.82673 13.0242 8.8425 12.9268V12.9268ZM10.0779 10.2946C10.12 10.263 10.1384 10.2551 10.0779 10.2946V10.2946ZM11.0373 10.0024L11.1004 10.0156L11.0373 10.0024ZM11.563 10.2867C11.584 10.3077 11.6025 10.3288 11.6025 10.3367L11.563 10.2867Z" fill="#992965"/>
<path d="M18.0713 14.5903L18.1189 14.6113L18.0713 14.5903Z" fill="#992965"/>
<path d="M21.0152 13.8218C20.3168 13.0974 19.447 12.5614 18.4865 12.2635C18.5855 11.9855 18.5774 11.6805 18.464 11.4081C18.3505 11.1357 18.1397 10.9154 17.8729 10.7902C17.606 10.6649 17.3021 10.6437 17.0204 10.7307C16.7388 10.8177 16.4996 11.0066 16.3495 11.2606C14.893 13.4713 13.8624 15.9353 13.311 18.5255C13.027 19.8618 12.8668 21.2214 12.8325 22.5871C12.8168 23.2267 12.8325 23.8663 12.8825 24.5033C12.9377 25.2351 12.9955 26.0011 13.4397 26.6091C14.3256 27.841 16.1524 27.9726 17.4851 27.4856C18.7175 27.0121 19.7948 26.2057 20.5973 25.1561C22.3374 22.9529 23.3599 20.1154 22.8447 17.3016C22.5839 15.9889 21.9483 14.78 21.0152 13.8218ZM20.592 19.5048C20.5938 19.5258 20.5938 19.5469 20.592 19.5679C20.592 19.6258 20.5762 19.6838 20.5657 19.739C20.5421 19.8864 20.5132 20.0312 20.479 20.1786C20.4159 20.4418 20.3397 20.7208 20.2503 20.9867C20.2109 21.1104 20.1662 21.2341 20.1189 21.3578L20.0479 21.5368L20.0216 21.5947C19.7805 22.1257 19.4983 22.637 19.1778 23.1241C19.1069 23.2293 19.0359 23.3346 18.9597 23.4373L18.8703 23.561C18.6889 23.7716 18.5129 23.9848 18.3157 24.1822C18.1186 24.3796 17.974 24.5059 17.79 24.656C17.79 24.656 17.6428 24.7639 17.6007 24.7902C17.4903 24.8666 17.3747 24.9403 17.2564 25.0061C17.1381 25.0719 17.0277 25.1245 16.9147 25.1824L16.7727 25.2351C16.6623 25.2719 16.5546 25.3035 16.4442 25.3298L16.2549 25.3667H16.2286C16.1156 25.3667 16.0026 25.3667 15.8869 25.3667C15.7713 25.3667 15.5295 25.3035 15.7555 25.3667C15.6451 25.3377 15.5347 25.314 15.4269 25.2772L15.3875 25.2535L15.3691 25.2114C15.3606 25.1573 15.3492 25.1037 15.3349 25.0508C15.3231 25.0174 15.3143 24.9831 15.3086 24.9482C15.3086 24.8745 15.3087 24.8034 15.2903 24.7297C15.2771 24.5823 15.2666 24.4322 15.2561 24.2822C15.2193 23.7189 15.2088 23.153 15.2219 22.5897C15.2351 22.0264 15.2745 21.4263 15.3376 20.8472C15.3376 20.7235 15.3638 20.6024 15.3796 20.4813C15.3796 20.4813 15.3796 20.455 15.3796 20.4339C15.3796 20.3602 15.4033 20.2865 15.4138 20.2102C15.4585 19.9469 15.5084 19.6548 15.5636 19.3784C15.8135 18.1242 16.1814 16.8965 16.6624 15.7117C16.6624 15.6959 16.6939 15.6354 16.7123 15.5933C16.7307 15.5512 16.7885 15.4169 16.7859 15.4222C16.8463 15.2853 16.9094 15.159 16.9725 15.0115C17.0724 14.7983 17.1801 14.5904 17.2853 14.3824H17.3457L17.4299 14.4035C17.535 14.4246 17.6375 14.4509 17.74 14.4798C17.8425 14.5088 17.9425 14.5483 18.045 14.5799H18.0738L18.016 14.5535L18.0765 14.5825C18.1212 14.5983 18.1685 14.6246 18.1212 14.6009L18.1817 14.6299C18.3875 14.7317 18.586 14.8478 18.7757 14.9773C18.8598 15.0352 19.0385 15.1932 18.8677 15.0405C18.9728 15.1353 19.0806 15.2221 19.1805 15.3037C19.3388 15.4534 19.4881 15.6125 19.6274 15.7802L19.6852 15.8565L19.7272 15.9144C19.8008 16.0171 19.8692 16.1197 19.9349 16.2276C20.0558 16.4303 20.1636 16.6383 20.2661 16.8515V16.8673L20.3029 16.9594C20.3528 17.091 20.3975 17.2226 20.4369 17.3595C20.4974 17.578 20.5421 17.7964 20.5841 18.0175C20.5833 18.0325 20.5833 18.0474 20.5841 18.0623C20.5841 18.0623 20.5841 18.0465 20.5841 18.0333L20.5999 18.1992C20.6157 18.365 20.6235 18.5335 20.6235 18.6993C20.6271 18.9681 20.6166 19.237 20.592 19.5048Z" fill="#992965"/>
<path d="M15.3117 25.0489C15.3061 25.014 15.2981 24.9794 15.2877 24.9456C15.2904 24.9615 15.301 25.0039 15.3117 25.0489Z" fill="#992965"/>
</g>
<defs>
<clipPath id="clip0_568_1732">
<rect width="258" height="45.7742" fill="white"/>
</clipPath>
</defs>
</svg>
