<svg width="237" height="33" viewBox="0 0 237 33" fill="none" xmlns="http://www.w3.org/2000/svg">
<path d="M115.777 3.25616C115.015 6.53909 114.317 9.83797 113.683 13.1528C113.613 12.6788 113.541 12.2074 113.48 11.7333C113.245 9.94362 113.078 8.14061 112.358 6.49204C112.465 6.14315 112.566 5.79425 112.675 5.44536C113.144 3.97257 110.829 3.34138 110.365 4.80884C110.317 4.96064 110.272 5.11511 110.224 5.26691C109.981 5.40761 109.8 5.63537 109.718 5.90425C109.636 6.17313 109.658 6.46314 109.782 6.71575C109.276 8.44155 108.817 10.178 108.42 11.9384C108.166 13.0676 107.935 14.2004 107.725 15.3367C107.541 16.3461 107.459 17.4328 107.243 18.4448C107.129 18.5732 107.038 18.7212 106.976 18.8815C106.913 19.0571 106.893 19.2451 106.916 19.4301C106.939 19.6152 107.005 19.7922 107.11 19.9469C107.451 20.4396 108.189 20.7805 108.748 20.3783C109.641 19.7338 109.566 18.6924 109.731 17.6804C109.959 16.292 110.218 14.9115 110.509 13.539C110.674 12.772 110.852 12.0094 111.042 11.2513C111.114 11.8692 111.175 12.487 111.261 13.0863C111.598 15.5045 112.015 17.9095 112.513 20.3011C112.742 21.4197 114.631 21.4676 114.826 20.3011C115.733 14.797 116.819 9.32575 118.084 3.88736C118.438 2.3906 116.128 1.75142 115.777 3.25616Z" fill="#992965"/>
<path d="M107.04 4.33742C107.336 2.83267 105.026 2.18549 104.727 3.70089C103.719 8.84988 102.838 14.0237 102.085 19.2224C101.869 20.7032 104.021 21.401 104.394 19.859L104.573 19.1319C104.612 18.9565 104.612 18.7747 104.573 18.5992C105.292 13.8267 106.115 9.07271 107.04 4.33742Z" fill="#992965"/>
<path d="M11.7317 9.62931C13.2717 9.60002 13.277 7.20307 11.7317 7.23237C8.20768 7.30161 4.68278 7.2812 1.15699 7.17112C-0.385662 7.12318 -0.385662 9.52012 1.15699 9.56806C2.53711 9.61334 3.91724 9.63733 5.29737 9.6533C4.09487 14.0921 2.95273 18.5531 1.87101 23.0362C1.73035 23.1413 1.62153 23.2833 1.55664 23.4464C1.49174 23.6095 1.47333 23.7874 1.50336 23.9604C1.52201 24.1255 1.54065 24.2906 1.55664 24.4584C1.69518 25.7075 3.57356 26.1948 3.91193 24.7753C5.12509 19.7204 6.41367 14.6842 7.77781 9.6666C9.09399 9.66394 10.4129 9.65594 11.7317 9.62931Z" fill="#992965"/>
<path d="M18.5312 7.25628C17.8332 9.07263 17.2115 10.9147 16.6662 12.7826C16.1795 12.8678 15.6919 12.9468 15.2035 13.0196C15.6955 11.5335 16.1875 10.0483 16.6795 8.56393C17.1644 7.09646 14.8518 6.4653 14.3669 7.92477C13.7701 9.73046 13.1723 11.5361 12.5737 13.3418C12.3499 13.3632 12.1289 13.3871 11.9051 13.4058C10.429 13.5309 10.3704 15.7681 11.7585 15.8027C11.016 18.047 10.2718 20.293 9.52576 22.5408C9.50444 22.5727 9.4858 22.6047 9.46715 22.6393C9.23413 23.018 9.11912 23.4575 9.13678 23.9017C9.15276 25.2813 11.0711 25.4997 11.4921 24.2186L14.3696 15.539C14.9024 15.4725 15.4353 15.3979 15.9682 15.3153C15.9682 15.3553 15.9441 15.3979 15.9362 15.4405C15.604 16.7899 15.3127 18.149 15.0622 19.518C14.9477 20.1625 14.8385 20.807 14.7399 21.4542C14.7026 21.7018 14.6946 22.7858 14.5614 23.2172C13.7488 23.7499 13.6235 25.1641 14.8011 25.3479C16.2825 25.5742 16.7222 24.5116 16.8927 23.2332C17.1236 21.4737 17.4282 19.7266 17.8065 17.9919C18.5528 14.5542 19.562 11.1788 20.8252 7.89544C21.3954 6.45195 19.0774 5.82877 18.5312 7.25628Z" fill="#992965"/>
<path d="M39.915 14.9479C34.6734 14.8707 29.4404 14.4981 24.2407 13.832C24.7416 12.1524 25.2443 10.4718 25.7488 8.79044L43.4373 9.35238C44.98 9.40032 44.98 7.00338 43.4373 6.95544L25.4664 6.3855C24.7601 6.47897 24.1159 6.83803 23.6652 7.38956L19.1892 22.3438C19.1427 22.5217 19.1373 22.7078 19.1734 22.888C19.2095 23.0683 19.2862 23.238 19.3976 23.3843C19.509 23.5306 19.6522 23.6496 19.8164 23.7323C19.9807 23.8151 20.1615 23.8594 20.3454 23.8619L30.1769 23.8485H34.8342C36.0571 23.8485 37.7942 24.1868 38.8493 23.4358C40.0962 22.5489 38.9 20.4689 37.6371 21.3664C37.2587 21.6327 36.3182 21.4489 35.8679 21.4516H33.5392H29.1431H21.9494C22.4822 19.6761 23.0151 17.9006 23.548 16.1251C28.9749 16.8426 34.4389 17.2455 39.9124 17.3315C41.4657 17.3688 41.4657 14.9719 39.915 14.9479Z" fill="#992965"/>
<path d="M51.2384 14.8946L51.0653 14.9319C51.2478 11.7766 51.2424 8.61333 51.0493 5.45869C50.9827 4.36142 49.3814 3.71158 48.8166 4.85412C46.1096 10.3209 43.5669 15.8641 41.1885 21.4836C40.5944 22.8871 42.6592 24.1096 43.2587 22.6927C43.8306 21.3451 44.4115 20.001 45.0012 18.6605L48.4355 17.9334C48.2366 19.9948 47.9533 22.0491 47.5856 24.0962C47.427 24.1952 47.2934 24.3292 47.195 24.4881C47.0965 24.647 47.0361 24.8264 47.0182 25.0124C46.9526 25.5864 47.0861 26.1656 47.3965 26.653C47.8841 27.5052 49.3787 27.3987 49.5865 26.3654C50.1844 23.4088 50.6176 20.4213 50.884 17.4167L51.8778 17.2064C53.3858 16.8868 52.7464 14.5671 51.2384 14.8946ZM46.2055 15.9599C47.0527 14.085 47.9178 12.2207 48.8006 10.3671C48.8006 12.0627 48.7464 13.7574 48.6381 15.4512L46.2055 15.9599Z" fill="#992965"/>
<path d="M63.1666 8.06073H63.1826L63.6675 8.03144C65.1968 7.92757 65.2128 5.54128 63.6675 5.6345C60.9818 5.82093 58.2945 5.88929 55.6053 5.83957C54.06 5.81028 54.06 8.20722 55.6053 8.23652C56.4579 8.2525 57.3131 8.23652 58.1657 8.23652L55.4614 23.3213C55.3241 23.671 55.2623 24.0459 55.2802 24.4212C55.2802 25.7342 57.3903 26.1017 57.6354 24.7408L57.7421 24.1416L57.798 23.8939C57.8692 23.7259 57.8976 23.5429 57.8806 23.3612C58.7865 18.2992 59.6932 13.239 60.6009 8.1806C61.457 8.15574 62.3123 8.11577 63.1666 8.06073Z" fill="#992965"/>
<path d="M76.2218 19.8429C73.8666 17.0518 71.6045 14.0876 69.0974 11.403C70.1511 11.1957 71.1892 10.9153 72.204 10.5641C73.4349 10.1326 75.7902 9.54671 75.6676 7.82624C75.5717 6.35878 73.5361 5.75155 72.3772 5.4293C71.053 5.059 69.6701 4.94599 68.3034 5.09639C67.6906 4.61966 66.7208 4.65962 66.5156 5.54116C66.3456 5.71346 66.2349 5.93539 66.1995 6.1748C66.1641 6.4142 66.2057 6.65866 66.3185 6.8728C66.1853 7.82092 66.0503 8.76728 65.9136 9.71185C65.426 10.1034 65.2182 10.7772 65.6738 11.3418C65.1658 14.7721 64.6266 18.1988 64.0565 21.622C64.0054 21.6804 63.9591 21.7427 63.9179 21.8084C63.6978 22.1424 63.5804 22.5337 63.5804 22.9337C63.5804 23.3336 63.6978 23.7249 63.9179 24.0589C64.4161 24.8579 65.9269 24.8578 66.108 23.7739C66.6871 20.3578 67.2333 16.9364 67.7466 13.5097C70.1072 16.0904 72.2626 18.9001 74.5033 21.5554L83.2956 31.9821C84.292 33.1646 85.9787 31.4495 84.9902 30.2883L76.2218 19.8429ZM70.9145 7.53328C71.5076 7.62645 72.0927 7.76446 72.6649 7.9461C71.8649 8.23316 71.0502 8.47764 70.2244 8.6785C69.6249 8.84895 69.0202 8.99277 68.4101 9.11528C68.49 8.55955 68.5689 8.00381 68.6471 7.44807C69.4031 7.36986 70.1665 7.39853 70.9145 7.53328Z" fill="#992965"/>
<path d="M92.7967 17.2731C88.7824 17.8057 84.7522 18.1856 80.706 18.4129L81.4653 13.5951C84.5418 13.3714 87.6119 13.0722 90.6759 12.6975C92.1866 12.5111 92.2052 10.1115 90.6759 10.3006C87.7398 10.6557 84.7966 10.9451 81.8463 11.1688L82.4218 7.50684C85.1803 7.292 87.9334 7.0168 90.6812 6.68123C92.1919 6.4948 92.2105 4.0952 90.6812 4.28429C87.2815 4.70153 83.872 5.02557 80.4528 5.25639C79.0913 5.34694 78.9342 7.24849 80 7.59738L78.1508 19.3664C78.0362 20.0881 78.4546 20.9217 79.3072 20.8818C83.8224 20.674 88.3206 20.2701 92.802 19.67C94.3047 19.4703 94.3233 17.0706 92.7967 17.2731Z" fill="#992965"/>
<path d="M234.174 4.42544C233.412 7.24496 232.713 10.0795 232.077 12.9292C232.011 12.5351 231.944 12.1436 231.883 11.7494C231.64 10.1914 231.467 8.63075 230.78 7.22188C230.878 6.95555 230.972 6.66792 231.073 6.3936C231.606 4.94212 229.29 4.31891 228.76 5.75441L228.659 6.04204C228.158 6.30836 227.841 6.87564 228.153 7.47488C227.655 8.93967 227.202 10.4045 226.821 11.9146C226.567 12.8769 226.336 13.8445 226.128 14.8175C225.957 15.6165 225.878 16.5087 225.683 17.3263C225.614 17.393 225.557 17.4715 225.515 17.558L225.483 17.6326C225.362 17.865 225.315 18.1289 225.348 18.3889C225.382 18.6488 225.494 18.8924 225.67 19.0867C225.685 19.1033 225.7 19.1211 225.712 19.14C225.901 19.3265 226.145 19.4457 226.408 19.4794C226.671 19.5131 226.938 19.4593 227.167 19.3264C228.017 18.7938 227.966 17.811 228.148 16.9162C228.364 15.7763 228.61 14.6426 228.885 13.5152C229.063 12.805 229.251 12.1019 229.45 11.4059C229.52 11.9039 229.581 12.3992 229.661 12.8866C230.002 14.9933 230.428 17.084 230.924 19.1586C231.19 20.2719 233.01 20.3331 233.236 19.1586C234.149 14.4216 235.236 9.7218 236.498 5.0593C236.889 3.5732 234.576 2.93668 234.174 4.42544Z" fill="#992965"/>
<path d="M193.647 10.6389L193.471 10.6762C193.654 7.52089 193.648 4.35754 193.455 1.2029C193.388 0.108295 191.787 -0.541516 191.222 0.598364C188.515 6.06517 185.973 11.6092 183.594 17.2305C183 18.634 185.065 19.8565 185.665 18.4396C186.237 17.092 186.817 15.7479 187.407 14.4074L190.841 13.6803C190.642 15.7417 190.359 17.7951 189.991 19.8405C189.833 19.9403 189.7 20.0749 189.601 20.2342C189.503 20.3934 189.442 20.573 189.424 20.7593C189.359 21.3333 189.492 21.9124 189.802 22.3999C190.29 23.2495 191.787 23.1429 191.995 22.1122C192.591 19.1545 193.023 16.1663 193.29 13.161L194.284 12.9506C195.802 12.631 195.166 10.3219 193.647 10.6389ZM188.614 11.7042C189.459 9.83102 190.325 7.96673 191.209 6.11132C191.209 7.81048 191.154 9.5052 191.044 11.1955L188.614 11.7042Z" fill="#992965"/>
<path d="M207.339 3.08306C203.813 3.15408 200.288 3.13455 196.764 3.02447C195.222 2.97387 195.222 5.37081 196.764 5.42141C198.145 5.46403 199.525 5.48798 200.905 5.50396C199.702 9.94274 198.56 14.4037 197.478 18.8869C197.338 18.9922 197.229 19.1342 197.164 19.2973C197.1 19.4603 197.081 19.6381 197.111 19.811L197.167 20.3091C197.303 21.5582 199.181 22.0455 199.519 20.6287C200.731 15.572 202.019 10.5349 203.385 5.51729C204.701 5.51729 206.019 5.50486 207.339 5.48C208.879 5.4507 208.884 3.05376 207.339 3.08306Z" fill="#992965"/>
<path d="M181.895 2.91267C177.993 3.81008 174.263 5.33371 170.848 7.42426C167.673 9.37377 164.206 11.9358 162.083 15.0439C161.142 16.4181 160.788 18.3117 162.011 19.646C163.076 20.8151 164.75 21.0336 166.252 21.0682C170.984 21.1827 175.764 20.674 180.421 19.8564C181.94 19.5901 181.295 17.2784 179.785 17.5447C175.996 18.213 172.161 18.586 168.315 18.6606C167.166 18.6845 165.072 19.0148 164.065 18.2531C162.629 17.1691 165.221 14.9986 166.013 14.2209C170.585 9.7591 176.302 6.64591 182.531 5.2244C184.034 4.87817 183.397 2.56644 181.895 2.91267Z" fill="#992965"/>
<path d="M143.971 3.57567C142.74 2.83794 141.615 4.56374 142.51 5.43995C141.962 9.50588 141.414 13.5736 140.867 17.6431C140.566 17.7816 140.262 17.9094 139.958 18.0399C139.905 18.0559 139.854 18.0755 139.804 18.0985L139.372 18.2876C138.144 18.8202 139.034 20.9908 140.296 20.4768C142.501 19.604 144.6 18.4845 146.552 17.1397C148.042 16.0984 150.522 14.6362 151.082 12.7932C151.665 10.857 150.165 8.62522 148.929 7.26962C147.53 5.75422 145.729 4.62766 143.971 3.57567ZM148.516 12.4683C148.146 13.0596 147.274 13.6029 146.728 14.0397C146.044 14.5912 145.333 15.1076 144.597 15.587C144.222 15.8338 143.84 16.0717 143.451 16.3008L144.722 6.87013C145.366 7.29882 145.977 7.7751 146.55 8.29497C147.498 9.17385 149.344 11.1314 148.516 12.4683Z" fill="#992965"/>
<path d="M137.816 5.06724C139.359 5.03261 139.364 2.63567 137.816 2.67029C135.472 2.72525 133.134 2.92183 130.814 3.2589C130.606 3.2732 130.409 3.35763 130.255 3.4984C130.101 3.63917 129.999 3.82794 129.967 4.03389C129.835 4.17643 129.739 4.34799 129.687 4.53458C128.323 9.24679 127.191 14.0158 126.293 18.8417C126.159 19.5528 126.612 20.4157 127.449 20.3597L133.494 19.9522C134.912 19.8564 137.059 20.2186 137.962 18.8869C138.762 17.7284 137.121 16.6338 136.161 17.3875C134.829 17.6538 133.313 17.5633 131.984 17.6538L128.914 17.8616C129.23 16.2636 129.574 14.6657 129.945 13.0677C131.755 13.291 133.589 13.2064 135.37 12.8174C136.878 12.5004 136.239 10.1887 134.731 10.5083C133.341 10.7962 131.917 10.8725 130.505 10.7347C130.938 8.9858 131.405 7.24491 131.904 5.51201C133.865 5.25602 135.839 5.10753 137.816 5.06724Z" fill="#992965"/>
<path d="M163.694 6.97137C164.584 5.70632 162.506 4.50786 161.624 5.7596C160.559 7.25636 160.42 9.19254 159.892 10.905C159.313 12.8599 158.5 14.7377 157.471 16.4979C157.353 16.695 156.938 17.6085 156.525 17.3608C156.386 17.2729 156.434 16.5245 156.434 16.3967C156.451 15.3942 156.519 14.3932 156.639 13.3978C156.894 11.1823 157.347 8.9941 157.993 6.85953C158.432 5.37609 156.128 4.74489 155.683 6.22301C154.838 9.04637 154.31 11.9547 154.108 14.8946C153.986 16.7216 153.887 19.779 156.463 19.8856C158.955 19.9894 160.122 16.7829 160.926 14.9425C161.483 13.6871 161.955 12.3961 162.341 11.0781C162.741 9.71987 162.858 8.15386 163.694 6.97137Z" fill="#992965"/>
<path d="M211.983 2.98458L209.473 18.9642C209.309 19.1043 209.187 19.2865 209.118 19.4911C209.05 19.6957 209.039 19.915 209.087 20.1254C209.145 20.4077 209.201 20.69 209.26 20.9723C209.486 22.0909 211.391 22.1415 211.573 20.9723C212.478 15.193 213.385 9.4137 214.293 3.6344C214.53 2.11101 212.22 1.46119 211.983 2.98458Z" fill="#992965"/>
<path d="M222.294 3.11515C221.616 3.16598 220.955 3.35638 220.354 3.67443C219.821 3.26163 219.022 3.22701 218.617 3.98338C217.995 5.15228 217.439 6.35533 216.952 7.58679C216.398 8.74843 215.985 9.97257 215.724 11.2328C215.713 11.2792 215.706 11.3264 215.702 11.374C215.323 12.7908 215.038 14.2312 214.85 15.6858C214.631 17.3823 214.61 19.2705 215.785 20.6528C216.867 21.9258 218.598 22.4132 220.098 21.5663C223.234 19.7979 224.146 15.2011 224.75 11.9785C225.185 9.67213 226.36 2.80888 222.294 3.11515ZM222.781 8.0342C222.766 8.98248 222.677 9.92814 222.515 10.8626C222.23 12.5447 221.817 14.2025 221.279 15.8216C220.914 16.9348 219.984 19.5502 218.513 19.6194C216.59 19.7126 217.152 16.2344 217.306 15.2224C217.673 12.9023 218.299 10.6306 219.171 8.44969C219.272 8.26326 219.376 8.07415 219.491 7.89304C219.855 7.28559 220.321 6.7451 220.868 6.29508C221.095 6.11664 222.227 5.26173 222.526 5.4961C222.955 5.8077 222.784 7.56549 222.781 8.02357V8.0342Z" fill="#992965"/>
</svg>
