<svg width="135" height="32" viewBox="0 0 135 32" fill="none" xmlns="http://www.w3.org/2000/svg">
<path d="M96.6727 4.26881C95.9764 6.08516 95.3547 7.92726 94.8076 9.7951C94.3209 9.88032 93.8333 9.95934 93.3448 10.0321C93.8386 8.54603 94.3307 7.06078 94.8209 5.57646C95.3085 4.10633 92.9931 3.47783 92.5082 4.9373C91.9114 6.74299 91.3137 8.54868 90.7151 10.3544C90.4913 10.3757 90.2702 10.3997 90.0464 10.4183C88.5731 10.5435 88.5144 12.778 89.8998 12.8152C89.1556 15.063 88.4114 17.31 87.6671 19.556C87.6485 19.5853 87.6273 19.6172 87.6086 19.6518C87.377 20.031 87.2629 20.4703 87.2809 20.9142C87.2942 22.2965 89.2152 22.5122 89.6361 21.2339C90.5935 18.3415 91.5518 15.4483 92.5109 12.5542C93.0438 12.4885 93.5811 12.4131 94.1228 12.3279L94.0909 12.4557C93.7588 13.8051 93.4684 15.1642 93.2197 16.5331C93.1025 17.175 92.9931 17.8222 92.8972 18.4694C92.8599 18.717 92.8493 19.801 92.7187 20.2325C91.9034 20.7651 91.7782 22.1793 92.9559 22.3631C94.4372 22.5895 94.8769 21.5268 95.0474 20.2457C95.2792 18.488 95.5802 16.7409 95.9612 15.0071C96.7071 11.569 97.7173 8.19348 98.9826 4.91064C99.5368 3.46448 97.2189 2.8413 96.6727 4.26881Z" fill="#992965"/>
<path d="M60.4642 18.5335C58.109 15.7424 55.8443 12.7809 53.3399 10.0963C54.3934 9.88681 55.4314 9.60561 56.4465 9.25472C57.6774 8.82327 60.0327 8.23735 59.9102 6.51954C59.8142 5.04942 57.7787 4.44485 56.6197 4.1226C55.2951 3.75495 53.9127 3.64198 52.5459 3.78969C51.9331 3.31296 50.9633 3.35559 50.7582 4.23447C50.5885 4.40698 50.478 4.62886 50.4425 4.86816C50.4071 5.10747 50.4485 5.35186 50.5609 5.5661C50.4277 6.51067 50.2927 7.45614 50.1559 8.40249C49.6684 8.79399 49.4606 9.4678 49.9162 10.0324C49.4082 13.4645 48.8691 16.8912 48.299 20.3126C48.248 20.371 48.2016 20.4334 48.1604 20.4991C47.9406 20.8332 47.8235 21.2243 47.8235 21.6243C47.8235 22.0242 47.9406 22.4154 48.1604 22.7495C48.6613 23.5485 50.172 23.5485 50.3532 22.4645C50.9322 19.0484 51.4776 15.627 51.9891 12.2003C54.3524 14.781 56.5184 17.5907 58.7484 20.246L67.5407 30.6754C68.5372 31.8552 70.2238 30.1427 69.2353 28.9789L60.4642 18.5335ZM55.1569 6.22392C55.75 6.31708 56.3352 6.4551 56.9075 6.63674C56.1075 6.9238 55.2928 7.16828 54.4669 7.36914C53.8683 7.54669 53.2635 7.69226 52.6525 7.80589C52.7324 7.24926 52.8124 6.69533 52.8896 6.13871C53.6457 6.0605 54.4089 6.08917 55.1569 6.22392Z" fill="#992965"/>
<path d="M43.7031 3.48599C43.0246 3.53512 42.3638 3.72562 41.7633 4.04527C41.2305 3.63246 40.4312 3.59518 40.0236 4.35155C39.4039 5.52269 38.848 6.72648 38.3584 7.95763C37.804 9.11901 37.3924 10.3433 37.1328 11.6036C37.1222 11.6493 37.1142 11.6955 37.1088 11.7421C36.7302 13.1599 36.4463 14.6012 36.2589 16.0566C36.0404 17.7531 36.0191 19.6387 37.194 21.021C38.2758 22.2967 40.0076 22.7814 41.5076 21.9371C44.6435 20.166 45.5547 15.5692 46.1595 12.3494C46.5938 10.051 47.7688 3.1877 43.7031 3.48599ZM44.1906 8.40504C44.1739 9.35236 44.0849 10.297 43.9242 11.2308C43.6391 12.9137 43.2258 14.5724 42.6879 16.1925C42.3229 17.3057 41.3931 19.921 39.9224 19.9903C37.9961 20.0808 38.5582 16.6026 38.7154 15.5906C39.081 13.2711 39.7067 11.0001 40.5804 8.82052C40.6816 8.63143 40.7855 8.44501 40.8974 8.26124C41.2627 7.65364 41.7296 7.11316 42.2776 6.66328C42.5041 6.48218 43.6365 5.62727 43.9349 5.8643C44.3505 6.18922 44.1933 7.94696 44.1906 8.40504Z" fill="#992965"/>
<path d="M107.474 3.48599C106.795 3.53512 106.135 3.72562 105.534 4.04527C105.001 3.63246 104.202 3.59518 103.794 4.35155C103.174 5.52214 102.618 6.726 102.129 7.95763C101.575 9.11942 101.163 10.3435 100.901 11.6036C100.901 11.6489 100.885 11.6968 100.88 11.7421C100.501 13.1599 100.217 14.6012 100.03 16.0566C99.8112 17.7531 99.7899 19.6387 100.965 21.021C102.047 22.2967 103.778 22.7814 105.278 21.9371C108.412 20.166 109.326 15.5692 109.93 12.3494C110.365 10.051 111.545 3.1877 107.474 3.48599ZM107.961 8.40504C107.945 9.35236 107.856 10.297 107.695 11.2308C107.41 12.9137 106.997 14.5724 106.459 16.1925C106.094 17.3057 105.164 19.921 103.693 19.9903C101.767 20.0808 102.329 16.6026 102.486 15.5906C102.852 13.2711 103.478 11.0001 104.351 8.82052C104.45 8.63143 104.556 8.44501 104.668 8.26124C105.034 7.65364 105.5 7.11316 106.048 6.66328C106.275 6.48218 107.407 5.62727 107.706 5.8643C108.121 6.18922 107.964 7.94696 107.961 8.40504Z" fill="#992965"/>
<path d="M122.226 7.82171C123.268 6.97745 124.56 5.8429 124.6 4.39675C124.646 2.6603 122.863 1.90127 121.475 1.46715C120.253 1.08625 118.973 0.92307 117.694 0.985086C117.553 0.810286 117.358 0.686029 117.14 0.630883C116.834 0.55104 116.509 0.593762 116.233 0.749937C115.958 0.906112 115.755 1.16342 115.667 1.46715L111.007 19.9902C110.863 20.4212 110.773 20.8685 110.74 21.3218C110.746 21.6804 110.889 22.0231 111.14 22.2797C111.391 22.5362 111.73 22.6872 112.089 22.7014C112.811 22.736 113.381 22.0356 113.378 21.3565C113.376 21.177 113.337 20.9999 113.261 20.8371L113.279 20.7599C113.365 20.4163 113.453 20.0727 113.546 19.7292C113.703 19.1086 113.858 18.4854 114.015 17.8649C114.335 16.6007 114.653 15.3357 114.969 14.0697C115.184 13.2175 115.398 12.3661 115.611 11.5157C117.939 10.485 120.231 9.41967 122.226 7.82171ZM113.128 21.3058C113.125 21.3364 113.12 21.3668 113.112 21.3964C113.111 21.3628 113.116 21.3294 113.128 21.2979V21.3058ZM122.226 4.41538C122.277 4.44467 122.258 4.43405 122.229 4.40741L122.226 4.41538ZM122.189 4.36746C122.189 4.36746 122.189 4.34879 122.189 4.34346V4.36746ZM121.502 4.01056C121.48 3.99191 121.382 3.94933 121.504 4.00259L121.502 4.01056ZM118.685 3.36073C118.827 3.36073 118.952 3.37938 119.104 3.39269C119.152 3.39269 119.413 3.4353 119.37 3.42465C119.669 3.47792 119.967 3.53119 120.26 3.60577C120.553 3.68034 120.793 3.75488 121.059 3.84543C121.211 3.8987 121.358 3.95463 121.507 4.01322C121.59 4.05051 121.672 4.08514 121.752 4.12509C121.832 4.16504 121.96 4.23162 122.058 4.29021L122.146 4.3488L122.173 4.36746L122.157 4.42338C122.098 4.51126 122.045 4.60448 121.989 4.6897C122.013 4.6391 121.84 4.87346 121.805 4.91074C121.704 5.01727 121.6 5.12382 121.496 5.22769C121.315 5.40879 121.126 5.58457 120.934 5.76034C120.825 5.85888 120.713 5.95208 120.598 6.0453L120.369 6.22641C119.493 6.87266 118.564 7.44542 117.593 7.93888C117.175 8.1546 116.748 8.35969 116.322 8.55944L116.855 6.39953L117.622 3.35007H117.705C118.032 3.33407 118.361 3.33496 118.688 3.35274L118.685 3.36073Z" fill="#992965"/>
<path d="M91.296 26.7631C91.1324 26.4925 90.8698 26.2963 90.5638 26.2162C90.2578 26.1362 89.9326 26.1785 89.6574 26.3343C89.6256 26.3552 89.5953 26.3783 89.5667 26.4036C86.2097 24.8642 82.8766 23.2663 79.7087 21.37C78.7762 20.8107 77.8571 20.2274 76.9619 19.6096C76.5161 19.3024 76.0764 18.9881 75.643 18.6667L75.2967 18.4004L75.1688 18.3019C74.9557 18.1341 74.7451 17.969 74.5346 17.7985C72.8521 16.4446 71.3073 14.928 69.9226 13.271C69.0701 12.2376 68.2016 11.1563 67.1545 10.3627C67.1918 10.2269 67.229 10.0964 67.2636 9.95521C70.7941 8.00176 74.5118 6.40735 78.3607 5.19595C78.6674 5.11154 78.9279 4.90879 79.085 4.63234C79.2422 4.35589 79.2831 4.02837 79.1986 3.72182C79.1142 3.41526 78.9114 3.15479 78.6348 2.99771C78.3582 2.84063 78.0305 2.79981 77.7239 2.88421C74.3842 3.94429 71.1363 5.27411 68.0123 6.86049C68.245 5.82536 68.4653 4.78756 68.6731 3.74711C68.7983 3.13456 68.4973 2.4155 67.8366 2.27168C67.2398 2.13585 66.5044 2.45279 66.3605 3.10795C66.0062 4.86837 65.6331 6.6288 65.1934 8.37057C64.6446 8.68484 64.0994 9.00706 63.5576 9.33731C63.3316 9.47278 63.1556 9.67792 63.0561 9.92188C62.9567 10.1658 62.9391 10.4355 63.006 10.6903C63.0834 10.939 63.2362 11.1576 63.4434 11.3155C63.6506 11.4735 63.902 11.5631 64.1625 11.5718H64.2769H64.3222C64.2023 11.9979 64.0825 12.4214 63.9652 12.8475C63.6322 14.054 63.3151 15.2631 63.006 16.4722C62.9641 16.624 62.9524 16.7826 62.9717 16.9389C62.991 17.0952 63.041 17.2461 63.1187 17.3831C63.1964 17.5201 63.3003 17.6405 63.4246 17.7374C63.5488 17.8343 63.6908 17.9057 63.8427 17.9477C63.9945 17.9896 64.1532 18.0013 64.3096 17.982C64.4659 17.9627 64.6169 17.9128 64.754 17.8351C64.8911 17.7575 65.0115 17.6536 65.1084 17.5294C65.2053 17.4052 65.2767 17.2632 65.3187 17.1114C65.6784 15.6999 66.07 14.2963 66.459 12.8928C67.0345 13.4761 67.5487 14.1152 68.0576 14.7571C69.4018 16.3968 70.9028 17.9015 72.5391 19.25C75.9095 22.0464 79.6981 24.2596 83.604 26.2118C85.7941 27.3064 88.0215 28.3238 90.2516 29.3358C90.482 29.463 90.747 29.5134 91.0081 29.4799C91.2691 29.4464 91.5127 29.3306 91.7035 29.1494C91.8873 28.9595 92.0048 28.7153 92.0384 28.4533C92.072 28.1912 92.02 27.9253 91.8901 27.6953L91.296 26.7631Z" fill="#992965"/>
<path d="M32.7259 2.62315C32.5124 2.75841 32.3363 2.94515 32.2139 3.1662C32.0914 3.38726 32.0266 3.63553 32.0253 3.8882C32.0329 4.23105 32.1699 4.55836 32.4089 4.80438L32.353 5.17988C32.2642 5.73916 32.1753 6.29846 32.0865 6.85775C31.892 7.95502 31.6788 9.0496 31.4391 10.1362C30.9648 12.2668 30.3947 14.3974 29.7473 16.4961C29.5111 17.2631 29.2641 18.0266 29.0065 18.7865C28.5723 18.5069 28.1407 18.2192 27.7171 17.9236C27.3742 17.6839 27.0359 17.4371 26.7019 17.1832C26.6327 17.1326 26.566 17.074 26.494 17.0288L26.5926 17.09C26.5439 17.0597 26.4968 17.0268 26.4515 16.9915C26.3023 16.8743 26.153 16.7571 26.0065 16.6373C24.7569 15.6279 23.558 14.5599 22.3084 13.5479C21.2214 12.6663 20.1077 11.8168 18.978 10.9858C18.795 10.8773 18.5861 10.82 18.3732 10.82C18.1604 10.82 17.9515 10.8773 17.7684 10.9858C12.9966 13.7583 8.19547 16.5254 3.64745 19.6494C3.38102 19.8278 3.11461 20.0089 2.86682 20.1821C2.90146 20.0382 2.9334 19.8918 2.96804 19.748C3.26911 18.5149 3.6341 17.2951 4.01243 16.0833C4.78243 13.6331 5.6324 11.2042 6.26118 8.71137C6.61009 7.37295 6.84977 6.00844 6.97787 4.63126C6.97717 4.31362 6.85059 4.00919 6.6259 3.78459C6.40121 3.55998 6.09668 3.43349 5.77892 3.43279C5.46328 3.44023 5.16261 3.56887 4.93936 3.79203C4.7161 4.0152 4.58742 4.31575 4.57997 4.63126C4.56931 4.7662 4.55595 4.90203 4.53997 5.03875C4.53997 5.07071 4.54001 5.17722 4.51603 5.25446C4.48406 5.52078 4.4361 5.80308 4.38548 6.07473C4.28157 6.66331 4.15364 7.24659 4.00977 7.82718C3.7087 9.06028 3.34371 10.2801 2.96537 11.4918C2.19538 13.9421 1.34547 16.3709 0.71669 18.8638C0.367775 20.2022 0.128103 21.5667 0 22.9439C0.00109423 23.1792 0.0716986 23.4088 0.203012 23.6041C0.334326 23.7993 0.520493 23.9513 0.738025 24.0411C0.956881 24.1296 1.19656 24.1533 1.4285 24.1094C1.66045 24.0655 1.87485 23.9558 2.04619 23.7935C2.2398 23.6319 2.43695 23.4721 2.63766 23.3141C2.66697 23.2874 2.69897 23.2635 2.73094 23.2395L3.11726 22.9492C3.60039 22.5941 4.08885 22.2444 4.58264 21.8999C5.73629 21.1009 6.91392 20.3285 8.10221 19.5748C10.5561 18.0168 13.0525 16.5174 15.5623 15.0473C16.4735 14.5146 17.3901 13.982 18.3039 13.4493C18.6476 13.7157 18.994 13.9607 19.3377 14.2244L19.4203 14.2883L19.4842 14.3389L19.8146 14.6052L20.4354 15.0979C21.1201 15.6492 21.7969 16.2138 22.4656 16.7838C23.6859 17.8198 24.9089 18.8504 26.2117 19.7826C27.1336 20.4431 28.0767 21.0556 29.0546 21.6469C29.2138 21.7364 29.3912 21.7888 29.5736 21.8003C29.756 21.8118 29.9387 21.782 30.1079 21.7131C30.2772 21.6443 30.4287 21.5382 30.5513 21.4026C30.6738 21.2671 30.7641 21.1057 30.8156 20.9305C31.7535 18.2352 32.606 15.5134 33.2934 12.7436C33.6273 11.4119 33.9223 10.0723 34.1781 8.7247C34.3077 8.03936 34.4302 7.35402 34.5457 6.66867C34.6763 5.86969 34.8387 5.07071 34.908 4.27173C34.933 4.02208 34.9051 3.76997 34.8262 3.53182C34.7472 3.29367 34.619 3.0748 34.4498 2.88947C34.236 2.65519 33.9483 2.50104 33.6348 2.45259C33.3212 2.40415 33.0006 2.46433 32.7259 2.62315Z" fill="#992965"/>
<path d="M133.984 3.06507C133.674 2.55699 133.231 2.14372 132.702 1.87037C132.174 1.59701 131.58 1.47407 130.987 1.51502C129.654 1.60291 128.589 2.35929 127.848 3.4246C126.308 5.60316 126.55 8.52475 126.982 11.0043C127.195 12.2214 127.472 13.4305 127.651 14.6556V14.6716C127.651 14.7435 127.667 14.8181 127.677 14.89C127.677 15.0205 127.707 15.1563 127.72 15.2788C127.749 15.5771 127.773 15.8727 127.789 16.171C127.825 16.7465 127.831 17.3234 127.808 17.8995C127.795 18.1658 127.776 18.4534 127.749 18.7304C127.749 18.8369 127.725 18.9461 127.712 19.0553C127.712 19.0793 127.712 19.1059 127.712 19.1219C127.712 19.2098 127.685 19.3003 127.669 19.3882C127.572 19.9444 127.434 20.4928 127.257 21.0288C127.209 21.1647 127.161 21.2952 127.107 21.4363C127.089 21.4896 127.067 21.5375 127.049 21.5908C126.921 21.8571 126.798 22.1234 126.654 22.3737C126.527 22.601 126.389 22.8216 126.239 23.0343L126.145 23.1648L126.119 23.1967C126.028 23.3006 125.94 23.4018 125.852 23.5004C125.765 23.5989 125.639 23.7187 125.525 23.8199L125.41 23.9211L125.37 23.9584L125.338 23.9797C125.229 24.0543 125.12 24.1289 125.005 24.1981L124.832 24.294L124.688 24.3633H124.669C124.576 24.3952 124.486 24.4271 124.39 24.4511C124.294 24.4751 124.097 24.507 124.136 24.5097C124.023 24.5163 123.909 24.5163 123.796 24.5097H123.75L123.614 24.4778C123.518 24.4511 123.236 24.3259 123.465 24.4404C123.339 24.3792 123.216 24.3117 123.097 24.238L123.047 24.2034C123.01 24.1688 122.943 24.1155 122.94 24.1129C122.874 24.0489 122.815 23.9797 122.754 23.9104C122.815 23.9664 122.647 23.7241 122.613 23.6814C122.578 23.6388 122.589 23.6016 122.575 23.5643C122.575 23.5643 122.546 23.4577 122.546 23.4071C122.546 23.4071 122.546 23.3752 122.546 23.3459C122.546 23.3166 122.57 23.2473 122.583 23.1994C122.665 22.8933 122.622 22.5675 122.466 22.2921C122.31 22.0167 122.051 21.8136 121.747 21.7266C121.44 21.648 121.115 21.6913 120.84 21.8473C120.565 22.0032 120.361 22.2597 120.271 22.5629C120.116 23.172 120.139 23.8126 120.337 24.409C120.535 25.0055 120.899 25.533 121.387 25.9292C121.867 26.3448 122.44 26.6392 123.057 26.788C123.675 26.9367 124.319 26.9354 124.936 26.7841C127.387 26.1982 128.919 23.7294 129.636 21.4869C130.39 19.1193 130.342 16.5892 130.009 14.1576C129.838 12.9165 129.561 11.6941 129.34 10.461C129.284 10.152 129.233 9.84043 129.191 9.52883C129.191 9.49154 129.162 9.29712 129.156 9.2625C129.138 9.07873 129.119 8.89763 129.106 8.72984C129.058 8.09385 129.066 7.45486 129.13 6.82027C129.144 6.72794 129.16 6.63917 129.178 6.55394C129.209 6.37817 129.252 6.20505 129.297 6.02129C129.343 5.83752 129.401 5.6724 129.463 5.48863L129.505 5.37677C129.505 5.35812 129.534 5.31287 129.558 5.26493C129.676 5.02466 129.815 4.79477 129.971 4.57778L130.001 4.54053C130.07 4.46862 130.134 4.39403 130.206 4.32479L130.315 4.22358C130.331 4.20848 130.348 4.19425 130.366 4.18096C130.48 4.10905 130.6 4.04249 130.717 3.97058C130.779 3.97058 130.84 3.93061 130.901 3.91463L131.005 3.88801H131.056C131.122 3.88801 131.221 3.88801 131.322 3.88801L131.394 3.91197L131.559 3.95459L131.658 3.98388L131.703 4.0185L131.821 4.09308L131.871 4.13837C131.895 4.17566 131.919 4.21292 131.94 4.25287C132.103 4.52261 132.365 4.71748 132.671 4.79531C132.976 4.87315 133.3 4.82769 133.572 4.66878C133.844 4.50988 134.043 4.25028 134.125 3.94617C134.207 3.64206 134.166 3.3179 134.011 3.04377L133.984 3.06507ZM127.653 14.6769C127.68 14.866 127.653 14.7302 127.653 14.6769V14.6769ZM122.522 23.3379C122.516 23.3125 122.516 23.286 122.522 23.2606C122.53 23.2846 122.527 23.3112 122.522 23.3379ZM129.1 6.85223C129.1 6.89484 129.084 6.95077 129.1 6.85223V6.85223ZM130.352 4.18896C130.395 4.15434 130.414 4.14901 130.352 4.18896V4.18896ZM131.325 3.89334H131.389H131.325ZM131.858 4.18096C131.879 4.20227 131.898 4.22093 131.898 4.23158L131.858 4.18096Z" fill="#992965"/>
<path d="M78.025 17.873C77.9474 18.1793 77.9914 18.5038 78.1478 18.7784C78.3043 19.053 78.5611 19.2563 78.8643 19.3458C80.5321 19.8358 82.4052 20.1075 83.9718 19.154C84.7583 18.6806 85.3405 17.9315 85.6051 17.0527C85.8202 16.2111 85.8054 15.3273 85.5624 14.4933C85.1441 12.9167 84.1264 11.601 83.431 10.1442L83.3671 10.003C83.3831 10.0377 83.2872 9.81394 83.2845 9.80328C83.2152 9.61952 83.1513 9.4331 83.1007 9.24667C83.05 9.06024 83.0074 8.85251 82.9621 8.65277L82.9461 8.56489C82.9328 8.45836 82.922 8.35181 82.9167 8.24794C82.9034 8.04554 82.8981 7.84315 82.9034 7.63808C82.9034 7.52622 82.9194 7.41436 82.922 7.3025C82.922 7.3025 82.922 7.27853 82.922 7.26255C82.946 7.12938 82.97 6.99623 83.0047 6.86839C83.026 6.79115 83.0473 6.71392 83.0713 6.63935C83.0952 6.56478 83.1352 6.49285 83.1539 6.44757C83.2178 6.33039 83.2818 6.21589 83.3537 6.10137L83.3776 6.08004L83.4869 5.97883C83.539 5.94765 83.5888 5.91294 83.6361 5.87496H83.6814H83.7081H83.7986C83.8226 5.87496 83.8866 5.89361 83.9399 5.90959L84.0145 5.95487H84.0332C84.0332 5.95487 84.0332 5.95489 84.0332 5.93891C84.0361 5.93767 84.0392 5.93703 84.0424 5.93703C84.0456 5.93703 84.0488 5.93767 84.0518 5.93891L84.0785 5.97883H84.0651C84.0651 6.01346 84.0651 6.04808 84.0651 6.08271C83.9851 6.70857 84.6725 7.30781 85.264 7.28118C85.9807 7.24922 86.375 6.74852 86.463 6.08271C86.6894 4.29565 84.5473 3.12382 82.9993 3.5606C81.2489 4.0533 80.5322 5.99481 80.4842 7.64071C80.4336 9.52364 81.1823 11.1669 82.0828 12.7649C82.272 13.0951 82.4638 13.4254 82.6423 13.7636C82.7303 13.9314 82.8156 14.1018 82.8955 14.2749C82.8955 14.2749 82.9701 14.44 82.9861 14.472C83.018 14.5519 83.05 14.6345 83.0793 14.7144C83.1403 14.889 83.1919 15.0668 83.2339 15.247C83.2552 15.3296 83.2711 15.4175 83.2871 15.5133C83.2871 15.5506 83.303 15.6119 83.3057 15.6412C83.319 15.8223 83.3057 15.9981 83.3057 16.1738V16.1925V16.2245C83.2737 16.3416 83.2391 16.4615 83.2045 16.5787L83.1752 16.6213C83.1459 16.6745 83.114 16.7251 83.0793 16.7757C83.0447 16.8263 82.9913 16.8743 82.9434 16.9222L82.8422 17.0101C82.7756 17.0501 82.7116 17.098 82.6423 17.1379L82.4079 17.2498L82.296 17.2871C82.1868 17.3217 82.0749 17.351 81.963 17.375L81.8563 17.391C81.7497 17.391 81.6406 17.4096 81.5313 17.4096C81.4221 17.4096 81.3261 17.4096 81.2222 17.4096L80.9744 17.391H80.9105L80.6787 17.3537C80.5348 17.327 80.3937 17.2951 80.2498 17.2604C79.9833 17.1992 79.7169 17.1246 79.4665 17.0474C79.1663 16.9763 78.8502 17.0221 78.5825 17.1755C78.3148 17.3288 78.1155 17.5782 78.025 17.873ZM84.121 6.01612C84.137 6.0614 84.1396 6.09336 84.121 6.01612V6.01612ZM84.121 5.99749C84.161 6.01081 84.153 6.01081 84.1291 5.99749H84.121ZM84.0811 5.90429V5.88563C84.0811 5.88563 84.0864 5.89097 84.1024 5.90429H84.0811ZM84.0811 5.95754L84.0544 5.92292C84.0544 5.92292 84.1024 5.94156 84.1024 5.95754H84.0811ZM83.8253 5.86167H83.8812C83.8812 5.86167 83.8733 5.86699 83.836 5.86167H83.8253Z" fill="#992965"/>
<path d="M84.0649 5.95752L84.0976 5.98197C84.0878 5.97253 84.0768 5.96432 84.0649 5.95752Z" fill="#992965"/>
</svg>
