<svg width="134" height="134" viewBox="0 0 134 134" fill="none" xmlns="http://www.w3.org/2000/svg">
<circle cx="67" cy="67" r="67" fill="#020202"/>
<path d="M54.5864 48.3691C48.5861 51.2044 43.8056 56.1303 41.1262 62.2384C38.4282 68.3483 38.0947 75.7641 41.3081 81.6525C44.8247 88.1595 52.1006 91.9705 59.4066 92.8182C72.8743 94.3457 86.88 86.0898 92.1019 73.4882C94.0042 68.9059 94.7923 63.5597 92.9961 58.9774C90.101 51.5081 81.59 48.0101 73.7534 46.6049C70.4992 46.0577 67.1942 45.881 63.9008 46.0779C60.6784 46.2292 57.5155 47.0072 54.5864 48.3691V48.3691Z" fill="white"/>
<path d="M64.2108 60.47C64.0989 60.3821 63.9592 60.337 63.817 60.343L60.5081 60.0953L60 60C60.3599 66.3215 60.7198 72.6408 61.0797 78.9581L63.4296 78.9899C63.6817 79.0232 63.9368 78.9572 64.1409 78.8056C64.2875 78.6135 64.3556 78.3729 64.3314 78.1325C64.4415 72.3826 64.4415 66.6348 64.3314 60.8892C64.3462 60.7392 64.303 60.5892 64.2108 60.47V60.47Z" fill="black"/>
<path d="M70.4031 61.1495C70.4031 60.8129 70.365 60.4191 70.0729 60.2476C69.9259 60.1798 69.7645 60.1492 69.6029 60.1587C68.6312 60.1587 67.6595 60.1587 66.6877 60.2603L66.764 60.4635C67.0222 66.4844 67.2847 72.501 67.5515 78.5134C67.5393 78.5604 67.5402 78.6099 67.5541 78.6564C67.568 78.703 67.5943 78.7449 67.6303 78.7776C67.6662 78.8103 67.7104 78.8326 67.7581 78.842C67.8058 78.8514 67.8551 78.8475 67.9008 78.831L70.6 78.5325L70.4031 61.1495Z" fill="black"/>
</svg>
