<svg width="134" height="134" viewBox="0 0 134 134" fill="none" xmlns="http://www.w3.org/2000/svg">
<circle cx="67" cy="67" r="67" fill="#020202"/>
<path d="M54.5864 47.3691C48.5861 50.2044 43.8056 55.1303 41.1262 61.2384C38.4282 67.3483 38.0947 74.7641 41.3081 80.6525C44.8247 87.1595 52.1006 90.9705 59.4066 91.8182C72.8743 93.3457 86.88 85.0898 92.1019 72.4882C94.0042 67.9059 94.7923 62.5597 92.9961 57.9774C90.101 50.5081 81.59 47.0101 73.7534 45.6049C70.4992 45.0577 67.1942 44.881 63.9008 45.0779C60.6784 45.2292 57.5155 46.0072 54.5864 47.3691V47.3691Z" fill="white"/>
<path d="M60.6343 57.5488C60.9526 64.7661 60.278 73.4344 60.9905 80.6058C66.1946 76.222 71.2472 71.7568 76.1482 67.21C71.1563 63.8598 65.985 60.6394 60.6343 57.5488Z" fill="#020202"/>
</svg>
