<svg width="284" height="156" viewBox="0 0 284 156" fill="none" xmlns="http://www.w3.org/2000/svg">
<path d="M134.333 6.49095C123.364 15.5843 113.056 25.4452 103.488 35.999C101.362 35.7896 99.189 37.0175 99.4178 39.7303C99.4178 39.9873 99.4748 40.2348 99.513 40.4728C94.2227 46.5362 89.1327 52.8471 84.2618 59.2913C81.2402 63.3463 88.0747 67.268 91.0487 63.2511C95.605 57.1401 100.419 51.2385 105.423 45.5082C106.529 45.7176 107.691 45.8414 108.854 45.9556C112.078 46.2837 115.317 46.4457 118.558 46.441C116.168 52.6473 113.783 58.8566 111.4 65.0692C109.579 69.8285 117.176 71.8275 118.977 67.1538C121.672 60.129 124.372 53.1073 127.08 46.0888L128.576 45.9651C132.999 45.5558 133.533 39.3496 130.082 38.2644L140.853 10.2699C142.455 6.27202 137.002 4.27309 134.333 6.49095ZM121.637 38.5881C120.083 38.6357 118.529 38.6547 116.966 38.5881C116.013 38.5881 113.802 38.6928 111.638 38.6738C116.817 33.1275 122.193 27.778 127.766 22.6252C125.726 27.962 123.683 33.283 121.637 38.5881ZM150.804 10.2508C149.68 5.32013 157.267 3.23553 158.382 8.16623C159.231 11.9261 161.995 14.9721 164.187 18.0467L168.62 24.2624C173.614 18.1799 178.457 11.9833 182.308 5.06314C184.767 0.636934 191.554 4.59673 189.094 9.02293C182.841 20.2646 174.063 29.631 166.103 39.6542C158.36 49.4631 151.793 60.1427 146.534 71.4753C146.457 71.8496 146.329 72.2115 146.153 72.5509L145.095 74.5879C142.712 79.1569 136.297 75.14 138.308 70.6186C143.654 58.5303 150.446 47.1328 158.535 36.6748C160.146 34.5997 161.795 32.5627 163.463 30.5257L156.562 20.769C154.15 17.4565 151.72 14.2963 150.843 10.2508H150.804ZM282.784 63.1654C275.012 55.855 267.285 48.5098 259.602 41.1296C263.905 40.9519 268.2 40.7647 272.49 40.568C277.532 40.3395 277.561 32.4866 272.49 32.715C265.589 33.0387 258.681 33.3369 251.767 33.6098L250.728 32.6103C245.416 27.4893 240.125 22.3428 234.857 17.171C230.091 12.4687 225.116 7.95682 222.046 1.89339C220.578 -0.962228 216.871 -0.27688 215.25 1.89339C206.767 13.2714 198.023 24.4528 189.018 35.4374C188.46 35.4428 187.91 35.5706 187.407 35.8116C186.903 36.0526 186.459 36.4011 186.106 36.8323C185.752 37.2635 185.497 37.767 185.36 38.3073C185.223 38.8475 185.205 39.4113 185.31 39.9588C179.191 47.358 172.96 54.6557 166.618 61.8519C163.291 65.6594 168.839 71.2088 172.185 67.4013C179.175 59.4309 186.035 51.3559 192.764 43.1761C211.428 42.808 230.082 42.2655 248.726 41.5484C258.169 50.6483 267.67 59.6943 277.227 68.6863C280.906 72.1797 286.482 66.6302 282.784 63.1654ZM199.275 35.2089C205.744 27.1751 212.098 19.0398 218.339 10.8029C221.056 14.3746 224.065 17.7145 227.337 20.7881C231.842 25.2301 236.363 29.6341 240.901 34.0001C227.028 34.5077 213.153 34.9107 199.275 35.2089ZM74.7299 143.361C62.3938 131.082 48.6824 120.265 33.8665 111.121C39.9002 109.112 45.8768 106.952 51.7771 104.572C58.2302 101.973 70.5931 99.0891 71.7942 90.8173C72.9475 82.8121 62.2623 78.0527 56.3524 75.5112C47.8865 71.8702 38.6639 70.3287 29.4721 71.0184C24.1628 71.4086 23.448 78.719 27.4324 80.2611C23.2066 90.6238 19.1047 101.031 15.1267 111.482C12.82 117.574 10.5544 123.679 8.3303 129.797C7.27543 132.709 6.22687 135.625 5.18471 138.544C4.33637 140.933 3.69785 143.808 2.68746 146.311C1.9026 146.701 1.23869 147.297 0.76687 148.035C0.295047 148.773 0.0330197 149.625 0.00892108 150.5C-0.0364633 151.266 0.0917405 152.033 0.383823 152.743C0.675906 153.454 1.12438 154.089 1.6961 154.602C2.28789 155.202 3.03018 155.631 3.84521 155.845C4.66024 156.06 5.51788 156.051 6.3285 155.821C11.7998 153.698 12.6007 146.054 14.3737 141.076C16.9663 133.779 19.6256 126.5 22.3518 119.24C22.7426 118.184 23.1525 117.127 23.5528 116.08C39.7727 125.455 54.7096 136.887 67.9909 150.09C72.347 154.421 79.086 147.692 74.7299 143.361ZM37.5552 80.5371C41.3665 80.8186 45.1301 81.5568 48.7648 82.7359C51.6706 83.6979 54.4714 84.9512 57.1244 86.4768C59.393 87.7713 63.4822 88.9707 60.0412 90.7412C50.1661 95.8051 39.3473 99.5746 28.5857 102.887C31.5216 95.4244 34.5081 87.9776 37.5457 80.5466L37.5552 80.5371ZM155.799 97.3186L134.066 98.5275C131.828 91.0689 130.607 83.3432 130.435 75.5588C130.378 71.085 125.411 69.7334 122.304 72.1892C110.567 81.4604 99.1478 91.0965 88.0462 101.098L87.1691 101.145C85.9074 101.202 84.7187 101.752 83.8592 102.676C82.9998 103.6 82.5383 104.825 82.5746 106.085C77.5799 110.686 72.6425 115.357 67.7622 120.097C63.3679 124.38 70.1069 131.11 74.5011 126.827C80.2203 121.249 86.0412 115.772 91.9637 110.397L127.289 108.427C129.891 115.89 133.008 123.2 136.306 130.434C136.261 130.965 136.322 131.499 136.486 132.005C136.649 132.512 136.912 132.981 137.26 133.385L138.365 134.841C142.054 139.715 149.184 135.689 146.591 130.082C143.274 122.81 139.919 115.442 137.183 107.913L155.847 106.875C161.881 106.504 161.928 96.9855 155.79 97.3281L155.799 97.3186ZM103.373 100.241C109.36 95.031 115.428 89.9226 121.58 84.9157C122.18 89.6944 123.12 94.4244 124.391 99.0701L103.373 100.241ZM273.653 95.6909C268.353 87.1241 258.058 82.022 248.974 78.6048C237.958 74.3382 226.305 71.9382 214.497 71.5038C212.486 71.4562 210.455 71.5039 208.425 71.6371C208.023 71.3672 207.583 71.1586 207.119 71.0184C202.43 69.543 198.379 71.5514 194.49 74.0929L194.308 74.2167C190.162 75.416 185.73 77.2056 184.138 81.1463C184.053 81.3643 183.992 81.591 183.957 81.8221C183.08 82.5265 182.212 83.2404 181.354 83.9734C174.101 90.151 166.57 98.0611 165.674 108.046C163.768 129.768 191.773 139.401 208.959 139.982C220.159 140.353 231.369 137.868 241.835 134.042C250.928 130.71 260.679 126.846 267.857 120.135C274.272 114.129 278.714 103.906 273.633 95.7004L273.653 95.6909ZM262.967 111.454C258.525 116.746 251.634 119.764 245.419 122.419C237.576 125.898 229.322 128.364 220.855 129.758C206.728 131.872 187.712 129.816 178.123 117.793C171.956 110.045 176.817 101.612 182.803 95.5196C185.942 92.3783 189.306 89.4705 192.869 86.8195C193.946 86.0104 195.814 84.3541 197.835 82.8787C202.987 81.4519 208.324 80.8101 213.668 80.975C221.727 81.179 229.722 82.4595 237.441 84.7825C244.542 86.8195 251.634 89.3134 257.82 93.435C260.575 95.2721 264.349 97.8898 265.77 101.05C267.38 104.619 265.226 108.789 262.967 111.454ZM25.0208 56.7213C36.8595 41.5294 49.1716 26.7278 61.9571 12.3164C64.4831 9.46079 69.9162 12.4592 68.5341 16.1239C66.3432 21.8928 64.6904 27.8515 63.5966 33.9239C71.8911 24.6144 80.8869 15.9524 90.5053 8.01392C93.1457 5.83414 98.7315 7.80451 97.0825 11.8214C90.8168 27.0514 84.5605 42.2813 78.3139 57.5113C76.4075 62.1374 68.7819 60.1004 70.6883 55.4267L83.2134 24.9668C75.2651 32.5173 67.8325 40.5914 60.9658 49.1348C58.8115 51.8096 54.0932 49.5632 54.2934 46.3554C54.5636 41.1799 55.2007 36.0301 56.1998 30.9446C47.4431 41.2057 38.9121 51.6541 30.6066 62.2897C27.4611 66.259 21.9324 60.662 25.0208 56.7213Z" fill="url(#paint0_linear_319_400)"/>
<defs>
<linearGradient id="paint0_linear_319_400" x1="142.007" y1="-0.0198744" x2="142.007" y2="156.04" gradientUnits="userSpaceOnUse">
<stop stop-color="#020202"/>
<stop offset="0.390625" stop-color="#020202"/>
<stop offset="1" stop-color="#020202"/>
</linearGradient>
</defs>
</svg>
