<svg width="56" height="47" viewBox="0 0 56 47" fill="none" xmlns="http://www.w3.org/2000/svg">
<path d="M15.5864 2.36912C9.58614 5.20445 4.80557 10.1303 2.12625 16.2384C-0.571838 22.3483 -0.905317 29.7641 2.30813 35.6525C5.82474 42.1595 13.1006 45.9705 20.4066 46.8182C33.8743 48.3457 47.88 40.0898 53.1019 27.4882C55.0042 22.9059 55.7923 17.5597 53.9961 12.9774C51.101 5.50806 42.59 2.01012 34.7534 0.604856C31.4992 0.0576778 28.1943 -0.119046 24.9008 0.0779261C21.6784 0.22918 18.5155 1.0072 15.5864 2.36912Z" fill="white"/>
<path d="M25.2108 14.47C25.0989 14.3821 24.9592 14.337 24.817 14.343L21.5081 14.0953L21 14C21.3599 20.3215 21.7198 26.6408 22.0797 32.9581L24.4296 32.9899C24.6817 33.0232 24.9368 32.9572 25.1409 32.8056C25.2875 32.6135 25.3556 32.3729 25.3314 32.1325C25.4415 26.3826 25.4415 20.6348 25.3314 14.8892C25.3462 14.7392 25.303 14.5892 25.2108 14.47Z" fill="black"/>
<path d="M31.4029 15.1497C31.4029 14.8131 31.3648 14.4193 31.0726 14.2478C30.9256 14.18 30.7642 14.1495 30.6026 14.1589C29.6309 14.1589 28.6592 14.1589 27.6875 14.2605L27.7637 14.4637C28.022 20.4846 28.2845 26.5013 28.5512 32.5136C28.5391 32.5607 28.54 32.6101 28.5539 32.6567C28.5678 32.7033 28.5941 32.7452 28.63 32.7779C28.666 32.8105 28.7102 32.8328 28.7579 32.8422C28.8055 32.8516 28.8548 32.8478 28.9005 32.8312L31.5997 32.5327L31.4029 15.1497Z" fill="black"/>
</svg>
