<svg width="56" height="47" viewBox="0 0 56 47" fill="none" xmlns="http://www.w3.org/2000/svg">
<path d="M15.5864 2.36912C9.58614 5.20445 4.80557 10.1303 2.12625 16.2384C-0.571838 22.3483 -0.905317 29.7641 2.30813 35.6525C5.82474 42.1595 13.1006 45.9705 20.4066 46.8182C33.8743 48.3457 47.88 40.0898 53.1019 27.4882C55.0042 22.9059 55.7923 17.5597 53.9961 12.9774C51.101 5.50806 42.59 2.01012 34.7534 0.604856C31.4992 0.0576778 28.1943 -0.119046 24.9008 0.0779261C21.6784 0.22918 18.5155 1.0072 15.5864 2.36912Z" fill="white"/>
<path d="M21.6338 12.5488C21.9521 19.7661 21.2776 28.4344 21.99 35.6058C27.1941 31.222 32.2467 26.7568 37.1478 22.21C32.1558 18.8598 26.9845 15.6394 21.6338 12.5488Z" fill="#020202"/>
</svg>
