<svg width="383" height="51" viewBox="0 0 383 51" fill="none" xmlns="http://www.w3.org/2000/svg">
<path d="M16.8502 43.1777C12.6612 43.0151 8.47515 42.8069 4.29192 42.5531C6.33623 33.1666 8.31461 23.7658 10.227 14.3509C10.8205 11.4416 11.4055 8.53103 11.9818 5.61897C12.1796 4.63497 11.7022 3.47986 10.6313 3.25311C9.6722 3.03492 8.48087 3.53974 8.24862 4.59646C6.24159 14.7872 4.14141 24.9609 1.94801 35.1175C1.32296 38.021 0.693557 40.9216 0.0599072 43.8194C-0.0125658 44.1049 -0.0193652 44.4031 0.0399573 44.6917C0.0992798 44.9802 0.223164 45.2517 0.402521 45.486C0.581878 45.7204 0.812053 45.9115 1.07588 46.0451C1.33972 46.1788 1.63049 46.2515 1.92649 46.258C6.8982 46.5803 11.8728 46.837 16.8502 47.0281C17.3624 47.0247 17.8528 46.8208 18.215 46.4605C18.5772 46.1002 18.7822 45.6124 18.7856 45.1029C18.7767 44.595 18.5699 44.1104 18.2089 43.7513C17.8478 43.3921 17.3607 43.1865 16.8502 43.1777Z" fill="#557A8E"/>
<path d="M27.369 11.3043L27.2496 11.2617L27.369 11.3043Z" fill="#557A8E"/>
<path d="M29.9847 8.34856C29.1337 7.79834 28.175 7.43381 27.172 7.279C27.019 7.04341 26.8109 6.84817 26.5655 6.70999C25.5419 6.17521 24.5744 6.54313 23.9164 7.40306C23.8476 7.48862 23.783 7.58275 23.7141 7.67259C23.1264 7.91078 22.5794 8.23842 22.0927 8.64376C21.8227 8.90668 21.6376 9.24366 21.561 9.61172C21.4844 9.97977 21.5198 10.3622 21.6627 10.7102C19.6706 14.0167 18.2052 17.6102 17.3188 21.363C16.7178 23.9147 16.3807 26.5209 16.3125 29.1408C16.2609 31.4297 16.2308 34.1549 17.6286 36.1058C18.0544 36.726 18.6188 37.2396 19.2777 37.6063C19.9366 37.973 20.6721 38.1828 21.4262 38.2193C22.8284 38.2193 24.1905 37.7541 25.2969 36.8973C27.4473 35.3272 29.0859 33.0126 30.3934 30.7195C31.6537 28.5037 32.6042 26.1274 33.2189 23.6561C33.8724 21.1645 34.1178 18.5844 33.9457 16.0152C33.6748 13.0332 32.5996 10.0513 29.9847 8.34856ZM20.7639 33.894L20.8928 34.048C20.8498 34.0351 20.8069 33.971 20.7639 33.894ZM30.0708 18.9201C30.0493 19.2153 30.0233 19.5148 29.9889 19.8057C29.9889 19.8955 29.9374 20.2335 29.9331 20.2849C29.8513 20.8368 29.7525 21.3886 29.6363 21.932C29.4038 23.005 29.1037 24.0624 28.7375 25.0979C28.6472 25.3503 28.5526 25.6027 28.458 25.8508C28.4107 25.9621 28.3677 26.0733 28.3247 26.1803L28.2902 26.2658V26.2958C28.058 26.8135 27.8258 27.3226 27.5634 27.8274C27.0456 28.8311 26.4623 29.8001 25.8173 30.728C25.6854 30.922 25.542 31.1145 25.3872 31.3056L25.2238 31.5195L25.0344 31.7634C24.6917 32.199 24.3243 32.6147 23.9336 33.0084C23.7487 33.1923 23.5508 33.3677 23.3529 33.5389L23.2368 33.633C23.1723 33.6757 23.112 33.7228 23.0432 33.7656C22.8067 33.9239 22.5573 34.0565 22.3036 34.1934C22.2305 34.2276 22.1099 34.2576 22.1916 34.2276L21.8649 34.3303H21.8218C21.7216 34.3239 21.6209 34.3239 21.5207 34.3303L21.3617 34.2833C21.4262 34.3089 21.3616 34.2833 21.2756 34.2833H21.2112H21.2712H21.2456L21.095 34.1806L20.9789 34.0779L20.8842 33.9795L20.8069 33.8854C20.7424 33.7656 20.682 33.6201 20.6519 33.5645C20.6175 33.4747 20.5832 33.3848 20.5574 33.295C20.4884 33.0847 20.4324 32.8704 20.3896 32.6533C20.3681 32.5549 20.3553 32.4565 20.3338 32.3623C20.3306 32.3425 20.3306 32.3223 20.3338 32.3024C20.2406 31.2284 20.2118 30.1498 20.2477 29.0724C20.2778 27.9557 20.3595 26.8391 20.4972 25.7311C20.4972 25.6754 20.523 25.5214 20.5316 25.4744C20.5402 25.4273 20.553 25.3289 20.5616 25.2562C20.6046 24.9867 20.6477 24.7171 20.695 24.4519C20.7939 23.8829 20.9058 23.3224 21.0306 22.762C21.3101 21.5241 21.6546 20.3017 22.0627 19.0998C22.2691 18.4966 22.4928 17.9019 22.725 17.3115C22.7681 17.2002 22.8153 17.089 22.8626 16.9778L22.9143 16.8451C22.9277 16.8204 22.9392 16.7947 22.9487 16.7681C23.0863 16.4687 23.2196 16.1606 23.3788 15.8612C24.169 14.1817 25.0906 12.5667 26.1354 11.031L26.3763 11.0524H26.5141H26.5699C26.8022 11.1123 27.0344 11.1594 27.2623 11.2364H27.3182C27.3598 11.2459 27.4004 11.2602 27.4387 11.2791L27.5376 11.3134L27.4473 11.2834H27.4731C27.7097 11.4118 27.9419 11.5316 28.1655 11.6813C28.2171 11.7155 28.2989 11.784 28.3333 11.8097L28.402 11.8695C28.5654 12.015 28.6987 12.1819 28.832 12.3316H28.8537L28.8837 12.3787C28.9439 12.4728 29.0085 12.5626 29.0687 12.6525C29.2192 12.8878 29.3439 13.1316 29.473 13.3755L29.5116 13.4525C29.5546 13.5552 29.5933 13.6579 29.6277 13.7605C29.7137 13.9959 29.7869 14.2354 29.8514 14.475C29.9159 14.7146 29.9719 14.967 30.0192 15.2151C30.0192 15.305 30.0535 15.3991 30.0664 15.4932C30.0793 15.5874 30.0965 15.7029 30.1051 15.7927C30.1825 16.8371 30.1712 17.8862 30.0708 18.9286V18.9201Z" fill="#557A8E"/>
<path d="M21.2327 34.3042H21.3176L21.2285 34.2788L21.2327 34.3042Z" fill="#557A8E"/>
<path d="M22.2856 34.2109L22.1704 34.245L22.2856 34.2109Z" fill="#557A8E"/>
<path d="M54.1297 23.9256C53.761 23.5762 53.2712 23.3813 52.762 23.3813C52.2527 23.3813 51.7629 23.5762 51.3942 23.9256C51.1835 24.1053 50.9643 24.285 50.7535 24.4561L50.5685 24.593L50.1987 24.8583C49.6955 25.2048 49.1751 25.5257 48.6418 25.8209C48.3708 25.9664 48.0998 26.1075 47.8289 26.2487L47.3988 26.4412L47.1968 26.5311C46.691 26.7384 46.1706 26.9086 45.6398 27.0402C45.4721 27.083 45.3044 27.1086 45.1367 27.1472C45.1052 27.1503 45.0734 27.1503 45.042 27.1472C44.7962 27.1715 44.5494 27.1829 44.3024 27.1814C44.1647 27.1814 44.0313 27.1814 43.8937 27.16H43.8336C43.7304 27.1343 43.6227 27.1129 43.5195 27.0787C43.4506 27.0604 43.3832 27.0375 43.3175 27.0102C43.2099 26.9375 43.0766 26.8734 42.9605 26.8049C42.8443 26.7364 42.724 26.5696 42.6079 26.4498C42.6079 26.4498 42.3671 26.0947 42.3198 26.022C42.2724 25.9492 42.238 25.8508 42.195 25.761C42.4101 26.1888 42.195 25.7182 42.152 25.607C42.0836 25.3947 42.0262 25.1791 41.98 24.961C41.9542 24.8455 41.9368 24.73 41.9153 24.6144V24.5759C41.8809 24.0445 41.8809 23.5115 41.9153 22.9801C41.9153 22.8561 41.9368 22.732 41.9497 22.6079C41.9497 22.578 41.9497 22.5609 41.9497 22.5395C41.9927 22.2357 42.0487 21.9362 42.1089 21.6368C42.2402 20.9932 42.4082 20.3575 42.6121 19.7329C42.7841 19.1939 42.982 18.6591 43.2013 18.1372L43.3002 17.9104C43.3648 17.7692 43.4292 17.6238 43.4981 17.4826C43.6486 17.1703 43.8035 16.858 43.9626 16.5499C44.5326 15.4387 45.1793 14.368 45.8979 13.3455L46.001 13.2086L46.2075 12.9648C46.4066 12.7438 46.6194 12.5353 46.8442 12.3402L46.8914 12.3102L47.171 12.1476L47.4246 12.045L47.4763 12.0193C47.515 12.0193 47.6699 12.045 47.7258 12.045H47.8033H47.8289C47.8934 12.0792 47.9538 12.1177 48.0183 12.1605C47.9313 12.6327 48.0239 13.1203 48.2783 13.5283C48.5327 13.9364 48.9305 14.2357 49.3944 14.368C49.8891 14.4939 50.4136 14.4237 50.8573 14.1723C51.301 13.9209 51.6294 13.5079 51.7729 13.0204C51.9645 12.1886 51.8727 11.317 51.5123 10.5427C51.1518 9.76828 50.543 9.13494 49.7815 8.74214C49.0517 8.34433 48.2284 8.14768 47.3967 8.1725C46.565 8.19732 45.755 8.44272 45.0506 8.88333C43.7302 9.67908 42.797 10.9412 41.9842 12.2204C41.1276 13.5453 40.3812 14.9375 39.7521 16.3831C38.5135 19.2452 37.6575 22.394 38.1521 25.5214C38.351 26.9702 39.0078 28.3186 40.0274 29.3718C40.6208 29.9298 41.319 30.3659 42.082 30.6552C42.8451 30.9444 43.6581 31.0811 44.4743 31.0575C46.2662 30.9654 48.0167 30.4881 49.6053 29.6585C51.2397 28.8679 52.7588 27.8604 54.1211 26.6637C54.4857 26.3009 54.6913 25.8094 54.6929 25.2964C54.6945 24.7835 54.492 24.2906 54.1297 23.9256ZM48.0742 12.2589C48.0742 12.2974 48.1213 12.3316 48.1428 12.3744C48.1643 12.4171 48.0957 12.3188 48.0742 12.2589ZM48.0742 12.2289C48.1092 12.259 48.1383 12.2952 48.16 12.3359L48.0742 12.2289ZM47.9752 12.1348L47.8763 12.0535C47.9144 12.0757 47.949 12.1031 47.9794 12.1348H47.9752ZM46.8098 12.323C46.6936 12.4214 46.7452 12.3744 46.8098 12.323V12.323ZM41.9411 22.4496C41.9411 22.3085 41.9411 22.3726 41.9411 22.4496V22.4496Z" fill="#557A8E"/>
<path d="M101.619 45.6935C101.354 45.2586 100.929 44.9432 100.435 44.8139C99.9406 44.6846 99.415 44.7515 98.9694 45.0005C98.9178 45.0347 98.8747 45.0775 98.8274 45.116C93.4084 42.6432 88.0281 40.0762 82.9145 37.0258C81.4092 36.1274 79.9254 35.1905 78.4804 34.2022C77.7621 33.7102 77.0482 33.2054 76.33 32.6877L75.7751 32.2599L75.5645 32.1016C75.2247 31.8363 74.8806 31.5668 74.5452 31.293C71.8272 29.1203 69.3334 26.684 67.1005 24.02C65.7715 22.4156 64.4125 20.7428 62.7997 19.4808L62.9933 18.5952C68.6382 15.5047 74.5762 12.9768 80.721 11.0483C81.2161 10.9127 81.6369 10.5871 81.8905 10.143C82.1442 9.69891 82.21 9.17278 82.0737 8.68034C81.9373 8.1879 81.6101 7.76947 81.1637 7.51714C80.7173 7.26481 80.1883 7.19923 79.6933 7.33482C74.3122 9.03638 69.0782 11.1682 64.0427 13.7094C64.391 12.0494 64.7437 10.3852 65.0834 8.72097C65.2813 7.73698 64.7995 6.58186 63.7329 6.35512C62.7696 6.13265 61.5827 6.64174 61.3505 7.69847C60.7771 10.4964 60.1877 13.2916 59.5827 16.0838C58.658 16.6101 57.7335 17.1491 56.8261 17.7053C56.4612 17.9229 56.177 18.2524 56.0165 18.6443C55.856 19.0362 55.8276 19.4693 55.9357 19.8786C56.0606 20.2778 56.3076 20.6282 56.6421 20.8813C56.9766 21.1343 57.3823 21.2773 57.8023 21.2905H57.9871L58.4172 21.3846C57.5227 25.3491 56.5952 29.3079 55.6347 33.261C55.0441 35.6796 54.439 38.1039 53.8197 40.534C53.6834 41.0264 53.7494 41.5526 54.003 41.9967C54.2567 42.4408 54.6773 42.7664 55.1723 42.902C55.6673 43.0376 56.1963 42.972 56.6427 42.7197C57.0891 42.4673 57.4166 42.0489 57.5529 41.5565C59.0667 35.6525 60.5003 29.7271 61.8536 23.7804C62.6493 24.636 63.3803 25.5345 64.1158 26.4286C66.2866 29.0629 68.7094 31.4815 71.3498 33.6503C76.7903 38.1382 82.9016 41.6934 89.2109 44.8294C92.7461 46.5877 96.3416 48.2263 99.937 49.852C100.31 50.0554 100.739 50.1356 101.161 50.081C101.583 50.0264 101.977 49.8398 102.285 49.5482C102.581 49.2436 102.77 48.8521 102.824 48.432C102.879 48.012 102.795 47.5857 102.586 47.2166C102.251 46.6904 101.937 46.1898 101.619 45.6935Z" fill="#557A8E"/>
<path d="M105.765 11.8566C104.049 10.9856 102.274 10.2351 100.453 9.61056C96.4318 8.09827 92.2976 6.901 88.0886 6.02968C87.0994 5.82432 85.9381 6.3163 85.7059 7.37302C85.5913 7.83304 85.6462 8.31868 85.8609 8.74178C86.0755 9.16488 86.4355 9.4974 86.8756 9.679C85.442 16.6782 83.6858 23.599 81.6071 30.4413C81.2304 30.6338 80.9123 30.9229 80.6854 31.2786C80.4586 31.6344 80.3314 32.0439 80.3169 32.4649C80.316 32.9285 80.4665 33.3798 80.7457 33.751C81.025 34.1221 81.4178 34.393 81.8652 34.5228C82.2425 34.6151 82.6372 34.6118 83.0129 34.5131C83.3886 34.4145 83.7333 34.2236 84.0156 33.958C84.12 33.8625 84.2125 33.7547 84.2909 33.6372C84.3359 33.6024 84.3789 33.5653 84.4199 33.5259C84.7897 33.4104 85.1596 33.2949 85.5295 33.1709C86.3897 32.8842 87.2843 32.5805 88.153 32.2639C90.0196 31.5822 91.8631 30.8421 93.6838 30.0435C96.9524 28.6145 100.281 27.0487 103.253 25.0764C106.092 23.1811 108.844 20.4046 108.844 16.7638C108.853 14.6033 107.627 12.8663 105.765 11.8566ZM104.952 17.2558C104.952 17.32 104.952 17.2986 104.952 17.2558V17.2558ZM104.952 17.1574C104.9 17.3799 104.857 17.5852 104.793 17.8162C104.754 17.9403 104.707 18.0644 104.664 18.1842C104.664 18.2269 104.565 18.4066 104.522 18.4879C104.44 18.6462 104.35 18.8002 104.255 18.9542C104.199 19.0398 104.148 19.1254 104.087 19.2109L103.993 19.3521C103.954 19.3863 103.761 19.6388 103.726 19.6773C103.606 19.8142 103.481 19.9468 103.352 20.0794C103.072 20.3661 102.78 20.6356 102.492 20.8923C102.44 20.9351 102.113 21.1917 102.148 21.1704L101.795 21.4271C101.46 21.6624 101.12 21.8891 100.776 22.103C100.04 22.5651 99.2834 22.9886 98.5222 23.3865C96.7818 24.3363 95.0084 25.2247 93.202 26.0518C92.772 26.2444 92.3419 26.4369 91.9376 26.6209L91.3011 26.8989L90.9355 27.0529L90.8496 27.0915L90.7549 27.13C89.869 27.4979 88.9774 27.8516 88.0799 28.191C87.4305 28.4348 86.7896 28.6701 86.1144 28.9011C87.8777 22.8517 89.3887 16.7353 90.6474 10.5518C93.3668 11.238 96.0485 12.0648 98.6813 13.0289C99.5931 13.3626 100.501 13.7134 101.404 14.0813C101.602 14.1583 101.795 14.2396 101.993 14.3252C102.045 14.3252 102.131 14.3808 102.148 14.3894L102.518 14.5476C102.909 14.7145 103.3 14.8899 103.679 15.0867C103.851 15.1766 104.019 15.2707 104.182 15.3733L104.423 15.5316L104.444 15.553L104.707 15.814C104.76 15.9298 104.825 16.0401 104.9 16.1434C104.9 16.1776 104.922 16.2119 104.926 16.2162C104.926 16.2889 104.956 16.3574 104.973 16.4301C104.973 16.4301 104.973 16.7467 104.973 16.8579C104.973 16.9691 104.965 17.0547 104.956 17.1445L104.952 17.1574Z" fill="#557A8E"/>
<path d="M117.73 11.2751C117.983 10.832 118.05 10.3068 117.914 9.81497C117.779 9.32315 117.452 8.90502 117.007 8.65256C116.562 8.40009 116.034 8.33399 115.539 8.46878C115.045 8.60357 114.624 8.92821 114.371 9.3713C112.629 12.4036 111.333 15.6681 110.521 19.0658C110.066 20.858 109.808 22.6942 109.751 24.5419C109.73 26.2532 109.902 28.3196 110.904 29.7657C111.446 30.5639 112.226 31.1731 113.134 31.5077C114.042 31.8423 115.032 31.8854 115.966 31.631C117.725 31.2032 119.097 29.8812 119.949 28.341C120.741 26.8344 121.339 25.2346 121.729 23.5793C122.222 21.7288 122.35 19.8011 122.108 17.9021C121.734 15.2496 120.112 12.6014 117.73 11.2751ZM114.349 27.8918H114.28H114.349ZM114.276 27.8661C114.181 27.8405 114.216 27.8405 114.276 27.8661V27.8661ZM118.349 20.5675C118.349 20.7343 118.319 20.8969 118.297 21.0595C118.297 21.1065 118.233 21.4616 118.224 21.513C117.942 22.928 117.526 24.3132 116.981 25.65C116.969 25.6764 116.959 25.7036 116.951 25.7313L116.908 25.8126C116.856 25.9153 116.809 26.0179 116.757 26.1163C116.607 26.4201 116.426 26.6982 116.254 26.972L116.198 27.049C116.108 27.156 116.022 27.2586 115.928 27.3527C115.833 27.4469 115.76 27.5068 115.678 27.5795L115.429 27.7421C115.368 27.7763 115.153 27.849 115.145 27.8576L114.87 27.9346C114.766 27.9645 114.659 27.9346 114.74 27.9346H114.663C114.629 27.9346 114.465 27.9132 114.388 27.8961L114.302 27.849C114.274 27.8159 114.243 27.7844 114.211 27.7549C114.18 27.7123 114.152 27.6681 114.126 27.6223C114.097 27.5737 114.071 27.5237 114.048 27.4725C114.095 27.5581 113.958 27.2501 113.941 27.1902C113.855 26.9164 113.803 26.6383 113.743 26.3602C113.743 26.2917 113.717 26.2447 113.708 26.2105C113.711 26.162 113.711 26.1134 113.708 26.065C113.687 25.8639 113.67 25.6628 113.661 25.4575C113.641 25.0525 113.641 24.6461 113.661 24.2382C113.661 23.8959 113.695 23.558 113.725 23.22C113.725 23.0446 113.764 22.8734 113.786 22.7023C113.786 22.6381 113.842 22.3044 113.842 22.3087C113.958 21.5942 114.1 20.8883 114.272 20.1696C114.636 18.598 115.112 17.054 115.695 15.5491C115.764 15.3694 115.837 15.1897 115.91 15.01L116.018 14.7491V14.7191L116.259 14.8645L116.302 14.8902C116.545 15.0951 116.776 15.3136 116.994 15.5448C117.076 15.6346 117.153 15.733 117.235 15.8229C117.236 15.8371 117.236 15.8514 117.235 15.8657C117.386 16.1052 117.545 16.332 117.665 16.5801C117.73 16.6914 117.785 16.8069 117.841 16.9181C117.897 17.0293 117.944 17.1834 117.957 17.2048C118.035 17.4315 118.112 17.6582 118.172 17.8893C118.211 18.039 118.246 18.1845 118.271 18.3171L118.327 18.6636C118.327 18.7834 118.357 18.9931 118.353 18.9674C118.353 19.1599 118.375 19.3567 118.375 19.5492C118.388 19.9043 118.375 20.2295 118.349 20.5675Z" fill="#557A8E"/>
<path d="M173.21 0.433937C172.913 0.658577 172.674 0.949604 172.512 1.28337C172.35 1.61714 172.269 1.98423 172.276 2.35486C172.308 2.92373 172.553 3.45998 172.965 3.85653C172.965 4.14745 172.926 4.43837 172.908 4.71218C172.845 5.70473 172.779 6.70299 172.711 7.70695L172.336 13.4526C172.078 17.3202 171.823 21.1877 171.571 25.0552L171.3 29.2051C167.718 28.2364 164.202 27.0433 160.772 25.6328L160.423 25.4873H160.376C160.342 25.4751 160.309 25.4609 160.277 25.4446L159.585 25.1494C159.064 24.9226 158.548 24.6916 158.032 24.4563C157.003 23.9857 155.984 23.4951 154.974 22.9846C152.984 21.9749 151.033 20.8939 149.121 19.7417C146.939 18.424 144.821 17.015 142.769 15.5147C141.861 14.8559 140.687 15.442 140.119 16.2078C136.726 20.747 133.238 25.1921 129.557 29.6073C130.13 22.6851 130.703 15.7643 131.277 8.84495C131.276 8.3347 131.072 7.84569 130.709 7.48489C130.346 7.12409 129.855 6.92087 129.342 6.91974C128.832 6.93065 128.346 7.13699 127.985 7.4957C127.625 7.85441 127.417 8.33778 127.406 8.84495L125.2 35.4514C125.067 37.0728 127.441 38.0482 128.507 36.8118C133.247 31.2986 137.807 25.6356 142.188 19.8229C149.244 24.7383 156.969 28.6278 165.128 31.3742C167.571 32.1985 170.048 32.9115 172.56 33.5133C172.847 33.5864 173.147 33.5938 173.437 33.5351C173.727 33.4765 174 33.3532 174.236 33.1745C174.471 32.9959 174.663 32.7665 174.797 32.5036C174.93 32.2407 175.002 31.9511 175.007 31.6566L175.962 17.1833C176.117 14.7703 176.275 12.3574 176.435 9.94446L176.68 6.21813C176.758 5.06728 176.925 3.87791 176.904 2.72279C176.915 2.3344 176.848 1.94775 176.705 1.58604C176.562 1.22433 176.348 0.895022 176.074 0.617899C175.695 0.255538 175.2 0.038273 174.676 0.00459842C174.151 -0.0290762 173.632 0.123019 173.21 0.433937Z" fill="#557A8E"/>
<path d="M201.354 3.18036C200.404 2.96217 199.174 3.46701 198.976 4.52373C197.65 11.5076 196.698 18.5567 196.124 25.6411C195.548 24.4176 194.963 23.2025 194.339 22.0003C192.717 18.8831 190.927 15.8554 188.977 12.9305C188.022 11.5016 187.02 10.0983 185.987 8.72069C185.996 8.69688 186.003 8.6726 186.009 8.64797C186.085 8.40182 186.111 8.14291 186.085 7.88658C186.059 7.63026 185.982 7.38174 185.858 7.15572C185.734 6.9297 185.565 6.7308 185.362 6.57078C185.159 6.41077 184.926 6.2929 184.676 6.22417C184.427 6.15544 184.166 6.13723 183.909 6.17064C183.652 6.20405 183.405 6.28841 183.181 6.41868C182.958 6.54895 182.763 6.72249 182.608 6.92904C182.453 7.1356 182.342 7.37096 182.28 7.62118C182.246 7.73241 182.216 7.84794 182.181 7.95917C181.942 8.317 181.822 8.74045 181.837 9.1699C179.835 16.1829 178.312 23.3224 177.278 30.5397C176.983 31.3425 176.865 32.1988 176.93 33.0511C177.012 34.0522 177.76 35.0233 178.865 34.9763C179.971 34.9292 180.663 34.1206 180.801 33.0511C180.835 32.7944 180.865 32.542 180.9 32.2853C180.9 32.251 180.9 32.204 180.921 32.1227C180.943 32.0414 180.96 31.8489 180.981 31.6949C180.981 31.6521 180.981 31.6136 180.981 31.5708C180.981 31.528 181.024 31.4424 181.05 31.3783C181.147 31.1306 181.173 30.8609 181.123 30.5996L181.201 30.0563C181.355 29.0295 181.522 28.0056 181.699 26.9845C182.049 24.9452 182.439 22.9102 182.869 20.8794C183.398 18.3895 183.996 15.9167 184.645 13.4567C187.944 18.2248 190.813 23.2727 193.221 28.5418C194.081 30.3814 195.019 32.0243 196.662 33.2479C196.957 33.4244 197.294 33.5177 197.638 33.5177C197.982 33.5177 198.32 33.4244 198.614 33.2479C198.903 33.075 199.142 32.8318 199.31 32.5414C199.478 32.251 199.569 31.9228 199.574 31.5879C200.002 22.838 201.038 14.1281 202.674 5.52057C202.907 4.56224 202.442 3.42422 201.354 3.18036Z" fill="#557A8E"/>
<path d="M261.662 4.70761C257.841 4.74639 254.021 4.5664 250.222 4.16855C249.211 4.06159 248.243 5.13116 248.286 6.09376C248.3 6.59993 248.509 7.08151 248.869 7.43956C249.229 7.79762 249.713 8.00495 250.222 8.01897C251.009 8.10026 251.796 8.16871 252.587 8.23288C252.676 9.06562 252.692 9.90446 252.634 10.7399C252.604 11.1677 252.557 11.6384 252.501 12.0876C252.501 12.2245 252.462 12.3614 252.441 12.5154C252.411 12.725 252.376 12.9432 252.346 13.1357C252.054 14.9155 251.744 16.691 251.443 18.4707L249.611 29.2776C249.443 30.2658 249.873 31.4167 250.961 31.6434C251.899 31.8573 253.163 31.3611 253.344 30.3001C253.969 26.6293 254.591 22.9572 255.21 19.2836C255.516 17.4739 255.838 15.6642 256.127 13.8502C256.466 12.0832 256.586 10.2814 256.483 8.48528C258.204 8.55373 259.924 8.58797 261.666 8.57085C262.179 8.57085 262.672 8.36803 263.035 8.00698C263.398 7.64594 263.601 7.15624 263.601 6.64564C263.601 6.13505 263.398 5.64538 263.035 5.28433C262.672 4.92328 262.179 4.72043 261.666 4.72043L261.662 4.70761Z" fill="#557A8E"/>
<path d="M241.465 4.24072C239.315 4.3819 237.595 5.59692 236.399 7.3125C233.913 10.8121 234.3 15.5011 235.001 19.4841C235.345 21.4435 235.792 23.3816 236.081 25.3496V25.3795C236.081 25.495 236.106 25.6106 236.124 25.7261C236.124 25.9357 236.171 26.1539 236.193 26.355C236.24 26.8298 236.278 27.309 236.304 27.7882C236.362 28.7126 236.372 29.6393 236.334 30.5648C236.313 30.9926 236.283 31.4546 236.24 31.8953C236.24 32.0707 236.201 32.2418 236.179 32.4172C236.179 32.46 236.179 32.5028 236.179 32.5242C236.154 32.6696 236.132 32.8151 236.106 32.952C235.949 33.8441 235.727 34.7235 235.44 35.5831C235.362 35.8056 235.285 36.0109 235.199 36.242L235.104 36.4858C234.898 36.9137 234.7 37.3415 234.468 37.7436C234.263 38.1088 234.039 38.4629 233.797 38.8046L233.646 39.01L233.603 39.0613C233.457 39.2282 233.315 39.395 233.173 39.5533C233.031 39.7116 232.829 39.8999 232.644 40.0667L232.459 40.225L232.395 40.2849C232.377 40.2964 232.359 40.3093 232.343 40.3234C232.167 40.4432 231.991 40.563 231.806 40.67C231.711 40.7256 231.621 40.7769 231.526 40.824L231.294 40.9395H231.264C231.113 40.9908 230.967 41.0422 230.812 41.0849C230.657 41.1277 230.339 41.1748 230.404 41.1748C230.22 41.1876 230.036 41.1876 229.853 41.1748H229.806H229.78L229.561 41.1235C229.406 41.085 228.95 40.8796 229.32 41.0678C229.117 40.9695 228.919 40.861 228.726 40.7427L228.649 40.6871C228.584 40.6315 228.477 40.5459 228.473 40.5373C228.367 40.4356 228.266 40.3285 228.172 40.2165C228.271 40.3063 227.999 39.917 227.944 39.8443C227.888 39.7715 227.905 39.7202 227.883 39.6603C227.883 39.6603 227.836 39.4849 227.836 39.4079C227.836 39.4079 227.836 39.3566 227.836 39.3095C227.836 39.2624 227.875 39.1512 227.896 39.0742C227.964 38.8303 227.982 38.5757 227.951 38.3247C227.919 38.0738 227.839 37.8314 227.713 37.6115C227.587 37.3916 227.419 37.1985 227.219 37.0432C227.018 36.8878 226.789 36.7733 226.544 36.7062C226.299 36.639 226.042 36.6206 225.79 36.6519C225.538 36.6831 225.294 36.7635 225.073 36.8885C224.852 37.0134 224.658 37.1805 224.502 37.3801C224.346 37.5796 224.231 37.8079 224.163 38.0517C223.914 39.0302 223.951 40.0592 224.27 41.0173C224.59 41.9755 225.178 42.8228 225.965 43.4594C226.74 44.1269 227.665 44.5999 228.662 44.8389C229.658 45.0778 230.698 45.0757 231.694 44.8327C235.651 43.8872 238.123 39.9255 239.28 36.319C240.497 32.5199 240.42 28.4556 239.883 24.5453C239.607 22.5516 239.16 20.5922 238.803 18.6114C238.713 18.1151 238.631 17.6145 238.562 17.114C238.562 17.0498 238.515 16.7375 238.506 16.6861C238.476 16.3952 238.446 16.1043 238.425 15.8091C238.347 14.7889 238.36 13.7638 238.463 12.7459C238.483 12.5976 238.509 12.455 238.541 12.318C238.592 12.0357 238.661 11.7533 238.734 11.4624C238.807 11.1715 238.902 10.9062 239.001 10.6324C239.022 10.5725 239.048 10.5126 239.074 10.4485C239.1 10.3843 239.117 10.3501 239.156 10.2731C239.345 9.88616 239.567 9.51552 239.818 9.16498L239.87 9.10936C239.981 8.98957 240.085 8.86978 240.201 8.75854L240.377 8.59597L240.459 8.52753C240.644 8.41202 240.837 8.30933 241.026 8.19381L241.323 8.10399L241.491 8.05691H241.573C241.68 8.05691 241.839 8.05691 242.003 8.05691L242.119 8.09542C242.209 8.12109 242.3 8.1382 242.386 8.16815C242.44 8.17861 242.493 8.19292 242.545 8.21094C242.567 8.23182 242.592 8.25045 242.618 8.26656C242.678 8.31047 242.741 8.35046 242.807 8.38634V8.40773L242.889 8.48047C242.927 8.54037 242.966 8.60026 243.001 8.66444C243.263 9.10083 243.687 9.41741 244.182 9.5462C244.676 9.67499 245.202 9.60571 245.646 9.35323C246.081 9.08825 246.397 8.66604 246.527 8.17488C246.656 7.68373 246.591 7.16165 246.342 6.71781C245.838 5.8979 245.115 5.23264 244.255 4.7955C243.394 4.35837 242.429 4.16637 241.465 4.24072ZM236.085 25.3838C236.128 25.6918 236.085 25.4736 236.085 25.3838V25.3838ZM227.802 39.3009C227.792 39.2587 227.792 39.2148 227.802 39.1726V39.3009ZM229.655 41.2219H229.604H229.655ZM238.42 12.8143C238.42 12.887 238.394 12.9769 238.42 12.8143V12.8143ZM240.442 8.53607C240.51 8.48045 240.541 8.46762 240.442 8.53607V8.53607ZM242.011 8.05691C242.047 8.06035 242.082 8.069 242.115 8.08258L242.011 8.05691ZM242.872 8.51896C242.906 8.55319 242.936 8.58742 242.936 8.60453L242.872 8.51896Z" fill="#557A8E"/>
<path d="M273.717 4.23647C272.715 4.36054 271.73 5.0365 271.781 6.16168C271.784 6.22625 271.791 6.29057 271.803 6.35421C268.906 9.2555 266.792 12.8372 265.657 16.7675C265.057 18.8549 264.746 21.0139 264.732 23.1848C264.732 25.5421 265.085 28.0363 266.354 30.0728C266.93 31.083 267.783 31.9095 268.814 32.4558C269.445 32.7559 270.134 32.9176 270.834 32.9302C271.533 32.9427 272.228 32.8057 272.869 32.5285C275.067 31.6087 276.689 29.6663 277.953 27.7155C279.124 25.8457 280.045 23.8323 280.693 21.7259C281.447 19.4973 281.946 17.1909 282.181 14.8508C282.396 12.2838 281.948 9.54578 280.353 7.45372C278.813 5.44722 276.37 3.9156 273.717 4.23647ZM270.195 15.4968C270.306 15.2187 270.229 15.4155 270.195 15.4968V15.4968ZM276.194 22.8254C276.129 22.9837 276.164 22.9025 276.194 22.8254V22.8254ZM278.344 13.9224C278.344 14.3716 278.301 14.8251 278.258 15.2701C278.258 15.3214 278.258 15.3599 278.258 15.3899L278.207 15.7236C278.16 16.0145 278.108 16.3011 278.052 16.5792C277.859 17.5461 277.622 18.5044 277.347 19.4542C277.071 20.404 276.796 21.2639 276.456 22.1495C276.383 22.342 276.306 22.5345 276.228 22.7271C276.228 22.7484 276.229 22.7656 276.207 22.7827L276.078 23.0779C275.884 23.5057 275.678 23.9335 275.454 24.3613C275.017 25.1875 274.518 25.9797 273.962 26.7315C273.738 27.031 273.893 26.817 273.962 26.7571L273.743 27.0267C273.592 27.2064 273.437 27.3818 273.278 27.5572C272.964 27.8995 272.628 28.2211 272.272 28.5198L272.233 28.5455C272.138 28.6139 272.04 28.6781 271.941 28.738C271.773 28.8449 271.597 28.9305 271.42 29.0203H271.394C271.284 29.0392 271.176 29.0693 271.072 29.1102H270.775H270.698L270.625 29.0845C270.547 29.0375 270.444 28.9733 270.384 28.9433L270.272 28.8535C270.194 28.7808 270.121 28.7037 270.048 28.6267C269.975 28.5497 269.945 28.5027 269.889 28.4471C270.173 28.7465 269.859 28.3914 269.816 28.323C269.695 28.1476 269.592 27.9636 269.489 27.7797C269.433 27.6727 269.39 27.5572 269.326 27.4588V27.4246C269.15 26.976 269.006 26.5156 268.896 26.047C268.84 25.8074 268.81 25.5678 268.754 25.3325C268.754 25.3325 268.754 25.3325 268.754 25.2983C268.754 25.2084 268.732 25.1186 268.724 25.0287C268.672 24.5154 268.646 24.0019 268.642 23.4843C268.644 22.5695 268.696 21.6555 268.797 20.7462C268.797 20.6649 268.823 20.5836 268.831 20.5024C268.87 20.2799 268.909 20.0531 268.952 19.8307C269.042 19.3515 269.149 18.8766 269.27 18.406C269.526 17.4374 269.844 16.4857 270.22 15.5567C270.276 15.4284 270.332 15.3 270.392 15.1759C270.5 14.9406 270.612 14.7053 270.728 14.4786C270.956 14.0165 271.205 13.563 271.468 13.1224C271.73 12.6817 272.005 12.2411 272.302 11.8389C272.431 11.6507 272.564 11.4667 272.697 11.2785L272.904 11.0047C272.667 11.3255 273.007 10.8806 273.029 10.8549C273.68 10.0547 274.387 9.3013 275.145 8.60029C275.235 8.51681 275.316 8.42352 275.385 8.32219H275.416H275.446C275.631 8.41631 275.811 8.50618 275.988 8.61313L276.25 8.78425H276.276L276.413 8.8912C276.495 8.95965 276.572 9.03238 276.65 9.10511C276.822 9.26769 276.981 9.4431 277.14 9.61851C277.169 9.64578 277.195 9.67589 277.218 9.70836L277.325 9.85381C277.428 10.0078 277.527 10.1661 277.618 10.3244C277.708 10.4827 277.798 10.671 277.888 10.8464C277.979 11.0218 277.992 11.1244 278.035 11.2742C278.32 12.1264 278.43 13.0271 278.357 13.9224H278.344Z" fill="#557A8E"/>
<path d="M313.873 41.278C313.443 40.7774 313.039 40.2726 312.634 39.7592C312.523 39.6223 312.415 39.4811 312.303 39.3314L312.239 39.2501L312.17 39.1602L311.418 38.1634C309.749 35.9173 308.188 33.59 306.687 31.2369C303.62 26.4582 300.743 21.5596 297.504 16.892C296.303 15.1807 295.047 13.4979 293.737 11.8437C296.988 11.1429 300.132 10.0225 303.091 8.5109C303.384 8.34313 303.627 8.10115 303.796 7.80958C303.964 7.518 304.052 7.18726 304.05 6.85097C304.042 6.51605 303.95 6.18838 303.783 5.89774C303.615 5.6071 303.378 5.36269 303.091 5.18672C301.178 3.82533 298.986 2.90184 296.672 2.48245C294.358 2.06306 291.98 2.15815 289.707 2.76094C289.216 2.90175 288.8 3.22813 288.547 3.67025C288.295 4.11237 288.227 4.63515 288.357 5.12682C288.384 5.20138 288.415 5.27424 288.451 5.34502C287.703 6.28623 287.238 7.61249 286.886 8.55798C286.288 10.2003 285.828 11.8888 285.509 13.6063C284.817 17.23 284.559 20.9135 284.116 24.5714C284.086 24.8196 284.056 25.0677 284.021 25.3159C284.021 25.3586 284.021 25.3929 284.021 25.4185C284.021 25.5554 283.983 25.6881 283.966 25.8207C283.897 26.3141 283.819 26.8061 283.733 27.2967C283.561 28.3063 283.359 29.3075 283.114 30.2914C283.046 30.5353 283.027 30.79 283.059 31.0411C283.09 31.2922 283.17 31.5346 283.296 31.7547C283.421 31.9748 283.589 32.1682 283.789 32.3238C283.99 32.4794 284.219 32.5942 284.464 32.6616C284.709 32.729 284.966 32.7477 285.218 32.7167C285.47 32.6857 285.714 32.6055 285.935 32.4808C286.157 32.356 286.351 32.1892 286.507 31.9897C286.664 31.7902 286.779 31.562 286.847 31.3182C287.677 27.9427 288.026 24.473 288.391 21.0248C288.477 20.2205 288.563 19.4119 288.658 18.6076C288.705 18.2097 288.757 17.8075 288.804 17.4054C288.804 17.307 288.83 17.2086 288.847 17.1102C288.877 16.8963 288.907 16.6824 288.941 16.4684C289.122 15.2705 289.346 14.0812 289.63 12.9047C290.258 13.6448 290.877 14.3935 291.475 15.1593L291.647 15.3818L291.969 15.8096C292.15 16.0449 292.326 16.2845 292.502 16.5241C292.963 17.1487 293.419 17.7776 293.862 18.4108C295.474 20.7082 296.997 23.0698 298.489 25.4442C301.5 30.2401 304.42 35.1173 307.779 39.6907C309.688 42.3274 311.778 44.8304 314.032 47.1819C314.397 47.5383 314.888 47.738 315.4 47.738C315.911 47.738 316.403 47.5383 316.768 47.1819C317.122 46.8167 317.32 46.329 317.32 45.8215C317.32 45.3139 317.122 44.8262 316.768 44.461C315.758 43.4314 314.794 42.3704 313.873 41.278ZM294.795 6.11509L295.139 6.14505L295.401 6.17071L295.56 6.19638L295.991 6.2691C296.468 6.36231 296.94 6.4794 297.406 6.61992L297.694 6.71832C297.057 6.95362 296.403 7.1761 295.771 7.3729C294.812 7.6681 293.844 7.92481 292.864 8.13444C292.356 8.24567 291.849 8.34405 291.341 8.4339L291.07 8.47669C291.131 8.33551 291.195 8.20289 291.264 8.04887C291.695 7.94261 292.078 7.69806 292.355 7.35311C292.632 7.00815 292.786 6.58205 292.795 6.14076C292.795 6.14076 292.795 6.11511 292.795 6.10227C292.98 6.10227 293.165 6.07232 293.354 6.06804C293.835 6.05846 294.316 6.07416 294.795 6.11509Z" fill="#557A8E"/>
<path d="M312.295 28.9179C312.804 28.9059 313.29 28.6992 313.65 28.3407C314.01 27.9823 314.218 27.4995 314.23 26.9926L315.92 4.288C315.918 3.7781 315.714 3.28973 315.351 2.92917C314.989 2.56861 314.498 2.36504 313.985 2.36279C313.476 2.37579 312.991 2.58281 312.631 2.94108C312.271 3.29935 312.063 3.7815 312.05 4.288L310.347 26.9926C310.347 27.2464 310.398 27.4975 310.496 27.7317C310.595 27.9659 310.738 28.1784 310.919 28.3573C311.1 28.5361 311.315 28.6776 311.551 28.7738C311.787 28.87 312.04 28.919 312.295 28.9179Z" fill="#557A8E"/>
<path d="M364.859 22.0468C353.463 24.4461 341.885 25.8958 330.246 26.3807C327.755 26.4891 325.263 26.5533 322.772 26.5732C323.239 24.2915 323.669 22.0098 324.062 19.728C324.364 19.9309 324.721 20.0355 325.085 20.0275C333.127 19.8474 341.145 19.0824 349.075 17.7386C351.314 17.3564 353.547 16.9286 355.772 16.4552C356.265 16.3163 356.683 15.9896 356.936 15.546C357.189 15.1023 357.256 14.5774 357.122 14.085C356.977 13.5989 356.648 13.1876 356.205 12.9372C355.761 12.6868 355.238 12.6167 354.744 12.7416C350.913 13.5545 347.057 14.2305 343.175 14.7695L342.783 14.8209H342.753L342.026 14.915L340.568 15.0947C339.596 15.2102 338.62 15.3129 337.648 15.4113C335.7 15.6038 333.747 15.7664 331.79 15.8862C329.56 16.0288 327.325 16.1229 325.085 16.1685C324.93 16.1757 324.776 16.2001 324.625 16.2412C325.004 13.8026 325.341 11.3584 325.636 8.90836C332.443 8.89125 339.251 8.78855 346.06 8.60031C348.165 8.54042 350.268 8.4734 352.37 8.39925C352.883 8.39925 353.375 8.1964 353.738 7.83535C354.101 7.4743 354.305 6.98463 354.305 6.47404C354.305 5.96344 354.101 5.47374 353.738 5.1127C353.375 4.75165 352.883 4.54883 352.37 4.54883C345.064 4.81123 337.753 4.97238 330.436 5.03227C328.694 5.03227 326.952 5.05366 325.214 5.05794C324.868 4.75607 324.423 4.59156 323.963 4.59588C322.823 4.64722 322.148 5.45153 322.028 6.52109C321.929 7.42808 321.825 8.33078 321.714 9.23777C321.658 9.72121 321.593 10.2089 321.533 10.6967C321.503 10.9063 321.477 11.1245 321.451 11.3213C321.451 11.3213 321.417 11.578 321.4 11.6807C321.15 13.5117 320.876 15.3357 320.578 17.1525C319.985 20.7862 319.297 24.4013 318.514 27.9979C318.441 28.2835 318.433 28.5819 318.492 28.8708C318.551 29.1597 318.675 29.4316 318.854 29.6661C319.034 29.9006 319.264 30.0917 319.529 30.2252C319.793 30.3586 320.084 30.4308 320.38 30.4365C332.304 30.453 344.209 29.5044 355.978 27.6C359.29 27.0667 362.587 26.4548 365.87 25.7646C366.363 25.6258 366.781 25.2991 367.034 24.8554C367.287 24.4117 367.354 23.8868 367.22 23.3945C367.075 22.9119 366.749 22.5032 366.31 22.2525C365.871 22.0018 365.351 21.9282 364.859 22.0468Z" fill="#557A8E"/>
<path d="M381.31 2.79036C380.129 2.18503 378.803 1.9188 377.479 2.02154C376.155 2.12427 374.886 2.5919 373.814 3.37199C372.742 4.15207 371.91 5.21379 371.411 6.43802C370.911 7.66225 370.765 9.00058 370.988 10.303C371.362 12.917 373.074 15.0433 374.717 17.007C375.056 17.4348 375.4 17.8198 375.731 18.2348L375.882 18.4402C375.977 18.5643 376.067 18.6926 376.157 18.821C376.332 19.0719 376.5 19.3329 376.66 19.6039C376.822 19.8637 376.965 20.1338 377.091 20.4124C377.091 20.4424 377.112 20.4766 377.125 20.528C377.164 20.6478 377.194 20.7718 377.233 20.8959L377.271 21.0157C377.271 21.0456 377.271 21.0841 377.271 21.1398C377.271 21.1954 377.271 21.2767 377.271 21.3494C377.258 21.3699 377.247 21.3913 377.237 21.4136C377.201 21.4852 377.171 21.5596 377.146 21.636C377.099 21.7259 377.048 21.8114 377 21.897C376.997 21.9111 376.997 21.9257 377 21.9398C376.981 21.9511 376.963 21.9656 376.949 21.9826C376.871 22.0468 376.807 22.128 376.729 22.1965C376.652 22.2649 376.299 22.4874 376.643 22.2863C376.398 22.4275 376.162 22.573 375.912 22.7141H375.856C375.693 22.7612 375.538 22.8125 375.37 22.851L375.104 22.9067C375.078 22.9067 374.781 22.9409 374.73 22.9452C374.337 22.9666 373.944 22.9666 373.551 22.9452C373.247 22.9252 372.942 22.8953 372.635 22.8553L372.398 22.8211L371.715 22.7184C370.721 22.5559 369.564 22.9708 369.336 24.0618C369.121 24.9859 369.616 26.2565 370.687 26.4277C373.289 26.8555 376.209 27.232 378.531 25.6576C379.635 24.9447 380.474 23.8933 380.923 22.6628C381.426 21.2424 381.056 19.7408 380.437 18.4274C379.845 17.2803 379.115 16.2086 378.265 15.2358C377.891 14.7737 377.503 14.3202 377.125 13.8625L376.648 13.2806L376.592 13.2122L376.553 13.1566C376.424 12.9854 376.299 12.8143 376.175 12.6389C375.856 12.1869 375.568 11.7138 375.314 11.2228L375.211 11.0132C375.211 11.0132 375.129 10.8206 375.108 10.7693C374.993 10.4593 374.9 10.142 374.828 9.81951C374.828 9.7425 374.798 9.6655 374.785 9.58421C374.773 9.50293 374.785 9.47726 374.785 9.45159C374.785 9.17778 374.785 8.91252 374.785 8.64299C374.785 8.64299 374.785 8.62163 374.785 8.61307C374.82 8.489 374.846 8.35636 374.88 8.22802C374.914 8.09967 374.962 7.97988 375.005 7.85153C375.006 7.83445 375.006 7.81727 375.005 7.80019L375.052 7.73175C375.173 7.53495 375.289 7.33387 375.413 7.13707L375.512 7.00873C375.62 6.88894 375.731 6.77768 375.848 6.66645L376.05 6.49105L376.278 6.34132L376.562 6.17875C376.596 6.16277 376.627 6.14264 376.656 6.11885H376.721C377.019 6.02392 377.322 5.94538 377.628 5.88355H377.706C377.873 5.88355 378.045 5.88355 378.213 5.88355C378.286 5.88355 378.355 5.88355 378.424 5.88355C378.265 5.88355 378.626 5.91349 378.712 5.9306C378.798 5.94772 378.987 6.00334 379.121 6.04612C379.185 6.04612 379.245 6.08889 379.31 6.11028L379.37 6.13595C380.278 6.56377 381.52 6.41832 382.015 5.44716C382.467 4.56584 382.29 3.25669 381.31 2.79036ZM374.751 8.64299C374.751 8.87402 374.751 8.74567 374.751 8.64299V8.64299Z" fill="#557A8E"/>
</svg>
