<svg width="203" height="117" viewBox="0 0 203 117" fill="none" xmlns="http://www.w3.org/2000/svg">
<path d="M16.8502 43.8024C12.6612 43.6398 8.47515 43.4316 4.29192 43.1778C6.33623 33.7913 8.31461 24.3906 10.227 14.9756C10.8205 12.0664 11.4055 9.15578 11.9818 6.24372C12.1796 5.25973 11.7022 4.10462 10.6313 3.87787C9.6722 3.65968 8.48087 4.16449 8.24862 5.22122C6.24159 15.412 4.14141 25.5857 1.94801 35.7422C1.32296 38.6457 0.693557 41.5464 0.0599072 44.4441C-0.0125658 44.7297 -0.0193652 45.0279 0.0399573 45.3164C0.0992798 45.6049 0.223164 45.8765 0.402521 46.1108C0.581878 46.3451 0.812053 46.5362 1.07588 46.6699C1.33972 46.8035 1.63049 46.8763 1.92649 46.8828C6.8982 47.205 11.8728 47.4617 16.8502 47.6528C17.3624 47.6495 17.8528 47.4456 18.215 47.0853C18.5772 46.7249 18.7822 46.2372 18.7856 45.7276C18.7767 45.2198 18.5699 44.7352 18.2089 44.376C17.8478 44.0169 17.3607 43.8112 16.8502 43.8024Z" fill="#557A8E"/>
<path d="M27.369 11.9293L27.2496 11.8867L27.369 11.9293Z" fill="#557A8E"/>
<path d="M29.9847 8.97332C29.1337 8.42309 28.175 8.05856 27.172 7.90376C27.019 7.66817 26.8109 7.47293 26.5655 7.33474C25.5419 6.79996 24.5744 7.16789 23.9164 8.02781C23.8476 8.11338 23.783 8.2075 23.7141 8.29735C23.1264 8.53554 22.5794 8.86318 22.0927 9.26852C21.8227 9.53143 21.6376 9.86842 21.561 10.2365C21.4844 10.6045 21.5198 10.987 21.6627 11.3349C19.6706 14.6415 18.2052 18.235 17.3188 21.9877C16.7178 24.5395 16.3807 27.1456 16.3125 29.7656C16.2609 32.0544 16.2308 34.7797 17.6286 36.7306C18.0544 37.3508 18.6188 37.8644 19.2777 38.2311C19.9366 38.5978 20.6721 38.8076 21.4262 38.844C22.8284 38.8441 24.1905 38.3788 25.2969 37.522C27.4473 35.9519 29.0859 33.6374 30.3934 31.3442C31.6537 29.1285 32.6042 26.7521 33.2189 24.2809C33.8724 21.7893 34.1178 19.2092 33.9457 16.6399C33.6748 13.658 32.5996 10.6761 29.9847 8.97332ZM20.7639 34.5187L20.8928 34.6727C20.8498 34.6599 20.8069 34.5957 20.7639 34.5187ZM30.0708 19.5449C30.0493 19.8401 30.0233 20.1395 29.9889 20.4304C29.9889 20.5203 29.9374 20.8583 29.9331 20.9096C29.8513 21.4615 29.7525 22.0134 29.6363 22.5567C29.4038 23.6298 29.1037 24.6872 28.7375 25.7226C28.6472 25.9751 28.5526 26.2275 28.458 26.4756C28.4107 26.5868 28.3677 26.6981 28.3247 26.805L28.2902 26.8906V26.9205C28.058 27.4382 27.8258 27.9473 27.5634 28.4521C27.0456 29.4559 26.4623 30.4248 25.8173 31.3528C25.6854 31.5467 25.542 31.7393 25.3872 31.9304L25.2238 32.1443L25.0344 32.3881C24.6917 32.8238 24.3243 33.2395 23.9336 33.6331C23.7487 33.8171 23.5508 33.9925 23.3529 34.1636L23.2368 34.2577C23.1723 34.3005 23.112 34.3476 23.0432 34.3903C22.8067 34.5486 22.5573 34.6813 22.3036 34.8182C22.2305 34.8524 22.1099 34.8824 22.1916 34.8524L21.8649 34.9551H21.8218C21.7216 34.9487 21.6209 34.9487 21.5207 34.9551L21.3617 34.908C21.4262 34.9337 21.3616 34.908 21.2756 34.908H21.2112H21.2712H21.2456L21.095 34.8053L20.9789 34.7027L20.8842 34.6043L20.8069 34.5101C20.7424 34.3904 20.682 34.2449 20.6519 34.1893C20.6175 34.0994 20.5832 34.0096 20.5574 33.9197C20.4884 33.7094 20.4324 33.4951 20.3896 33.278C20.3681 33.1796 20.3553 33.0812 20.3338 32.9871C20.3306 32.9673 20.3306 32.947 20.3338 32.9272C20.2406 31.8532 20.2118 30.7746 20.2477 29.6971C20.2778 28.5805 20.3595 27.4639 20.4972 26.3558C20.4972 26.3002 20.523 26.1462 20.5316 26.0991C20.5402 26.052 20.553 25.9537 20.5616 25.8809C20.6046 25.6114 20.6477 25.3419 20.695 25.0766C20.7939 24.5076 20.9058 23.9472 21.0306 23.3867C21.3101 22.1489 21.6546 20.9265 22.0627 19.7245C22.2691 19.1213 22.4928 18.5266 22.725 17.9362C22.7681 17.825 22.8153 17.7138 22.8626 17.6025L22.9143 17.4699C22.9277 17.4451 22.9392 17.4194 22.9487 17.3929C23.0863 17.0934 23.2196 16.7854 23.3788 16.4859C24.169 14.8064 25.0906 13.1914 26.1354 11.6558L26.3763 11.6772H26.5141H26.5699C26.8022 11.7371 27.0344 11.7841 27.2623 11.8611H27.3182C27.3598 11.8707 27.4004 11.885 27.4387 11.9039L27.5376 11.9381L27.4473 11.9082H27.4731C27.7097 12.0365 27.9419 12.1563 28.1655 12.3061C28.2171 12.3403 28.2989 12.4088 28.3333 12.4344L28.402 12.4943C28.5654 12.6398 28.6987 12.8066 28.832 12.9564H28.8537L28.8837 13.0034C28.9439 13.0975 29.0085 13.1874 29.0687 13.2772C29.2192 13.5125 29.3439 13.7564 29.473 14.0003L29.5116 14.0773C29.5546 14.1799 29.5933 14.2826 29.6277 14.3853C29.7137 14.6206 29.7869 14.8602 29.8514 15.0998C29.9159 15.3393 29.9719 15.5918 30.0192 15.8399C30.0192 15.9297 30.0535 16.0239 30.0664 16.118C30.0793 16.2121 30.0965 16.3276 30.1051 16.4175C30.1825 17.4619 30.1712 18.5109 30.0708 19.5534V19.5449Z" fill="#557A8E"/>
<path d="M21.2327 34.929H21.3176L21.2285 34.9036L21.2327 34.929Z" fill="#557A8E"/>
<path d="M22.2856 34.8354L22.1704 34.8695L22.2856 34.8354Z" fill="#557A8E"/>
<path d="M54.1297 24.5504C53.761 24.2009 53.2712 24.006 52.762 24.006C52.2527 24.006 51.7629 24.2009 51.3942 24.5504C51.1835 24.7301 50.9643 24.9098 50.7535 25.0809L50.5685 25.2178L50.1987 25.4831C49.6955 25.8296 49.1751 26.1505 48.6418 26.4457C48.3708 26.5911 48.0998 26.7323 47.8289 26.8735L47.3988 27.066L47.1968 27.1558C46.691 27.3632 46.1706 27.5334 45.6398 27.665C45.4721 27.7077 45.3044 27.7334 45.1367 27.7719C45.1052 27.7751 45.0734 27.7751 45.042 27.7719C44.7962 27.7962 44.5494 27.8076 44.3024 27.8061C44.1647 27.8061 44.0313 27.8061 43.8937 27.7847H43.8336C43.7304 27.7591 43.6227 27.7377 43.5195 27.7034C43.4506 27.6851 43.3832 27.6623 43.3175 27.635C43.2099 27.5623 43.0766 27.4981 42.9605 27.4297C42.8443 27.3612 42.724 27.1943 42.6079 27.0746C42.6079 27.0746 42.3671 26.7195 42.3198 26.6467C42.2724 26.574 42.238 26.4756 42.195 26.3858C42.4101 26.8136 42.195 26.343 42.152 26.2318C42.0836 26.0195 42.0262 25.8039 41.98 25.5857C41.9542 25.4702 41.9368 25.3547 41.9153 25.2392V25.2007C41.8809 24.6693 41.8809 24.1363 41.9153 23.6049C41.9153 23.4808 41.9368 23.3568 41.9497 23.2327C41.9497 23.2028 41.9497 23.1856 41.9497 23.1642C41.9927 22.8605 42.0487 22.561 42.1089 22.2615C42.2402 21.6179 42.4082 20.9823 42.6121 20.3577C42.7841 19.8186 42.982 19.2839 43.2013 18.7619L43.3002 18.5352C43.3648 18.394 43.4292 18.2485 43.4981 18.1073C43.6486 17.795 43.8035 17.4827 43.9626 17.1747C44.5326 16.0634 45.1793 14.9927 45.8979 13.9703L46.001 13.8334L46.2075 13.5895C46.4066 13.3686 46.6194 13.16 46.8442 12.9649L46.8914 12.935L47.171 12.7724L47.4246 12.6697L47.4763 12.644C47.515 12.644 47.6699 12.6697 47.7258 12.6697H47.8033H47.8289C47.8934 12.7039 47.9538 12.7424 48.0183 12.7852C47.9313 13.2575 48.0239 13.7451 48.2783 14.1531C48.5327 14.5611 48.9305 14.8605 49.3944 14.9928C49.8891 15.1186 50.4136 15.0484 50.8573 14.797C51.301 14.5456 51.6294 14.1326 51.7729 13.6451C51.9645 12.8133 51.8727 11.9418 51.5123 11.1674C51.1518 10.393 50.543 9.75969 49.7815 9.3669C49.0517 8.96909 48.2284 8.77243 47.3967 8.79726C46.565 8.82208 45.755 9.06748 45.0506 9.50809C43.7302 10.3038 42.797 11.5659 41.9842 12.8451C41.1276 14.17 40.3812 15.5622 39.7521 17.0078C38.5135 19.87 37.6575 23.0188 38.1521 26.1462C38.351 27.5949 39.0078 28.9433 40.0274 29.9966C40.6208 30.5546 41.319 30.9907 42.082 31.2799C42.8451 31.5692 43.6581 31.7059 44.4743 31.6822C46.2662 31.5901 48.0167 31.1129 49.6053 30.2832C51.2397 29.4926 52.7588 28.4852 54.1211 27.2885C54.4857 26.9257 54.6913 26.4342 54.6929 25.9212C54.6945 25.4082 54.492 24.9154 54.1297 24.5504ZM48.0742 12.8836C48.0742 12.9221 48.1213 12.9563 48.1428 12.9991C48.1643 13.0419 48.0957 12.9435 48.0742 12.8836ZM48.0742 12.8537C48.1092 12.8837 48.1383 12.92 48.16 12.9606L48.0742 12.8537ZM47.9752 12.7595L47.8763 12.6783C47.9144 12.7005 47.949 12.7278 47.9794 12.7595H47.9752ZM46.8098 12.9478C46.6936 13.0462 46.7452 12.9991 46.8098 12.9478V12.9478ZM41.9411 23.0744C41.9411 22.9332 41.9411 22.9974 41.9411 23.0744V23.0744Z" fill="#557A8E"/>
<path d="M101.619 46.3181C101.354 45.8832 100.929 45.5677 100.435 45.4384C99.9406 45.3091 99.415 45.376 98.9694 45.625C98.9178 45.6592 98.8747 45.702 98.8274 45.7405C93.4084 43.2677 88.0281 40.7007 82.9145 37.6503C81.4092 36.7519 79.9254 35.815 78.4804 34.8267C77.7621 34.3347 77.0482 33.8299 76.33 33.3122L75.7751 32.8844L75.5645 32.7261C75.2247 32.4608 74.8806 32.1913 74.5452 31.9175C71.8272 29.7448 69.3334 27.3085 67.1005 24.6445C65.7715 23.0401 64.4125 21.3674 62.7997 20.1053L62.9933 19.2197C68.6382 16.1292 74.5762 13.6013 80.721 11.6728C81.2161 11.5373 81.6369 11.2116 81.8905 10.7675C82.1442 10.3234 82.21 9.7973 82.0737 9.30485C81.9373 8.81241 81.6101 8.39398 81.1637 8.14165C80.7173 7.88932 80.1883 7.82374 79.6933 7.95934C74.3122 9.66089 69.0782 11.7927 64.0427 14.3339C64.391 12.6739 64.7437 11.0097 65.0834 9.34548C65.2813 8.36149 64.7995 7.20638 63.7329 6.97963C62.7696 6.75716 61.5827 7.26625 61.3505 8.32298C60.7771 11.1209 60.1877 13.9161 59.5827 16.7083C58.658 17.2346 57.7335 17.7736 56.8261 18.3298C56.4612 18.5474 56.177 18.8769 56.0165 19.2688C55.856 19.6607 55.8276 20.0938 55.9357 20.5031C56.0606 20.9023 56.3076 21.2527 56.6421 21.5058C56.9766 21.7588 57.3823 21.9019 57.8023 21.915H57.9871L58.4172 22.0091C57.5227 25.9736 56.5952 29.9324 55.6347 33.8855C55.0441 36.3041 54.439 38.7285 53.8197 41.1585C53.6834 41.6509 53.7494 42.1771 54.003 42.6212C54.2567 43.0653 54.6773 43.3909 55.1723 43.5265C55.6673 43.6621 56.1963 43.5965 56.6427 43.3442C57.0891 43.0918 57.4166 42.6734 57.5529 42.181C59.0667 36.277 60.5003 30.3517 61.8536 24.4049C62.6493 25.2606 63.3803 26.159 64.1158 27.0531C66.2866 29.6874 68.7094 32.106 71.3498 34.2748C76.7903 38.7627 82.9016 42.3179 89.2109 45.4539C92.7461 47.2122 96.3416 48.8508 99.937 50.4765C100.31 50.6799 100.739 50.7601 101.161 50.7055C101.583 50.6509 101.977 50.4644 102.285 50.1728C102.581 49.8681 102.77 49.4766 102.824 49.0566C102.879 48.6365 102.795 48.2102 102.586 47.8411C102.251 47.3149 101.937 46.8143 101.619 46.3181Z" fill="#557A8E"/>
<path d="M105.765 12.4814C104.049 11.6104 102.274 10.8598 100.453 10.2353C96.4318 8.72303 92.2976 7.52576 88.0886 6.65443C87.0994 6.44908 85.9381 6.94105 85.7059 7.99778C85.5913 8.45779 85.6462 8.94343 85.8609 9.36654C86.0755 9.78964 86.4355 10.1222 86.8756 10.3038C85.442 17.303 83.6858 24.2237 81.6071 31.0661C81.2304 31.2586 80.9123 31.5476 80.6854 31.9034C80.4586 32.2591 80.3314 32.6687 80.3169 33.0897C80.316 33.5533 80.4665 34.0046 80.7457 34.3757C81.025 34.7469 81.4178 35.0177 81.8652 35.1475C82.2425 35.2398 82.6372 35.2365 83.0129 35.1379C83.3886 35.0392 83.7333 34.8484 84.0156 34.5828C84.12 34.4872 84.2125 34.3795 84.2909 34.2619C84.3359 34.2271 84.3789 34.19 84.4199 34.1507C84.7897 34.0352 85.1596 33.9197 85.5295 33.7956C86.3897 33.509 87.2843 33.2052 88.153 32.8886C90.0196 32.207 91.8631 31.4668 93.6838 30.6682C96.9524 29.2393 100.281 27.6734 103.253 25.7012C106.092 23.8059 108.844 21.0293 108.844 17.3885C108.853 15.228 107.627 13.4911 105.765 12.4814ZM104.952 17.8805C104.952 17.9447 104.952 17.9233 104.952 17.8805V17.8805ZM104.952 17.7821C104.9 18.0046 104.857 18.21 104.793 18.441C104.754 18.5651 104.707 18.6891 104.664 18.8089C104.664 18.8517 104.565 19.0314 104.522 19.1127C104.44 19.271 104.35 19.425 104.255 19.579C104.199 19.6646 104.148 19.7501 104.087 19.8357L103.993 19.9769C103.954 20.0111 103.761 20.2635 103.726 20.302C103.606 20.4389 103.481 20.5715 103.352 20.7042C103.072 20.9908 102.78 21.2603 102.492 21.517C102.44 21.5598 102.113 21.8165 102.148 21.7951L101.795 22.0518C101.46 22.2871 101.12 22.5139 100.776 22.7278C100.04 23.1898 99.2834 23.6134 98.5222 24.0113C96.7818 24.961 95.0084 25.8495 93.202 26.6766C92.772 26.8691 92.3419 27.0617 91.9376 27.2456L91.3011 27.5237L90.9355 27.6777L90.8496 27.7162L90.7549 27.7547C89.869 28.1227 88.9774 28.4763 88.0799 28.8157C87.4305 29.0596 86.7896 29.2949 86.1144 29.5259C87.8777 23.4765 89.3887 17.36 90.6474 11.1765C93.3668 11.8627 96.0485 12.6895 98.6813 13.6536C99.5931 13.9873 100.501 14.3382 101.404 14.7061C101.602 14.7831 101.795 14.8644 101.993 14.9499C102.045 14.9499 102.131 15.0056 102.148 15.0141L102.518 15.1724C102.909 15.3393 103.3 15.5147 103.679 15.7115C103.851 15.8013 104.019 15.8954 104.182 15.9981L104.423 16.1564L104.444 16.1778L104.707 16.4388C104.76 16.5546 104.825 16.6649 104.9 16.7682C104.9 16.8024 104.922 16.8366 104.926 16.8409C104.926 16.9137 104.956 16.9821 104.973 17.0548C104.973 17.0548 104.973 17.3714 104.973 17.4827C104.973 17.5939 104.965 17.6795 104.956 17.7693L104.952 17.7821Z" fill="#557A8E"/>
<path d="M117.73 11.8996C117.983 11.4565 118.05 10.9313 117.914 10.4395C117.779 9.94766 117.452 9.52953 117.007 9.27707C116.562 9.02461 116.034 8.9585 115.539 9.09329C115.045 9.22808 114.624 9.55272 114.371 9.99581C112.629 13.0281 111.333 16.2927 110.521 19.6903C110.066 21.4825 109.808 23.3187 109.751 25.1664C109.73 26.8777 109.902 28.9441 110.904 30.3902C111.446 31.1884 112.226 31.7976 113.134 32.1322C114.042 32.4668 115.032 32.5099 115.966 32.2555C117.725 31.8277 119.097 30.5057 119.949 28.9655C120.741 27.459 121.339 25.8591 121.729 24.2038C122.222 22.3533 122.35 20.4256 122.108 18.5266C121.734 15.8741 120.112 13.2259 117.73 11.8996ZM114.349 28.5163H114.28H114.349ZM114.276 28.4906C114.181 28.465 114.216 28.465 114.276 28.4906V28.4906ZM118.349 21.192C118.349 21.3588 118.319 21.5214 118.297 21.684C118.297 21.731 118.233 22.0861 118.224 22.1375C117.942 23.5525 117.526 24.9377 116.981 26.2745C116.969 26.301 116.959 26.3281 116.951 26.3558L116.908 26.4371C116.856 26.5398 116.809 26.6424 116.757 26.7408C116.607 27.0446 116.426 27.3227 116.254 27.5965L116.198 27.6735C116.108 27.7805 116.022 27.8831 115.928 27.9773C115.833 28.0714 115.76 28.1313 115.678 28.204L115.429 28.3666C115.368 28.4008 115.153 28.4735 115.145 28.4821L114.87 28.5591C114.766 28.589 114.659 28.5591 114.74 28.5591H114.663C114.629 28.5591 114.465 28.5377 114.388 28.5206L114.302 28.4735C114.274 28.4404 114.243 28.4089 114.211 28.3794C114.18 28.3368 114.152 28.2926 114.126 28.2468C114.097 28.1982 114.071 28.1482 114.048 28.0971C114.095 28.1826 113.958 27.8746 113.941 27.8147C113.855 27.5409 113.803 27.2628 113.743 26.9847C113.743 26.9162 113.717 26.8692 113.708 26.835C113.711 26.7865 113.711 26.7379 113.708 26.6895C113.687 26.4884 113.67 26.2873 113.661 26.082C113.641 25.677 113.641 25.2706 113.661 24.8627C113.661 24.5204 113.695 24.1825 113.725 23.8445C113.725 23.6691 113.764 23.4979 113.786 23.3268C113.786 23.2626 113.842 22.9289 113.842 22.9332C113.958 22.2187 114.1 21.5128 114.272 20.7941C114.636 19.2225 115.112 17.6785 115.695 16.1736C115.764 15.9939 115.837 15.8142 115.91 15.6345L116.018 15.3736V15.3436L116.259 15.4891L116.302 15.5147C116.545 15.7196 116.776 15.9381 116.994 16.1693C117.076 16.2592 117.153 16.3575 117.235 16.4474C117.236 16.4616 117.236 16.4759 117.235 16.4902C117.386 16.7298 117.545 16.9565 117.665 17.2046C117.73 17.3159 117.785 17.4314 117.841 17.5426C117.897 17.6538 117.944 17.8079 117.957 17.8293C118.035 18.056 118.112 18.2828 118.172 18.5138C118.211 18.6635 118.246 18.809 118.271 18.9416L118.327 19.2881C118.327 19.4079 118.357 19.6176 118.353 19.5919C118.353 19.7844 118.375 19.9812 118.375 20.1737C118.388 20.5288 118.375 20.854 118.349 21.192Z" fill="#557A8E"/>
<path d="M173.21 1.05869C172.913 1.28333 172.674 1.57436 172.512 1.90813C172.35 2.24189 172.269 2.60899 172.276 2.97962C172.308 3.54849 172.553 4.08473 172.965 4.48129C172.965 4.77221 172.926 5.06313 172.908 5.33694C172.845 6.32949 172.779 7.32775 172.711 8.33171L172.336 14.0774C172.078 17.9449 171.823 21.8124 171.571 25.68L171.3 29.8299C167.718 28.8612 164.202 27.668 160.772 26.2576L160.423 26.1121H160.376C160.342 26.0999 160.309 26.0856 160.277 26.0693L159.585 25.7741C159.064 25.5474 158.548 25.3163 158.032 25.081C157.003 24.6104 155.984 24.1199 154.974 23.6093C152.984 22.5997 151.033 21.5187 149.121 20.3664C146.939 19.0487 144.821 17.6397 142.769 16.1395C141.861 15.4807 140.687 16.0668 140.119 16.8326C136.726 21.3718 133.238 25.8169 129.557 30.232C130.13 23.3098 130.703 16.3891 131.277 9.46971C131.276 8.95946 131.072 8.47045 130.709 8.10965C130.346 7.74885 129.855 7.54563 129.342 7.5445C128.832 7.55541 128.346 7.76175 127.985 8.12046C127.625 8.47917 127.417 8.96253 127.406 9.46971L125.2 36.0761C125.067 37.6976 127.441 38.673 128.507 37.4366C133.247 31.9234 137.807 26.2604 142.188 20.4477C149.244 25.363 156.969 29.2526 165.128 31.999C167.571 32.8232 170.048 33.5363 172.56 34.1381C172.847 34.2111 173.147 34.2186 173.437 34.1599C173.727 34.1012 174 33.9779 174.236 33.7993C174.471 33.6206 174.663 33.3912 174.797 33.1283C174.93 32.8654 175.002 32.5759 175.007 32.2813L175.962 17.808C176.117 15.3951 176.275 12.9821 176.435 10.5692L176.68 6.84289C176.758 5.69204 176.925 4.50267 176.904 3.34754C176.915 2.95916 176.848 2.57251 176.705 2.2108C176.562 1.84908 176.348 1.51978 176.074 1.24265C175.695 0.880294 175.2 0.663029 174.676 0.629354C174.151 0.59568 173.632 0.747775 173.21 1.05869Z" fill="#557A8E"/>
<path d="M201.354 3.80511C200.404 3.58692 199.174 4.09176 198.976 5.14849C197.65 12.1324 196.698 19.1815 196.124 26.2659C195.548 25.0423 194.963 23.8273 194.339 22.6251C192.717 19.5078 190.927 16.4802 188.977 13.5552C188.022 12.1263 187.02 10.723 185.987 9.34544C185.996 9.32163 186.003 9.29736 186.009 9.27272C186.085 9.02658 186.111 8.76766 186.085 8.51134C186.059 8.25501 185.982 8.0065 185.858 7.78048C185.734 7.55446 185.565 7.35555 185.362 7.19554C185.159 7.03553 184.926 6.91765 184.676 6.84892C184.427 6.78019 184.166 6.76198 183.909 6.79539C183.652 6.8288 183.405 6.91316 183.181 7.04343C182.958 7.17371 182.763 7.34724 182.608 7.5538C182.453 7.76036 182.342 7.99572 182.28 8.24593C182.246 8.35717 182.216 8.4727 182.181 8.58393C181.942 8.94176 181.822 9.3652 181.837 9.79465C179.835 16.8076 178.312 23.9472 177.278 31.1645C176.983 31.9673 176.865 32.8236 176.93 33.6758C177.012 34.6769 177.76 35.6481 178.865 35.601C179.971 35.554 180.663 34.7454 180.801 33.6758C180.835 33.4191 180.865 33.1667 180.9 32.91C180.9 32.8758 180.9 32.8287 180.921 32.7474C180.943 32.6662 180.96 32.4736 180.981 32.3196C180.981 32.2768 180.981 32.2383 180.981 32.1955C180.981 32.1527 181.024 32.0672 181.05 32.003C181.147 31.7554 181.173 31.4856 181.123 31.2244L181.201 30.681C181.355 29.6543 181.522 28.6303 181.699 27.6093C182.049 25.57 182.439 23.5349 182.869 21.5042C183.398 19.0143 183.996 16.5415 184.645 14.0815C187.944 18.8496 190.813 23.8974 193.221 29.1666C194.081 31.0062 195.019 32.649 196.662 33.8726C196.957 34.0492 197.294 34.1425 197.638 34.1425C197.982 34.1425 198.32 34.0492 198.614 33.8726C198.903 33.6997 199.142 33.4566 199.31 33.1662C199.478 32.8758 199.569 32.5476 199.574 32.2127C200.002 23.4628 201.038 14.7529 202.674 6.14533C202.907 5.187 202.442 4.04897 201.354 3.80511Z" fill="#557A8E"/>
<path d="M59.6616 73.4295C55.841 73.4683 52.0215 73.2883 48.2216 72.8905C47.211 72.7835 46.2433 73.8531 46.2863 74.8157C46.3004 75.3219 46.5087 75.8034 46.8686 76.1615C47.2286 76.5195 47.7128 76.7269 48.2216 76.7409C49.0087 76.8222 49.7957 76.8906 50.5871 76.9548C50.6759 77.7875 50.6917 78.6264 50.6343 79.4618C50.6042 79.8897 50.5569 80.3603 50.501 80.8095C50.501 80.9464 50.4622 81.0833 50.4407 81.2373C50.4106 81.447 50.3763 81.6651 50.3462 81.8577C50.0538 83.6374 49.7441 85.4129 49.443 87.1926L47.6108 97.9995C47.443 98.9878 47.8732 100.139 48.9613 100.365C49.8988 100.579 51.1633 100.083 51.3439 99.022C51.969 95.3513 52.5911 91.6791 53.2104 88.0055C53.5157 86.1958 53.8385 84.3861 54.1266 82.5721C54.4662 80.8052 54.586 79.0033 54.4834 77.2072C56.2037 77.2757 57.9242 77.3099 59.666 77.2928C60.1793 77.2928 60.6716 77.09 61.0346 76.7289C61.3975 76.3679 61.6013 75.8782 61.6013 75.3676C61.6013 74.857 61.3975 74.3673 61.0346 74.0063C60.6716 73.6452 60.1793 73.4424 59.666 73.4424L59.6616 73.4295Z" fill="#557A8E"/>
<path d="M39.4652 72.9629C37.3148 73.1041 35.5946 74.3191 34.3989 76.0347C31.9131 79.5343 32.3002 84.2232 33.0012 88.2063C33.3453 90.1657 33.7924 92.1038 34.0806 94.0718V94.1017C34.0806 94.2172 34.1064 94.3327 34.1236 94.4482C34.1236 94.6579 34.171 94.8761 34.1925 95.0771C34.2398 95.552 34.2784 96.0312 34.3042 96.5103C34.3616 97.4348 34.3718 98.3615 34.3345 99.2869C34.313 99.7148 34.2828 100.177 34.2398 100.617C34.2398 100.793 34.201 100.964 34.1795 101.139C34.1795 101.182 34.1795 101.225 34.1795 101.246C34.1537 101.392 34.1322 101.537 34.1064 101.674C33.9492 102.566 33.7265 103.446 33.4399 104.305C33.3625 104.528 33.285 104.733 33.199 104.964L33.1043 105.208C32.8979 105.636 32.7 106.064 32.4678 106.466C32.263 106.831 32.039 107.185 31.7968 107.527L31.6465 107.732L31.6034 107.784C31.4572 107.95 31.3153 108.117 31.1734 108.275C31.0314 108.434 30.8293 108.622 30.6444 108.789L30.4594 108.947L30.3949 109.007C30.3767 109.019 30.3594 109.031 30.3432 109.046C30.1669 109.165 29.9906 109.285 29.8056 109.392C29.711 109.448 29.6207 109.499 29.5261 109.546L29.2939 109.662H29.2638C29.1133 109.713 28.967 109.764 28.8121 109.807C28.6573 109.85 28.3392 109.897 28.4037 109.897C28.2204 109.91 28.0363 109.91 27.8531 109.897H27.8058H27.78L27.5607 109.846C27.4059 109.807 26.95 109.602 27.3199 109.79C27.1166 109.692 26.9186 109.583 26.7264 109.465L26.6489 109.409C26.5844 109.354 26.4768 109.268 26.4725 109.26C26.3667 109.158 26.2664 109.051 26.1716 108.939C26.2705 109.028 25.9994 108.639 25.9435 108.566C25.8876 108.494 25.9048 108.442 25.8833 108.382C25.8833 108.382 25.836 108.207 25.836 108.13C25.836 108.13 25.836 108.079 25.836 108.032C25.836 107.985 25.8748 107.873 25.8963 107.796C25.9638 107.553 25.9823 107.298 25.9509 107.047C25.9194 106.796 25.8386 106.554 25.713 106.334C25.5874 106.114 25.4195 105.921 25.2188 105.765C25.0182 105.61 24.7888 105.495 24.5437 105.428C24.2986 105.361 24.0425 105.343 23.7902 105.374C23.5379 105.405 23.2943 105.486 23.0733 105.611C22.8522 105.736 22.658 105.903 22.5019 106.102C22.3457 106.302 22.2306 106.53 22.1631 106.774C21.9138 107.752 21.9509 108.781 22.2702 109.739C22.5895 110.698 23.1776 111.545 23.9651 112.182C24.7403 112.849 25.665 113.322 26.6617 113.561C27.6584 113.8 28.6982 113.798 29.6939 113.555C33.6506 112.609 36.1234 108.648 37.2803 105.041C38.4975 101.242 38.4202 97.1778 37.8826 93.2674C37.6074 91.2738 37.16 89.3143 36.803 87.3335C36.7127 86.8372 36.631 86.3367 36.5622 85.8361C36.5622 85.772 36.5149 85.4596 36.5063 85.4083C36.4762 85.1174 36.4461 84.8264 36.4246 84.5312C36.3472 83.511 36.3601 82.486 36.4632 81.468C36.4833 81.3197 36.5092 81.1771 36.5407 81.0402C36.5923 80.7579 36.6612 80.4755 36.7344 80.1846C36.8075 79.8936 36.9019 79.6284 37.0008 79.3546C37.0223 79.2947 37.0481 79.2348 37.0739 79.1706C37.0997 79.1065 37.1171 79.0722 37.1558 78.9952C37.3455 78.6083 37.5668 78.2377 37.8179 77.8872L37.8696 77.8315C37.9814 77.7117 38.0847 77.5919 38.2008 77.4807L38.3772 77.3181L38.4589 77.2497C38.6438 77.1342 38.8373 77.0315 39.0265 76.916L39.3232 76.8262L39.491 76.7791H39.5727C39.6802 76.7791 39.8394 76.7791 40.0028 76.7791L40.1189 76.8176C40.2092 76.8433 40.2996 76.8604 40.3856 76.8903C40.4396 76.9008 40.4928 76.9151 40.5448 76.9331C40.5673 76.954 40.5917 76.9726 40.6179 76.9887C40.6783 77.0326 40.7415 77.0726 40.8071 77.1085V77.1299L40.8888 77.2026C40.9275 77.2625 40.9663 77.3224 41.0007 77.3866C41.2632 77.823 41.6872 78.1396 42.1817 78.2684C42.6763 78.3972 43.2019 78.3279 43.6456 78.0754C44.0812 77.8104 44.3967 77.3882 44.5266 76.8971C44.6564 76.4059 44.5906 75.8838 44.3424 75.44C43.838 74.6201 43.1155 73.9548 42.2548 73.5177C41.3941 73.0805 40.4286 72.8885 39.4652 72.9629ZM34.085 94.106C34.128 94.414 34.085 94.1958 34.085 94.106V94.106ZM25.8016 108.023C25.792 107.981 25.792 107.937 25.8016 107.895V108.023ZM27.6552 109.944H27.6036H27.6552ZM36.4202 81.5365C36.4202 81.6092 36.3944 81.6991 36.4202 81.5365V81.5365ZM38.4416 77.2582C38.5105 77.2026 38.5406 77.1898 38.4416 77.2582V77.2582ZM40.0114 76.7791C40.0469 76.7825 40.0818 76.7912 40.1147 76.8047L40.0114 76.7791ZM40.8715 77.2411C40.906 77.2754 40.936 77.3096 40.936 77.3267L40.8715 77.2411Z" fill="#557A8E"/>
<path d="M71.7168 72.9586C70.7147 73.0827 69.7299 73.7587 69.7815 74.8838C69.7844 74.9484 69.7915 75.0127 69.8029 75.0764C66.906 77.9777 64.7921 81.5594 63.657 85.4896C63.0574 87.5771 62.7463 89.736 62.7324 91.907C62.7324 94.2643 63.0851 96.7585 64.3538 98.795C64.9302 99.8052 65.7834 100.632 66.814 101.178C67.4454 101.478 68.1341 101.64 68.8337 101.652C69.5334 101.665 70.2276 101.528 70.8695 101.251C73.0672 100.331 74.6887 98.3885 75.9531 96.4376C77.1239 94.5679 78.0447 92.5545 78.6926 90.4481C79.4472 88.2194 79.9464 85.9131 80.1806 83.573C80.3957 81.006 79.9484 78.2679 78.3528 76.1759C76.8131 74.1694 74.3704 72.6378 71.7168 72.9586ZM68.1945 84.219C68.3063 83.9409 68.2289 84.1377 68.1945 84.219V84.219ZM74.194 91.5476C74.1295 91.7059 74.1639 91.6246 74.194 91.5476V91.5476ZM76.3444 82.6446C76.3444 83.0938 76.3015 83.5473 76.2585 83.9922C76.2585 84.0436 76.2585 84.0821 76.2585 84.112L76.2068 84.4457C76.1595 84.7367 76.108 85.0233 76.0521 85.3014C75.8585 86.2683 75.6219 87.2266 75.3467 88.1764C75.0714 89.1261 74.7962 89.986 74.4565 90.8716C74.3834 91.0642 74.3058 91.2567 74.2284 91.4492C74.2284 91.4706 74.2285 91.4877 74.207 91.5048L74.0778 91.8C73.8843 92.2279 73.678 92.6557 73.4544 93.0835C73.0173 93.9096 72.5183 94.7019 71.9619 95.4536C71.7383 95.7531 71.8931 95.5392 71.9619 95.4793L71.7427 95.7488C71.5921 95.9285 71.4373 96.1039 71.2781 96.2793C70.9642 96.6217 70.628 96.9433 70.2718 97.2419L70.233 97.2676C70.1384 97.3361 70.0396 97.4002 69.9407 97.4601C69.7729 97.5671 69.5966 97.6527 69.4203 97.7425H69.3944C69.2841 97.7613 69.176 97.7915 69.0719 97.8323H68.7752H68.6977L68.6246 97.8067C68.5472 97.7596 68.4439 97.6954 68.3837 97.6655L68.2718 97.5757C68.1944 97.5029 68.1213 97.4259 68.0481 97.3489C67.975 97.2719 67.9451 97.2248 67.8892 97.1692C68.173 97.4687 67.8589 97.1136 67.8159 97.0451C67.6955 96.8697 67.5923 96.6858 67.4891 96.5018C67.4332 96.3949 67.3903 96.2794 67.3257 96.181V96.1467C67.1501 95.6981 67.0064 95.2378 66.8957 94.7691C66.8397 94.5296 66.8096 94.29 66.7537 94.0547C66.7537 94.0547 66.7537 94.0547 66.7537 94.0204C66.7537 93.9306 66.7323 93.8408 66.7237 93.7509C66.6721 93.2375 66.6461 92.7241 66.6418 92.2064C66.644 91.2917 66.6959 90.3777 66.7968 89.4684C66.7968 89.3871 66.8226 89.3058 66.8312 89.2245C66.8699 89.0021 66.9085 88.7753 66.9515 88.5528C67.0418 88.0737 67.1495 87.5988 67.2699 87.1282C67.5264 86.1595 67.8438 85.2079 68.2203 84.2789C68.2762 84.1505 68.3321 84.0222 68.3923 83.8981C68.4998 83.6628 68.6116 83.4275 68.7277 83.2008C68.9556 82.7387 69.2052 82.2852 69.4675 81.8446C69.7299 81.4039 70.0051 80.9632 70.3019 80.5611C70.4309 80.3728 70.5642 80.1889 70.6975 80.0006L70.9039 79.7268C70.6674 80.0477 71.0072 79.6028 71.0287 79.5771C71.6797 78.7769 72.3868 78.0235 73.1446 77.3225C73.2351 77.239 73.3159 77.1457 73.3855 77.0444H73.4155H73.4458C73.6307 77.1385 73.8112 77.2283 73.9875 77.3353L74.25 77.5064H74.2757L74.4134 77.6134C74.4951 77.6818 74.5725 77.7546 74.6499 77.8273C74.8219 77.9899 74.9811 78.1653 75.1402 78.3407C75.169 78.3679 75.195 78.3981 75.2177 78.4305L75.3252 78.576C75.4285 78.73 75.5272 78.8883 75.6176 79.0466C75.7079 79.2049 75.7981 79.3931 75.8885 79.5685C75.9788 79.7439 75.9918 79.8466 76.0348 79.9964C76.3201 80.8486 76.4298 81.7493 76.3574 82.6446H76.3444Z" fill="#557A8E"/>
<path d="M111.873 110C111.443 109.499 111.039 108.995 110.634 108.481C110.523 108.344 110.415 108.203 110.303 108.053L110.239 107.972L110.17 107.882L109.418 106.885C107.749 104.639 106.188 102.312 104.687 99.9589C101.62 95.1801 98.7429 90.2815 95.5044 85.6139C94.3031 83.9026 93.0471 82.2198 91.7368 80.5656C94.9875 79.8649 98.1323 78.7444 101.091 77.2328C101.384 77.0651 101.627 76.8231 101.796 76.5315C101.964 76.2399 102.052 75.9092 102.05 75.5729C102.042 75.238 101.95 74.9103 101.783 74.6197C101.615 74.329 101.378 74.0846 101.091 73.9086C99.1781 72.5473 96.9861 71.6238 94.6722 71.2044C92.3582 70.785 89.9796 70.8801 87.7069 71.4829C87.2158 71.6237 86.7997 71.9501 86.5473 72.3922C86.2949 72.8343 86.2266 73.3571 86.3566 73.8487C86.3837 73.9233 86.4152 73.9962 86.4511 74.0669C85.7028 75.0082 85.2385 76.3344 84.8858 77.2799C84.2884 78.9222 83.828 80.6107 83.5095 82.3282C82.817 85.9519 82.5589 89.6355 82.1159 93.2934C82.0858 93.5415 82.0558 93.7896 82.0214 94.0378C82.0214 94.0806 82.0214 94.1148 82.0214 94.1404C82.0214 94.2774 81.9827 94.41 81.9655 94.5426C81.8967 95.036 81.8193 95.528 81.7333 96.0186C81.5613 97.0283 81.3591 98.0294 81.114 99.0134C81.0462 99.2572 81.0274 99.5119 81.0586 99.763C81.0897 100.014 81.1702 100.257 81.2956 100.477C81.421 100.697 81.5888 100.89 81.7894 101.046C81.9899 101.201 82.2192 101.316 82.4643 101.384C82.7094 101.451 82.9656 101.47 83.218 101.439C83.4704 101.408 83.7141 101.327 83.9353 101.203C84.1566 101.078 84.351 100.911 84.5074 100.712C84.6638 100.512 84.7792 100.284 84.8469 100.04C85.677 96.6646 86.0255 93.1949 86.3911 89.7467C86.4771 88.9424 86.5629 88.1338 86.6576 87.3295C86.7049 86.9316 86.7566 86.5295 86.8039 86.1273C86.8039 86.0289 86.8296 85.9305 86.8468 85.8321C86.8769 85.6182 86.9071 85.4043 86.9415 85.1904C87.1221 83.9925 87.3458 82.8031 87.6296 81.6266C88.2576 82.3667 88.8769 83.1154 89.4747 83.8812L89.6467 84.1037L89.9693 84.5315C90.1499 84.7668 90.3261 85.0064 90.5024 85.246C90.9626 85.8706 91.4186 86.4995 91.8616 87.1327C93.4744 89.4301 94.9969 91.7917 96.4893 94.1661C99.4999 98.962 102.42 103.839 105.779 108.413C107.688 111.049 109.778 113.552 112.032 115.904C112.397 116.26 112.888 116.46 113.4 116.46C113.911 116.46 114.403 116.26 114.768 115.904C115.122 115.539 115.32 115.051 115.32 114.543C115.32 114.036 115.122 113.548 114.768 113.183C113.758 112.153 112.794 111.092 111.873 110ZM92.7948 74.837L93.139 74.867L93.4013 74.8926L93.5605 74.9183L93.9905 74.991C94.4678 75.0842 94.9401 75.2013 95.4055 75.3418L95.6936 75.4402C95.0571 75.6755 94.4033 75.898 93.7711 76.0948C92.812 76.39 91.8444 76.6467 90.8638 76.8564C90.3564 76.9676 89.8488 77.066 89.3414 77.1558L89.0705 77.1986C89.1307 77.0574 89.1951 76.9248 89.2639 76.7708C89.6945 76.6645 90.078 76.42 90.3548 76.075C90.6316 75.7301 90.7863 75.304 90.795 74.8627C90.795 74.8627 90.795 74.837 90.795 74.8242C90.9799 74.8242 91.165 74.7942 91.3542 74.79C91.835 74.7804 92.3157 74.7961 92.7948 74.837Z" fill="#557A8E"/>
<path d="M110.295 97.64C110.804 97.6281 111.29 97.4214 111.65 97.0629C112.01 96.7044 112.218 96.2216 112.23 95.7148L113.92 73.0102C113.918 72.5003 113.714 72.0119 113.351 71.6513C112.989 71.2908 112.498 71.0872 111.985 71.085C111.476 71.098 110.991 71.305 110.631 71.6632C110.271 72.0215 110.063 72.5037 110.05 73.0102L108.347 95.7148C108.347 95.9686 108.398 96.2197 108.496 96.4539C108.595 96.688 108.738 96.9006 108.919 97.0794C109.1 97.2583 109.315 97.3998 109.551 97.496C109.787 97.5922 110.04 97.6411 110.295 97.64Z" fill="#557A8E"/>
<path d="M162.859 90.769C151.463 93.1683 139.885 94.6179 128.246 95.1029C125.755 95.2112 123.263 95.2754 120.772 95.2954C121.239 93.0137 121.669 90.7319 122.062 88.4502C122.364 88.653 122.721 88.7577 123.085 88.7497C131.127 88.5696 139.145 87.8046 147.075 86.4608C149.314 86.0786 151.547 85.6508 153.772 85.1773C154.265 85.0385 154.683 84.7118 154.936 84.2681C155.189 83.8244 155.256 83.2995 155.122 82.8072C154.977 82.3211 154.648 81.9098 154.205 81.6594C153.761 81.409 153.238 81.3389 152.744 81.4638C148.913 82.2767 145.057 82.9526 141.175 83.4917L140.783 83.543H140.753L140.026 83.6372L138.568 83.8168C137.596 83.9324 136.62 84.035 135.648 84.1334C133.7 84.326 131.747 84.4886 129.79 84.6083C127.56 84.7509 125.325 84.8451 123.085 84.8907C122.93 84.8978 122.776 84.9222 122.625 84.9634C123.004 82.5248 123.341 80.0805 123.636 77.6305C130.443 77.6134 137.251 77.5107 144.06 77.3225C146.165 77.2626 148.268 77.1956 150.37 77.1214C150.883 77.1214 151.375 76.9186 151.738 76.5575C152.101 76.1965 152.305 75.7068 152.305 75.1962C152.305 74.6856 152.101 74.1959 151.738 73.8349C151.375 73.4738 150.883 73.271 150.37 73.271C143.064 73.5334 135.753 73.6945 128.436 73.7544C126.694 73.7544 124.952 73.7758 123.214 73.7801C122.868 73.4782 122.423 73.3137 121.963 73.3181C120.823 73.3694 120.148 74.1737 120.028 75.2433C119.929 76.1502 119.825 77.0529 119.714 77.9599C119.658 78.4434 119.593 78.9311 119.533 79.4188C119.503 79.6285 119.477 79.8466 119.451 80.0434C119.451 80.0434 119.417 80.3001 119.4 80.4028C119.15 82.2339 118.876 84.0579 118.578 85.8747C117.985 89.5083 117.297 93.1235 116.514 96.72C116.441 97.0057 116.433 97.3041 116.492 97.593C116.551 97.8818 116.675 98.1537 116.854 98.3883C117.034 98.6228 117.264 98.8139 117.529 98.9473C117.793 99.0807 118.084 99.153 118.38 99.1586C130.304 99.1752 142.209 98.2266 153.978 96.3222C157.29 95.7888 160.587 95.177 163.87 94.4868C164.363 94.3479 164.781 94.0213 165.034 93.5776C165.287 93.1339 165.354 92.609 165.22 92.1167C165.075 91.6341 164.749 91.2253 164.31 90.9746C163.871 90.7239 163.351 90.6503 162.859 90.769Z" fill="#557A8E"/>
<path d="M179.31 71.5125C178.129 70.9072 176.803 70.641 175.479 70.7437C174.155 70.8464 172.886 71.3141 171.814 72.0942C170.742 72.8742 169.91 73.936 169.411 75.1602C168.911 76.3844 168.765 77.7227 168.988 79.0251C169.362 81.6391 171.074 83.7654 172.717 85.7291C173.056 86.157 173.4 86.542 173.731 86.957L173.882 87.1623C173.977 87.2864 174.067 87.4148 174.157 87.5431C174.332 87.7941 174.5 88.0551 174.66 88.326C174.822 88.5859 174.965 88.856 175.091 89.1346C175.091 89.1646 175.112 89.1988 175.125 89.2501C175.164 89.3699 175.194 89.494 175.233 89.6181L175.271 89.7379C175.271 89.7678 175.271 89.8063 175.271 89.8619C175.271 89.9175 175.271 89.9988 175.271 90.0716C175.258 90.092 175.247 90.1135 175.237 90.1357C175.201 90.2074 175.171 90.2818 175.146 90.3582C175.099 90.4481 175.048 90.5336 175 90.6192C174.997 90.6333 174.997 90.6478 175 90.6619C174.981 90.6733 174.963 90.6878 174.949 90.7047C174.871 90.7689 174.807 90.8502 174.729 90.9187C174.652 90.9871 174.299 91.2096 174.643 91.0085C174.398 91.1497 174.162 91.2951 173.912 91.4363H173.856C173.693 91.4834 173.538 91.5347 173.37 91.5732L173.104 91.6288C173.078 91.6288 172.781 91.6631 172.73 91.6674C172.337 91.6888 171.944 91.6888 171.551 91.6674C171.247 91.6474 170.942 91.6174 170.635 91.5775L170.398 91.5433L169.715 91.4406C168.721 91.278 167.564 91.693 167.336 92.784C167.121 93.7081 167.616 94.9787 168.687 95.1498C171.289 95.5776 174.209 95.9541 176.531 94.3797C177.635 93.6668 178.474 92.6154 178.923 91.385C179.426 89.9646 179.056 88.4629 178.437 87.1495C177.845 86.0024 177.115 84.9308 176.265 83.9579C175.891 83.4959 175.503 83.0424 175.125 82.5846L174.648 82.0028L174.592 81.9343L174.553 81.8787C174.424 81.7076 174.299 81.5365 174.175 81.3611C173.856 80.9091 173.568 80.4359 173.314 79.945L173.211 79.7353C173.211 79.7353 173.129 79.5428 173.108 79.4915C172.993 79.1815 172.9 78.8642 172.828 78.5417C172.828 78.4647 172.798 78.3877 172.785 78.3064C172.773 78.2251 172.785 78.1994 172.785 78.1738C172.785 77.8999 172.785 77.6347 172.785 77.3652C172.785 77.3652 172.785 77.3438 172.785 77.3352C172.82 77.2112 172.846 77.0785 172.88 76.9502C172.914 76.8218 172.962 76.702 173.005 76.5737C173.006 76.5566 173.006 76.5394 173.005 76.5224L173.052 76.4539C173.173 76.2571 173.289 76.056 173.413 75.8592L173.512 75.7309C173.62 75.6111 173.731 75.4999 173.848 75.3886L174.05 75.2132L174.278 75.0635L174.562 74.9009C174.596 74.8849 174.627 74.8648 174.656 74.841H174.721C175.019 74.7461 175.322 74.6675 175.628 74.6057H175.706C175.873 74.6057 176.045 74.6057 176.213 74.6057C176.286 74.6057 176.355 74.6057 176.424 74.6057C176.265 74.6057 176.626 74.6357 176.712 74.6528C176.798 74.6699 176.987 74.7255 177.121 74.7683C177.185 74.7683 177.245 74.8111 177.31 74.8324L177.37 74.8581C178.278 75.2859 179.52 75.1405 180.015 74.1693C180.467 73.288 180.29 71.9789 179.31 71.5125ZM172.751 77.3652C172.751 77.5962 172.751 77.4678 172.751 77.3652V77.3652Z" fill="#557A8E"/>
</svg>
