<svg width="91" height="42" viewBox="0 0 91 42" fill="none" xmlns="http://www.w3.org/2000/svg">
<path d="M19.2445 12.0551C20.9261 10.6989 23.0119 8.87637 23.0764 6.55328C23.1495 3.76387 20.2723 2.54457 18.0316 1.84721C16.0582 1.23733 13.9929 0.97527 11.9288 1.07285C11.6933 0.791323 11.3715 0.594434 11.0127 0.512405C10.5185 0.384146 9.99343 0.452748 9.54926 0.703625C9.1051 0.954503 8.77681 1.36787 8.6343 1.85578L1.11233 31.611C0.879643 32.3033 0.735156 33.022 0.682251 33.7501C0.692658 34.3262 0.923619 34.8767 1.328 35.2893C1.73238 35.7019 2.27975 35.9455 2.85847 35.9705C4.02399 36.0218 4.93999 34.8966 4.93999 33.8057C4.93698 33.5174 4.87251 33.2331 4.75078 32.9714C4.75828 32.9295 4.76826 32.8881 4.78081 32.8474C4.91843 32.2955 5.06036 31.7436 5.21089 31.1917L5.96794 28.1969C6.48403 26.1662 6.99729 24.134 7.50765 22.1004C7.85601 20.7357 8.19993 19.3666 8.544 18.0019C12.3115 16.3505 16.0232 14.6349 19.2445 12.0551ZM4.55716 33.7158C4.55311 33.765 4.54466 33.8137 4.53154 33.8613C4.5316 33.8117 4.54014 33.7625 4.55716 33.7158ZM19.2445 6.57895C19.3262 6.64312 19.296 6.6089 19.2487 6.58323L19.2445 6.57895ZM19.1842 6.50195C19.1842 6.50195 19.1842 6.47199 19.1842 6.46343C19.1839 6.47781 19.1853 6.4922 19.1884 6.50623L19.1842 6.50195ZM18.0746 5.92865C18.0402 5.91581 17.8811 5.84737 18.0832 5.93293L18.0746 5.92865ZM13.533 4.8976C13.7609 4.8976 13.9847 4.92755 14.2083 4.94894C14.2857 4.94894 14.7072 5.01739 14.6384 5.00028C15.1201 5.08584 15.5974 5.1714 16.0748 5.2912C16.5522 5.41099 16.9349 5.53079 17.365 5.67625C17.6102 5.76181 17.8466 5.85166 18.0874 5.94578L18.4833 6.12546C18.651 6.20674 18.8187 6.29659 18.9778 6.39071L19.1198 6.48484L19.1626 6.51479L19.137 6.60462C19.0424 6.7458 18.9562 6.89554 18.8659 7.03244C18.9046 6.95116 18.6251 7.32765 18.5692 7.38754C18.4057 7.55867 18.2381 7.72981 18.0704 7.89666C17.778 8.18758 17.4724 8.46994 17.1628 8.75231C16.9865 8.9106 16.8059 9.06034 16.621 9.21008L16.2512 9.501C14.836 10.5391 13.337 11.4592 11.7696 12.2519C11.0944 12.5984 10.4062 12.9279 9.7181 13.2487L10.5783 9.77907L11.817 4.8805H11.9504C12.4779 4.85697 13.0061 4.86267 13.533 4.8976Z" fill="#CE9628"/>
<path d="M51.7242 32.659L51.393 32.0643L50.5629 30.5797L48.8984 27.6064L45.5739 21.6596L44.8816 20.4232C44.9913 20.1817 45.0413 19.9177 45.0277 19.6531C44.989 18.7975 44.3052 17.7878 43.3719 17.7193L38.9207 9.76609L35.9102 4.3969L35.9316 4.36694C36.1902 3.92591 36.2626 3.40092 36.1328 2.90695C36.003 2.41298 35.6817 1.9903 35.2392 1.73153C34.817 1.4981 34.3232 1.42754 33.852 1.53329C33.3808 1.63903 32.9652 1.91368 32.6846 2.30483C32.6285 2.32848 32.5737 2.35563 32.521 2.38612C32.2658 2.54716 32.0501 2.76287 31.8893 3.01749C31.7286 3.2721 31.6271 3.5592 31.5922 3.85783L20.2768 20.1152C19.9585 20.1152 19.6446 20.1665 19.3263 20.1922C18.3199 20.2692 17.3437 21.0221 17.391 22.1174C17.4201 22.6137 17.6171 23.0856 17.95 23.4565L16.9695 24.8683L12.574 31.183C12.3595 31.5508 12.2733 31.9788 12.3285 32.4004C12.3837 32.8221 12.5773 33.2138 12.8794 33.5146C13.1851 33.8095 13.5785 33.9983 14.0007 34.053C14.423 34.1077 14.8518 34.0254 15.2234 33.8184L15.8641 33.4333C16.1388 33.2608 16.3683 33.0257 16.5336 32.7474C16.6988 32.4692 16.7951 32.1559 16.8145 31.8333L22.4056 23.7859C28.6876 23.2697 34.9567 22.6094 41.2129 21.8051L46.7352 31.6835L47.7716 33.5403C48.1041 34.2196 48.4852 34.8744 48.9115 35.4997C49.1957 35.8681 49.5821 36.1455 50.0232 36.2976C50.4643 36.4497 50.9406 36.4698 51.393 36.3554C52.5886 36.0345 53.4015 34.4644 52.5844 33.3863C52.3551 33.0837 52.0614 32.8353 51.7242 32.659ZM25.2657 19.7044L31.5491 10.6774L33.4629 7.92645L39.2175 18.1942C34.5898 18.7789 29.9393 19.2823 25.2657 19.7044Z" fill="#CE9628"/>
<path d="M83.4551 36.595L65.022 16.021C63.8608 14.7261 62.7008 13.4312 61.5425 12.1363C62.0801 11.978 62.6134 11.8026 63.1381 11.6058C64.6863 11.024 66.4928 10.3651 67.7486 9.25277C68.1568 8.89329 68.4568 8.42834 68.6155 7.90952C68.7741 7.3907 68.7852 6.83831 68.6474 6.31362C68.3764 5.31251 67.4991 4.60233 66.6217 4.12744C65.1573 3.34656 63.5805 2.7953 61.9469 2.49315C61.148 2.35337 60.3404 2.26762 59.5298 2.23646C59.5018 1.8576 59.3547 1.49712 59.1092 1.2061C58.8638 0.91508 58.5323 0.708268 58.1621 0.614994C57.2203 0.401082 55.9687 0.897364 55.7795 1.95837L55.6764 2.54449C55.2464 2.73431 54.8983 3.07006 54.6942 3.49171C54.4901 3.91336 54.4433 4.39344 54.5623 4.84618C54.6697 5.17436 54.8609 5.46919 55.1171 5.70183L51.8401 24.2566C51.6638 25.2448 52.1066 26.3957 53.1904 26.6224C54.1323 26.8364 55.3838 26.3401 55.573 25.2791C56.264 21.3688 56.9552 17.457 57.6462 13.5439L76.5696 34.6826L82.2896 41.0701C82.5958 41.3658 82.9901 41.5548 83.4135 41.6088C83.8369 41.6628 84.2664 41.5789 84.6378 41.3695C84.9795 41.1873 85.2777 40.934 85.5122 40.6269C85.7467 40.3198 85.9121 39.9661 85.9969 39.5898C86.0923 39.1453 86.0799 38.6845 85.961 38.2456C85.8421 37.8068 85.62 37.4023 85.3129 37.0656C85.078 36.8229 84.7798 36.6502 84.4515 36.5671C84.1233 36.4839 83.7781 36.4936 83.4551 36.595ZM58.9664 6.04837H59.1126C59.5169 6.04837 59.9212 6.0783 60.3211 6.11681L60.6481 6.15961C60.8588 6.19383 61.0781 6.22806 61.2802 6.27084C62.0697 6.44206 62.8458 6.66938 63.6026 6.95107L63.7145 6.98959L63.8262 7.04092L63.9123 7.08369C63.6543 7.21204 63.4004 7.34039 63.1381 7.46018L62.708 7.65699L62.3812 7.78533C61.1108 8.27984 59.8 8.66488 58.4633 8.93618C58.6324 7.975 58.8015 7.0124 58.9706 6.04837H58.9664ZM82.3927 39.5213C82.4532 39.6191 82.5195 39.7134 82.5907 39.8037C82.5186 39.715 82.4537 39.6206 82.3971 39.5213H82.3927Z" fill="#CE9628"/>
<path d="M89.046 1.13707C88.5519 1.01105 88.0278 1.08065 87.5842 1.33121C87.1406 1.58177 86.8122 1.99373 86.6678 2.48041C85.8636 5.47518 85.4936 8.54697 84.7797 11.5546C84.4763 12.835 84.0883 14.0941 83.6184 15.3237L83.5884 15.4007C83.5884 15.4221 83.5668 15.4435 83.5539 15.4692C83.4851 15.6189 83.4206 15.7729 83.3475 15.897C83.2314 16.1451 83.1067 16.3933 82.9777 16.6328C82.6716 17.2119 82.3282 17.7706 81.9497 18.3057C81.8852 18.4041 81.8121 18.4982 81.7433 18.588L81.61 18.7549C81.4207 18.9816 81.223 19.1827 81.0165 19.4137C80.8101 19.6447 80.6381 19.7945 80.4403 19.9742L80.0703 20.2907L80.0144 20.3335L79.8208 20.4747C79.5971 20.6287 79.3693 20.7713 79.137 20.9025C79.0123 20.9753 78.8875 21.048 78.7542 21.1122H78.7113L78.6769 21.0694C78.6339 20.9967 78.6037 20.9239 78.565 20.8512C78.5263 20.7785 78.4791 20.6416 78.4619 20.5902C78.3802 20.3293 78.32 20.064 78.2641 19.7945C78.2253 19.6062 78.1951 19.418 78.1607 19.2297C78.1607 19.1813 78.1521 19.1427 78.1349 19.1142C78.1349 19.0843 78.1349 19.0458 78.1349 18.9902C78.0962 18.6094 78.0662 18.2329 78.049 17.8522C78.0088 16.3835 78.0893 14.914 78.2899 13.4584L78.3413 13.0733C78.3413 13.0177 78.3413 12.9749 78.3413 12.9407C78.3413 12.9065 78.3413 12.9792 78.3413 13.0092L78.393 12.6241L78.5608 11.469C78.7013 10.5278 78.8331 9.58659 78.9564 8.64538C79.1863 6.98446 79.2641 5.30618 79.1887 3.63126C79.1285 2.62588 78.3285 1.65899 77.2533 1.70605C76.2555 1.74884 75.2535 2.5617 75.318 3.63126C75.3919 5.24007 75.3212 6.85223 75.1071 8.44857C75.1071 8.60686 75.0686 8.7609 75.0471 8.91919C75.0471 8.97909 74.9996 9.27856 74.9996 9.28711L74.832 10.4465C74.6915 11.382 74.5595 12.3218 74.4362 13.2659C74.2085 14.8467 74.1223 16.4444 74.1783 18.0404C74.2643 19.6661 74.4665 21.433 75.2621 22.8876C75.681 23.7236 76.3962 24.3755 77.2699 24.7176C78.1436 25.0597 79.1137 25.0677 79.993 24.7401C81.4252 24.146 82.7118 23.2515 83.7648 22.1176C85.8206 19.9784 87.1622 17.2489 88.0095 14.4424C89.1019 10.8487 89.4331 7.08382 90.4094 3.46015C90.5252 2.97287 90.4483 2.4599 90.1945 2.02747C89.9408 1.59504 89.5296 1.27625 89.046 1.13707ZM78.423 21.2277C78.423 21.202 78.4791 21.1977 78.5522 21.202C78.4834 21.232 78.4273 21.2448 78.423 21.2362V21.2277Z" fill="#CE9628"/>
</svg>
