<svg width="134" height="31" viewBox="0 0 134 31" fill="none" xmlns="http://www.w3.org/2000/svg">
<path d="M14.4893 3.61223C13.9954 3.49061 13.4733 3.56215 13.0308 3.81209C12.5883 4.06203 12.2591 4.47132 12.111 4.9556C10.081 10.4432 8.04964 15.9293 6.0168 21.414C5.64693 19.5401 5.31144 17.6577 5.02329 15.7667C4.95018 15.2918 4.88137 14.8127 4.81686 14.3378L4.7652 13.9741C4.7652 13.9399 4.7652 13.8928 4.7652 13.8244L4.66199 13.0073C4.54156 12.049 4.43261 11.0906 4.33512 10.1323C4.12868 8.07871 3.97393 6.01947 3.87071 3.95451C3.87071 3.44391 3.66676 2.95421 3.30382 2.59317C2.94087 2.23212 2.44864 2.0293 1.93535 2.0293C1.42207 2.0293 0.929738 2.23212 0.566788 2.59317C0.203839 2.95421 0 3.44391 0 3.95451C0.435165 12.3148 1.67657 20.6142 3.70722 28.7383C3.82271 29.143 4.06709 29.4994 4.40369 29.754C4.74029 30.0086 5.15096 30.1476 5.5738 30.1502C5.99335 30.1352 6.39788 29.9915 6.73206 29.7387C7.06624 29.4859 7.31363 29.1365 7.44028 28.7383L15.8655 5.98239C15.9982 5.48657 15.9279 4.95861 15.6699 4.5143C15.412 4.07 14.9874 3.74559 14.4893 3.61223Z" fill="#672649"/>
<path d="M22.8502 2.71406C22.356 2.5858 21.8309 2.65443 21.3867 2.90531C20.9425 3.15618 20.6144 3.56952 20.4719 4.05743C18.8548 11.2064 17.4053 18.428 16.3559 25.6839C16.2647 26.0547 16.2537 26.4405 16.3234 26.8159C16.3931 27.1913 16.5419 27.5477 16.7602 27.8616C17.0607 28.2604 17.495 28.5388 17.9843 28.6464C18.4735 28.7539 18.9853 28.6834 19.4268 28.4477C19.9218 28.1699 20.2887 27.7111 20.4493 27.1688C20.6099 26.6264 20.5516 26.0431 20.2869 25.5428V25.4658C20.36 25.038 20.4289 24.5673 20.502 24.1181C20.6568 23.1897 20.8116 22.2571 20.9707 21.3287C21.2803 19.5347 21.6044 17.7464 21.9428 15.9638C22.6338 12.3244 23.3893 8.69648 24.2093 5.07994C24.3356 4.58725 24.2644 4.06497 24.0108 3.6235C23.7572 3.18203 23.341 2.85593 22.8502 2.71406Z" fill="#672649"/>
<path d="M38.763 7.14614C37.2949 5.12726 35.4275 3.42822 33.2753 2.15341C32.8301 1.9022 32.3037 1.83408 31.8087 1.96358C31.3137 2.09307 30.8893 2.40997 30.626 2.84654C30.4553 3.16092 30.3717 3.51477 30.3838 3.87187C30.3959 4.22896 30.5033 4.57646 30.6948 4.87871C28.915 11.2347 28.015 17.8023 28.0197 24.4003C27.4537 24.6927 26.9251 25.0518 26.4455 25.4698C25.5853 26.3255 25.4133 27.8186 26.3638 28.6785C26.596 28.9058 26.8771 29.0777 27.1857 29.1811C27.4944 29.2846 27.8226 29.3169 28.1457 29.2757C28.4687 29.2345 28.7783 29.1208 29.0507 28.9432C29.3232 28.7657 29.5515 28.5289 29.7185 28.2507C29.7954 28.1076 29.8532 27.9552 29.8905 27.7972L30.2603 27.5705L32.0582 26.4624L35.3827 24.4088C37.3567 23.1895 39.4039 22.0087 40.8017 20.1306C42.3887 17.9915 42.195 15.2791 41.5155 12.8319C40.953 10.786 40.0203 8.85921 38.763 7.14614ZM38.1393 15.4288C38.1651 15.5828 38.1393 15.5058 38.1393 15.4288V15.4288ZM38.1393 16.7123C38.1393 16.7593 38.0877 16.9219 38.0748 16.969C38.0619 17.016 38.0404 17.0973 38.0146 17.1914C37.9888 17.2856 37.9072 17.4439 37.9029 17.4567C37.8541 17.548 37.8026 17.6378 37.7481 17.7262C37.6836 17.8375 37.6018 17.9401 37.5372 18.0471C37.5266 18.0533 37.5177 18.0622 37.5114 18.0728C37.1489 18.4655 36.7612 18.8342 36.3503 19.1766H36.3717H36.3459C36.3029 19.2065 36.2427 19.2536 36.2298 19.2579L36.0406 19.3948C35.8384 19.5359 35.6363 19.6771 35.4299 19.8226C34.9224 20.1563 34.4021 20.4686 33.886 20.7852L31.9376 21.9917C31.9376 21.3585 31.9806 20.7082 32.0193 20.0921C32.0709 19.2108 32.1441 18.3295 32.2301 17.4524C32.2731 17.0246 32.3205 16.5711 32.3721 16.1347C32.3979 15.8952 32.4279 15.6598 32.458 15.4245C32.4606 15.3775 32.4606 15.3304 32.458 15.2834C32.458 15.2577 32.4581 15.2192 32.4796 15.1294C32.8426 12.5598 33.3464 10.0118 33.9891 7.49699C34.2299 7.72801 34.4621 7.96756 34.6901 8.21142C34.8535 8.39539 35.0128 8.57509 35.1676 8.76333L35.3396 8.98152L35.5116 9.20828C36.1148 10.0386 36.6375 10.9238 37.0727 11.8522C37.1157 11.9506 37.1588 12.049 37.2061 12.1474L37.2319 12.2031C37.2319 12.2031 37.2319 12.2501 37.2577 12.2843C37.3352 12.4897 37.4125 12.6908 37.4856 12.8918C37.6569 13.4015 37.8004 13.9199 37.9157 14.4448C37.9802 14.7229 38.0363 15.001 38.0879 15.3005C38.0879 15.3433 38.0879 15.3775 38.0879 15.4075C38.1094 15.57 38.1221 15.7326 38.1307 15.8994C38.1596 16.1651 38.1698 16.4324 38.1609 16.6994L38.1393 16.7123Z" fill="#672649"/>
<path d="M36.2256 19.2835L36.3401 19.2026L36.2256 19.2835Z" fill="#672649"/>
<path d="M96.7162 21.0247C89.9855 22.0258 83.758 22.8472 76.9326 23.6302C70.232 24.4002 63.5184 25.0605 56.792 25.611C54.2588 25.8206 51.7215 26.0046 49.1883 26.18C49.204 24.8289 49.2887 23.4796 49.442 22.1371C49.5667 21.0119 49.6227 20.614 49.7904 19.4974C49.8592 19.0695 49.9279 18.6075 50.001 18.1626C50.0949 18.1779 50.1898 18.1865 50.285 18.1882C60.8305 17.9515 71.3703 17.498 81.9044 16.8277C84.8891 16.6366 87.8753 16.427 90.8629 16.1989C91.8693 16.1261 92.8456 15.3689 92.7983 14.2736C92.7553 13.2982 91.9381 12.2671 90.8629 12.3484C80.3432 13.1499 69.8105 13.7289 59.2649 14.0854C56.3691 14.1852 53.4776 14.2665 50.5903 14.3293C51.006 11.753 51.2146 9.1478 51.214 6.53855C60.0535 6.34175 68.8872 6.03089 77.7153 5.60592C79.8657 5.49896 82.0161 5.37915 84.1665 5.26364C84.4676 5.42962 84.8051 5.51958 85.1493 5.52555C85.4935 5.53151 85.8339 5.45334 86.1407 5.2979L87.0353 4.9C87.4036 4.68475 87.6902 4.35482 87.8511 3.96121C88.012 3.5676 88.0382 3.13224 87.9255 2.72239C87.8081 2.3188 87.5632 1.96352 87.227 1.70923C86.8908 1.45494 86.4813 1.31515 86.059 1.31055C76.2905 1.88098 66.5146 2.29598 56.7317 2.55553C54.5899 2.61543 52.4497 2.66533 50.3108 2.70526C49.9911 2.43269 49.5787 2.29193 49.1581 2.31169C48.6695 2.34374 48.2045 2.53288 47.8334 2.8507C47.4331 2.96321 47.0806 3.20241 46.8292 3.53203C46.5778 3.86165 46.4412 4.26375 46.4401 4.67752C46.4538 4.99791 46.542 5.31076 46.698 5.5914C46.8539 5.87204 47.0734 6.1128 47.3389 6.29471C47.3713 7.57933 47.3325 8.86475 47.2227 10.1451C47.1797 10.6671 47.1238 11.1933 47.0636 11.7153C47.0335 11.9762 47.0035 12.2415 46.9691 12.5024C46.9691 12.5324 46.9347 12.7634 46.9218 12.849C46.7842 13.8415 46.6294 14.8341 46.4917 15.8437C45.9326 19.3647 45.3389 22.9157 45.326 26.488C44.8564 26.5393 44.4219 26.76 44.1049 27.1085C43.7879 27.457 43.6103 27.909 43.6057 28.379C43.6487 29.3673 44.4659 30.3727 45.5411 30.3042C59.0799 29.4486 72.5803 28.1437 86.0418 26.3896C89.9469 25.8848 93.8461 25.3429 97.7398 24.7639C98.7419 24.6142 99.387 23.3007 99.0903 22.3937C98.7419 21.2771 97.7914 20.8622 96.7162 21.0247Z" fill="#672649"/>
<path d="M107.335 23.3953C107.325 23.3375 107.313 23.2803 107.296 23.2241C107.3 23.2498 107.317 23.3183 107.335 23.3953Z" fill="#672649"/>
<path d="M119.665 10.8087C119.233 8.67083 118.187 6.70334 116.655 5.14432C115.512 3.9682 114.089 3.09844 112.517 2.61587C112.683 2.16338 112.672 1.66579 112.487 1.22084C112.302 0.775892 111.957 0.415692 111.519 0.210973C111.081 0.00625484 110.582 -0.0281623 110.12 0.11441C109.657 0.256982 109.265 0.566245 109.021 0.981548C106.639 4.57538 104.953 8.58003 104.049 12.7895C103.587 14.9644 103.328 17.1771 103.275 19.3994C103.252 20.4347 103.279 21.4729 103.357 22.514C103.447 23.7033 103.546 24.944 104.268 25.9366C105.718 27.9388 108.707 28.1527 110.887 27.3612C112.905 26.5909 114.668 25.2787 115.979 23.5707C118.835 19.9984 120.504 15.3864 119.665 10.8087ZM115.997 14.381C115.997 14.4238 115.997 14.458 115.997 14.488C115.997 14.5821 115.967 14.672 115.949 14.7661C115.911 15.0057 115.863 15.2409 115.807 15.4762C115.704 15.9041 115.579 16.3576 115.433 16.7897C115.369 16.995 115.296 17.1961 115.218 17.3929L115.102 17.6838C115.102 17.7095 115.076 17.7437 115.059 17.7822C114.665 18.6442 114.204 19.4739 113.679 20.2636C113.562 20.439 113.446 20.6101 113.322 20.777L113.175 20.9781C112.879 21.316 112.59 21.6626 112.268 21.9835C111.995 22.2547 111.708 22.5117 111.408 22.7535L111.098 22.976C110.917 23.1001 110.728 23.2156 110.535 23.3226C110.341 23.4295 110.165 23.5151 109.976 23.6135L109.743 23.6948C109.567 23.7547 109.386 23.806 109.206 23.8488L108.896 23.913H108.853C108.668 23.913 108.483 23.913 108.294 23.913C108.105 23.913 107.709 23.8146 108.079 23.913C107.898 23.8702 107.718 23.8274 107.541 23.7718L107.477 23.7376C107.466 23.717 107.458 23.6955 107.451 23.6734C107.451 23.622 107.417 23.5108 107.391 23.4124C107.372 23.3568 107.359 23.2995 107.352 23.2413C107.352 23.1257 107.326 23.006 107.318 22.8905C107.296 22.6466 107.279 22.4027 107.262 22.1589C107.206 21.2433 107.184 20.3278 107.206 19.4123C107.227 18.4967 107.292 17.517 107.395 16.5758C107.417 16.379 107.442 16.1822 107.468 15.9854C107.466 15.9597 107.466 15.934 107.468 15.9083C107.468 15.7843 107.507 15.6645 107.524 15.5447C107.597 15.0912 107.679 14.642 107.769 14.1928C108.18 12.1532 108.781 10.1565 109.567 8.22892L109.649 8.03637L109.769 7.76261C109.868 7.53586 109.971 7.33476 110.074 7.09517C110.238 6.74864 110.414 6.41065 110.586 6.06839H110.69L110.823 6.10264C110.995 6.13687 111.163 6.17962 111.33 6.22668C111.498 6.27374 111.666 6.33791 111.829 6.38925H111.877L111.782 6.34648L111.885 6.39354L111.958 6.4278L112.053 6.47485C112.391 6.63876 112.715 6.82751 113.025 7.03956C113.162 7.13368 113.455 7.38609 113.175 7.14223C113.347 7.29197 113.524 7.43315 113.692 7.57005C113.949 7.8135 114.192 8.07211 114.418 8.34444L114.517 8.46419C114.543 8.5027 114.573 8.54124 114.582 8.55835C114.702 8.7252 114.814 8.89631 114.921 9.07172C115.12 9.39856 115.301 9.73558 115.463 10.0814C115.46 10.0897 115.46 10.0988 115.463 10.1071C115.463 10.1627 115.511 10.2354 115.519 10.2568C115.601 10.475 115.674 10.6846 115.739 10.9114C115.838 11.2619 115.919 11.6175 115.979 11.9767C115.979 11.9767 115.979 12.0237 115.979 12.0494C115.981 12.0352 115.981 12.0208 115.979 12.0066C115.979 12.0964 116.001 12.1863 116.005 12.2761C116.031 12.5456 116.044 12.8152 116.048 13.0847C116.04 13.5425 116.014 13.9618 115.979 14.381H115.997Z" fill="#672649"/>
<path d="M111.876 6.40625L111.957 6.44434L111.876 6.40625Z" fill="#672649"/>
<path d="M127.819 0.147272C124.994 0.943026 123.837 4.06185 123.76 6.7058C123.678 9.73052 124.886 12.3702 126.34 14.9329C126.645 15.4677 126.955 15.9981 127.243 16.5415C127.385 16.811 127.523 17.0848 127.652 17.3586C127.652 17.3586 127.772 17.6282 127.798 17.6795C127.85 17.8078 127.901 17.9362 127.949 18.0688C128.043 18.3469 128.129 18.6293 128.198 18.9245C128.232 19.0614 128.258 19.1983 128.284 19.3523C128.284 19.4165 128.31 19.5149 128.314 19.5619C128.336 19.8486 128.314 20.1352 128.314 20.4176V20.4432V20.4946C128.263 20.6871 128.206 20.8754 128.151 21.0679L128.103 21.1321C128.056 21.2176 128.004 21.2989 127.949 21.3802C127.893 21.4615 127.807 21.5428 127.729 21.6155C127.652 21.6882 127.622 21.7139 127.566 21.761C127.51 21.808 127.355 21.9021 127.243 21.962C127.204 21.962 126.938 22.1032 126.865 22.146L126.684 22.2059C126.508 22.2615 126.327 22.3043 126.147 22.3428L125.974 22.3727C125.802 22.3727 125.626 22.3984 125.45 22.4027C125.273 22.407 125.119 22.4027 124.951 22.4027L124.551 22.377H124.448L124.073 22.3129C123.841 22.2701 123.613 22.2187 123.381 22.1674C122.951 22.0647 122.521 21.9492 122.117 21.8251C121.872 21.758 121.615 21.7396 121.363 21.7708C121.111 21.8021 120.867 21.8825 120.646 22.0075C120.425 22.1324 120.231 22.2994 120.075 22.499C119.919 22.6986 119.804 22.9268 119.736 23.1706C119.669 23.4144 119.65 23.6691 119.682 23.9201C119.713 24.1711 119.794 24.4134 119.919 24.6333C120.045 24.8532 120.213 25.0463 120.414 25.2017C120.614 25.357 120.844 25.4715 121.089 25.5386C123.781 26.3216 126.804 26.7622 129.333 25.2306C130.604 24.4693 131.544 23.2643 131.97 21.8508C132.317 20.5003 132.293 19.0819 131.901 17.7437C131.226 15.211 129.583 13.0933 128.46 10.7531L128.357 10.5306C128.383 10.5862 128.228 10.2268 128.224 10.2054C128.112 9.91451 128.009 9.61505 127.927 9.31557C127.845 9.01609 127.776 8.67807 127.703 8.36148L127.678 8.21603C127.656 8.04918 127.639 7.87808 127.63 7.70695C127.609 7.3818 127.6 7.05664 127.609 6.73149C127.609 6.55181 127.635 6.37211 127.639 6.18815C127.639 6.18815 127.639 6.14964 127.639 6.12825C127.678 5.91434 127.716 5.70043 127.772 5.49079C127.807 5.36672 127.841 5.24694 127.88 5.12287C127.88 5.06298 127.983 4.89186 128.013 4.81913C128.116 4.63089 128.219 4.44263 128.336 4.26294L128.374 4.22873L128.551 4.06616C128.551 4.06616 128.74 3.93353 128.792 3.8993H128.865H129.054L129.282 3.95492L129.402 4.0319H129.432C129.432 4.0319 129.411 4.03193 129.432 4.00626C129.437 4.00363 129.442 4.00223 129.447 4.00223C129.453 4.00223 129.458 4.00363 129.462 4.00626L129.501 4.06616H129.48C129.48 4.12177 129.48 4.1774 129.48 4.23302C129.351 5.23412 130.46 6.20101 131.415 6.15822C132.572 6.10689 133.208 5.30258 133.35 4.23302C133.763 1.32381 130.305 -0.554359 127.819 0.147272ZM129.131 3.85225H129.222C129.222 3.85225 129.179 3.85652 129.131 3.84796V3.85225ZM129.527 3.94207V3.91215C129.527 3.91215 129.51 3.89504 129.51 3.91643L129.527 3.94207ZM129.501 3.97628C129.501 3.97628 129.531 4.00199 129.544 4.02339L129.501 3.97628ZM129.579 4.12178C129.604 4.16884 129.609 4.21587 129.579 4.09608V4.12178ZM129.579 4.08752C129.643 4.08752 129.63 4.08327 129.591 4.06187L129.579 4.08752Z" fill="#672649"/>
<path d="M129.51 3.99756L129.561 4.03565L129.51 3.99756Z" fill="#672649"/>
</svg>
