<svg width="185" height="27" viewBox="0 0 185 27" fill="none" xmlns="http://www.w3.org/2000/svg">
<g clip-path="url(#clip0_319_379)">
<path d="M183.633 2.77689C185.029 2.709 185.039 0.524363 183.633 0.594679L172.722 1.13295C171.779 1.18144 171.471 2.1877 171.8 2.81569L169.982 14.3838C169.878 15.0433 170.258 15.7998 171.034 15.7659C175.143 15.5751 179.238 15.2074 183.318 14.6627C184.688 14.4784 184.707 12.2937 183.318 12.4804C179.664 12.9654 175.997 13.3105 172.314 13.5158C172.546 12.061 172.775 10.5989 173.003 9.12953C175.803 8.92585 178.597 8.65348 181.385 8.31241C182.762 8.14268 182.779 5.95805 181.385 6.1302C178.713 6.45349 176.035 6.71698 173.35 6.92065C173.542 5.70185 173.734 4.48062 173.927 3.25697L183.633 2.77689Z" fill="white"/>
<path d="M109.557 3.33937C106.35 3.40241 103.142 3.38382 99.9331 3.2836C98.5292 3.23996 98.5316 5.42217 99.9331 5.46581C101.189 5.50461 102.445 5.52644 103.701 5.54099C102.607 9.58212 101.567 13.6434 100.583 17.725C100.456 17.8211 100.357 17.9505 100.299 18.099C100.24 18.2474 100.223 18.4091 100.251 18.5663C100.265 18.7167 100.282 18.8694 100.299 19.0198C100.423 20.1569 102.132 20.6006 102.443 19.3107C103.545 14.7071 104.717 10.1212 105.958 5.5531C107.159 5.5531 108.359 5.54259 109.557 5.52158C110.956 5.49248 110.96 3.31027 109.557 3.33937Z" fill="white"/>
<path d="M115.739 3.36131C115.107 5.01494 114.542 6.69119 114.042 8.39008C113.598 8.4701 113.157 8.54041 112.711 8.60588C113.159 7.25453 113.606 5.90234 114.054 4.54937C114.498 3.21338 112.391 2.64118 111.952 3.9699C111.407 5.61383 110.863 7.25694 110.318 8.89926C110.117 8.92108 109.913 8.9429 109.709 8.95987C108.368 9.07141 108.315 11.1081 109.576 11.1421L107.546 17.2765C107.527 17.3056 107.508 17.3347 107.491 17.3662C107.281 17.7118 107.177 18.1115 107.192 18.5155C107.207 19.7715 108.953 19.9703 109.336 18.8065C110.209 16.17 111.081 13.536 111.952 10.9045C112.437 10.8414 112.922 10.7727 113.407 10.6984L113.378 10.8123C113.075 12.0408 112.811 13.2782 112.585 14.5245C112.478 15.1113 112.38 15.6988 112.291 16.2872C112.258 16.5127 112.248 17.4996 112.129 17.8924C111.387 18.3773 111.273 19.6648 112.345 19.8321C113.693 20.0382 114.096 19.0708 114.248 17.9069C114.462 16.3066 114.739 14.716 115.08 13.1352C115.761 10.0065 116.681 6.93441 117.83 3.94563C118.346 2.62661 116.236 2.05926 115.739 3.36131Z" fill="white"/>
<path d="M135.207 10.3637C130.437 10.2925 125.675 9.95244 120.943 9.34531C121.402 7.81615 121.86 6.287 122.315 4.75784L138.415 5.26702C139.819 5.31309 139.817 3.13088 138.415 3.08481L122.061 2.56593C121.854 2.55582 121.65 2.60821 121.474 2.71626C121.237 2.70315 121.003 2.7719 120.811 2.91098C120.619 3.05006 120.481 3.251 120.419 3.48003C119.061 8.01903 117.704 12.558 116.348 17.097C116.305 17.2588 116.3 17.4283 116.333 17.5926C116.365 17.7568 116.435 17.9113 116.537 18.0444C116.638 18.1775 116.769 18.2857 116.918 18.3606C117.068 18.4355 117.233 18.4752 117.401 18.4766L126.348 18.4645H130.584C131.699 18.4645 133.277 18.7725 134.237 18.0887C135.372 17.2813 134.284 15.39 133.137 16.2047C132.792 16.4472 131.924 16.2823 131.527 16.2823H129.408H125.404H118.858C119.343 14.6659 119.828 13.0494 120.313 11.433C125.251 12.0848 130.224 12.4516 135.205 12.5313C136.611 12.5653 136.614 10.3831 135.207 10.3637Z" fill="white"/>
<path d="M145.507 10.3128L145.347 10.3468C145.519 7.47448 145.519 4.59448 145.347 1.7222C145.284 0.725658 143.827 0.131608 143.313 1.17179C140.853 6.14885 138.54 11.1954 136.374 16.3115C135.83 17.5917 137.71 18.7046 138.258 17.4147C138.776 16.1846 139.304 14.9601 139.841 13.7413L142.966 13.0818C142.785 14.9585 142.527 16.8279 142.193 18.6901C142.049 18.7809 141.927 18.9035 141.838 19.0485C141.748 19.1935 141.693 19.357 141.676 19.5266C141.617 20.0484 141.738 20.5749 142.021 21.0178C142.467 21.7937 143.827 21.6967 144.016 20.7583C144.559 18.0656 144.953 15.3451 145.197 12.609L146.099 12.4174C147.459 12.1265 146.88 10.0218 145.507 10.3128ZM143.138 10.8147L140.927 11.2827C141.698 9.57571 142.485 7.87844 143.289 6.19086C143.289 7.73296 143.239 9.27426 143.138 10.8147Z" fill="white"/>
<path d="M156.816 1.88231C154.375 2.05203 151.929 2.11427 149.479 2.06901C148.075 2.04476 148.075 4.22697 149.479 4.25122C150.257 4.26577 151.033 4.26577 151.809 4.25122L149.35 17.9822C149.224 18.3012 149.167 18.6433 149.183 18.986C149.183 20.1813 151.106 20.516 151.327 19.2745L151.424 18.729C151.443 18.6538 151.46 18.5786 151.477 18.5035C151.541 18.3502 151.566 18.1839 151.552 18.0185C152.376 13.4116 153.202 8.80477 154.028 4.19788C154.806 4.16879 155.584 4.13242 156.363 4.0815H156.375L156.816 4.05241C158.208 3.96997 158.225 1.79744 156.816 1.88231Z" fill="white"/>
<path d="M168.234 14.8081C166.09 12.2671 164.032 9.57083 161.753 7.12675C162.711 6.93862 163.655 6.6826 164.577 6.36058C165.697 5.96778 167.841 5.43677 167.729 3.87043C167.644 2.53201 165.79 1.98161 164.735 1.68822C163.53 1.35341 162.273 1.25056 161.03 1.38514C160.47 0.95112 159.587 0.989926 159.403 1.79007C159.249 1.94724 159.148 2.14905 159.116 2.36676C159.083 2.58446 159.12 2.80693 159.221 3.00241C159.1 3.86398 158.978 4.72552 158.855 5.58709C158.739 5.66641 158.64 5.76887 158.566 5.88804C158.491 6.00722 158.442 6.14056 158.421 6.27966C158.4 6.41875 158.409 6.56061 158.445 6.69637C158.482 6.83213 158.546 6.95884 158.634 7.06856C158.172 10.1948 157.682 13.3146 157.165 16.4278C157.117 16.4808 157.075 16.5385 157.039 16.6C156.838 16.9039 156.731 17.2601 156.731 17.6244C156.731 17.9887 156.838 18.3449 157.039 18.6488C157.492 19.3762 158.867 19.3762 159.032 18.387C159.559 15.2769 160.056 12.1628 160.523 9.04468C162.672 11.3918 164.645 13.9498 166.675 16.3696L174.676 25.8622C175.583 26.9364 177.12 25.3773 176.221 24.3177L168.234 14.8081ZM161.34 3.52369C162.028 3.45366 162.723 3.47979 163.404 3.60129C163.944 3.68707 164.476 3.8135 164.997 3.97953C164.269 4.23945 163.529 4.4612 162.778 4.64389C162.233 4.80553 161.683 4.93809 161.127 5.04154C161.202 4.54448 161.277 4.04015 161.348 3.5334L161.34 3.52369Z" fill="white"/>
<path d="M10.6298 5.67935C10.689 5.42685 10.6571 5.16153 10.5395 4.93037C10.4218 4.69921 10.2261 4.51714 9.98715 4.41637C9.74816 4.31561 9.4812 4.30265 9.23358 4.37982C8.98597 4.45699 8.77371 4.6193 8.63428 4.838C6.38927 8.26397 4.35206 11.8217 2.53376 15.492C2.47612 15.5758 2.43041 15.6672 2.39796 15.7636C1.58812 17.4124 0.814707 19.0805 0.092154 20.773C-0.453398 22.0508 1.42573 23.1637 1.97613 21.8738C2.64373 20.3139 3.34843 18.7742 4.09038 17.2548C4.76998 17.2378 5.4471 17.1656 6.11501 17.039C5.71736 19.1403 5.33346 21.2482 4.96329 23.3625C4.77607 23.5578 4.67406 23.8195 4.67962 24.0899C4.67962 24.4076 4.67962 24.7252 4.67962 25.0404C4.67962 26.2309 6.61932 26.5752 6.823 25.3314C7.33865 22.3264 7.88582 19.3287 8.46451 16.3382C8.72616 16.1579 8.90665 15.8821 8.96696 15.5701C9.02728 15.2581 8.9626 14.9349 8.78701 14.6701C9.36893 11.6683 9.98321 8.6714 10.6298 5.67935ZM6.55875 14.6967C6.12598 14.8141 5.6862 14.904 5.2421 14.9659C5.88868 13.7341 6.5531 12.5145 7.23524 11.307C7.01217 12.4369 6.78425 13.5668 6.5636 14.6967H6.55875Z" fill="white"/>
<path d="M24.5814 9.55864C24.9111 7.69891 23.5169 6.18106 21.8705 5.57974C20.2242 4.97842 18.3112 5.00995 16.563 5.4076C16.0102 5.05117 15.1275 5.14817 14.8826 5.96528C14.6945 6.11352 14.5574 6.3168 14.4904 6.54677C14.4235 6.77673 14.4301 7.02187 14.5092 7.24792L10.654 20.5303C10.5784 20.6215 10.5171 20.7237 10.4722 20.8334C10.3094 21.2263 10.234 21.6499 10.2515 22.0748C10.2685 23.3041 12.0481 23.5563 12.3949 22.3634L14.6111 14.7281C14.6256 14.6917 14.6401 14.6553 14.6523 14.6165C14.6183 14.7256 17.0915 14.4541 17.414 14.3886C18.4986 14.1692 19.5556 13.831 20.5661 13.3799C22.2149 12.6501 24.2322 11.5178 24.5814 9.55864ZM22.3409 9.47864C22.0499 10.1575 21.2232 10.5891 20.6146 10.9334C19.0088 11.8089 17.2367 12.3367 15.4136 12.4828L15.2609 12.4973C15.7281 10.8809 16.1977 9.26445 16.6697 7.64799C18.1123 7.2649 19.7005 7.14125 21.1044 7.63346C21.8827 7.88805 22.7288 8.5718 22.3409 9.47378V9.47864Z" fill="white"/>
<path d="M32.5004 8.98886C33.2593 6.6927 31.0965 5.27668 29.2634 4.5905C29.0712 4.50374 28.8543 4.48831 28.6517 4.54696C28.4491 4.60561 28.274 4.73453 28.1578 4.91057C27.5904 4.60264 26.7829 4.73114 26.5987 5.53856C25.9909 8.20247 25.3815 10.8696 24.7705 13.54L23.9121 17.3031C23.6696 18.3651 23.5169 19.5507 23.1847 20.62C22.7652 20.9352 22.7216 21.5899 22.9422 22.0191C22.9592 22.0506 22.9739 22.0821 22.9884 22.1136C23.1368 22.3611 23.3763 22.5406 23.6556 22.6136C23.9348 22.6866 24.2314 22.6472 24.4819 22.504C25.3936 21.9439 25.4179 20.4697 25.6313 19.5289C25.974 18.0402 26.315 16.5514 26.6544 15.0627C26.8468 14.2189 27.0392 13.3759 27.2316 12.5337C29.118 11.9494 31.8603 10.9286 32.5004 8.98886ZM29.5617 9.07372C29.0083 9.42793 28.425 9.73299 27.8183 9.9854L28.5821 6.65147L28.6839 6.69513C29.1349 6.86486 29.7386 7.04913 30.0781 7.42253C30.7546 8.14266 30.243 8.63728 29.5617 9.07615V9.07372Z" fill="white"/>
<path d="M50.8189 20.1012L33.4679 20.5328C35.1975 15.4879 36.9271 10.4429 38.6567 5.39799C39.1149 4.06442 37.0079 3.49464 36.5545 4.81609L30.8759 21.3718C30.648 22.0385 31.2517 22.7708 31.9282 22.7538L50.8189 22.2834C52.2203 22.2471 52.2252 20.0649 50.8189 20.1012Z" fill="white"/>
<path d="M56.6598 4.15178C55.782 9.75116 54.9036 15.3489 54.0242 20.9451C53.8746 21.0723 53.7627 21.2381 53.7007 21.4245C53.6387 21.6109 53.6289 21.8107 53.6726 22.0022C53.726 22.2593 53.7769 22.5163 53.8278 22.7733C54.0339 23.7916 55.7675 23.8401 55.9324 22.7733C56.878 16.7601 57.822 10.7469 58.7644 4.73367C58.9802 3.35888 56.878 2.76729 56.6598 4.15178Z" fill="white"/>
<path d="M70.4586 5.52644C72.83 5.6404 75.5505 6.15201 77.8467 5.40521C79.1754 4.97362 78.6079 2.86659 77.2647 3.30061C76.1857 3.64976 75.0946 3.56732 73.9744 3.51398L69.9906 3.32242L62.2584 2.94658C62.1271 2.93544 61.9948 2.95122 61.8697 2.9929C61.7447 3.03459 61.6294 3.10132 61.531 3.18905C61.3329 3.21048 61.1482 3.29964 61.0082 3.44143C60.8682 3.58323 60.7812 3.76901 60.7623 3.96739L58.0419 20.3315C57.9279 21.025 58.3279 21.7015 59.0941 21.7111C62.6463 21.7548 66.1961 21.6724 69.7409 21.4444C71.3509 21.3402 73.0676 21.3402 74.6509 21.0225C75.7129 20.8068 76.5906 20.1836 76.6124 19.0222C76.6294 17.6183 74.4472 17.6183 74.4302 19.0222C74.4302 18.6924 74.4812 18.9494 74.2048 18.8961C73.8944 18.8921 73.5845 18.923 73.281 18.9882C72.5754 19.0537 71.8674 19.1095 71.1594 19.1628C69.821 19.263 68.4817 19.3439 67.1416 19.4053C64.8867 19.5071 62.631 19.5516 60.3744 19.5386L61.5456 12.5071C61.5847 12.5163 61.6243 12.5228 61.6643 12.5265C66.0902 12.7706 70.5184 12.7964 74.9491 12.6041C76.3458 12.5435 76.3555 10.3613 74.9491 10.4219C70.5993 10.6126 66.2502 10.5908 61.9019 10.3564L62.7675 5.15546L70.4586 5.52644Z" fill="white"/>
<path d="M84.5436 2.76486C84.6624 1.7659 83.4283 1.25915 82.764 1.77803C81.9662 1.86532 81.4522 2.99038 82.0875 3.63777C80.8848 8.4548 79.8462 13.3041 78.9717 18.1858C78.8263 18.3178 78.717 18.4847 78.6541 18.6708C78.6031 18.8086 78.5682 18.9517 78.5499 19.0975C77.4467 19.8031 78.5232 21.5852 79.7331 20.933L80.0071 20.7826C80.1453 20.7722 80.2795 20.7311 80.3999 20.6623C80.5203 20.5935 80.6238 20.4988 80.703 20.385C82.4164 19.4022 84.0566 18.2969 85.6106 17.0777C87.2084 15.8242 88.5202 14.3597 88.5517 12.2284C88.5808 10.2886 87.8873 8.16463 87.1163 6.40916C86.5428 5.0169 85.6635 3.77141 84.5436 2.76486ZM86.3743 12.2211C86.3258 13.9911 84.7158 15.0725 83.4259 16.0279C82.7373 16.5346 82.0317 17.0123 81.3115 17.4827C82.0729 13.3866 82.9466 9.31555 83.9326 5.26957C84.4424 5.91168 84.8617 6.62061 85.1789 7.3766C85.7948 8.80231 86.418 10.6426 86.3743 12.2187V12.2211Z" fill="white"/>
</g>
<defs>
<clipPath id="clip0_319_379">
<rect width="184.685" height="25.624" fill="white" transform="translate(0 0.592285)"/>
</clipPath>
</defs>
</svg>
