<svg width="154" height="36" viewBox="0 0 154 36" fill="none" xmlns="http://www.w3.org/2000/svg">
<path d="M109.619 5.04453C108.794 4.6403 107.863 4.8612 107.034 5.32184C106.564 4.96226 105.859 4.9341 105.506 5.59685C105.012 6.52688 104.568 7.48238 104.176 8.45937C103.72 9.39827 103.387 10.392 103.184 11.4159C103.168 11.477 103.149 11.5358 103.135 11.5946C102.665 13.3525 102.112 15.4982 102.472 17.3172C102.799 18.9624 104.291 20.5135 106.091 20.0811C107.809 19.6674 108.853 17.8132 109.436 16.2996C110.181 14.3272 110.662 12.2645 110.865 10.1656C111.015 8.66854 111.29 5.86005 109.619 5.04453ZM108.82 9.09156C108.797 9.86694 108.714 10.6394 108.571 11.4018C108.339 12.6991 108.011 13.9772 107.588 15.2256C107.328 15.9847 106.55 18.0811 105.487 18.0458C104.011 17.9965 104.564 15.1927 104.7 14.3889C104.997 12.6376 105.478 10.9226 106.136 9.27253C106.19 9.16912 106.244 9.0657 106.305 8.96464C106.54 8.58626 108.077 6.49225 108.693 7.0986C108.98 7.38062 108.829 8.67558 108.82 9.09156Z" fill="white"/>
<path d="M62.9561 6.01519C61.2028 9.2185 60.5448 12.9412 58.5565 16.0176C58.5142 16.081 58.3568 16.2714 58.1852 16.4876C58.2871 15.3454 58.439 14.2111 58.6412 13.0845C59.0324 10.9586 59.5823 8.86505 60.2863 6.82129C60.7258 5.53103 58.6834 4.97635 58.2463 6.25956C57.3293 8.93915 56.6768 11.7021 56.298 14.5088C56.1123 15.893 55.3109 20.5887 58.2769 19.3572C59.1981 18.9765 59.8679 17.8954 60.392 17.0893C61.0115 16.0916 61.5393 15.04 61.969 13.9471C62.9091 11.658 63.5977 9.26781 64.7892 7.08683C65.4355 5.88823 63.6094 4.81894 62.9561 6.01519Z" fill="white"/>
<path d="M52.3802 7.88126C50.1287 6.63095 47.6116 5.98231 45.1087 5.42061C44.9292 5.23647 44.6957 5.11437 44.4421 5.0721C44.1885 5.02983 43.928 5.0696 43.6986 5.18559C43.5403 5.21642 43.3903 5.28039 43.2586 5.37333C43.1268 5.46628 43.0162 5.58607 42.9341 5.72483C42.8519 5.86358 42.8001 6.01817 42.782 6.1784C42.7639 6.33862 42.7799 6.50087 42.829 6.65446C41.4874 10.0619 40.361 13.5501 39.4564 17.0987C39.2591 17.0738 39.0588 17.1046 38.8781 17.1876C38.6974 17.2707 38.5436 17.4027 38.4341 17.5687L37.9476 18.2738C37.3765 19.0893 38.319 19.9942 39.1439 19.8273C42.0977 19.2344 44.9956 18.3915 47.8067 17.3079C50.1733 16.3866 52.9912 15.1927 54.587 13.1198C56.1828 11.047 54.2086 8.89654 52.3802 7.88126ZM52.5847 12.1492C52.1869 12.5602 51.7383 12.9187 51.2498 13.2162C48.453 15.1222 45.0123 16.2714 41.6351 17.0822C42.4878 13.8327 43.5252 10.6343 44.742 7.50285C46.5446 7.90473 48.3472 8.35361 50.0417 9.08217C50.9254 9.4629 52.0089 9.92825 52.6434 10.6803C53.1416 11.282 53.0782 11.571 52.5847 12.1492Z" fill="white"/>
<path d="M37.6516 8.40067C36.2414 7.18092 34.0605 6.72029 32.3002 6.35131C30.1284 5.89724 27.9076 5.72192 25.6915 5.82958C24.3354 5.89303 24.3283 8.00821 25.6915 7.94475L26.2884 7.92358C24.6926 9.3901 23.3577 11.1433 22.7842 13.2538C22.427 14.577 22.2625 16.2668 23.078 17.456C23.9499 18.7227 25.7008 18.9554 27.125 19.0165C30.319 19.1504 33.8983 17.966 36.3401 15.8908C38.3825 14.154 40.1075 10.5346 37.6516 8.40067ZM35.9054 13.2844C35.0711 14.4289 33.809 15.2209 32.5305 15.785C31.0871 16.4334 29.5369 16.811 27.957 16.899C27.1368 16.9319 26.2296 16.9248 25.4517 16.6381C24.6362 16.3396 24.5728 15.684 24.6315 14.8919C24.8501 11.9706 27.2308 9.65567 29.4799 8.03638C30.0181 8.09279 30.5563 8.16564 31.0922 8.2714C32.6386 8.55342 34.4765 8.88718 35.8396 9.7121C37.2544 10.5582 36.728 12.1563 35.9054 13.2844Z" fill="white"/>
<path d="M81.1348 4.30209C77.2617 4.58881 73.8915 6.55591 71.0455 9.10352C68.3733 11.496 65.6142 14.7299 64.5237 18.2129C63.4708 21.5854 65.3086 24.4667 68.754 25.0731C70.5989 25.3974 72.5143 25.2258 74.3545 25.0167C76.5521 24.7649 78.7286 24.3541 80.8669 23.7875C82.1806 23.4373 81.6237 21.3974 80.3052 21.7476C77.1042 22.596 73.6683 23.2658 70.3427 23.1271C69.1512 23.0778 67.7128 22.8662 66.8903 21.9074C65.835 20.6759 66.4203 18.8944 67.0478 17.6065C68.4062 14.8286 70.5237 12.3468 72.848 10.3327C75.1724 8.31855 77.9997 6.64993 81.1395 6.41726C82.4815 6.31855 82.4956 4.20103 81.1348 4.30209Z" fill="white"/>
<path d="M138.811 3.70022C136.745 9.54674 135.145 15.5475 134.026 21.6463C127.626 16.6945 121.222 11.4253 117.3 4.21725C116.649 3.021 114.82 4.088 115.473 5.28425C115.509 5.35005 115.544 5.41117 115.582 5.47698C114.363 9.90474 113.144 14.3317 111.927 18.7579C111.79 18.9023 111.701 19.0867 111.676 19.2844L111.535 20.1868C111.33 21.4982 113.206 22.0952 113.575 20.7485C114.746 16.4853 115.922 12.2228 117.1 7.96115C121.521 14.6028 127.948 19.611 134.23 24.4477C134.743 24.8426 135.678 24.436 135.784 23.8155C136.913 17.1644 138.612 10.6225 140.86 4.26189C141.304 2.97633 139.262 2.42406 138.811 3.70022Z" fill="white"/>
<path d="M153.779 2.46882C152.188 0.304291 148.9 -0.102319 147.114 2.08806C144.855 4.85424 146.592 8.76496 147.469 11.7239C148.014 13.5617 148.684 15.4066 149.076 17.2821C149.419 18.9272 149.163 20.4878 147.918 21.684C145.607 23.9049 141.868 22.7134 140.996 19.7028C140.58 18.2668 138.334 18.8779 138.752 20.3209C139.567 23.1411 142.242 25.2821 145.224 25.2093C148.045 25.1411 150.63 23.0283 151.358 20.3138C151.793 18.6851 151.452 17.0236 150.999 15.4466C150.458 13.5664 149.882 11.6863 149.323 9.792C148.837 8.14687 147.944 6.15865 148.472 4.43125C148.902 3.02114 150.757 2.27141 151.763 3.64862C152.646 4.83782 154.667 3.67682 153.779 2.46882Z" fill="white"/>
<path d="M93.5554 3.2469C90.7041 3.55818 87.8347 3.67125 84.9678 3.58532C83.4707 3.54066 83.4707 5.86733 84.9678 5.91198C85.9392 5.94019 86.9082 5.94569 87.8749 5.92845C86.5353 11.9661 86.3356 18.1706 85.647 24.3022C85.5917 24.44 85.5607 24.5863 85.5553 24.7347C85.5553 24.8593 85.5553 24.9815 85.5553 25.1013C85.5553 25.1013 85.5553 25.1225 85.5553 25.1319C85.5601 25.236 85.5719 25.3396 85.5906 25.4421C85.8655 26.8522 87.7339 26.3258 87.8773 25.1342C88.6505 18.7017 88.7703 12.173 90.2745 5.84623C91.3712 5.78512 92.4641 5.695 93.553 5.57592C95.029 5.40671 95.0454 3.08709 93.5554 3.2469Z" fill="white"/>
<path d="M11.4867 6.55109C11.5407 5.84118 11.3885 5.13076 11.0482 4.50535C10.708 3.87993 10.1943 3.36615 9.56897 3.0258C8.21996 2.28549 6.69465 2.42179 5.25399 2.77432C4.72519 2.01285 3.37384 1.91412 3.20698 3.03986L0.0200996 23.7451C-0.21492 25.2093 2.03657 25.8414 2.26219 24.3632L4.04601 12.7814C4.26085 12.7926 4.47463 12.7447 4.66408 12.6428C7.38326 11.2421 11.2564 10.2503 11.4867 6.55109ZM8.73464 7.60633C7.79456 8.97414 5.99666 9.54994 4.44553 10.1915C4.70249 8.52604 4.95945 6.85817 5.2164 5.18797H5.24228C6.24581 4.90125 7.57837 4.4829 8.53255 5.1151C9.42093 5.705 9.27048 6.83546 8.73464 7.60633Z" fill="white"/>
<path d="M16.4246 10.7132C18.4199 9.82722 20.4364 8.61215 20.481 6.52518C20.5069 5.16912 19.6444 4.02695 18.4599 3.4347C17.3812 2.89415 16.1896 2.92469 15.0309 3.1221C14.5116 2.36534 13.1649 2.26661 12.9745 3.39C11.7211 10.7085 10.4677 18.0278 9.21422 25.3479C8.96275 26.8121 11.2048 27.4395 11.4587 25.966L13.8841 11.7755C14.0016 11.7215 14.1191 11.6697 14.253 11.6157C18.7497 19.5076 23.5723 27.2006 28.7208 34.6946C29.5622 35.9214 31.581 34.7581 30.7279 33.5195C25.6452 26.1211 20.8774 18.519 16.4246 10.7132ZM17.2613 5.43936C18.2131 5.81304 18.3894 6.61449 17.635 7.28899C16.9299 7.9212 15.9898 8.39122 15.0286 8.8025C14.8245 8.73676 14.6056 8.73185 14.3988 8.78839C14.5868 7.69163 14.7756 6.59487 14.9651 5.49812C15.7195 5.31245 16.5492 5.17144 17.2613 5.43936Z" fill="white"/>
<path d="M97.3391 3.86254C96.869 11.0808 96.327 18.288 95.7128 25.4843C95.5859 26.9767 97.9125 26.9673 98.0394 25.4843C98.6521 18.2771 99.1942 11.0698 99.6658 3.86254C99.7645 2.36782 97.4354 2.37487 97.3391 3.86254Z" fill="white"/>
</svg>
