<svg width="116" height="24" viewBox="0 0 116 24" fill="none" xmlns="http://www.w3.org/2000/svg">
<g clip-path="url(#clip0_319_369)">
<path d="M17.9934 4.53928C18.1609 4.36708 18.2682 4.14535 18.2992 3.90718C18.3303 3.66901 18.2833 3.42719 18.1656 3.21784C18.0512 3.00807 17.88 2.83485 17.6715 2.71817C17.463 2.60148 17.2258 2.54607 16.9872 2.55831C16.8073 2.56242 16.6308 2.60839 16.4717 2.69256C16.3126 2.77673 16.1754 2.8968 16.0707 3.04324C15.6464 3.04324 15.0039 3.02627 14.8584 3.04324L12.9525 3.15722L8.90573 3.39969L1.04744 3.88463C-0.349175 3.96949 -0.358874 6.1517 1.04744 6.06684L7.56494 5.67404C5.76906 10.664 4.21161 15.73 2.89258 20.8719C2.65012 21.8563 3.98854 22.8116 4.71595 21.9315C4.80566 21.8272 4.89291 21.7205 4.9802 21.6139C5.0969 21.4814 5.17986 21.3228 5.22207 21.1514C5.26429 20.98 5.26451 20.8009 5.22266 20.6294C6.55947 15.5263 8.13152 10.4935 9.93871 5.53096H10.106L14.3904 5.27396C15.4936 5.18425 17.1836 5.43883 17.9934 4.53928Z" fill="white"/>
<path d="M25.5318 4.23136C26.9285 4.14892 26.9382 1.96671 25.5318 2.04915L21.0559 2.30618C20.886 2.3138 20.7201 2.36023 20.571 2.44195C20.4154 2.49684 20.2754 2.5886 20.1631 2.70937C20.0508 2.83014 19.9695 2.97631 19.926 3.1354C18.1479 8.82854 16.364 14.5217 14.5746 20.2148C14.4146 20.7264 14.7662 21.4757 15.336 21.5581C17.5894 21.8892 19.8709 21.9883 22.1445 21.8539C23.5387 21.7642 23.5508 19.582 22.1445 19.6717C20.4478 19.7828 18.7449 19.7552 17.0527 19.5893C17.6071 17.8112 18.1616 16.0395 18.716 14.2744C20.6633 14.3802 22.6162 14.2269 24.5231 13.8185C25.8979 13.5324 25.316 11.4278 23.9436 11.7163C22.4473 12.0266 20.92 12.1617 19.3925 12.1188C20.2007 9.56 21.0017 7.00196 21.7954 4.44473L25.5318 4.23136Z" fill="white"/>
<path d="M35.0608 14.2066C35.8416 10.2592 36.6231 6.31183 37.4055 2.36446C37.6334 1.21032 36.0283 0.37378 35.41 1.52308L25.6724 19.6233C25.0056 20.8599 26.8848 21.9631 27.5564 20.7241L29.3774 17.3296C29.5865 17.4119 29.8159 17.428 30.0345 17.3756L32.3136 16.8713L31.3972 21.5C31.3415 21.6178 31.3055 21.7439 31.2905 21.8734C31.2638 22.0892 31.2395 22.305 31.2128 22.5208C31.0674 23.7331 33.1187 24.012 33.3563 22.8117C33.7815 20.6586 34.2074 18.5063 34.6341 16.3548L35.0245 16.27C36.1665 16.0251 35.9531 14.5266 35.0608 14.2066ZM30.6261 15.0213L33.8776 8.97656C33.5091 10.8339 33.1412 12.6928 32.7743 14.5533L30.6261 15.0213Z" fill="white"/>
<path d="M53.4689 1.37496C49.4731 1.67077 45.9961 3.70023 43.0599 6.32858C40.303 8.7969 37.4564 12.1333 36.3314 15.7242C35.2451 19.206 37.1412 22.1787 40.6958 22.8042C42.5992 23.1388 44.5752 22.9618 46.4737 22.7436C48.7414 22.4862 50.987 22.0623 53.1925 21.4755C54.5479 21.1167 53.9733 19.0121 52.6131 19.3734C49.3107 20.2487 45.7657 20.9373 42.3348 20.7966C41.1055 20.7457 39.6216 20.5251 38.773 19.5382C37.6843 18.2677 38.288 16.4298 38.9354 15.101C40.3369 12.2351 42.5216 9.67462 44.9196 7.58455C47.3176 5.49448 50.2344 3.7851 53.4738 3.54506C54.8607 3.45292 54.8728 1.2707 53.4689 1.37496Z" fill="white"/>
<path d="M62.9566 2.4637L61.9867 9.89049L59.4311 10.213C59.9273 7.37773 60.506 4.55864 61.1672 1.75571C61.4897 0.390621 59.3851 -0.184031 59.0626 1.17621C57.585 7.44807 56.5103 13.8081 55.8451 20.2172C55.7196 20.3452 55.6309 20.5046 55.5883 20.6786C55.5456 20.8527 55.5506 21.035 55.6026 21.2065L55.748 21.7569C56.0802 23.0129 57.78 22.6394 57.8915 21.4659C58.1825 18.4447 58.5687 15.4365 59.0504 12.4413L61.6933 12.1091L60.7623 19.3589C60.6639 19.4586 60.5906 19.5804 60.5485 19.714C60.5063 19.8476 60.4965 19.9893 60.5198 20.1275L60.5853 20.6827C60.7526 22.0915 62.5881 22.0793 62.7675 20.6827C63.5563 14.6113 64.3427 8.53994 65.1267 2.46855C65.3207 1.07679 63.136 1.08891 62.9566 2.4637Z" fill="white"/>
<path d="M71.3243 2.163C71.6662 0.800333 69.5616 0.223283 69.2197 1.5811C67.6404 7.88526 66.2931 14.2314 65.1778 20.6196C64.9353 21.9872 67.0206 22.5861 67.2824 21.1991C67.3334 20.9373 67.3818 20.6754 67.4327 20.4111C67.4418 20.3623 67.4475 20.3129 67.4497 20.2632C68.5311 14.187 69.8227 8.15357 71.3243 2.163Z" fill="white"/>
<path d="M98.6747 1.57385C96.5448 7.60523 94.8942 13.7952 93.738 20.0863C87.1357 14.9775 80.5309 9.54133 76.4816 2.10484C75.81 0.870684 73.926 1.9715 74.5977 3.20566C74.634 3.27355 74.6728 3.33658 74.7092 3.40447L70.9461 17.1112C70.8025 17.258 70.7113 17.448 70.6867 17.6519L70.5412 18.583C70.3302 19.9359 72.2626 20.5518 72.6457 19.1624C73.8565 14.7641 75.0688 10.3665 76.2827 5.96979C80.8411 12.8219 87.4751 17.9889 93.9562 22.9789C94.4848 23.3862 95.4498 22.9789 95.5589 22.3266C96.713 15.4618 98.4564 8.70922 100.77 2.14365C101.255 0.827048 99.1402 0.257255 98.6747 1.57385Z" fill="white"/>
<path d="M115.803 7.8078C115.16 5.9214 113.031 6.81368 111.681 7.2283C109.46 7.90823 107.275 8.69968 105.134 9.59964C103.856 10.1331 104.407 12.245 105.713 11.7043C107.142 11.1046 108.588 10.5517 110.051 10.0458C110.536 9.88412 111.025 9.72248 111.518 9.56083L106.24 14.3496C104.974 15.4989 103.737 16.6942 102.433 17.7999C101.948 18.2121 101.026 19.0316 100.408 18.457C99.9233 17.9963 100.321 16.944 100.471 16.3645C101.181 13.6961 102.388 11.1861 104.031 8.9668C104.827 7.89632 105.72 6.90125 106.698 5.99414C107.612 5.13581 109.052 3.61068 110.335 3.40943C111.719 3.19121 111.13 1.08903 109.755 1.30483C108.155 1.54729 106.441 3.24456 105.279 4.32354C104.032 5.48422 102.908 6.77226 101.928 8.16664C100.877 9.66263 99.9996 11.2743 99.3147 12.9699C98.7013 14.4708 98.0126 16.2311 98.0029 17.8775C98.0029 19.4269 99.0214 20.741 100.627 20.8259C102.586 20.9277 103.994 19.3299 105.318 18.1272L115.526 8.86495C115.663 8.72973 115.761 8.56024 115.809 8.37425C115.858 8.18825 115.855 7.9926 115.803 7.8078Z" fill="white"/>
</g>
<defs>
<clipPath id="clip0_319_369">
<rect width="115.858" height="23.1969" fill="white" transform="translate(0 0.395508)"/>
</clipPath>
</defs>
</svg>
