<svg width="93" height="31" viewBox="0 0 93 31" fill="none" xmlns="http://www.w3.org/2000/svg">
<path d="M10.1568 1.44023C9.06812 0.503534 7.44325 0.554889 6.22925 1.21017C4.81188 1.97842 3.8732 3.48618 3.12344 4.86041C2.26745 6.42512 1.63207 8.10078 1.23558 9.83969C0.537161 12.9209 0.231124 17.0785 1.98743 19.8804C2.74336 21.0883 3.94505 22.0434 5.3809 22.2448C7.16597 22.4933 8.76407 21.5587 10.1753 20.5829C11.1448 19.9092 10.2226 18.3049 9.24067 18.9869C8.25879 19.6688 7.10225 20.5172 5.85332 20.4433C4.70299 20.3734 3.8198 19.4901 3.33296 18.5062C2.26275 16.3329 2.44136 13.3338 2.87479 11.0208C3.30512 8.67158 4.21034 6.43485 5.53497 4.44752C6.15121 3.54369 7.08174 2.42418 8.30397 2.58645C9.52619 2.74873 9.57753 4.22978 9.56725 5.21577C9.55493 6.40513 11.4037 6.40513 11.416 5.21577C11.4304 3.86003 11.2435 2.37693 10.1568 1.44023Z" fill="#8B88F4"/>
<path d="M34.0446 15.4086L34.8663 15.3552C36.0495 15.2792 36.0577 13.4305 34.8663 13.5065L32.502 13.6605C32.0624 13.1532 31.6249 12.6458 31.1935 12.1302C28.7552 9.21739 25.8691 6.07042 25.1049 2.2312C24.9427 1.40954 23.8108 1.37872 23.4164 2.00935C19.7723 7.82262 16.1297 13.6359 12.4883 19.4492C11.8536 20.4598 13.4538 21.3903 14.0844 20.3838L16.65 16.2755C16.7339 16.3528 16.8335 16.4112 16.942 16.4466C17.0504 16.4821 17.1652 16.4938 17.2786 16.4809L31.7132 15.5463C33.8262 17.9428 36.0407 20.2475 38.3564 22.4606C39.215 23.2822 40.5235 21.9778 39.6628 21.1541C37.7196 19.3095 35.8468 17.3943 34.0446 15.4086ZM17.6853 14.6178C19.7545 11.3147 21.8244 8.0116 23.895 4.70852C25.0659 7.75689 27.344 10.3698 29.3899 12.8491C29.6549 13.1696 29.924 13.488 30.1931 13.8064L17.6853 14.6178Z" fill="#8B88F4"/>
<path d="M49.2127 16.7335C49.1387 12.124 49.0641 7.51515 48.9888 2.90699C48.9724 1.85526 47.4831 1.67449 47.173 2.66048C46.506 4.81187 45.8377 6.9619 45.168 9.11055L44.1985 12.239C44.1575 12.3684 44.1184 12.504 44.0794 12.6499C43.5015 9.51932 42.8325 6.40795 42.0725 3.31576C41.8034 2.21884 40.3819 2.60092 40.2566 3.56226L38.5865 16.524C38.4345 17.701 40.2832 17.6908 40.4353 16.524C40.7667 13.9454 41.0988 11.3667 41.4315 8.78804C41.941 11.1777 42.3949 13.5742 42.7934 15.9776C42.9023 16.6431 43.9129 16.8896 44.3382 16.3884C45.7083 14.7595 46.0924 12.3746 46.7087 10.3882C46.884 9.82539 47.0593 9.26187 47.2345 8.69766L47.3927 18.4755C47.3927 19.0465 47.9802 19.5662 48.5615 19.367C49.3832 19.0896 49.8823 18.4713 49.8638 17.586C49.8674 17.3913 49.8051 17.201 49.6869 17.0463C49.5687 16.8915 49.4015 16.7813 49.2127 16.7335Z" fill="#8B88F4"/>
<path d="M70.5593 14.7062C70.3726 14.657 70.1751 14.6672 69.9944 14.7353C69.8137 14.8034 69.6587 14.926 69.5508 15.0862C69.2529 15.0698 68.838 15.0533 68.8442 15.0533L67.8171 15.0698L65.5575 15.1047L61.2602 15.1704L53.4298 15.2916C53.4955 13.9222 53.564 12.5527 53.6352 11.1833C58.3525 11.1741 63.0629 10.8205 67.7287 10.1254C68.7722 9.97135 68.5031 8.29721 67.4822 8.30953L66.2806 8.32391C66.0574 8.32217 65.842 8.40597 65.6787 8.55809C61.7148 9.07034 57.7224 9.32969 53.7256 9.33457C53.8036 7.69124 53.8831 6.04379 53.9639 4.39225L67.2871 4.12727C68.4744 4.10467 68.4785 2.25593 67.2871 2.27853L52.2034 2.57844C51.0469 2.60103 51.0161 4.34707 52.1151 4.42718L51.542 16.2468C51.5436 16.4915 51.6415 16.7256 51.8145 16.8986C51.9875 17.0717 52.2217 17.1696 52.4664 17.1712L62.2893 17.0192L67.2009 16.9452C68.3779 16.9267 70.2142 17.2759 71.1489 16.4378C71.2665 16.3236 71.3507 16.1795 71.3927 16.021C71.4347 15.8625 71.4328 15.6956 71.3872 15.5381C71.337 15.3377 71.2335 15.1546 71.0878 15.0082C70.9421 14.8617 70.7595 14.7574 70.5593 14.7062Z" fill="#8B88F4"/>
<path d="M90.1581 28.4341C89.9157 28.0993 89.6404 27.5816 89.5603 27.4666C89.2686 27.0434 88.977 26.6203 88.6853 26.193C88.069 25.2892 87.4597 24.3805 86.8571 23.4671C85.6137 21.5869 84.401 19.6882 83.2192 17.7709C81.0555 14.2638 78.9945 10.6992 77.0362 7.07699C77.8692 6.61705 78.6567 6.0792 79.3882 5.47064C80.1441 4.84207 81.2492 3.97933 81.1876 2.87625C81.0705 0.772792 77.8455 0.641314 75.9947 0.746076C75.4935 0.35784 74.5013 0.592023 74.4273 1.44861C74.0042 6.40324 73.442 11.3428 72.7409 16.2673C72.5786 17.4094 74.2569 17.9497 74.5239 16.7603C74.6739 16.0948 74.8218 15.4313 74.9718 14.7657C75.0276 14.5458 74.9974 14.313 74.8875 14.1145C75.145 12.1809 75.3819 10.2459 75.5983 8.30949C77.6661 12.1097 79.8435 15.8476 82.1304 19.5231C83.3629 21.491 84.6201 23.4384 85.9019 25.3652C86.5798 26.384 87.2645 27.396 87.9561 28.4012C88.4696 29.1428 88.9832 30.3403 89.963 30.5108C90.1596 30.5569 90.3655 30.5407 90.5525 30.4645C90.7394 30.3883 90.8981 30.2559 91.0064 30.0856C91.1511 29.8686 91.2102 29.6057 91.1722 29.3477C91.1343 29.0897 91.002 28.8549 90.801 28.6888C90.6249 28.5284 90.3963 28.4378 90.1581 28.4341ZM76.1734 2.59072C76.6592 2.56848 77.1461 2.58221 77.6298 2.6318C78.0592 2.6811 78.4659 2.78791 78.889 2.86597C79.4149 2.96457 79.345 2.96046 78.9896 3.33227C78.0846 4.24812 77.0372 5.01121 75.8879 5.59184C75.9879 4.59352 76.083 3.59315 76.1734 2.59072Z" fill="#8B88F4"/>
<path d="M92.9517 15.3737C92.9243 15.252 92.8687 15.1385 92.7896 15.0422C92.7104 14.9459 92.6097 14.8695 92.4957 14.819C90.817 10.8012 89.6947 6.57309 89.1598 2.25169C89.0447 1.32732 87.5165 0.875407 87.3439 2.00725C86.6645 6.23269 85.6568 10.3988 84.3304 14.4678C83.9606 15.6017 85.7457 16.0885 86.1134 14.9587C86.3332 14.285 86.5387 13.6091 86.742 12.9313H89.8109C90.2135 14.0761 90.658 15.2093 91.1441 16.3309C91.2239 16.4716 91.3398 16.5883 91.48 16.6688C91.6202 16.7494 91.7794 16.7909 91.9411 16.789H92.0458C92.2474 16.785 92.4425 16.717 92.6028 16.5947C92.7631 16.4725 92.8803 16.3024 92.9374 16.1091C93.0157 15.8709 93.0206 15.6147 92.9517 15.3737ZM87.2679 11.0825C87.6062 9.8377 87.9163 8.58673 88.1984 7.32958C88.486 8.5922 88.8201 9.84318 89.2008 11.0825H87.2679Z" fill="#8B88F4"/>
</svg>
