<svg width="161" height="40" viewBox="0 0 161 40" fill="none" xmlns="http://www.w3.org/2000/svg">
<path d="M4.76584 3.80118L2.72417 13.0179L1.74719 17.4164C1.47581 18.6377 1.05621 19.9215 0.970617 21.1741C0.697144 21.4663 0.567687 21.8964 0.839073 22.2617C1.63027 23.3305 2.77844 22.7565 2.82646 21.5644C2.9037 19.646 3.63229 17.5813 4.04772 15.7088L6.5779 4.28758C6.83885 3.12271 5.02887 2.6196 4.76584 3.80118Z" fill="#2B948D"/>
<path d="M20.6878 3.29611C16.9134 7.96605 14.972 13.6652 12.1516 18.8883L11.6256 4.82214C11.588 3.77835 10.0766 3.52992 9.7823 4.57372C8.14146 10.3883 6.71558 16.2565 5.50478 22.1783C5.26471 23.3599 7.07469 23.8651 7.31685 22.6794C8.11152 18.7923 9.00014 14.9261 9.9827 11.0807L10.4002 22.1449C10.4054 22.3485 10.4761 22.545 10.6018 22.7051C10.7276 22.8652 10.9017 22.9805 11.0983 23.0338C11.2948 23.087 11.5033 23.0754 11.6927 23.0006C11.8821 22.9258 12.0424 22.792 12.1496 22.6188C15.0722 18.0679 16.8362 12.8239 19.5876 8.1748C18.7697 12.9823 18.3196 17.8452 18.2411 22.7211C18.2265 22.7932 18.2196 22.8667 18.2203 22.9403C18.2203 23.172 18.2203 23.4038 18.2203 23.6355C18.237 24.8442 20.0991 24.8463 20.0991 23.6355C20.1388 17.1064 20.8615 10.5995 22.2556 4.22091C22.4414 3.37962 21.3245 2.50909 20.6878 3.29611Z" fill="#2B948D"/>
<path d="M26.5706 3.92428C25.7752 4.08085 25.7356 4.9472 26.1531 5.43152C25.7077 8.15512 25.3493 10.8906 25.0779 13.6378C24.9904 13.6811 24.9096 13.7366 24.8378 13.8027L23.6125 14.9217C22.7587 15.7024 23.8463 16.7838 24.7523 16.3976L24.8337 16.3621C24.6945 18.1811 24.5901 20.0029 24.5205 21.8274C24.3851 21.9955 24.3201 22.2095 24.339 22.4245C24.3766 23.0883 24.4162 23.7501 24.4538 24.4139C24.5227 25.6143 26.3138 25.6331 26.3326 24.4139C26.3757 21.4398 26.5253 18.4706 26.7814 15.5062C29.3157 14.3664 31.8062 13.1326 34.2529 11.8049C35.7977 10.9699 37.3216 10.091 38.8247 9.1683C39.9248 8.49818 41.5866 7.79049 42.1252 6.52541C44.4319 1.13318 28.6874 3.50885 26.5706 3.92428ZM40.3027 5.93254C40.0605 6.40225 39.1483 6.76757 38.7183 7.03479C34.9417 9.37762 31.0258 11.4879 26.9923 13.3539C27.2567 10.7486 27.6047 8.15164 28.0361 5.56304C30.5568 5.12499 33.1119 4.91539 35.6704 4.93676C36.9229 4.9472 38.3279 4.87622 39.5408 5.19145C39.9624 5.30835 40.5574 5.43987 40.3027 5.93463V5.93254Z" fill="#2B948D"/>
<path d="M54.2353 36.6413C51.8945 28.2436 49.6197 19.8285 47.411 11.3961C48.1862 11.0928 48.945 10.7493 49.6843 10.3669C50.7281 9.82203 52.0621 9.18114 52.3022 7.90145C52.7782 5.3546 49.6948 5.37547 47.434 5.62598L47.4465 5.56753C47.7409 4.39431 45.9288 3.89746 45.6344 5.0686C45.5635 5.35668 45.4925 5.64477 45.4257 5.93286C44.7848 6.22303 44.6575 7.12069 45.0604 7.52986C44.8265 8.58061 44.613 9.63345 44.4195 10.6884C44.3252 10.8655 44.288 11.0675 44.313 11.2666C43.908 13.5379 43.5893 15.8224 43.3569 18.1202C43.3259 18.1911 43.3036 18.2653 43.2901 18.3415C43.0802 19.4769 43.0011 20.6326 43.0542 21.786C43.1168 22.9968 44.8579 22.9926 44.933 21.786C45.114 18.8634 45.4403 15.9595 45.9121 13.0745C48.2043 21.8006 50.5654 30.5072 52.9953 39.1944C53.2813 40.2131 54.8386 40.0148 54.8407 38.946V37.4951C54.8492 37.3057 54.7943 37.1189 54.6847 36.9642C54.575 36.8095 54.4169 36.6959 54.2353 36.6413ZM48.8264 7.49229C49.2147 7.49229 49.6072 7.48185 49.9954 7.49229C50.747 7.51525 50.3858 7.72192 49.9474 8.06011C49.0331 8.76571 47.8598 9.27926 46.7117 9.6926C46.6552 9.65965 46.5948 9.63371 46.5321 9.61536C46.6698 8.93898 46.814 8.26678 46.9643 7.59458C47.5843 7.54239 48.2043 7.50272 48.8264 7.49229Z" fill="#2B948D"/>
<path d="M59.3855 5.28334C58.1705 4.4838 56.5296 4.4838 55.4858 5.55682C54.9472 6.11003 55.2958 6.85321 55.8386 7.09119C54.44 9.55971 53.5319 12.2754 53.1644 15.0887C52.9383 16.7765 52.9167 18.4853 53.0998 20.1783C53.248 21.4914 53.3774 23.0842 54.2876 24.128C55.2228 25.2052 56.73 25.2929 57.9158 24.5685C59.2727 23.7334 59.7696 22.0801 60.185 20.6459C61.2142 17.097 61.6776 13.2934 61.3332 9.60047C61.185 8.02226 60.8071 6.22276 59.3855 5.28334ZM59.4898 13.9802C59.3663 15.6856 59.0932 17.3768 58.6736 19.0343C58.3813 20.2012 58.0285 22.6458 56.6716 23.1009C54.4086 23.8629 54.8512 16.7358 54.9868 15.5543C55.3656 12.4177 56.4769 9.41413 58.231 6.78641C58.8259 7.28116 59.2581 8.32704 59.3583 8.87399C59.659 10.5274 59.6047 12.3081 59.4898 13.9802Z" fill="#2B948D"/>
<path d="M73.4744 3.28171C71.9171 7.8744 70.5289 12.5235 69.3097 17.2289C68.3091 13.2555 67.3098 9.28213 66.3119 5.30875C66.0155 4.13762 64.2035 4.63238 64.4999 5.80769C65.7998 10.9835 67.1018 16.1593 68.4058 21.3352C68.6292 22.2224 70.0007 22.237 70.2157 21.3352C71.6422 15.4092 73.3325 9.55769 75.2865 3.78064C75.6748 2.63247 73.8606 2.1398 73.4744 3.28171Z" fill="#2B948D"/>
<path d="M78.2615 3.77411C77.1094 9.8157 76.5827 15.9599 76.6895 22.1094C76.7104 23.3431 78.441 23.2868 78.5684 22.1094L78.7771 20.1157C78.7969 19.9946 78.7872 19.8706 78.7491 19.754C78.711 19.6374 78.6454 19.5316 78.5579 19.4456C78.6161 14.3506 79.1234 9.27066 80.0735 4.26469C80.299 3.09147 78.4869 2.59462 78.2615 3.77411Z" fill="#2B948D"/>
<path d="M91.7806 3.6655C90.789 3.13943 89.5136 3.14361 88.4719 3.50893C85.8269 4.43791 85.0899 7.26659 85.8268 9.77169C86.2966 11.3603 87.2527 12.7277 87.9479 14.2141C88.6888 15.7739 89.1064 17.4675 89.1753 19.193C89.215 20.6188 88.7453 22.0613 87.0878 21.9924C86.0085 21.9465 83.7038 20.7837 84.4282 19.3788C84.9814 18.3057 83.3615 17.3538 82.8062 18.431C81.5348 20.8964 83.9585 23.3473 86.3071 23.7815C89.1378 24.3055 91.0291 22.2659 91.0625 19.527C91.0566 17.9483 90.7806 16.3823 90.2464 14.8967C89.6681 13.2433 88.6973 11.805 87.9917 10.2143C87.4197 8.92413 86.9918 7.10584 88.0627 5.94097C88.5127 5.47576 89.1168 5.19072 89.762 5.13934C90.0187 5.11846 91.5531 5.30635 91.3193 5.74683C90.7557 6.81358 92.3778 7.76552 92.9435 6.69459C93.5656 5.50258 92.91 4.26464 91.7806 3.6655Z" fill="#2B948D"/>
<path d="M114.988 15.5147C114.669 15.1181 114.352 14.7173 114.036 14.3165L114.698 14.1202C115.853 13.7695 115.36 11.9554 114.199 12.3082C113.736 12.4502 113.272 12.5838 112.809 12.7132C110.314 9.37306 108.06 5.87009 106.304 2.08321C105.991 1.40892 105.03 1.54044 104.682 2.08321C101.916 6.41287 99.2276 10.7905 96.6154 15.2162C96.4918 15.2951 96.3885 15.402 96.3138 15.5282C96.2391 15.6544 96.195 15.7964 96.1853 15.9427C95.1499 17.7046 94.1256 19.4735 93.1125 21.2493C92.5133 22.2931 94.1354 23.2493 94.7345 22.1971C95.7379 20.438 96.7532 18.6844 97.7803 16.9364C102.612 16.766 107.41 16.066 112.089 14.8488C113.021 16.0568 113.976 17.2481 114.955 18.4228C115.627 19.2327 116.305 20.0385 116.988 20.8402C117.35 21.2577 117.712 21.6808 118.074 22.1094C118.168 22.2201 118.406 22.4372 118.604 22.6564C118.511 22.8482 118.494 23.0686 118.558 23.2722C118.802 24.0091 119.629 24.4705 120.33 23.9945C121.272 23.3682 120.671 22.2785 120.122 21.6251C118.422 19.5835 116.66 17.5898 114.988 15.5147ZM105.385 4.48185C106.962 7.54601 108.794 10.4714 110.863 13.2267C106.947 14.1956 102.948 14.7911 98.9201 15.0054C101.027 11.4634 103.182 7.95281 105.385 4.4735V4.48185Z" fill="#2B948D"/>
<path d="M128.944 0.45285C125.37 0.734738 121.815 1.22265 118.297 1.91416C117.113 2.14797 117.615 3.95999 118.798 3.72618C120.433 3.40191 122.075 3.12357 123.723 2.89115C123.667 9.18731 123.856 15.4772 124.288 21.7608C124.294 21.944 124.353 22.1215 124.457 22.2722C124.561 22.4229 124.707 22.5403 124.876 22.6104C125.045 22.6805 125.231 22.7003 125.411 22.6673C125.591 22.6344 125.758 22.5501 125.892 22.4247C126.436 21.9327 126.842 21.3065 127.069 20.6085C127.332 19.857 126.639 19.3873 126.025 19.4749C125.691 13.8732 125.552 8.2653 125.608 2.65108C126.409 2.55783 127.213 2.47503 128.019 2.40266C128.095 2.41207 128.172 2.41207 128.249 2.40266L128.944 2.32124C130.119 2.19598 130.165 0.356821 128.944 0.45285Z" fill="#2B948D"/>
<path d="M133.044 1.7116C132.313 8.04216 131.923 14.4073 131.873 20.7796C131.873 21.8589 133.403 22.0322 133.718 21.0301C133.92 20.3913 134.122 19.7532 134.323 19.1158C134.362 19.0104 134.378 18.8984 134.372 18.7864C134.366 18.6744 134.338 18.5648 134.288 18.464C134.239 18.3633 134.17 18.2736 134.085 18.2001C134.001 18.1266 133.902 18.071 133.795 18.0365C133.922 12.581 134.298 7.13933 134.923 1.7116C135.06 0.507067 133.179 0.523768 133.044 1.7116Z" fill="#2B948D"/>
<path d="M138.125 5.55672C137.937 6.36044 138.72 6.84893 139.325 6.7028C139.271 6.89069 139.217 7.08066 139.167 7.27063C138.616 9.31998 138.26 11.4169 138.104 13.5334C137.973 15.2703 137.728 17.3954 138.626 18.9799C139.399 20.3473 140.989 20.9506 142.503 20.7418C146.085 20.2512 147.745 16.1491 148.179 13.0178C148.596 9.93021 148.891 5.57342 146.555 3.13303C143.805 0.264688 139.01 1.80115 138.125 5.55672ZM146.438 11.7527C146.308 13.4227 145.958 15.1325 145.091 16.5938C144.346 17.8463 142.966 19.2617 141.348 18.8421C139.528 18.3724 139.858 15.9383 139.923 14.5125C140.012 12.5617 140.284 10.6237 140.735 8.72359C141.152 6.93453 141.632 4.96593 142.858 3.54429L142.891 3.50254C143.11 3.49636 143.329 3.51386 143.545 3.55473C145.164 3.85743 145.983 5.27489 146.298 6.77169C146.626 8.37287 146.563 10.1285 146.438 11.7527Z" fill="#2B948D"/>
<path d="M159.151 3.24587C157.899 8.01601 157.69 12.9636 156.869 17.8068C155.462 13.7079 154.432 9.48864 153.794 5.20194C153.657 4.27714 152.17 4.33559 151.983 5.20194C150.923 10.144 150.042 15.1201 149.34 20.1303C149.173 21.3118 150.983 21.8233 151.152 20.6292C151.636 17.1986 152.206 13.7826 152.861 10.3812C153.68 14.1637 154.807 17.8732 156.229 21.4726C156.544 22.268 157.801 22.4579 158.041 21.4726C159.46 15.6378 159.444 9.56082 160.963 3.7448C161.279 2.57576 159.466 2.07473 159.151 3.24587Z" fill="#2B948D"/>
</svg>
