<svg width="131" height="39" viewBox="0 0 131 39" fill="none" xmlns="http://www.w3.org/2000/svg">
<path d="M24.3386 4.29364C20.8214 10.0973 17.7533 16.1615 15.1609 22.4331C15.4557 15.7615 16.0351 9.10364 16.6248 2.44918C16.7551 0.964692 14.3655 0.285869 13.7519 1.67093C9.15785 11.9835 4.6209 22.3212 0.14117 32.684C-0.63707 34.4873 2.02001 36.0609 2.80853 34.2404C6.09977 26.6249 9.4218 19.0231 12.7747 11.435C12.2502 18.1066 11.856 24.8056 11.8731 31.4875C11.8731 33.2702 14.3586 33.5205 14.9037 31.8954C16.9495 25.8051 19.4465 19.8759 22.3742 14.1571C21.471 19.798 20.8735 25.4837 20.5845 31.1892C20.4573 31.3688 20.377 31.5772 20.3506 31.7957C20.3243 32.0142 20.3528 32.2359 20.4337 32.4405C20.4817 32.5742 20.5264 32.708 20.5709 32.8417C20.6785 33.1929 20.9072 33.4945 21.2164 33.6927C21.5257 33.8909 21.8953 33.9728 22.2593 33.9238C22.6234 33.8748 22.9581 33.6981 23.204 33.4251C23.4498 33.1522 23.5907 32.8009 23.6016 32.4337C23.9907 23.3591 25.1839 14.3368 27.167 5.47302C27.5373 3.79655 25.2677 2.76116 24.3386 4.29364Z" fill="#EAB040"/>
<path d="M53.0717 34.6348C51.3781 30.4042 49.6856 26.1758 47.9943 21.9498L50.1576 21.7715C52.1221 21.607 52.1392 18.518 50.1576 18.686L46.7979 18.9637L40.7125 3.76574C40.2703 2.65495 38.5457 2.08586 37.8943 3.39892C33.7003 11.8461 29.939 20.5014 26.6252 29.3311C25.9396 31.1927 28.9086 31.9984 29.6011 30.1539C30.4696 27.8409 31.3691 25.5416 32.2993 23.256L44.7956 22.2275L50.9872 37.6929C51.5049 38.9854 52.9791 39.1636 53.8088 38.0597C54.3539 37.3363 54.402 36.6061 54.2065 35.7387C54.1632 35.4563 54.029 35.1957 53.8242 34.9965C53.6194 34.7973 53.3552 34.6703 53.0717 34.6348ZM33.6259 20.0574C35.347 15.9799 37.1675 11.9459 39.0874 7.95524C40.5936 11.7127 42.0976 15.4702 43.5992 19.2277L33.6259 20.0574ZM51.1416 36.4895H51.2238V36.5341L51.1416 36.4895Z" fill="#EAB040"/>
<path d="M79.3091 30.3185C74.7391 28.6797 70.9611 25.8616 67.3407 22.7075C64.3032 20.0505 61.2998 17.3489 58.2966 14.6508C58.3343 14.26 58.3687 13.8692 58.4064 13.4783L66.9155 8.59291C68.6297 7.60211 67.0835 4.93483 65.3591 5.92563L58.8006 9.69683C59.004 7.82494 59.2247 5.9542 59.4624 4.0846C59.7126 2.12014 56.6237 2.13728 56.3768 4.0846C56.0568 6.58045 55.7689 9.08087 55.5129 11.5859L54.1415 12.3675C53.3153 12.8407 53.0855 14.1229 53.8295 14.7914C54.2478 15.1651 54.6661 15.5456 55.0843 15.9228C54.6706 20.5693 54.362 25.2251 54.1586 29.8899C54.0832 31.6453 56.7333 31.9469 57.1892 30.3013C57.3641 29.6568 57.5321 29.0122 57.7172 28.3677C57.7932 28.1244 57.8016 27.865 57.7411 27.6173C57.6807 27.3696 57.5539 27.1431 57.3744 26.9621C57.5252 24.1394 57.7139 21.3202 57.9402 18.5043C60.628 20.9282 63.3193 23.3418 66.062 25.7039C69.816 28.9266 73.7791 31.6247 78.4657 33.3046C80.3616 33.9628 81.1672 30.9836 79.3091 30.3185Z" fill="#EAB040"/>
<path d="M77.5023 28.402C77.9551 27.8973 78.2704 27.2845 78.4178 26.6226C78.4735 26.3859 78.4713 26.1394 78.4116 25.9037C78.3519 25.668 78.2365 25.4501 78.0749 25.2684C78.4315 18.6951 78.7891 12.1229 79.148 5.55187C79.2577 3.56685 76.1722 3.5737 76.0624 5.55187C75.6693 12.8063 75.2739 20.0596 74.8762 27.3117C74.8008 28.5734 76.6623 29.4476 77.5023 28.402Z" fill="#EAB040"/>
<path d="M95.1825 0.806968C95.0625 1.06067 94.946 1.31779 94.8397 1.57492C94.7616 1.7415 94.7117 1.9199 94.6922 2.10286C92.1964 8.95959 92.5873 16.3546 91.4525 23.4685L87.7806 4.78387C87.3966 2.83655 84.4209 3.6628 84.8048 5.60325L84.9076 6.12433C84.8258 6.26864 84.7669 6.4248 84.7329 6.58719C83.3871 12.8791 82.4163 19.2453 81.8256 25.6523C81.6645 27.3665 84.5991 27.7848 84.8562 26.0603L85.4631 21.9737C85.5049 21.7112 85.4801 21.4424 85.3911 21.192C85.6859 18.7762 86.0379 16.3683 86.447 13.9684L89.7793 30.9183C90.0982 32.5468 92.2718 32.2108 92.7552 30.9183C96.1664 21.7303 94.0238 11.4075 97.8601 2.36342C98.6075 0.577239 96.0328 -1.01692 95.1825 0.806968Z" fill="#EAB040"/>
<path d="M126.254 11.716C122.325 11.589 118.392 11.7196 114.481 12.1069C112.607 12.2851 110.737 12.5137 108.872 12.7925C107.322 13.0257 105.594 12.9674 104.586 14.2942C104.443 14.5283 104.367 14.7977 104.367 15.0724C104.367 15.3471 104.443 15.6165 104.586 15.8506C104.746 16.1298 104.978 16.3608 105.258 16.5195C105.538 16.6781 105.856 16.7585 106.177 16.7523C106.429 16.7533 106.676 16.6911 106.898 16.5713C107.119 16.4514 107.306 16.2779 107.442 16.0666C110.202 15.3535 113.322 15.2609 116.113 15.0381C119.376 14.7748 122.652 14.6878 125.925 14.7776C126.007 14.7776 127.738 14.7776 127.738 15.0244C127.738 15.0244 126.747 15.5181 126.744 15.5215C125.146 16.3717 123.48 17.1157 121.852 17.9214L112.983 22.2548C110.127 23.6502 107.264 25.3403 104.278 26.4511C102.876 26.9654 101.23 27.2157 100.935 25.3472C100.747 24.1541 101.114 22.8239 101.36 21.6686C102.615 15.8271 105.066 10.3091 108.56 5.46268C109.715 3.84449 107.041 2.30514 105.893 3.90619C102.251 8.97788 99.6946 14.7455 98.3812 20.8492C97.8806 23.2079 97.2566 26.0843 98.8131 28.1927C100.5 30.4726 103.448 30.1229 105.769 29.1561C112.283 26.4409 118.584 22.9405 124.934 19.8378C126.96 18.847 130.762 17.7808 130.851 15.0004C130.93 12.4942 128.263 11.7914 126.254 11.716Z" fill="#EAB040"/>
</svg>
