<svg width="114" height="26" viewBox="0 0 114 26" fill="none" xmlns="http://www.w3.org/2000/svg">
<path d="M7.24152 4.55473C5.97049 3.96757 5.13244 4.82413 4.7387 5.88332C1.91992 10.0648 0.589053 15.0726 0.96013 20.1017C1.07756 21.5639 1.13972 23.4773 2.39002 24.4605C3.54131 25.37 5.09561 24.9786 6.19164 24.1727C7.53635 23.1849 8.26389 21.534 8.7129 19.9705C9.19874 18.2804 9.40364 16.4959 9.60627 14.7529C9.8523 12.9625 9.85779 11.1474 9.62246 9.35561C9.39681 7.84512 8.78885 5.27544 7.24152 4.55473ZM7.58005 14.3637C7.44237 15.9392 7.18844 17.5023 6.82024 19.0403C6.48406 20.3458 5.8439 22.4227 4.35182 22.8372C2.91041 23.2379 3.01634 20.0741 2.98411 19.1531C2.9255 17.6212 3.04293 16.0876 3.3341 14.5825C3.762 12.4033 4.53957 10.3078 5.63668 8.37701C5.76388 8.3774 5.8898 8.35143 6.00647 8.30074C6.12313 8.25006 6.228 8.17576 6.31453 8.08252C6.40105 7.98929 6.46729 7.87914 6.50914 7.75902C6.55099 7.63891 6.56757 7.51142 6.55771 7.3846C6.55771 7.34546 6.57609 7.09447 6.56918 6.86882L6.61528 6.79974C6.75804 7.05763 6.9399 7.40993 6.97674 7.49052C7.28349 8.19857 7.49487 8.94421 7.60534 9.7079C7.84021 11.2529 7.74123 12.844 7.58005 14.3706V14.3637Z" fill="#DC5860"/>
<path d="M23.9652 11.4625C22.7978 11.1816 21.5982 11.322 20.4215 11.5154C20.6011 11.3842 20.783 11.2529 20.9603 11.1194C22.183 10.1984 24.2184 8.94345 23.7671 7.11751C23.3711 5.51951 21.5429 4.90933 20.1038 4.74355C18.5311 4.56651 16.9392 4.6781 15.4066 5.07281C15.3905 3.84554 13.4287 3.88008 13.3342 5.16952C13.3135 5.48958 13.2905 5.80964 13.2675 6.12739C13.1641 6.3738 13.1455 6.64753 13.2145 6.90566C12.8031 12.7865 12.3901 18.668 11.9756 24.5503C11.895 25.7016 13.7948 25.9779 14.0112 24.8266C14.048 24.6401 14.0826 24.4536 14.1171 24.2694C18.9802 23.5418 25.3836 22.1395 26.9885 16.6939C27.7 14.2877 26.406 12.0473 23.9652 11.4625ZM18.69 6.72837C19.3541 6.70518 20.0181 6.77414 20.6633 6.93329C20.926 6.99519 21.1756 7.10359 21.4001 7.25336C21.8077 7.56881 21.8008 7.58032 21.4854 8.0132C20.7693 8.99641 19.3002 9.81383 18.2963 10.4724C17.2077 11.1805 16.0739 11.8166 14.9022 12.3766C15.0219 10.6742 15.141 8.97185 15.2592 7.26948C16.368 6.91311 17.5253 6.73058 18.69 6.72837ZM24.3152 17.5252C22.137 20.8225 17.9025 21.6214 14.216 22.1741C14.3956 19.5906 14.5769 17.0071 14.7595 14.4236C14.9274 14.4849 15.1082 14.5016 15.2845 14.4719C17.6032 14.0805 20.1199 13.3391 22.4824 13.3736C23.4541 13.3897 24.6652 13.6545 25.0474 14.6861C25.3974 15.6347 24.8287 16.7584 24.3175 17.5252H24.3152Z" fill="#DC5860"/>
<path d="M35.0153 4.59852C34.4488 8.38626 34.6377 12.227 34.1703 16.0216C33.94 17.8844 33.5302 19.8278 32.6621 21.5064C32.372 22.0659 31.7064 23.2863 30.9005 23.0859C30.1384 22.8971 29.9796 21.5754 29.8529 20.956C29.5927 19.6482 27.5963 20.2031 27.8542 21.5064C28.2111 23.2978 29.192 25.4092 31.3749 25.149C33.6015 24.8819 34.6768 22.3376 35.3031 20.4932C36.9725 15.5542 36.2541 10.2306 37.014 5.14883C37.2097 3.84557 35.2133 3.28144 35.0153 4.59852Z" fill="#DC5860"/>
<path d="M73.9058 3.58082C63.7023 4.25164 53.4882 4.63924 43.2632 4.74363C42.752 4.19101 41.4993 4.42357 41.4003 5.4344C40.8462 11.0819 40.1017 16.7063 39.1669 22.3077C39.0587 22.9616 39.4385 23.6179 40.1662 23.6202C45.6394 23.6317 51.131 22.9731 56.5813 22.5357L73.3003 21.1933C74.6196 21.0873 74.6311 19.015 73.3003 19.1209L56.5813 20.4633C51.534 20.8686 46.4499 21.4627 41.3842 21.5386C41.679 19.7104 41.9553 17.8806 42.2132 16.0493C52.0452 15.8866 61.861 15.3493 71.6608 14.4375C72.9756 14.3131 72.9894 12.2408 71.6608 12.3652C61.9623 13.2755 52.2401 13.8127 42.494 13.977C42.8087 11.593 43.0888 9.20602 43.3345 6.81595C53.5349 6.70849 63.7269 6.32089 73.9104 5.65314C75.2298 5.56564 75.239 3.49332 73.9058 3.58082Z" fill="#DC5860"/>
<path d="M88.3199 18.9803C88.0896 20.1547 87.0719 20.6382 85.969 20.8063C85.0802 20.9421 83.8022 21.078 82.9756 20.6773C81.0967 19.7701 81.7713 16.0722 82.0845 14.4972C82.5289 12.2637 83.3118 10.0809 84.1453 7.9648C84.4723 7.13587 84.8936 6.05596 85.7157 5.59084C86.2798 5.27078 87.2561 5.30762 87.4265 6.05135C87.7305 7.35001 89.7291 6.79969 89.4252 5.50104C88.7482 2.609 85.0249 2.97971 83.4937 4.86322C82.4691 6.12504 81.9832 7.81283 81.4444 9.31872C80.771 11.0859 80.2675 12.9132 79.9408 14.7758C79.524 17.4675 79.3007 21.7941 82.6164 22.7704C85.3242 23.5694 89.69 22.7704 90.3232 19.5468C90.5742 18.2274 88.5778 17.6794 88.3199 18.9803Z" fill="#DC5860"/>
<path d="M97.7743 20.2123C97.7786 14.8581 98.2238 9.51344 99.1053 4.23236L103.148 3.28139C103.286 3.34041 103.435 3.36929 103.585 3.36612C103.734 3.36294 103.882 3.32777 104.017 3.26298L105.078 2.78173C106.183 2.27977 105.375 0.631121 104.279 0.88901L93.381 3.44948C92.0823 3.75342 92.6327 5.75206 93.9313 5.44812L96.9247 4.74123C96.0335 10.3821 95.6237 16.0885 95.6997 21.7987C95.7015 21.9578 95.7394 22.1144 95.8108 22.2566C95.8822 22.3988 95.9851 22.5228 96.1117 22.6191C96.2383 22.7155 96.3852 22.7817 96.5413 22.8127C96.6973 22.8437 96.8583 22.8387 97.0121 22.7981C97.5129 22.6683 97.9596 22.3829 98.2878 21.9829C98.8542 21.2899 98.3937 20.408 97.7743 20.2123Z" fill="#DC5860"/>
<path d="M109.607 1.79146C106.932 2.25197 105.449 5.08645 105.677 7.61238C105.976 10.9465 108.348 13.1777 109.847 15.9846C110.33 16.8918 110.273 17.548 109.292 17.9786C108.787 18.1845 108.231 18.2311 107.699 18.1121C107.129 18.0157 106.599 17.7564 106.173 17.3653C105.747 16.9743 105.444 16.4683 105.299 15.9086C104.982 14.6122 102.983 15.1602 103.301 16.4589C103.812 18.5519 105.711 20.0141 107.827 20.219C110.093 20.4377 112.799 18.819 112.179 16.2424C111.832 14.7941 110.738 13.5277 109.918 12.3281C109.034 11.0271 108.15 9.66628 107.83 8.10052C107.553 6.74661 107.802 5.18776 108.953 4.28976C109.946 3.51609 112.2 3.86148 111.965 5.50782C111.779 6.81339 113.775 7.37521 113.964 6.05814C114.045 5.47079 113.988 4.87248 113.797 4.31126C113.605 3.75004 113.285 3.24155 112.861 2.82663C112.437 2.4117 111.922 2.10192 111.357 1.92214C110.792 1.74236 110.193 1.6976 109.607 1.79146Z" fill="#DC5860"/>
</svg>
