<svg width="109" height="29" viewBox="0 0 109 29" fill="none" xmlns="http://www.w3.org/2000/svg">
<path d="M16.3404 0.526452C10.316 7.81678 4.93266 15.6138 0.250006 23.8305C-0.897599 25.8298 2.21334 27.6651 3.35695 25.6498C4.84443 23.0294 6.40522 20.4583 8.03932 17.9365L12.5897 17.7165C12.4418 18.3163 12.2979 18.9161 12.1539 19.5119C11.79 21.0114 11.5501 22.6508 11.0902 24.1503L11.0463 24.1863C10.7649 24.4673 10.5846 24.8337 10.534 25.2281C10.4833 25.6225 10.565 26.0226 10.7663 26.3656L10.8464 26.4775C11.3902 27.2293 12.4457 27.7051 13.3094 27.1253C14.6729 26.2136 14.717 24.2223 15.0728 22.7508C15.654 20.3516 16.2365 17.9524 16.8203 15.5533C17.9159 11.0148 18.9675 6.4764 19.4114 1.818C19.5553 0.294524 17.308 -0.645145 16.3404 0.526452ZM10.5023 14.2177C11.8912 12.1944 13.3255 10.2031 14.805 8.24377C14.4051 10.1111 13.9773 11.9665 13.5294 13.8418L13.4695 14.0978L10.5023 14.2177Z" fill="#992965"/>
<path d="M42.3831 10.6429C44.3134 9.88907 46.1032 8.8158 47.6774 7.46805C48.5011 6.7443 48.3251 5.12088 47.3134 4.64105C41.6842 1.9548 35.4358 0.833274 29.2238 1.39416C28.608 0.262553 26.4247 0.102599 25.7849 1.73404C25.7849 1.78202 25.7489 1.826 25.7289 1.87398C24.3773 2.14189 24.1895 3.49744 24.7413 4.44111C23.8696 6.70834 23.0098 8.98753 22.1781 11.2707L21.8302 11.3267C20.3707 11.5667 20.2309 13.458 21.0586 14.3737C20.1416 16.9541 19.2485 19.5413 18.3794 22.135C18.1894 22.3366 18.0464 22.5777 17.9606 22.8411C17.8749 23.1046 17.8487 23.3837 17.8837 23.6585C17.5318 25.3099 19.5311 26.1136 20.7267 25.2899C26.4798 25.3642 32.2297 24.9765 37.9208 24.1303C42.1673 23.5026 50.5045 23.0747 50.8644 17.2447C51.1403 12.6902 46.3097 11.1868 42.3831 10.6429ZM28.336 5.10085C33.1698 4.4506 38.089 4.96611 42.683 6.60434C40.1838 7.92388 37.2729 8.60365 34.6018 9.25943C32.6265 9.75259 30.6366 10.1631 28.632 10.491C27.8322 10.5603 27.0245 10.6403 26.2088 10.7309C26.9045 8.84893 27.6136 6.97221 28.336 5.10085ZM46.8056 17.9885C45.578 19.5479 42.603 19.6959 40.8077 20.0358C38.4085 20.4836 36.0093 20.8355 33.6101 21.1114C29.8719 21.5177 26.1143 21.7206 22.354 21.7192C23.1538 19.3466 23.9749 16.9835 24.8173 14.6296C26.2648 14.4697 27.7069 14.2737 29.1437 14.0418C31.5685 13.8505 34.0014 13.7811 36.4332 13.8339C38.0406 13.8659 49.7566 14.2417 46.8056 17.9885Z" fill="#992965"/>
<path d="M64.4315 2.4299C63.028 1.74614 61.4485 2.11798 60.033 2.90171C59.2333 2.28992 58.0337 2.24196 57.4339 3.37357C56.5957 4.95537 55.8404 6.57969 55.1708 8.23992C54.3962 9.83749 53.8302 11.5281 53.4872 13.2702L53.4033 13.5741C52.6235 16.565 51.6639 20.2158 52.2796 23.3147C52.8315 26.1138 55.3707 28.7488 58.4377 28.0131C61.3607 27.3133 63.132 24.1544 64.1236 21.5793C65.394 18.224 66.2116 14.7142 66.5548 11.1429C66.8067 8.59575 67.2705 3.81743 64.4315 2.4299ZM63.072 9.31552C63.0344 10.6347 62.8941 11.9488 62.6522 13.2462C62.2547 15.453 61.6945 17.6275 60.9767 19.7519C60.5328 21.0435 59.2093 24.6103 57.4019 24.5503C54.8908 24.4663 55.8306 19.696 56.0625 18.3284C56.5704 15.3493 57.3892 12.4317 58.5056 9.62342C58.5976 9.44749 58.6935 9.27152 58.7934 9.09958C59.1733 8.4598 61.8124 4.89305 62.8561 5.9247C63.3439 6.40453 63.088 8.60777 63.072 9.31552Z" fill="#992965"/>
<path d="M81.0098 2.57392C79.4103 4.82115 79.2065 7.72813 78.4148 10.2992C77.5436 13.2336 76.3231 16.0529 74.7799 18.6964C74.6039 18.9923 73.9802 20.3638 73.3604 19.9919C73.1485 19.86 73.2245 18.7363 73.2245 18.5444C73.2499 17.0394 73.3512 15.5367 73.5283 14.042C73.9118 10.7155 74.5931 7.43011 75.5638 4.22536C76.2236 1.99812 72.7647 1.05044 72.0929 3.26968C70.8288 7.50924 70.0376 11.8757 69.7337 16.2892C69.5498 19.0323 69.4018 23.6227 73.2685 23.7826C77.0072 23.9386 78.7586 19.1242 79.9662 16.3612C80.7997 14.4756 81.509 12.5374 82.0895 10.5592C82.6853 8.50787 82.8651 6.1607 84.1167 4.38131C85.4562 2.49396 82.3373 0.69457 81.0098 2.57392Z" fill="#992965"/>
<path d="M106.505 0.730574C100.394 0.618413 94.2818 0.862727 88.1993 1.4623C85.9161 1.68623 85.8921 5.28899 88.1993 5.06107C90.2733 4.85847 92.3514 4.69587 94.4333 4.57325C92.0327 11.2481 90.4444 18.1876 89.7029 25.2421C89.459 27.5413 93.0578 27.5213 93.3017 25.2421C94.0825 18.1085 95.7702 11.1037 98.324 4.39728C101.047 4.30531 103.774 4.27735 106.505 4.32934C108.82 4.37332 108.82 0.774559 106.505 0.730574Z" fill="#992965"/>
</svg>
