<svg width="190" height="51" viewBox="0 0 190 51" fill="none" xmlns="http://www.w3.org/2000/svg">
<path d="M29.2759 1.91254C18.772 14.6238 9.38569 28.2184 1.22112 42.5449C-0.779817 46.0308 4.64435 49.2309 6.63832 45.7171C9.23187 41.1481 11.9532 36.6652 14.8024 32.2683L22.7364 31.8848C22.4784 32.9306 22.2275 33.9764 21.9765 35.0152C21.3421 37.6296 20.9237 40.4881 20.1219 43.1026L20.0453 43.1654C19.5546 43.6553 19.2403 44.2941 19.152 44.9818C19.0637 45.6695 19.2062 46.3671 19.5571 46.9651L19.6967 47.1603C20.6449 48.471 22.4852 49.3007 23.9912 48.2897C26.3686 46.7001 26.4454 43.2281 27.0659 40.6624C28.0791 36.4793 29.0948 32.2961 30.1127 28.113C32.023 20.1998 33.8566 12.2867 34.6305 4.16445C34.8815 1.50816 30.9631 -0.130231 29.2759 1.91254ZM19.0969 25.7844C21.5184 22.2566 24.0192 18.7845 26.5988 15.3683C25.9016 18.6242 25.1557 21.8591 24.3748 25.129L24.2703 25.5752L19.0969 25.7844Z" fill="#FFF"/>
<path d="M74.6834 19.5508C78.0491 18.2363 81.1697 16.365 83.9144 14.0151C85.3506 12.7532 85.0437 9.92264 83.2798 9.08601C73.4648 4.40233 62.5703 2.44686 51.7391 3.42482C50.6654 1.45177 46.8587 1.17287 45.7432 4.01741C45.7432 4.10108 45.6803 4.17775 45.6455 4.26141C43.2889 4.72853 42.9615 7.09204 43.9236 8.73742C42.4037 12.6905 40.9046 16.6645 39.4545 20.6454L38.8478 20.743C36.3031 21.1613 36.0593 24.4591 37.5025 26.0556C35.9036 30.5548 34.3464 35.0657 32.8312 39.5881C32.4998 39.9396 32.2504 40.36 32.1009 40.8193C31.9515 41.2786 31.9058 41.7653 31.9668 42.2444C31.3533 45.1238 34.8391 46.5251 36.9237 45.0889C46.9548 45.2184 56.9801 44.5424 66.903 43.0671C74.3072 41.9725 88.8437 41.2265 89.4712 31.0614C89.9522 23.1204 81.5298 20.499 74.6834 19.5508ZM50.1912 9.88771C58.6193 8.75395 67.1963 9.65278 75.2063 12.5092C70.8489 14.8099 65.7733 15.9951 61.1161 17.1385C57.672 17.9984 54.2025 18.7142 50.7072 19.2859C49.3129 19.4068 47.9045 19.5462 46.4822 19.7042C47.6953 16.4228 48.9316 13.1506 50.1912 9.88771ZM82.3944 32.3583C80.254 35.0773 75.0669 35.3353 71.9365 35.9279C67.7534 36.7087 63.5702 37.3222 59.3871 37.8033C52.8691 38.5117 46.3175 38.8655 39.7612 38.863C41.1556 34.7264 42.5873 30.606 44.056 26.5018C46.5798 26.223 49.0943 25.8813 51.5995 25.4769C55.8274 25.1434 60.0693 25.0224 64.3093 25.1144C67.112 25.1702 87.5397 25.8256 82.3944 32.3583Z" fill="#FFF"/>
<path d="M113.127 5.23184C110.68 4.03964 107.926 4.68798 105.458 6.05448C104.063 4.98778 101.972 4.90415 100.926 6.8772C99.4644 9.63519 98.1475 12.4673 96.9801 15.3621C95.6294 18.1476 94.6426 21.0953 94.0446 24.1327L93.8982 24.6626C92.5387 29.8776 90.8654 36.2429 91.939 41.6461C92.9012 46.5265 97.3286 51.121 102.676 49.8381C107.773 48.6181 110.861 43.1103 112.59 38.6204C114.805 32.77 116.23 26.6505 116.829 20.4236C117.268 15.9825 118.077 7.6511 113.127 5.23184ZM110.756 17.2375C110.691 19.5375 110.446 21.8288 110.024 24.0908C109.331 27.9387 108.355 31.7301 107.103 35.4341C106.329 37.6861 104.021 43.905 100.87 43.8004C96.4917 43.654 98.1304 35.3366 98.5348 32.9522C99.4202 27.7579 100.848 22.6708 102.795 17.7743C102.955 17.4675 103.122 17.1607 103.296 16.8609C103.959 15.7454 108.56 9.52653 110.38 11.3253C111.23 12.1619 110.784 16.0034 110.756 17.2375Z" fill="#FFF"/>
<path d="M142.032 5.48303C139.243 9.40124 138.888 14.4698 137.508 18.9527C135.989 24.0691 133.861 28.9846 131.17 33.5938C130.863 34.1097 129.776 36.501 128.695 35.8526C128.326 35.6226 128.458 33.6635 128.458 33.3288C128.502 30.7048 128.679 28.0846 128.988 25.4784C129.656 19.6784 130.844 13.9502 132.537 8.36243C133.687 4.47907 127.656 2.82672 126.485 6.69613C124.281 14.0881 122.901 21.7013 122.372 29.3967C122.051 34.1795 121.793 42.1832 128.535 42.4621C135.053 42.734 138.107 34.3398 140.213 29.5222C141.666 26.2345 142.903 22.8552 143.915 19.4059C144.954 15.8293 145.267 11.7368 147.449 8.63435C149.785 5.3436 144.347 2.20622 142.032 5.48303Z" fill="#FFF"/>
<path d="M186.485 2.26881C175.83 2.07325 165.173 2.49923 154.568 3.54464C150.587 3.93507 150.545 10.2168 154.568 9.81937C158.184 9.46612 161.807 9.18262 165.437 8.96881C161.251 20.6069 158.482 32.7065 157.189 45.0066C156.764 49.0155 163.039 48.9806 163.464 45.0066C164.825 32.5686 167.768 20.3552 172.221 8.662C176.969 8.50165 181.723 8.4529 186.485 8.54354C190.522 8.62023 190.522 2.3455 186.485 2.26881Z" fill="#FFF"/>
</svg>
