<svg width="459" height="64" viewBox="0 0 459 64" fill="none" xmlns="http://www.w3.org/2000/svg">
<path d="M455.963 5.73845C459.406 5.57108 459.43 0.185237 455.963 0.358588L429.064 1.6856C426.739 1.80516 425.979 4.28591 426.792 5.83411L422.309 34.3533C422.052 35.9793 422.991 37.8442 424.903 37.7606C435.034 37.2903 445.128 36.3838 455.186 35.0408C458.564 34.5865 458.611 29.2006 455.186 29.6609C446.18 30.8564 437.138 31.7073 428.06 32.2134C428.63 28.6268 429.195 25.0222 429.757 21.3998C436.659 20.8977 443.548 20.2262 450.422 19.3853C453.817 18.9669 453.859 13.5811 450.422 14.0055C443.835 14.8025 437.231 15.4521 430.612 15.9542C431.086 12.9494 431.561 9.93872 432.035 6.92201L455.963 5.73845Z" fill="#FFF"/>
<path d="M273.341 7.12442C265.434 7.27984 257.526 7.23402 249.616 6.98694C246.155 6.87935 246.161 12.2592 249.616 12.3668C252.712 12.4625 255.808 12.5163 258.905 12.5522C256.207 22.5149 253.645 32.5274 251.218 42.5897C250.904 42.8268 250.661 43.1458 250.517 43.5117C250.372 43.8776 250.331 44.2763 250.399 44.664C250.435 45.0346 250.476 45.4112 250.518 45.7818C250.823 48.5853 255.037 49.6792 255.802 46.4991C258.52 35.1495 261.409 23.8438 264.47 12.582C267.431 12.582 270.388 12.5561 273.341 12.5043C276.79 12.4326 276.802 7.05269 273.341 7.12442Z" fill="#FFF"/>
<path d="M288.584 7.17972C287.025 11.2565 285.631 15.389 284.399 19.5773C283.305 19.7746 282.217 19.9479 281.117 20.1093C282.221 16.7778 283.325 13.4442 284.429 10.1087C285.523 6.81503 280.328 5.40437 279.247 8.68011C277.904 12.7329 276.561 16.7838 275.218 20.8326C274.722 20.8864 274.219 20.9402 273.717 20.982C270.412 21.257 270.28 26.2782 273.389 26.3619L268.385 41.4853C268.337 41.5571 268.29 41.6288 268.248 41.7065C267.73 42.5584 267.474 43.5437 267.512 44.5399C267.548 47.6363 271.852 48.1264 272.797 45.2572C274.949 38.7575 277.099 32.2638 279.247 25.7761C280.442 25.6207 281.638 25.4513 282.833 25.268L282.761 25.549C282.016 28.5776 281.365 31.6282 280.807 34.7007C280.544 36.1472 280.302 37.5958 280.083 39.0464C280 39.6023 279.976 42.0352 279.683 43.0036C277.854 44.1991 277.573 47.3732 280.215 47.7857C283.539 48.2938 284.531 45.9088 284.907 43.0395C285.433 39.0943 286.117 35.1729 286.958 31.2755C288.638 23.5623 290.904 15.9886 293.736 8.62028C295.01 5.36845 289.809 3.96974 288.584 7.17972Z" fill="#FFF"/>
<path d="M336.578 24.4419C324.818 24.2663 313.077 23.4281 301.412 21.9313C302.544 18.1614 303.671 14.3916 304.795 10.6217L344.487 11.877C347.948 11.9905 347.942 6.61067 344.487 6.4971L304.167 5.21787C303.659 5.19296 303.155 5.32213 302.721 5.58848C302.137 5.55618 301.56 5.72567 301.087 6.06855C300.613 6.41142 300.272 6.90681 300.12 7.47145C296.773 18.6616 293.428 29.8516 290.084 41.0418C289.978 41.4407 289.965 41.8587 290.046 42.2635C290.126 42.6683 290.298 43.0493 290.549 43.3775C290.799 43.7057 291.121 43.9723 291.49 44.157C291.859 44.3417 292.266 44.4395 292.679 44.4431L314.736 44.4131H325.179C327.929 44.4131 331.82 45.1723 334.187 43.4867C336.985 41.4961 334.301 36.8335 331.473 38.842C330.624 39.4398 328.484 39.0333 327.504 39.0333H322.28H312.411H296.271C297.466 35.0482 298.662 31.0631 299.857 27.078C312.034 28.6852 324.292 29.5893 336.572 29.7859C340.039 29.8696 340.045 24.4898 336.578 24.4419Z" fill="#FFF"/>
<path d="M361.971 24.3163L361.576 24.4C362.001 17.3189 362.001 10.2187 361.576 3.13761C361.421 0.680807 357.829 -0.783724 356.561 1.78068C350.496 14.0508 344.793 26.4922 339.453 39.1049C338.114 42.2611 342.747 45.0049 344.098 41.8248C345.377 38.7921 346.678 35.7734 348.001 32.7687L355.707 31.1428C355.26 35.7695 354.625 40.3782 353.8 44.969C353.444 45.193 353.145 45.4953 352.924 45.8527C352.703 46.2101 352.568 46.6132 352.527 47.0313C352.379 48.3178 352.679 49.6158 353.375 50.7075C354.475 52.6204 357.829 52.3813 358.295 50.068C359.633 43.4296 360.605 36.7225 361.206 29.9772L363.43 29.5049C366.783 28.7876 365.354 23.599 361.971 24.3163ZM356.131 25.5537L350.679 26.7074C352.58 22.4991 354.521 18.3148 356.502 14.1543C356.502 17.9561 356.378 21.7559 356.131 25.5537Z" fill="#FFF"/>
<path d="M389.851 3.53283C383.833 3.95126 377.804 4.1047 371.762 3.99312C368.301 3.93334 368.301 9.3132 371.762 9.37298C373.681 9.40885 375.594 9.40885 377.507 9.37298L371.446 43.2243C371.135 44.0107 370.994 44.8542 371.033 45.699C371.033 48.646 375.773 49.471 376.317 46.4104L376.557 45.0654C376.604 44.8801 376.646 44.6948 376.688 44.5095C376.845 44.1317 376.909 43.7216 376.873 43.314C378.906 31.9565 380.94 20.599 382.977 9.24149C384.895 9.16976 386.814 9.08011 388.733 8.95458H388.763L389.851 8.88285C393.282 8.67961 393.324 3.32361 389.851 3.53283Z" fill="#FFF"/>
<path d="M417.999 35.3988C412.715 29.1343 407.64 22.4871 402.021 16.4617C404.384 15.9978 406.711 15.3667 408.985 14.5728C411.747 13.6044 417.031 12.2953 416.756 8.43375C416.547 5.1341 411.974 3.77718 409.374 3.05389C406.404 2.22846 403.304 1.9749 400.24 2.30668C398.859 1.23669 396.683 1.33236 396.229 3.30497C395.849 3.69245 395.601 4.18999 395.521 4.7267C395.44 5.26341 395.531 5.81187 395.781 6.29379C395.482 8.41784 395.181 10.5418 394.878 12.6659C394.592 12.8614 394.349 13.114 394.165 13.4078C393.981 13.7016 393.859 14.0304 393.808 14.3733C393.757 14.7162 393.777 15.0659 393.868 15.4006C393.958 15.7353 394.117 16.0477 394.334 16.3182C393.194 24.0254 391.987 31.7166 390.712 39.3919C390.594 39.5225 390.49 39.6646 390.401 39.8163C389.905 40.5654 389.641 41.4437 389.641 42.3418C389.641 43.2399 389.905 44.1182 390.401 44.8674C391.519 46.6606 394.908 46.6607 395.314 44.2218C396.613 36.5545 397.839 28.8772 398.991 21.19C404.287 26.9763 409.152 33.2827 414.156 39.2484L433.882 62.6508C436.117 65.2989 439.907 61.4553 437.69 58.843L417.999 35.3988ZM401.005 7.57892C402.701 7.40628 404.413 7.4707 406.092 7.77024C407.423 7.9817 408.735 8.29339 410.019 8.70271C408.226 9.3435 406.4 9.8902 404.55 10.3406C403.207 10.7391 401.85 11.0659 400.479 11.3209C400.664 10.0955 400.85 8.85218 401.023 7.60285L401.005 7.57892Z" fill="#FFF"/>
<path d="M26.4582 10.4807C26.6042 9.8582 26.5254 9.20411 26.2355 8.63422C25.9455 8.06433 25.463 7.61545 24.8739 7.36704C24.2847 7.11862 23.6265 7.08667 23.0161 7.27692C22.4056 7.46717 21.8823 7.86732 21.5386 8.40648C16.0039 16.8526 10.9815 25.6236 6.49879 34.6721C6.35668 34.8787 6.24398 35.104 6.164 35.3416C4.16748 39.4064 2.26075 43.5191 0.47942 47.6914C-0.865547 50.8417 3.76713 53.5854 5.12405 50.4053C6.76989 46.5597 8.50722 42.7639 10.3364 39.0179C12.0118 38.976 13.6811 38.7981 15.3278 38.4859C14.3474 43.6665 13.401 48.8631 12.4884 54.0756C12.0268 54.557 11.7753 55.202 11.789 55.8689C11.789 56.6519 11.789 57.435 11.789 58.2121C11.789 61.1471 16.5711 61.9959 17.0732 58.9294C18.3444 51.5211 19.6934 44.1308 21.12 36.7584C21.7651 36.3139 22.2101 35.6338 22.3588 34.8646C22.5075 34.0955 22.348 33.2987 21.9151 32.6458C23.3497 25.2455 24.8641 17.8571 26.4582 10.4807ZM16.4217 32.7115C15.3548 33.0008 14.2706 33.2224 13.1757 33.375C14.7698 30.3384 16.4078 27.3317 18.0895 24.3548C17.5395 27.1404 16.9776 29.926 16.4337 32.7115H16.4217Z" fill="#FFF"/>
<path d="M60.8533 20.0458C61.6663 15.461 58.2291 11.719 54.1702 10.2365C50.1114 8.75408 45.3953 8.83181 41.0854 9.81214C39.7225 8.93343 37.5466 9.17257 36.9428 11.187C36.479 11.5525 36.1409 12.0536 35.9758 12.6206C35.8108 13.1875 35.8271 13.7919 36.0222 14.3491L26.5179 47.0946C26.3315 47.3196 26.1803 47.5715 26.0695 47.8418C25.6682 48.8104 25.4825 49.8548 25.5255 50.9024C25.5673 53.933 29.9548 54.5547 30.8096 51.6137L36.2733 32.7902C36.3091 32.7005 36.3449 32.6108 36.3748 32.5152C36.2911 32.7842 42.3884 32.1147 43.1834 31.9533C45.8573 31.4125 48.4633 30.5786 50.9544 29.4666C55.0191 27.6673 59.9926 24.8758 60.8533 20.0458ZM55.3299 19.8486C54.6126 21.5223 52.5744 22.5864 51.074 23.4352C47.1151 25.5934 42.7464 26.8948 38.2519 27.2549L37.8754 27.2907C39.0271 23.3056 40.1848 19.3206 41.3484 15.3355C44.9051 14.391 48.8205 14.0862 52.2815 15.2996C54.2003 15.9273 56.2863 17.613 55.3299 19.8366V19.8486Z" fill="#FFF"/>
<path d="M80.3765 18.6415C82.2475 12.9807 76.9154 9.48978 72.3963 7.79811C71.9223 7.58423 71.3877 7.54618 70.8882 7.69077C70.3887 7.83537 69.957 8.15319 69.6705 8.5872C68.2717 7.82804 66.2811 8.14483 65.8268 10.1354C64.3284 16.7028 62.826 23.2782 61.3196 29.8616L59.2035 39.1388C58.6058 41.757 58.2292 44.6801 57.4102 47.3162C56.3761 48.0933 56.2685 49.7073 56.8125 50.7653C56.8543 50.843 56.8904 50.9207 56.9263 50.9984C57.2922 51.6086 57.8827 52.0511 58.571 52.231C59.2594 52.4109 59.9906 52.3139 60.6083 51.9608C62.8559 50.58 62.9158 46.9456 63.4419 44.6263C64.2867 40.956 65.1274 37.2858 65.9643 33.6155C66.4385 31.5353 66.9129 29.4571 67.3872 27.3808C72.0378 25.9402 78.7984 23.4236 80.3765 18.6415ZM73.1316 18.8507C71.7673 19.724 70.3292 20.476 68.8337 21.0983L70.7166 12.8791L70.9676 12.9867C72.0794 13.4052 73.5679 13.8595 74.4047 14.78C76.0725 16.5554 74.8113 17.7748 73.1316 18.8567V18.8507Z" fill="#FFF"/>
<path d="M125.537 46.0367L82.7613 47.1008C87.0254 34.6633 91.2894 22.2258 95.5534 9.78839C96.6832 6.50069 91.4887 5.09601 90.3708 8.35381L76.3713 49.169C75.8094 50.8129 77.2977 52.6181 78.9655 52.5763L125.537 51.4166C128.992 51.3269 129.004 45.9471 125.537 46.0367Z" fill="#FFF"/>
<path d="M139.937 6.71572C137.773 20.5201 135.608 34.3204 133.44 48.1168C133.071 48.4304 132.795 48.8392 132.642 49.2987C132.489 49.7582 132.465 50.2509 132.573 50.723C132.704 51.3566 132.83 51.9902 132.956 52.6239C133.464 55.1345 137.737 55.254 138.144 52.6239C140.475 37.7993 142.803 22.9748 145.126 8.1503C145.658 4.76098 140.475 3.3025 139.937 6.71572Z" fill="#FFF"/>
<path d="M173.956 10.1046C179.802 10.3855 186.509 11.6468 192.17 9.80571C195.446 8.7417 194.047 3.54718 190.735 4.61717C188.075 5.47795 185.385 5.27472 182.624 5.14321L172.802 4.67095L153.74 3.74439C153.416 3.71692 153.09 3.75581 152.782 3.85859C152.473 3.96136 152.189 4.12587 151.946 4.34215C151.458 4.39498 151.003 4.61478 150.658 4.96436C150.312 5.31394 150.098 5.77194 150.051 6.26102L143.345 46.604C143.064 48.3136 144.05 49.9813 145.939 50.0053C154.696 50.1129 163.447 49.9096 172.187 49.3477C176.156 49.0907 180.388 49.0907 184.291 48.3076C186.91 47.7756 189.073 46.2394 189.127 43.3761C189.169 39.915 183.789 39.915 183.747 43.3761C183.747 42.5631 183.873 43.1967 183.192 43.0652C182.426 43.0555 181.662 43.1317 180.914 43.2924C179.175 43.4538 177.429 43.5913 175.684 43.7228C172.384 43.9698 169.082 44.1691 165.779 44.3205C160.219 44.5716 154.658 44.6812 149.095 44.6493L151.982 27.3142C152.079 27.3369 152.177 27.3529 152.275 27.362C163.186 27.9637 174.103 28.0276 185.027 27.5533C188.47 27.4039 188.494 22.024 185.027 22.1735C174.303 22.6437 163.581 22.5899 152.861 22.0121L154.995 9.19L173.956 10.1046Z" fill="#FFF"/>
<path d="M208.68 3.29645C208.973 0.833666 205.93 -0.415626 204.292 0.863586C202.326 1.07878 201.059 3.85243 202.625 5.44845C199.66 17.324 197.099 29.2793 194.943 41.3142C194.585 41.6396 194.315 42.0511 194.16 42.5097C194.035 42.8494 193.949 43.2024 193.903 43.5617C191.184 45.3012 193.838 49.6948 196.82 48.0868L197.496 47.7162C197.837 47.6905 198.168 47.5891 198.464 47.4195C198.761 47.25 199.016 47.0164 199.211 46.7359C203.436 44.3131 207.479 41.5881 211.31 38.5824C215.25 35.492 218.483 31.8815 218.561 26.6271C218.633 21.845 216.923 16.6086 215.022 12.2808C213.609 8.84847 211.441 5.77793 208.68 3.29645ZM213.193 26.6092C213.074 30.9729 209.104 33.6389 205.924 35.9941C204.227 37.2434 202.487 38.421 200.712 39.5807C202.589 29.4825 204.743 19.4461 207.174 9.47139C208.43 11.0544 209.464 12.8021 210.246 14.6659C211.764 18.1808 213.301 22.7178 213.193 26.6032V26.6092Z" fill="#FFF"/>
</svg>
