<svg width="237" height="63" viewBox="0 0 237 63" fill="none" xmlns="http://www.w3.org/2000/svg">
<path d="M12.8093 32.8452C24.3718 21.5545 38.8302 13.6793 54.5873 10.0896C58.3877 9.20689 56.777 3.35111 52.9698 4.24058C43.1019 6.50826 33.6671 10.3611 25.0325 15.6488C17.007 20.5813 8.24045 27.0635 2.86322 34.934C0.491302 38.411 -0.404917 43.1953 2.68127 46.5712C5.37662 49.5293 9.61502 50.082 13.4087 50.1763C25.3829 50.4593 37.4715 49.1722 49.2502 47.1036C53.0843 46.4297 51.4606 40.5876 47.6399 41.2547C38.0555 42.9447 28.3547 43.8909 18.6244 44.0848C15.7202 44.1387 10.4305 44.981 7.84298 43.0538C4.25142 40.3112 10.8012 34.8128 12.8093 32.8452Z" fill="#FFF"/>
<path d="M76.089 11.4444C73.9597 6.15475 68.9934 5.58189 64.7348 7.46864C64.2899 7.4874 63.8558 7.61152 63.468 7.83056C63.0803 8.0496 62.7504 8.3574 62.5047 8.72879C60.6412 9.98761 59.1644 11.7397 58.2392 13.7893C58.0353 14.2501 57.9448 14.753 57.9753 15.2559C58.0058 15.7589 58.1562 16.2473 58.4142 16.6801C55.7189 23.2231 54.2972 30.4735 55.126 37.313C55.5977 41.228 58.4144 43.93 62.4912 43.1484C66.2108 42.4408 69.1283 39.6648 71.0892 36.5651C73.3937 32.9129 74.8426 28.4789 75.887 24.3281C76.9315 20.1773 77.7062 15.4672 76.089 11.4444ZM70.7727 18.8969C70.2201 23.762 68.5488 29.3617 65.8535 33.4991C65.0314 34.7659 62.4843 38.216 61.1366 36.336C60.611 35.5947 61.1366 32.6905 61.1366 31.7943C61.2107 30.5544 61.332 29.3146 61.5275 28.0882C62.4021 22.6635 64.3147 17.4585 67.1607 12.7583C67.6342 12.5722 68.1415 12.4872 68.6498 12.5089C71.5136 12.6168 71.0018 16.9091 70.7727 18.8969Z" fill="#FFF"/>
<path d="M109.087 8.21044C109.815 5.31968 106.183 3.05549 104.02 5.25894C97.3693 11.9973 94.364 20.8248 90.7387 29.3219C90.8317 23.5922 91.2591 17.8726 92.019 12.1928C92.4368 9.11333 88.1914 6.47864 86.4799 9.85457C81.5384 19.5983 76.9498 29.5105 72.7136 39.5912C71.2042 43.1895 77.0663 44.7527 78.5623 41.2083C80.5344 36.5004 82.6009 31.833 84.7617 27.2059C84.6 31.9767 84.6404 36.7542 84.9167 41.5452C84.9359 42.2018 85.1659 42.8347 85.5728 43.3504C85.9796 43.8661 86.5417 44.2372 87.1758 44.4087C87.8098 44.5803 88.482 44.5432 89.0933 44.3029C89.7046 44.0627 90.2226 43.6322 90.5703 43.0749C94.4516 36.9699 96.7359 29.8879 99.6806 23.2169C97.548 35.2158 96.3337 47.3598 96.0485 59.5434C95.9542 63.5258 101.689 63.3304 102.113 59.5434C102.214 58.6405 102.308 57.7376 102.41 56.8481C102.47 56.3924 102.414 55.9289 102.248 55.5004C102.897 39.544 105.189 23.697 109.087 8.21044Z" fill="#FFF"/>
<path d="M173.729 43.1281C153.733 44.5656 133.712 45.0843 113.663 44.6845C114.431 41.5983 115.201 38.5121 115.974 35.426C134.176 33.9839 152.395 32.8318 170.629 31.9692C174.517 31.7873 174.537 25.7228 170.629 25.9047C152.907 26.7403 135.203 27.8521 117.517 29.2402C118.487 25.3454 119.46 21.446 120.435 17.5422C137.086 15.4306 153.845 14.2833 170.629 14.1058C174.531 14.0653 174.537 8.00079 170.629 8.04122C153.631 8.24689 136.658 9.42579 119.795 11.5721C119.181 11.1509 118.433 10.9709 117.694 11.0666C116.956 11.1623 116.278 11.5271 115.792 12.091C113.413 12.4886 113.245 14.975 114.444 16.5787C111.929 26.6683 109.411 36.7558 106.89 46.8409C106.774 47.2905 106.761 47.7605 106.853 48.2157C106.945 48.671 107.139 49.0994 107.421 49.4687C107.703 49.8379 108.064 50.1385 108.479 50.3475C108.894 50.5564 109.351 50.6684 109.815 50.675C131.144 51.2051 152.456 50.711 173.749 49.1926C177.583 48.9163 177.63 42.845 173.729 43.1281Z" fill="#FFF"/>
<path d="M202.872 14.5235C199.341 10.6624 194.786 7.78519 190.339 5.15048C187.233 3.28395 184.382 7.65043 186.653 9.86736L182.488 40.7427C181.734 41.0931 180.966 41.4165 180.191 41.7535C180.059 41.7886 179.93 41.836 179.807 41.8949L178.715 42.3733C175.609 43.721 177.859 49.2128 181.053 47.919C186.627 45.7042 191.934 42.8698 196.875 39.469C200.642 36.8343 206.908 33.1418 208.33 28.4721C209.799 23.6003 206.005 17.9534 202.872 14.5235ZM201.835 27.6499C200.905 29.1458 198.701 30.5205 197.32 31.6256C195.592 33.0232 193.793 34.3301 191.929 35.5407C190.979 36.1673 190.009 36.767 189.032 37.3465L192.246 13.4859C193.873 14.5722 195.418 15.7771 196.868 17.0909C199.261 19.3146 203.937 24.274 201.841 27.6499H201.835Z" fill="#FFF"/>
<path d="M230.816 2.21981C228.646 6.94567 226.479 11.6625 224.314 16.3704C220.325 12.9204 216.295 9.50409 212.185 6.17533C209.179 3.72929 204.867 7.99476 207.892 10.461C212.555 14.2615 217.149 18.1381 221.672 22.0913C217.09 32.0731 212.512 42.055 207.939 52.0368C206.322 55.5543 211.544 58.6405 213.175 55.0961L236.032 5.23202C237.696 1.75501 232.474 -1.33132 230.816 2.21981Z" fill="#FFF"/>
</svg>
