<svg width="171" height="58" viewBox="0 0 171 58" fill="none" xmlns="http://www.w3.org/2000/svg">
<path d="M140.676 27.9371L139.489 28.1879C139.955 20.6724 139.955 13.1352 139.489 5.61964C139.369 3.63726 136.47 2.45554 135.447 4.52474C129.212 17.1232 123.355 29.9001 117.876 42.8555C116.8 45.3974 120.538 47.6113 121.624 45.0453C122.968 41.862 124.336 38.6915 125.728 35.5338L134.728 33.6285C134.262 38.6447 133.584 43.6401 132.693 48.6145C132.359 48.709 132.063 48.9035 131.843 49.1717C131.623 49.4398 131.49 49.7689 131.463 50.1147C131.31 50.8045 131.294 51.5179 131.416 52.2139C131.539 52.9099 131.797 53.5749 132.177 54.171C133.103 55.6469 135.756 55.5697 136.142 53.6501C137.544 46.7255 138.552 39.7269 139.161 32.688L141.828 32.1237C144.563 31.5449 143.406 27.3583 140.676 27.9371ZM127.904 30.6429C130.357 25.1765 132.883 19.7422 135.481 14.3401C135.552 19.2759 135.423 24.2022 135.095 29.1188L127.904 30.6429Z" fill="#BE8565"/>
<path d="M19.384 3.11635C19.5383 0.820453 15.8484 -0.00906616 15.1008 2.48458V2.53757C15.0266 2.68938 14.9777 2.85231 14.9561 3.01991C10.255 18.805 5.70023 34.6351 1.29172 50.5102C1.11383 50.7568 0.989007 51.0377 0.925148 51.3351C0.765978 52.0634 0.611633 52.7819 0.442817 53.5151C0.367751 53.8125 0.35816 54.1227 0.414791 54.4242C0.471422 54.7256 0.592889 55.0113 0.770769 55.2612C0.843118 56.7805 2.348 58.1938 3.91557 57.0844C12.8821 50.7128 21.3373 42.4939 26.8118 32.8569C29.5225 28.0963 30.1544 23.056 28.0756 17.9047C25.9051 12.5749 21.6461 8.41234 19.384 3.11635ZM22.659 31.3713C18.3421 38.5436 12.4384 44.9152 5.87387 50.1822C9.71322 36.4165 13.6587 22.6781 17.7103 8.96708C19.3164 11.5427 21.1252 13.9881 22.6493 16.6844C23.9227 18.9127 24.9886 21.363 25.061 23.9676C25.1382 26.6494 24.0192 29.114 22.659 31.3858V31.3713Z" fill="#BE8565"/>
<path d="M119.81 10.4627C122.834 10.1298 122.868 5.3547 119.81 5.68751C113.958 6.32225 108.069 6.55267 102.186 6.37721C99.1084 6.28556 99.1132 11.0607 102.186 11.1524C104.173 11.2102 106.162 11.2215 108.152 11.1861C105.398 23.5772 104.993 36.3156 103.58 48.8947C103.461 49.176 103.397 49.4771 103.391 49.7822C103.391 50.0378 103.391 50.2886 103.391 50.5346C103.389 50.5555 103.389 50.5765 103.391 50.5974C103.399 50.8112 103.423 51.024 103.464 51.234C104.028 54.128 107.858 53.0476 108.157 50.6022C109.744 37.4008 109.99 24.0016 113.077 11.0173C115.328 10.8887 117.572 10.7038 119.81 10.4627Z" fill="#BE8565"/>
<path d="M167.276 48.2959C162.289 50.1675 157.022 51.185 151.697 51.3056L157.832 2.27179C158.213 -0.771716 153.433 -0.742777 153.057 2.27179C150.916 19.4106 148.772 36.5479 146.628 53.6835C146.464 54.9954 147.853 56.0324 149.039 56.071C155.694 56.3014 162.329 55.2232 168.569 52.8973C171.4 51.8362 170.165 47.2155 167.276 48.2959Z" fill="#BE8565"/>
<path d="M38.2575 5.39754C36.0066 20.0668 33.6159 34.7103 31.0853 49.3281C30.5644 52.3331 35.1657 53.6258 35.6866 50.5967C38.2237 35.9757 40.6161 21.3321 42.8638 6.66601C43.322 3.66109 38.7205 2.36368 38.2575 5.39754Z" fill="#BE8565"/>
<path d="M90.1515 7.106C87.9007 21.7753 85.5098 36.4189 82.9792 51.0367C82.4583 54.0416 87.0598 55.3344 87.5807 52.3053C90.1177 37.6843 92.5102 23.0407 94.7578 8.37459C95.216 5.36967 90.6146 4.07213 90.1515 7.106Z" fill="#BE8565"/>
<path d="M79.3184 26.7884L59.5428 27.6904C56.4848 27.8254 56.4655 32.6053 59.5428 32.4654L75.1993 31.7516C72.4355 36.1263 68.5479 40.0236 64.588 43.1153C62.0799 45.0784 59.1424 46.7906 55.9494 47.2826C54.2226 47.5527 53.0554 47.4418 52.139 45.8694C51.3814 44.438 50.8586 42.8942 50.5907 41.2969C49.2836 34.7035 51.454 28.0184 54.9799 22.486C58.197 17.4264 63.3098 10.5628 69.6573 9.68494C72.6863 9.26532 71.3984 4.66386 68.3887 5.07866C60.5942 6.16391 54.2516 14.4793 50.4315 20.7544C46.0905 27.8591 43.9394 36.7871 46.5729 44.8709C53.0072 64.5018 77.09 39.9222 81.3297 30.3721C82.0628 28.8431 81.3249 26.6967 79.3184 26.7884Z" fill="#BE8565"/>
</svg>
