<svg width="488" height="73" viewBox="0 0 488 73" fill="none" xmlns="http://www.w3.org/2000/svg">
<path d="M226.294 20.6449C229.058 20.4327 229.082 16.0917 226.294 16.3039C219.059 16.8586 212.818 20.5147 207.532 25.285C202.641 29.6983 197.562 35.6791 195.642 42.1038C193.752 48.4416 197.364 53.6797 203.741 54.7698C210.879 55.9853 218.973 54.2152 225.856 52.3919C228.557 51.6781 227.409 47.4915 224.703 48.2102C218.977 49.7247 212.91 50.8775 206.963 50.7376C204.869 50.6845 202.352 50.4096 200.741 48.9144C198.421 46.7583 199.612 43.2132 200.827 40.8112C205.525 31.4974 215.379 21.4842 226.294 20.6449Z" fill="#8B88F4"/>
<path d="M319.558 8.26409C319.471 5.50998 315.748 5.10479 314.87 7.62738C309.977 21.6333 304.36 35.3758 298.041 48.7992C297.627 48.6566 297.183 48.6267 296.753 48.7124C285.486 50.7938 274.073 51.9839 262.619 52.2719C263.262 47.4776 263.844 42.6783 264.365 37.8743C270.307 37.8164 276.245 37.5126 282.158 36.9097C285.03 36.617 287.893 36.2585 290.748 35.8341C293.16 35.4868 296.469 35.646 297.901 33.3646C298.159 32.9063 298.261 32.3774 298.195 31.8561C298.128 31.3349 297.895 30.849 297.53 30.4706L297.361 30.2681C296.17 28.8211 294.467 29.5204 293.749 30.7937C293.367 30.5622 291.173 30.9722 290.855 31.0156C289.514 31.2246 288.168 31.416 286.817 31.5897C284.171 31.9337 281.513 32.2167 278.844 32.4386C274.185 32.8341 269.516 33.0317 264.857 33.0848C265.413 27.6409 265.895 22.1858 266.304 16.7194C266.748 16.6952 267.206 16.647 267.688 16.5843C270.191 16.2804 272.695 15.9573 275.198 15.6486L290.213 13.7674C293.223 13.3912 293.261 8.61137 290.213 8.99241L277.074 10.6371L270.505 11.4572C269 11.6453 266.222 12.5954 264.799 11.9105C262.354 10.7336 260.173 13.8398 261.645 15.4846C261.645 15.5955 261.606 15.7112 261.596 15.8318C260.709 28.2567 259.423 40.6365 257.738 52.9713C252.294 44.4855 247.07 35.8647 242.067 27.1088C245.694 25.4689 249.273 23.2212 249.374 19.3673C249.446 16.8399 247.864 14.6742 245.675 13.5214C243.673 12.4651 241.44 12.4941 239.26 12.8462C238.121 11.4282 235.526 11.3124 235.145 13.5408C232.856 26.927 230.566 40.3085 228.277 53.6851C227.766 56.69 232.367 57.9828 232.883 54.9537C234.353 46.3425 235.825 37.7313 237.301 29.1201L237.634 28.9753C245.818 43.3391 254.596 57.3396 263.969 70.9767C265.696 73.4945 269.839 71.107 268.093 68.5651C265.479 64.7707 262.907 60.9442 260.376 57.0856C272.212 56.888 284.014 55.7591 295.673 53.7093C294.636 56.3717 298.567 58.605 299.889 55.9087C301.384 52.8218 302.842 49.7156 304.263 46.5901C308.476 46.127 312.667 45.5386 316.838 44.8248C317.137 48.4262 317.458 52.0291 317.802 55.6338C318.106 58.6676 322.881 58.6966 322.577 55.6338C321.047 39.8873 320.04 24.0974 319.558 8.26409ZM243.234 17.6454C245.004 18.4171 244.831 19.7194 243.466 20.7854C242.125 21.7784 240.667 22.6015 239.125 23.2357C238.868 23.1682 238.602 23.1485 238.338 23.1777L239.279 17.6792C240.591 17.3657 242.052 17.1245 243.234 17.6406V17.6454ZM306.564 41.5594C309.648 34.5945 312.542 27.5509 315.246 20.4285C315.567 26.9849 315.977 33.5366 316.476 40.0834C313.193 40.659 309.889 41.1462 306.564 41.5449V41.5594Z" fill="#8B88F4"/>
<path d="M384.981 10.0334C383.754 10.1269 382.559 10.4717 381.47 11.0463C380.505 10.2987 379.058 10.236 378.32 11.6058C377.196 13.7253 376.189 15.9056 375.306 18.1366C374.304 20.2392 373.557 22.4544 373.082 24.7348C373.082 24.8216 373.053 24.9085 373.044 24.9905C372.358 27.5565 371.844 30.1653 371.505 32.7995C371.109 35.8767 371.071 39.2916 373.198 41.7949C375.156 44.1004 378.291 44.9831 381.007 43.4493C386.679 40.2466 388.333 31.9216 389.428 26.0854C390.215 21.9277 392.342 9.49799 384.981 10.0334ZM385.864 18.9468C385.834 20.6625 385.672 22.3733 385.382 24.0644C384.865 27.1123 384.117 30.1162 383.144 33.0502C382.478 35.0663 380.799 39.8028 378.137 39.9234C374.65 40.0922 375.667 33.793 375.952 31.9601C376.614 27.7595 377.747 23.6467 379.328 19.6993C379.507 19.3568 379.695 19.0193 379.902 18.6865C380.565 17.5872 381.41 16.6087 382.401 15.7925C382.811 15.4693 384.861 13.9211 385.401 14.3455C386.153 14.9291 385.869 18.1124 385.864 18.9468Z" fill="#8B88F4"/>
<path d="M453.81 7.25106C449.087 20.6053 445.435 34.3148 442.89 48.2492C428.275 36.9482 413.598 24.943 404.651 8.47137C403.315 6.01631 399.567 8.20611 400.898 10.6612C400.995 10.8396 401.096 11.0085 401.192 11.1821C398.421 21.2725 395.646 31.3612 392.867 41.4484C392.562 41.7461 392.368 42.1393 392.318 42.5626L391.999 44.6077C391.58 47.2991 395.429 48.5241 396.186 45.7604L404.289 16.3044C414.283 31.5316 428.97 42.9726 443.305 54.0083C444.356 54.8186 446.276 54.0082 446.493 52.7107C449.047 37.637 452.896 22.8116 457.997 8.39907C458.927 5.76554 454.736 4.632 453.81 7.25106Z" fill="#8B88F4"/>
<path d="M487.293 4.52538C483.7 -0.428155 476.07 -1.10338 472.293 4.0865C467.547 10.6076 471.762 19.5982 473.74 26.346C475.717 33.0938 480.531 42.4945 474.174 48.3066C468.777 53.2408 460.254 50.3903 458.281 43.5122C457.432 40.5604 452.826 41.8144 453.675 44.7807C455.537 51.268 461.961 56.2216 468.844 55.6283C471.991 55.3053 474.955 53.9947 477.312 51.8841C479.669 49.7735 481.297 46.9713 481.964 43.8788C482.745 39.861 481.554 35.9058 480.42 32.0809C479.211 27.9939 477.999 23.9086 476.783 19.8249C475.689 16.1351 473.721 11.4179 475.645 7.66053C477.092 4.84854 481.192 4.23598 483.15 6.93704C484.959 9.40175 489.102 7.01903 487.293 4.52538Z" fill="#8B88F4"/>
<path d="M351.04 6.41602C344.578 7.12079 338.075 7.37547 331.578 7.17814C328.505 7.0865 328.505 11.8615 331.578 11.9532C333.88 12.0207 336.179 12.0336 338.475 11.9918C335.369 25.7672 334.939 39.9429 333.362 53.9546C333.239 54.2451 333.171 54.5557 333.16 54.871C333.16 55.1555 333.16 55.4306 333.16 55.7055C333.16 55.7296 333.16 55.7488 333.16 55.7681C333.167 55.9819 333.191 56.1948 333.232 56.4049C333.796 59.2747 337.626 58.2184 337.92 55.7681C339.69 41.1149 339.946 26.235 343.404 11.8229C345.951 11.6879 348.495 11.4822 351.035 11.2057C354.064 10.8584 354.098 6.08321 351.04 6.41602Z" fill="#8B88F4"/>
<path d="M359.861 7.56503C358.794 23.916 357.566 40.2525 356.177 56.5746C355.916 59.6374 360.691 59.6181 360.952 56.5746C362.341 40.2493 363.569 23.9128 364.637 7.56503C364.839 4.49258 360.059 4.50705 359.861 7.56503Z" fill="#8B88F4"/>
<path d="M140.368 32.7921L139.182 33.0429C139.647 25.5273 139.647 17.9902 139.182 10.4746C139.061 8.49224 136.163 7.31052 135.14 9.37972C128.905 21.9782 123.048 34.7551 117.569 47.7105C116.493 50.2524 120.231 52.4663 121.316 49.9003C122.661 46.7169 124.029 43.5464 125.421 40.3888L134.421 38.4835C133.955 43.4997 133.277 48.4951 132.386 53.4695C132.052 53.564 131.755 53.7585 131.536 54.0266C131.316 54.2948 131.183 54.6239 131.156 54.9696C131.003 55.6595 130.987 56.3728 131.109 57.0689C131.232 57.7649 131.49 58.4299 131.87 59.026C132.796 60.5019 135.449 60.4247 135.835 58.505C137.237 51.5805 138.245 44.5819 138.854 37.543L141.521 36.9787C144.256 36.3999 143.098 32.2133 140.368 32.7921ZM127.596 35.4979C130.05 30.0315 132.576 24.5972 135.174 19.1951C135.245 24.1309 135.116 29.0572 134.788 33.9738L127.596 35.4979Z" fill="#8B88F4"/>
<path d="M19.0768 7.97133C19.2311 5.67543 15.5413 4.84591 14.7936 7.33956V7.39255C14.7194 7.54436 14.6705 7.70729 14.6489 7.87489C9.94781 23.66 5.39308 39.49 0.984572 55.3652C0.806678 55.6118 0.681855 55.8927 0.617996 56.19C0.458827 56.9184 0.304481 57.6369 0.135665 58.3701C0.0605988 58.6675 0.051008 58.9777 0.107639 59.2791C0.16427 59.5806 0.285737 59.8663 0.463617 60.1162C0.535967 61.6355 2.04085 63.0487 3.60842 61.9394C12.575 55.5678 21.0302 47.3489 26.5047 37.7119C29.2154 32.9513 29.8473 27.911 27.7684 22.7597C25.5979 17.4299 21.3389 13.2673 19.0768 7.97133ZM22.3518 36.2263C18.035 43.3986 12.1312 49.7701 5.56671 55.0372C9.40607 41.2715 13.3516 27.5331 17.4031 13.8221C19.0093 16.3977 20.818 18.8431 22.3422 21.5394C23.6155 23.7677 24.6815 26.218 24.7538 28.8226C24.831 31.5044 23.712 33.969 22.3518 36.2408V36.2263Z" fill="#8B88F4"/>
<path d="M119.503 15.3176C122.527 14.9848 122.561 10.2097 119.503 10.5425C113.651 11.1772 107.762 11.4077 101.879 11.2322C98.8012 11.1405 98.8061 15.9157 101.879 16.0073C103.866 16.0652 105.855 16.0765 107.845 16.0411C105.091 28.4322 104.686 41.1705 103.272 53.7497C103.154 54.031 103.09 54.3321 103.084 54.6371C103.084 54.8928 103.084 55.1436 103.084 55.3896C103.082 55.4104 103.082 55.4315 103.084 55.4524C103.092 55.6662 103.116 55.879 103.157 56.089C103.721 58.9829 107.551 57.9026 107.85 55.4572C109.437 42.2558 109.683 28.8566 112.77 15.8723C115.02 15.7436 117.265 15.5588 119.503 15.3176Z" fill="#8B88F4"/>
<path d="M166.969 53.1509C161.982 55.0225 156.715 56.04 151.39 56.1606L157.525 7.12677C157.906 4.08326 153.126 4.1122 152.75 7.12677C150.608 24.2656 148.465 41.4029 146.32 58.5385C146.156 59.8504 147.546 60.8874 148.732 60.926C155.387 61.1564 162.022 60.0782 168.262 57.7523C171.093 56.6912 169.858 52.0704 166.969 53.1509Z" fill="#8B88F4"/>
<path d="M37.9503 10.2525C35.6995 24.9218 33.3088 39.5653 30.7781 54.1831C30.2572 57.188 34.8586 58.4808 35.3795 55.4517C37.9165 40.8307 40.309 26.1871 42.5566 11.521C43.0148 8.51607 38.4134 7.21866 37.9503 10.2525Z" fill="#8B88F4"/>
<path d="M89.8444 11.961C87.5935 26.6303 85.2027 41.2739 82.6721 55.8917C82.1511 58.8966 86.7526 60.1893 87.2735 57.1603C89.8106 42.5392 92.203 27.8956 94.4507 13.2296C94.9089 10.2246 90.3074 8.92712 89.8444 11.961Z" fill="#8B88F4"/>
<path d="M79.0112 31.6434L59.2357 32.5454C56.1777 32.6804 56.1584 37.4603 59.2357 37.3204L74.8921 36.6066C72.1283 40.9813 68.2408 44.8786 64.2808 47.9703C61.7727 49.9334 58.8352 51.6456 55.6422 52.1376C53.9155 52.4077 52.7483 52.2968 51.8318 50.7244C51.0742 49.293 50.5515 47.7491 50.2836 46.1519C48.9765 39.5584 51.1469 32.8733 54.6727 27.341C57.8899 22.2814 63.0027 15.4178 69.3501 14.5399C72.3792 14.1203 71.0913 9.51884 68.0815 9.93364C60.2871 11.0189 53.9444 19.3343 50.1244 25.6094C45.7834 32.7141 43.6322 41.6421 46.2657 49.7259C52.7 69.3568 76.7828 44.7772 81.0225 35.227C81.7556 33.6981 81.0177 31.5517 79.0112 31.6434Z" fill="#8B88F4"/>
</svg>
