<svg width="173" height="55" viewBox="0 0 173 55" fill="none" xmlns="http://www.w3.org/2000/svg">
<path d="M89.0757 6.98774L78.1369 8.95753C77.0373 8.47944 75.56 8.7615 75.168 10.2627C71.9584 22.4668 69.2046 34.7761 66.9065 47.1905C66.7057 48.2806 67.1935 49.5809 68.4078 49.839C74.6457 51.1825 81.0383 51.6651 87.4072 51.2733C90.1562 51.1012 90.1753 46.7984 87.4072 46.9705C82.0832 47.3149 76.737 47.0099 71.4867 46.0622C72.3473 41.5299 73.2684 37.0118 74.2501 32.5082C74.4664 32.5671 74.6907 32.5914 74.9146 32.58C78.8804 32.3869 82.8147 31.7747 86.6517 30.7537C89.3243 30.0413 88.1911 25.8915 85.509 26.6086C82.1376 27.5125 78.6818 28.0652 75.1967 28.258C76.3377 23.2158 77.5584 18.1894 78.8588 13.179L90.2231 11.1328C92.9434 10.6308 91.7913 6.50964 89.0757 6.98774Z" fill="#FFF"/>
<path d="M115.983 5.85438C113.464 15.0063 111.414 24.2806 109.839 33.6411C108.44 25.7999 107.601 17.8691 107.329 9.9087C107.267 7.95809 105.101 7.38434 103.868 8.19231C103.433 8.1871 103.013 8.34301 102.687 8.63002C102.361 8.91702 102.153 9.31473 102.104 9.74611C100.191 20.3884 98.1401 31.0068 95.9505 41.6013C95.7159 41.8 95.5281 42.0482 95.4007 42.328C94.6645 43.8675 94.4445 45.3543 95.0803 46.9798C95.7831 48.7583 98.7521 49.2747 99.2302 46.9798C100.884 39.034 102.468 31.0658 103.982 23.0753C104.842 30.8686 106.228 38.5948 108.132 46.2006C108.773 48.7393 112.077 47.8692 112.359 45.6269C114.022 32.5761 116.62 19.6615 120.132 6.98273C120.873 4.32453 116.724 3.18663 115.983 5.85438Z" fill="#FFF"/>
<path d="M150.338 11.1612C153.106 11.1612 153.111 6.8584 150.338 6.8584H126.687C123.914 6.8584 123.909 11.1612 126.687 11.1612H133.591C131.551 24.3024 129.16 37.3798 126.419 50.3935C125.85 53.0947 129.995 54.2516 130.569 51.5408C133.352 38.3487 135.771 25.0912 137.827 11.7684C137.853 11.5669 137.853 11.3628 137.827 11.1612H150.338Z" fill="#FFF"/>
<path d="M172.364 7.13144C169.127 2.72821 162.439 1.90106 158.805 6.35687C154.211 11.984 157.744 19.9395 159.527 25.9586C160.636 29.6925 161.999 33.4456 162.797 37.2656C163.495 40.6122 162.974 43.7819 160.445 46.2154C155.741 50.7334 148.139 48.3142 146.36 42.1898C145.514 39.2687 140.944 40.5118 141.795 43.4473C143.454 49.1844 148.899 53.535 154.961 53.3916C160.698 53.2529 165.957 48.9549 167.44 43.4329C168.324 40.1197 167.631 36.7396 166.713 33.5316C165.613 29.7069 164.437 25.8822 163.299 22.0287C162.31 18.6821 160.493 14.6374 161.569 11.1234C162.448 8.25488 166.22 6.72506 168.262 9.52668C170.064 11.9458 174.171 9.58883 172.364 7.13144Z" fill="#FFF"/>
<path d="M39.0481 45.8469C27.8782 47.9079 16.5635 49.0876 5.20871 49.3752C5.84617 44.6229 6.42472 39.8644 6.94425 35.0994C12.8343 35.0468 18.7196 34.7409 24.581 34.1432C27.4241 33.8532 30.2624 33.4994 33.0958 33.0819C35.4863 32.7329 38.766 32.8906 40.186 30.634C40.4402 30.1796 40.5417 29.6555 40.4754 29.139C40.4092 28.6225 40.1786 28.141 39.8178 27.7655C39.7605 27.6985 39.7078 27.6316 39.6505 27.5695C38.4696 26.1352 36.7819 26.8236 36.0648 28.0857C35.6871 27.861 33.5166 28.2627 33.2249 28.3105C31.8958 28.5161 30.5619 28.7073 29.2233 28.8747C26.5937 29.2157 23.9596 29.4962 21.3205 29.7161C16.7021 30.1081 12.0742 30.3089 7.45584 30.3615C8.00086 24.9431 8.47895 19.5359 8.89011 14.1398C9.32996 14.1111 9.78408 14.0633 10.2622 14.006C12.7435 13.7048 15.22 13.3844 17.7013 13.0498L32.589 11.1853C35.5723 10.8123 35.6058 6.07439 32.589 6.45208L19.5658 8.08245L13.016 8.89997C11.5291 9.08642 8.77528 10.0235 7.36491 9.34456C4.94099 8.1828 2.77999 11.257 4.23817 12.8921C4.23817 13.002 4.2 13.1168 4.19043 13.2363C3.28206 25.9153 1.96411 38.556 0.236606 51.1585C0.0310263 52.631 0.819887 54.1752 2.51711 54.1513C15.1907 53.9692 27.8259 52.7105 40.2864 50.3888C43.2936 49.8533 42.0266 45.2923 39.0481 45.8469Z" fill="#FFF"/>
<path d="M64.3201 2.16828C60.9482 14.7173 56.8732 27.0669 52.1144 39.1583C50.5718 28.363 49.3956 17.5262 48.586 6.64806C48.3613 3.6313 43.6283 3.6074 43.853 6.64806C44.8952 20.6944 46.5383 34.6754 48.7821 48.591C49.0929 50.5034 52.3344 50.9815 53.1089 49.1552C59.4072 34.2923 64.6786 19.0149 68.8859 3.43051C69.6795 0.480685 65.1281 -0.776762 64.3201 2.16828Z" fill="#FFF"/>
</svg>
