<svg width="269" height="59" viewBox="0 0 269 59" fill="none" xmlns="http://www.w3.org/2000/svg">
<path d="M12.8915 28.9344C19.8141 22.979 26.6045 16.8776 33.2625 10.6302C35.384 8.63649 32.1858 5.44741 30.0688 7.43659C23.9857 13.1639 17.7778 18.7634 11.4453 24.2352C13.0026 18.5171 14.7134 12.843 16.5779 7.21304C17.4904 4.44826 13.1379 3.26661 12.2254 6.01314C7.31354 20.8006 3.47428 35.9229 0.737443 51.2626C0.539626 51.466 0.386937 51.709 0.28945 51.9755C0.191963 52.242 0.151877 52.5261 0.171716 52.8092L0.217273 54.3649C0.294832 56.7875 4.20943 57.5586 4.65654 54.9626C5.97354 47.231 7.57037 39.5571 9.44701 31.941C14.4595 40.065 19.399 48.2347 24.2655 56.45C25.7483 58.9501 29.6536 56.6781 28.1662 54.1688C23.1598 45.7041 18.0682 37.2926 12.8915 28.9344Z" fill="#9B2F2F"/>
<path d="M61.3847 10.8177C61.2583 10.3961 61.0126 10.0201 60.6772 9.735C60.3418 9.44992 59.9311 9.26795 59.4946 9.21104C59.0581 9.15413 58.6146 9.22471 58.2173 9.41427C57.8201 9.60383 57.4861 9.90425 57.2558 10.2793C47.307 24.3671 38.4748 39.2111 30.8398 54.6756C29.5578 57.2762 33.454 59.5665 34.7406 56.9568C36.9214 52.5404 39.2026 48.1773 41.5841 43.8674C50.2734 44.4435 59.0001 44.0102 67.5896 42.5762C69.0069 47.0078 70.3862 51.4515 71.7275 55.9074C72.5624 58.6859 76.9241 57.4997 76.0846 54.7075C71.6591 39.9225 66.7592 25.2925 61.3847 10.8177ZM44.0249 39.4921C48.5569 31.5475 53.4098 23.8037 58.5835 16.2606C61.2388 23.5603 63.7754 30.8906 66.1934 38.2512C58.866 39.4232 51.4374 39.8391 44.0249 39.4921Z" fill="#9B2F2F"/>
<path d="M97.0806 8.83738C99.9412 8.38114 98.7277 4.03777 95.8808 4.48488L77.321 7.39109C74.4559 7.84733 75.6741 12.1907 78.521 11.7481L87.1895 10.3794C84.3791 24.7873 81.9762 39.2652 79.9809 53.813C79.5931 56.6554 83.9411 57.8826 84.338 55.0129C86.3971 39.9785 88.8927 25.017 91.8248 10.1285C91.8543 9.96889 91.8711 9.80715 91.875 9.64487L97.0806 8.83738Z" fill="#9B2F2F"/>
<path d="M115.69 6.41543C114.255 13.9433 112.964 21.5092 111.817 29.1131H104.75L108.035 6.79865C108.455 3.95174 104.102 2.72446 103.678 5.59418C102.516 13.5327 101.349 21.4697 100.178 29.4051C99.0333 37.1611 98.431 45.2638 96.2502 52.8145C95.4427 55.6113 99.7997 56.8066 100.603 54.0144C102.505 47.4401 103.208 40.446 104.111 33.6299H111.142C110.129 40.5647 109.224 47.5177 108.427 54.4889C108.099 57.3723 112.62 57.3495 112.944 54.4889C114.729 38.7823 117.102 23.1608 120.061 7.62446C120.586 4.77299 116.233 3.56396 115.69 6.41543Z" fill="#9B2F2F"/>
<path d="M162.459 37.2613C162.399 36.9159 162.272 36.5857 162.085 36.2895C158.015 25.7698 153.414 15.4639 148.298 5.4115C147.49 3.81924 145.268 4.07473 144.397 5.4115C134.414 20.7136 125.034 36.3777 116.256 52.4037C114.86 54.9541 118.756 57.2353 120.152 54.6849C122.218 50.9073 124.319 47.1509 126.458 43.4159C126.719 43.4593 126.986 43.4593 127.247 43.4159C135.121 42.1992 143.03 41.2868 150.971 40.6785C152.896 40.537 154.822 40.4093 156.752 40.3089C157.386 40.2724 158.093 40.3089 158.791 40.2633C160.649 45.1754 162.386 50.1362 164.001 55.1457C164.914 57.8831 169.252 56.7197 168.354 53.9412C166.553 48.3387 164.588 42.7787 162.459 37.2613ZM155.871 35.8925C154.39 35.9747 152.907 36.069 151.423 36.1754C148.612 36.3792 145.802 36.6225 142.992 36.9054C138.397 37.3616 133.817 37.9456 129.245 38.6117C134.656 29.3136 140.275 20.1418 146.103 11.0962C150.1 19.1898 153.749 27.4339 157.053 35.8287L155.871 35.8925Z" fill="#9B2F2F"/>
<path d="M193.104 52.6507C192.987 52.1788 192.822 51.7202 192.612 51.282C192.324 50.4471 192.028 49.6122 191.731 48.7818C191.244 47.3888 190.746 46.0018 190.235 44.621C189.067 41.4273 187.853 38.2701 186.585 35.1312C184.828 30.8518 183.09 26.3259 179.942 22.8905L197.092 8.62856C199.327 6.77168 196.12 3.60997 193.898 5.43492L179.677 17.2514C180.015 13.1514 180.369 9.04527 180.74 4.93307C181.001 2.04054 176.484 2.05879 176.224 4.93307C175.731 10.3805 175.275 15.831 174.855 21.2845C174.539 21.6575 174.349 22.1202 174.31 22.6073C174.272 23.0944 174.387 23.5813 174.641 23.9992C173.865 33.863 173.174 43.7343 172.569 53.6133C172.391 56.515 176.908 56.5059 177.086 53.6133C177.582 45.3737 178.143 37.1403 178.769 28.9128C179.598 30.3416 180.335 31.8212 180.978 33.3428C182.803 37.5676 184.463 41.8927 186.046 46.2224C186.804 48.2997 187.546 50.3832 188.273 52.4728C188.775 53.919 189.117 56.004 190.467 56.953C193.15 58.8464 196.175 55.3151 193.752 53.0476C193.56 52.88 193.341 52.7459 193.104 52.6507Z" fill="#9B2F2F"/>
<path d="M221.897 4.08381C221.82 1.47871 218.298 1.09544 217.463 3.48612C211.656 20.1274 204.887 36.4167 197.188 52.2714C195.924 54.8765 199.816 57.1668 201.088 54.5525C202.697 51.2372 204.264 47.9006 205.788 44.5427C210.396 44.0409 214.985 43.3945 219.557 42.6037C219.885 46.5425 220.244 50.4768 220.634 54.4065C220.916 57.2717 225.438 57.2991 225.15 54.4065C223.505 37.6749 222.421 20.9006 221.897 4.08381ZM207.937 39.7705C211.459 31.8229 214.756 23.781 217.828 15.6448C218.175 23.1362 218.631 30.6215 219.197 38.1007C215.465 38.7637 211.711 39.3204 207.937 39.7705Z" fill="#9B2F2F"/>
<path d="M250.69 49.3601C245.974 51.1343 240.992 52.0983 235.954 52.2116L241.757 5.84443C242.118 2.97015 237.596 2.99296 237.24 5.84443C235.215 22.056 233.188 38.266 231.159 54.4745C231.004 55.7155 232.318 56.6964 233.44 56.7557C239.734 56.9734 246.01 55.955 251.913 53.7583C254.591 52.7089 253.423 48.3427 250.69 49.3601Z" fill="#9B2F2F"/>
<path d="M263.967 2.47287C262.851 19.5421 261.567 36.5993 260.116 53.6442C259.87 56.5368 264.387 56.5231 264.633 53.6442C266.084 36.6114 267.367 19.5543 268.484 2.47287C268.671 -0.428786 264.154 -0.415099 263.967 2.47287Z" fill="#9B2F2F"/>
</svg>
