<svg width="229" height="68" viewBox="0 0 229 68" fill="none" xmlns="http://www.w3.org/2000/svg">
<path d="M43.284 7.66186C37.1515 17.7811 31.8018 28.3545 27.2818 39.2895C27.7959 27.657 28.8061 16.0485 29.8343 4.4459C30.0614 1.85758 25.8951 0.674001 24.8251 3.08896C16.8151 21.0697 8.90457 39.0942 1.0938 57.1626C-0.263125 60.3069 4.3697 63.0505 5.74456 59.8764C11.4831 46.5981 17.2753 33.3438 23.1214 20.1133C22.2068 31.7458 21.5195 43.426 21.5494 55.0764C21.5494 58.1848 25.8831 58.6211 26.8335 55.7877C30.4004 45.1689 34.7542 34.8308 39.8588 24.8595C38.2841 34.695 37.2423 44.6084 36.7383 54.5564C36.5165 54.8695 36.3765 55.233 36.3306 55.6139C36.2847 55.9949 36.3343 56.3813 36.4753 56.7382C36.559 56.9713 36.637 57.2044 36.7147 57.4376C36.9022 58.05 37.301 58.5758 37.8402 58.9214C38.3794 59.267 39.0238 59.4098 39.6586 59.3243C40.2933 59.2389 40.877 58.9308 41.3056 58.4549C41.7342 57.9791 41.9799 57.3664 41.9988 56.7263C42.6774 40.904 44.7577 25.173 48.2155 9.7182C48.8611 6.79514 44.9039 4.98986 43.284 7.66186Z" fill="#EAB040"/>
<path d="M93.3824 60.5641C90.4294 53.1877 87.4785 45.8153 84.5295 38.4469L88.3014 38.136C91.7266 37.8491 91.7565 32.4633 88.3014 32.7562L82.4434 33.2404L71.8332 6.74151C71.062 4.80476 68.0552 3.81251 66.9194 6.10194C59.6068 20.8303 53.0487 35.9214 47.2709 51.3167C46.0753 54.5626 51.2521 55.9673 52.4596 52.7514C53.9739 48.7185 55.5421 44.7095 57.164 40.7244L78.9523 38.9311L89.7479 65.8962C90.6506 68.1497 93.2209 68.4605 94.6675 66.5357C95.618 65.2745 95.7017 64.0012 95.361 62.4889C95.2855 61.9965 95.0515 61.5421 94.6944 61.1948C94.3373 60.8474 93.8767 60.626 93.3824 60.5641ZM59.4771 35.1472C62.4779 28.0378 65.6521 21.0042 68.9996 14.0462C71.6258 20.5977 74.2481 27.1492 76.8663 33.7007L59.4771 35.1472ZM90.0171 63.798H90.1604V63.8757L90.0171 63.798Z" fill="#EAB040"/>
<path d="M139.129 53.0388C131.161 50.1814 124.574 45.2678 118.261 39.7684C112.965 35.1357 107.729 30.4253 102.492 25.7209C102.558 25.0395 102.618 24.3581 102.684 23.6766L117.52 15.1585C120.509 13.431 117.813 8.78037 114.806 10.5079L103.371 17.0833C103.726 13.8195 104.11 10.5577 104.525 7.29792C104.961 3.87274 99.5754 3.90263 99.145 7.29792C98.5871 11.6496 98.0849 16.0093 97.6386 20.377L95.2476 21.7399C93.807 22.5648 93.4064 24.8004 94.7035 25.966C95.4328 26.6176 96.1621 27.2812 96.8914 27.9387C96.1701 36.0404 95.632 44.158 95.2773 52.2916C95.1458 55.3521 99.7664 55.8781 100.561 53.0088C100.866 51.885 101.159 50.7612 101.482 49.6374C101.615 49.2132 101.629 48.7609 101.524 48.329C101.418 47.8972 101.197 47.5022 100.884 47.1866C101.147 42.2651 101.476 37.3495 101.871 32.4399C106.557 36.6661 111.25 40.8743 116.032 44.9929C122.577 50.6119 129.487 55.3162 137.659 58.2452C140.964 59.393 142.369 54.1984 139.129 53.0388Z" fill="#EAB040"/>
<path d="M135.979 49.6959C136.769 48.8159 137.318 47.7475 137.575 46.5935C137.672 46.1808 137.669 45.7509 137.564 45.3399C137.46 44.929 137.259 44.5491 136.978 44.2323C137.599 32.7712 138.223 21.3121 138.848 9.85498C139.04 6.39393 133.66 6.40588 133.469 9.85498C132.783 22.5036 132.094 35.1503 131.4 47.795C131.269 49.9947 134.515 51.5191 135.979 49.6959Z" fill="#EAB040"/>
<path d="M166.806 1.58231C166.597 2.02465 166.393 2.47297 166.208 2.92129C166.072 3.21173 165.985 3.52279 165.951 3.84179C161.599 15.797 162.281 28.6908 160.302 41.0944L153.9 8.51634C153.23 5.12105 148.042 6.56166 148.712 9.945L148.891 10.8535C148.748 11.1052 148.645 11.3774 148.586 11.6606C146.24 22.631 144.547 33.731 143.517 44.9022C143.236 47.891 148.353 48.6202 148.801 45.6135L149.859 38.4882C149.932 38.0305 149.889 37.5619 149.734 37.1253C150.248 32.913 150.862 28.7147 151.575 24.5304L157.385 54.0838C157.941 56.9232 161.731 56.3373 162.574 54.0838C168.521 38.0637 164.785 20.0651 171.474 4.2961C172.778 1.18176 168.288 -1.59779 166.806 1.58231Z" fill="#EAB040"/>
<path d="M220.981 20.6028C214.131 20.3814 207.274 20.6091 200.454 21.2843C197.186 21.5951 193.926 21.9936 190.674 22.4798C187.972 22.8863 184.96 22.7847 183.202 25.098C182.952 25.5063 182.819 25.9759 182.819 26.455C182.819 26.934 182.952 27.4036 183.202 27.8118C183.481 28.2986 183.886 28.7014 184.374 28.978C184.862 29.2546 185.415 29.3948 185.976 29.3839C186.414 29.3858 186.846 29.2773 187.232 29.0683C187.617 28.8594 187.944 28.5568 188.182 28.1884C192.994 26.9451 198.433 26.7837 203.299 26.3951C208.989 25.936 214.7 25.7844 220.407 25.9409C220.551 25.9409 223.569 25.9409 223.569 26.3713C223.569 26.3713 221.842 27.232 221.836 27.238C219.05 28.7204 216.145 30.0176 213.306 31.4223L197.842 38.9781C192.862 41.4109 187.871 44.3579 182.664 46.2947C180.219 47.1913 177.35 47.6277 176.836 44.3699C176.507 42.2897 177.147 39.9704 177.577 37.9559C179.764 27.7709 184.038 18.1497 190.13 9.69965C192.145 6.87821 187.482 4.19423 185.48 6.98578C179.131 15.8287 174.673 25.885 172.383 36.5272C171.51 40.6399 170.422 45.655 173.136 49.3313C176.077 53.3064 181.218 52.6967 185.265 51.011C196.622 46.2767 207.609 40.1735 218.679 34.7638C222.212 33.0363 228.842 31.1772 228.997 26.3294C229.134 21.9597 224.484 20.7343 220.981 20.6028Z" fill="#EAB040"/>
</svg>
