<svg width="367" height="83" viewBox="0 0 367 83" fill="none" xmlns="http://www.w3.org/2000/svg">
<path d="M260.654 10.4907C258.693 9.52961 256.48 10.0548 254.508 11.1501C253.39 10.2951 251.714 10.2281 250.875 11.8039C249.702 14.0152 248.646 16.287 247.713 18.6099C246.628 20.8422 245.836 23.2049 245.355 25.6395C245.316 25.7848 245.271 25.9245 245.237 26.0642C244.12 30.2439 242.807 35.3455 243.662 39.6705C244.438 43.582 247.987 47.27 252.267 46.2419C256.352 45.2584 258.833 40.8497 260.218 37.2511C261.991 32.5614 263.134 27.6571 263.616 22.6667C263.973 19.1072 264.627 12.4297 260.654 10.4907ZM258.754 20.113C258.7 21.9566 258.502 23.7931 258.162 25.6059C257.611 28.6903 256.83 31.7293 255.826 34.6974C255.206 36.5023 253.356 41.4866 250.831 41.4028C247.322 41.2855 248.635 34.6191 248.959 32.7081C249.665 28.5442 250.81 24.4666 252.373 20.5433C252.501 20.2974 252.63 20.0515 252.775 19.8112C253.334 18.9116 256.989 13.9328 258.453 15.3745C259.134 16.0451 258.777 19.124 258.754 20.113Z" fill="#2B948D"/>
<path d="M149.707 12.7987C145.539 20.4149 143.974 29.266 139.247 36.5805C139.146 36.7314 138.772 37.184 138.364 37.6981C138.606 34.9824 138.968 32.2853 139.448 29.6069C140.378 24.5523 141.686 19.5745 143.36 14.7153C144.405 11.6475 139.549 10.3287 138.509 13.3797C136.329 19.7507 134.778 26.3199 133.877 32.9931C133.436 36.2844 131.53 47.449 138.582 44.521C140.772 43.6157 142.365 41.0452 143.611 39.1286C145.084 36.7566 146.339 34.2561 147.36 31.6577C149.596 26.2151 151.233 20.5322 154.066 15.3466C155.603 12.4968 151.261 9.95445 149.707 12.7987Z" fill="#2B948D"/>
<path d="M124.562 17.2353C119.209 14.2625 113.224 12.7203 107.273 11.3848C106.846 10.947 106.291 10.6567 105.688 10.5562C105.085 10.4557 104.466 10.5502 103.92 10.826C103.544 10.8993 103.188 11.0514 102.874 11.2724C102.561 11.4934 102.298 11.7782 102.103 12.1081C101.907 12.438 101.784 12.8056 101.741 13.1865C101.698 13.5675 101.736 13.9532 101.853 14.3184C98.663 22.42 95.9848 30.7137 93.8342 39.1508C93.3651 39.0915 92.8889 39.1648 92.4592 39.3623C92.0296 39.5598 91.664 39.8737 91.4036 40.2684L90.2469 41.9448C88.889 43.8838 91.1298 46.0351 93.0912 45.6384C100.114 44.2286 107.004 42.2246 113.688 39.6481C119.315 37.4577 126.015 34.6191 129.809 29.6906C133.603 24.7621 128.909 19.6492 124.562 17.2353ZM125.048 27.3828C124.102 28.36 123.036 29.2125 121.874 29.9197C115.225 34.4514 107.044 37.1839 99.0142 39.1117C101.042 31.3854 103.508 23.781 106.401 16.3356C110.687 17.2911 114.973 18.3583 119.002 20.0906C121.103 20.9958 123.679 22.1022 125.188 23.8904C126.372 25.3209 126.222 26.0082 125.048 27.3828Z" fill="#2B948D"/>
<path d="M89.5427 18.4704C86.19 15.5703 81.0045 14.4751 76.8192 13.5978C71.6555 12.5182 66.3753 12.1013 61.1062 12.3573C57.882 12.5082 57.8652 17.5372 61.1062 17.3864L62.5254 17.336C58.7312 20.8228 55.5574 24.9914 54.1939 30.0093C53.3446 33.1552 52.9534 37.173 54.8924 40.0004C56.9655 43.0123 61.1284 43.5654 64.5147 43.7107C72.1086 44.0292 80.6189 41.213 86.4247 36.279C91.2805 32.1495 95.3821 23.5442 89.5427 18.4704ZM85.391 30.082C83.4073 32.8033 80.4066 34.6863 77.3668 36.0274C73.935 37.5691 70.2491 38.4669 66.4928 38.676C64.5427 38.7543 62.3858 38.7376 60.5362 38.0559C58.5972 37.3462 58.4463 35.7872 58.586 33.9041C59.1057 26.9584 64.7662 21.4543 70.1137 17.6042C71.3934 17.7383 72.673 17.9116 73.9471 18.163C77.6239 18.8336 81.9936 19.6271 85.2345 21.5884C88.5984 23.6001 87.3467 27.3998 85.391 30.082Z" fill="#2B948D"/>
<path d="M192.929 8.72464C183.721 9.40636 175.708 14.0834 168.941 20.1406C162.587 25.829 156.027 33.518 153.434 41.7992C150.931 49.8177 155.301 56.6684 163.493 58.1101C167.879 58.8812 172.433 58.4733 176.808 57.976C182.033 57.3774 187.208 56.4007 192.292 55.0536C195.416 54.221 194.092 49.3707 190.957 50.2033C183.346 52.2205 175.177 53.813 167.27 53.4833C164.437 53.366 161.017 52.8631 159.061 50.5833C156.552 47.6552 157.944 43.4196 159.436 40.3574C162.666 33.7526 167.7 27.8518 173.227 23.063C178.753 18.2742 185.475 14.3069 192.941 13.7537C196.131 13.519 196.165 8.48436 192.929 8.72464Z" fill="#2B948D"/>
<path d="M330.061 7.2944C325.15 21.1952 321.346 35.4627 318.684 49.9634C303.469 38.1898 288.242 25.6617 278.915 8.5237C277.368 5.67948 273.02 8.21639 274.574 11.0606C274.657 11.2171 274.741 11.3624 274.831 11.5189C271.933 22.0464 269.036 32.5721 266.142 43.0959C265.815 43.4391 265.605 43.8775 265.544 44.3475L265.208 46.4932C264.722 49.6112 269.181 51.0306 270.059 47.8288C272.845 37.6924 275.639 27.5579 278.441 17.4253C288.951 33.2166 304.234 45.1242 319.17 56.6241C320.389 57.5628 322.613 56.5962 322.864 55.121C325.55 39.3072 329.588 23.753 334.934 8.62984C335.99 5.57328 331.134 4.26019 330.061 7.2944Z" fill="#2B948D"/>
<path d="M365.65 4.36706C361.867 -0.779356 354.05 -1.74612 349.803 3.46177C344.433 10.0387 348.563 19.3369 350.647 26.372C351.943 30.7417 353.536 35.1283 354.469 39.5874C355.285 43.4989 354.676 47.2092 351.714 50.0534C346.221 55.334 337.331 52.5009 335.258 45.3429C334.269 41.9287 328.927 43.3815 329.921 46.8124C331.86 53.5179 338.219 58.6084 345.31 58.4352C352.016 58.2732 358.163 53.2496 359.895 46.7957C360.929 42.9233 360.118 38.9727 359.04 35.2232C357.755 30.7529 356.385 26.2826 355.056 21.7788C353.899 17.8673 351.776 13.1401 353.033 9.03298C354.055 5.68027 358.464 3.89769 360.856 7.17218C362.957 9.99964 367.762 7.23922 365.65 4.36706Z" fill="#2B948D"/>
<path d="M222.461 6.21602C215.682 6.95612 208.86 7.22495 202.043 7.02064C198.484 6.91447 198.484 12.4464 202.043 12.5526C204.353 12.6196 206.657 12.6327 208.955 12.5917C205.77 26.9469 205.295 41.6989 203.658 56.2776C203.527 56.6052 203.453 56.9531 203.44 57.3058C203.44 57.602 203.44 57.8926 203.44 58.1775C203.44 58.1775 203.44 58.2278 203.44 58.2501C203.452 58.4976 203.479 58.744 203.524 58.9878C204.178 62.3405 208.62 61.0888 208.961 58.2557C210.799 42.9617 211.084 27.4388 214.661 12.3962C217.268 12.2509 219.867 12.0367 222.456 11.7535C225.965 11.3512 226.004 5.83605 222.461 6.21602Z" fill="#2B948D"/>
<path d="M27.3332 14.0731C27.4616 12.3852 27.0996 10.6961 26.2906 9.20914C25.4817 7.72213 24.2604 6.50056 22.7735 5.69135C19.5661 3.93117 15.9395 4.25523 12.5141 5.09341C11.2569 3.28294 8.04388 3.04819 7.64714 5.72477L0.0699678 54.9539C-0.488818 58.4351 4.86437 59.9382 5.40081 56.4234L9.64204 28.8864C10.1529 28.9131 10.6611 28.7992 11.1116 28.5568C17.5767 25.2265 26.7856 22.8684 27.3332 14.0731ZM20.7898 16.5821C18.5547 19.8342 14.2799 21.2032 10.592 22.7287C11.2029 18.7688 11.8138 14.8033 12.4248 10.8322H12.4863C14.8723 10.1504 18.0406 9.15576 20.3093 10.6589C22.4215 12.0615 22.0638 14.7493 20.7898 16.5821Z" fill="#2B948D"/>
<path d="M39.0733 23.9692C43.8174 21.8626 48.6118 18.9736 48.718 14.0116C48.7794 10.7874 46.7288 8.07174 43.9125 6.6636C41.3477 5.37839 38.5146 5.45099 35.7598 5.92037C34.5248 4.12108 31.323 3.88633 30.8704 6.55733C27.8902 23.9579 24.91 41.3605 21.9298 58.7648C21.3319 62.2461 26.6628 63.7379 27.2662 60.2344L33.033 26.4949C33.3123 26.3664 33.5916 26.2434 33.9102 26.1148C44.6016 44.8789 56.0679 63.1699 68.3091 80.9878C70.3095 83.9046 75.1095 81.1386 73.0811 78.1938C60.9964 60.6032 49.6605 42.5283 39.0733 23.9692ZM41.0626 11.4299C43.3257 12.3184 43.7449 14.2239 41.9512 15.8276C40.2748 17.3308 38.0396 18.4483 35.7542 19.4262C35.2688 19.2699 34.7485 19.2582 34.2567 19.3926C34.7037 16.785 35.1525 14.1773 35.6033 11.5696C37.397 11.1282 39.3695 10.7929 41.0626 11.4299Z" fill="#2B948D"/>
<path d="M231.458 7.68012C230.34 24.8423 229.051 41.9784 227.591 59.0884C227.289 62.6367 232.821 62.6144 233.123 59.0884C234.58 41.9523 235.869 24.8162 236.99 7.68012C237.225 4.12624 231.687 4.14301 231.458 7.68012Z" fill="#2B948D"/>
</svg>
