<svg width="207" height="63" viewBox="0 0 207 63" fill="none" xmlns="http://www.w3.org/2000/svg">
<path d="M19.1384 8.84621C14.1592 14.9498 17.9933 23.5663 19.926 30.0896C21.1229 34.1362 22.6046 38.2036 23.4647 42.3434C24.2212 45.9704 23.6617 49.4056 20.9156 52.0428C15.8223 56.9392 7.57888 54.3174 5.65143 47.675C4.73433 44.5144 -0.219023 45.8563 0.708432 49.0428C2.50117 55.2604 8.4027 59.9754 14.9726 59.8148C21.1902 59.6646 26.8897 55.0117 28.4959 49.0273C29.4544 45.4366 28.7031 41.7735 27.7083 38.2968C26.5166 34.1517 25.2419 30.0067 24.0088 25.8306C22.9363 22.2037 20.9674 17.8202 22.1332 14.012C23.0866 10.9032 27.1746 9.24518 29.3871 12.2814C31.3197 14.9135 35.7705 12.3591 33.8119 9.69077C30.3301 4.91878 23.0814 4.02241 19.1384 8.84621Z" fill="#FFF"/>
<path d="M54.3817 5.65357L39.4076 7.68467C36.1486 8.12508 37.5372 13.068 40.7704 12.6276L44.7392 12.1095C42.5631 26.4963 40.9241 40.9522 39.8222 55.4771C39.5735 58.7673 44.703 58.7517 44.9517 55.4771C46.0605 40.7207 47.741 26.0265 49.9932 11.3944L52.7599 11.0214C53.1132 11.4399 53.6179 11.7015 54.1635 11.7491C54.7091 11.7967 55.2514 11.6263 55.6719 11.2753C56.5709 10.7123 57.2339 9.84105 57.5371 8.82453C58.2676 6.74165 56.1278 5.41523 54.3817 5.65357Z" fill="#FFF"/>
<path d="M106.257 58.1305C92.0705 50.6487 82.2934 38.8145 73.1276 26.0995C75.4731 25.2359 77.7289 24.1462 79.8634 22.8457C83.024 20.9027 86.7493 18.5037 85.2571 14.2654C83.0032 7.83542 74.7649 5.15666 68.4385 6.01675C68.0448 5.87945 67.6253 5.83279 67.211 5.88014C66.7967 5.92749 66.3985 6.06764 66.046 6.29024C65.6934 6.51284 65.3955 6.81214 65.1747 7.16579C64.9538 7.51944 64.8156 7.91836 64.7702 8.33285C63.4075 23.2469 61.0971 38.0591 57.8531 52.6797C57.7864 52.8578 57.736 53.0416 57.7029 53.2289L57.5785 53.9543C57.0293 57.1512 61.791 58.5812 62.5267 55.317C64.5785 46.191 66.2711 36.9993 67.6044 27.742L67.7857 27.7109L67.9878 27.6591C77.8634 41.4725 88.3452 54.4672 103.692 62.5605C106.583 64.0993 109.179 59.6745 106.257 58.1305ZM74.8168 11.5504C76.3453 12.0686 79.8219 13.768 80.2105 15.6022C80.5576 17.2602 75.8634 19.2292 74.537 19.9235C72.9087 20.7366 71.2154 21.4125 69.4748 21.9442C69.1199 21.8419 68.7479 21.8137 68.3816 21.8613C68.8445 18.2516 69.2537 14.6247 69.6095 10.9805C71.3659 10.7575 73.1502 10.9527 74.8168 11.5504Z" fill="#FFF"/>
<path d="M143.34 40.276C128.874 42.3415 114.31 43.6507 99.7079 44.1982C99.998 40.0325 100.447 35.8874 101.055 31.7631C114.73 32.1085 128.399 31.8356 142.06 30.9445C145.335 30.7268 145.36 25.5921 142.06 25.8149C128.685 26.7027 115.293 26.9825 101.884 26.6543C102.834 21.3279 104.043 16.0499 105.511 10.8202C117.584 11.221 129.669 10.9581 141.713 10.0326C144.982 9.77873 145.008 4.64928 141.713 4.90316C129.678 5.82865 117.601 6.09152 105.537 5.69067C104.262 4.65441 101.91 4.77363 101.309 6.84616C99.2276 13.8857 97.5957 21.0503 96.4229 28.2968C96.3716 28.4901 96.3387 28.6879 96.3244 28.8874C95.3829 34.8423 94.7465 40.8415 94.4178 46.8614C94.4246 47.544 94.7005 48.1963 95.1856 48.6766C95.6707 49.1568 96.3258 49.4262 97.0084 49.4262C112.984 48.9085 128.919 47.5039 144.739 45.2189C147.956 44.7578 146.573 39.8148 143.34 40.276Z" fill="#FFF"/>
<path d="M173.355 1.05315C167.828 1.69218 162.302 2.12222 156.775 2.34329C156.321 2.34543 155.877 2.47472 155.494 2.71652C155.11 2.95832 154.802 3.30294 154.604 3.71117C154.337 3.88042 154.112 4.10846 153.947 4.37787C153.782 4.64728 153.68 4.95093 153.65 5.26556C151.796 18.1049 150.195 30.9735 148.847 43.8715C148.713 45.141 150.132 46.5813 151.438 46.4363C158.091 45.6707 164.783 45.2849 171.479 45.2808C174.78 45.2808 174.785 40.1513 171.479 40.1513C165.742 40.1513 160.02 40.4346 154.314 41.0011C154.759 36.856 155.231 32.711 155.728 28.5659C160.713 28.262 165.676 27.7438 170.619 27.0115C173.873 26.5348 172.49 21.5919 169.257 22.0634C164.977 22.6903 160.676 23.0996 156.365 23.3898C157.056 18.0496 157.775 12.7111 158.521 7.37433C163.495 7.13944 168.457 6.73878 173.407 6.17229C176.593 5.80442 176.635 0.669732 173.355 1.05315Z" fill="#FFF"/>
<path d="M203.889 0.358157C197.602 1.0426 191.276 1.29014 184.956 1.09905C181.65 1.00061 181.656 6.13012 184.956 6.22856C187.091 6.2942 189.227 6.30805 191.365 6.27006C188.407 19.5757 187.971 33.2595 186.453 46.7775C186.331 47.0813 186.263 47.4038 186.251 47.7309C186.251 48.0055 186.251 48.2491 186.251 48.5392C186.251 48.5392 186.251 48.5807 186.251 48.6014C186.262 48.8308 186.288 49.0593 186.329 49.2853C186.935 52.3941 191.054 51.2335 191.37 48.6014C193.075 34.4201 193.339 20.0264 196.655 6.07829C199.073 5.95048 201.491 5.75365 203.909 5.48767C207.137 5.13534 207.174 0.000646651 203.889 0.358157Z" fill="#FFF"/>
</svg>
