<svg width="287" height="58" viewBox="0 0 287 58" fill="none" xmlns="http://www.w3.org/2000/svg">
<path d="M44.9903 10.8766C45.4031 10.4521 45.6677 9.90547 45.7442 9.3183C45.8207 8.73112 45.705 8.13495 45.4147 7.61885C45.1328 7.10169 44.7107 6.67464 44.1967 6.38698C43.6827 6.09932 43.0979 5.9627 42.5097 5.99287C42.0661 6.00302 41.631 6.11635 41.2388 6.32386C40.8466 6.53137 40.5082 6.82737 40.2503 7.1884C39.2042 7.1884 37.6201 7.14656 37.2614 7.1884L32.5628 7.4694L22.5862 8.06717L3.21289 9.26269C-0.230222 9.47191 -0.254133 14.8518 3.21289 14.6426L19.2807 13.6742C14.8533 25.9761 11.0136 38.4654 7.76179 51.1419C7.16402 53.5688 10.4637 55.924 12.257 53.7541C12.4781 53.4971 12.6932 53.2341 12.9084 52.9711C13.1962 52.6446 13.4007 52.2534 13.5047 51.8309C13.6088 51.4083 13.6094 50.9669 13.5062 50.5442C16.8019 37.9632 20.6775 25.5557 25.1328 13.3215H25.5452L36.1077 12.6879C38.8275 12.4667 42.9938 13.0943 44.9903 10.8766Z" fill="#FFF"/>
<path d="M63.575 10.1164C67.0181 9.9132 67.042 4.53333 63.575 4.73657L52.5403 5.37024C52.1215 5.38901 51.7125 5.50348 51.3448 5.70495C50.9614 5.84026 50.6162 6.06649 50.3393 6.36422C50.0624 6.66196 49.8618 7.02232 49.7546 7.41454C45.371 21.45 40.9733 35.4855 36.5618 49.521C36.1673 50.7823 37.0341 52.6293 38.4389 52.8326C43.9943 53.6488 49.6188 53.8932 55.2241 53.5619C58.6612 53.3407 58.6911 47.9608 55.2241 48.182C51.0412 48.4558 46.8429 48.3878 42.6711 47.9787C44.038 43.5951 45.4048 39.2275 46.7717 34.8758C51.5725 35.1366 56.3868 34.7587 61.0882 33.752C64.4775 33.0466 63.0428 27.858 59.6595 28.5694C55.9706 29.3344 52.2053 29.6674 48.4394 29.5617C50.432 23.2533 52.4067 16.9469 54.3634 10.6425L63.575 10.1164Z" fill="#FFF"/>
<path d="M87.0671 34.7094C88.9919 24.9778 90.9186 15.2463 92.8474 5.51468C93.4093 2.66932 89.4521 0.606988 87.9278 3.44038L63.9216 48.0634C62.2778 51.112 66.9104 53.8318 68.5662 50.7773L73.0556 42.4086C73.5711 42.6117 74.1366 42.6513 74.6755 42.5221L80.2944 41.2788L78.035 52.6901C77.8977 52.9805 77.8089 53.2915 77.772 53.6107C77.7063 54.1427 77.6463 54.6747 77.5805 55.2067C77.2219 58.1955 82.2792 58.8829 82.865 55.924C83.913 50.6159 84.9631 45.3097 86.0152 40.0056L86.9775 39.7964C89.793 39.1926 89.2669 35.4984 87.0671 34.7094ZM76.134 36.7179L84.1501 21.8157C83.2415 26.3945 82.3347 30.9774 81.4301 35.5642L76.134 36.7179Z" fill="#FFF"/>
<path d="M132.449 3.07533C122.598 3.8046 114.026 8.80791 106.787 15.2877C99.9908 21.3729 92.973 29.5981 90.1994 38.451C87.5214 47.0348 92.1959 54.3634 100.959 55.9056C105.652 56.7305 110.523 56.2942 115.204 55.7562C120.794 55.1215 126.33 54.0766 131.768 52.6299C135.109 51.7452 133.693 46.5567 130.339 47.4473C122.198 49.6052 113.458 51.3029 105 50.9562C101.969 50.8307 98.3109 50.2867 96.2188 47.8538C93.5348 44.7215 95.0232 40.1904 96.6192 36.9147C100.074 29.8491 105.46 23.5367 111.372 18.384C117.284 13.2313 124.475 9.01714 132.461 8.42535C135.88 8.1982 135.91 2.81829 132.449 3.07533Z" fill="#FFF"/>
<path d="M155.839 5.75907L153.448 24.0685L147.148 24.8636C148.371 17.8738 149.798 10.9238 151.428 4.01365C152.223 0.648243 147.035 -0.768464 146.239 2.58499C142.597 18.0472 139.947 33.7267 138.307 49.5273C137.998 49.8428 137.779 50.2357 137.674 50.6648C137.569 51.0939 137.581 51.5434 137.709 51.9662L138.068 53.3231C138.887 56.4195 143.077 55.4989 143.352 52.6057C144.07 45.1576 145.022 37.7414 146.209 30.357L152.725 29.5381L150.43 47.4112C150.187 47.6572 150.006 47.9573 149.903 48.2867C149.799 48.6161 149.774 48.9655 149.832 49.3061L149.993 50.675C150.406 54.148 154.931 54.1181 155.373 50.675C157.318 35.707 159.257 20.739 161.189 5.77104C161.668 2.33988 156.282 2.36975 155.839 5.75907Z" fill="#FFF"/>
<path d="M176.468 5.01808C177.311 1.65865 172.123 0.236034 171.28 3.58351C167.386 19.1253 164.065 34.7707 161.315 50.5198C160.717 53.8912 165.858 55.3677 166.504 51.9484C166.629 51.3029 166.749 50.6573 166.874 50.0057C166.897 49.8853 166.911 49.7635 166.916 49.6411C169.582 34.6612 172.766 19.7868 176.468 5.01808Z" fill="#FFF"/>
<path d="M243.896 3.56534C238.645 18.4347 234.576 33.6951 231.726 49.2045C215.449 36.6097 199.165 23.2078 189.183 4.8744C187.527 1.83179 182.882 4.54566 184.538 7.58827C184.628 7.75564 184.724 7.91103 184.813 8.0784L175.536 41.87C175.182 42.2318 174.957 42.7004 174.896 43.203L174.538 45.4984C174.018 48.8339 178.782 50.3522 179.726 46.927C182.711 36.0836 185.7 25.2422 188.692 14.4028C199.93 31.2956 216.285 44.0339 232.264 56.3359C233.567 57.3401 235.946 56.3358 236.215 54.7278C239.06 37.8038 243.358 21.1564 249.061 4.97007C250.256 1.72422 245.044 0.319487 243.896 3.56534Z" fill="#FFF"/>
<path d="M286.122 18.935C284.538 14.2844 279.289 16.4841 275.96 17.5063C270.485 19.1826 265.099 21.1338 259.82 23.3525C256.67 24.6675 258.027 29.8741 261.249 28.5411C264.772 27.0626 268.336 25.6996 271.943 24.4523C273.138 24.0538 274.344 23.6553 275.559 23.2568L262.546 35.0626C259.426 37.896 256.377 40.843 253.161 43.5688C251.966 44.585 249.694 46.6054 248.17 45.1887C246.974 44.053 247.955 41.4587 248.325 40.03C250.074 33.4517 253.051 27.2636 257.101 21.7923C259.063 19.1532 261.264 16.7 263.676 14.4637C265.93 12.3476 269.48 8.58769 272.642 8.09155C276.056 7.55356 274.603 2.371 271.214 2.90301C267.268 3.50077 263.042 7.68508 260.179 10.3451C257.102 13.2066 254.334 16.382 251.918 19.8197C249.324 23.5078 247.163 27.4809 245.474 31.6614C243.962 35.3615 242.264 39.7013 242.24 43.7601C242.24 47.5798 244.751 50.8197 248.708 51.0289C253.538 51.28 257.011 47.3407 260.274 44.3758L285.44 21.5412C285.777 21.2079 286.018 20.79 286.138 20.3315C286.258 19.8729 286.252 19.3906 286.122 18.935Z" fill="#FFF"/>
</svg>
