<svg width="297" height="289" viewBox="0 0 297 289" fill="none" xmlns="http://www.w3.org/2000/svg">
<g clip-path="url(#clip0_555_324)">
<path d="M37.7709 57.8782C38.0076 60.3303 41.5761 61.5732 42.7747 59.0321C46.9702 50.0935 51.5269 41.3411 56.4449 32.7751C56.8678 32.5179 57.1984 32.1331 57.3891 31.6761C57.5528 31.3154 57.7165 30.9547 57.8837 30.5938C57.9792 30.384 58.0495 30.1635 58.0932 29.9371C61.5008 24.1365 65.0676 18.4233 68.7936 12.7976C69.5956 11.594 68.8784 9.84415 67.7063 9.1999C66.3462 8.45273 64.8996 9.0988 64.1112 10.2877C61.7087 13.8996 59.3728 17.554 57.1034 21.2508C56.9351 17.8765 56.8223 14.5026 56.7651 11.1289C56.712 7.7054 51.4043 7.90673 51.4573 11.3267C51.5559 17.3323 51.8338 23.3313 52.2909 29.3236C47.5105 37.589 43.0642 46.0405 38.9521 54.6782C38.5125 54.8839 38.1517 55.2269 37.9235 55.6555C37.6954 56.0841 37.6124 56.5753 37.6871 57.0551C37.7186 57.3305 37.7464 57.6025 37.7709 57.8782Z" fill="#4B9691"/>
<path d="M51.0086 59.0976C58.3565 58.684 65.6397 57.4902 72.7354 55.5363C76.0291 54.6334 74.4333 49.5618 71.1292 50.4686C66.0417 51.8668 60.8483 52.8454 55.601 53.3947L63.958 38.1262L71.6602 37.2363C75.0332 36.8447 74.8635 31.532 71.4623 31.9247L67.0736 32.4428L76.4093 15.3861C76.724 15.4068 77.0399 15.3867 77.3495 15.3263C79.6607 14.9047 82.0126 14.7504 84.359 14.8665C87.7763 14.998 87.5607 9.68698 84.1611 9.5548C81.3399 9.46568 78.5179 9.70052 75.7502 10.2547C75.4642 10.312 75.195 10.4336 74.9627 10.6103C74.4308 10.497 73.8764 10.5635 73.3863 10.7993C72.8962 11.0351 72.4981 11.4269 72.2544 11.9134L48.5636 55.1959C47.6114 56.9335 48.9894 59.2083 51.0086 59.0976Z" fill="#4B9691"/>
<path d="M81.8298 27.6268C81.9333 30.4031 83.6645 32.5477 85.9186 33.9885C87.7628 35.1715 90.6264 35.6606 92.0051 37.4744C93.3838 39.2882 90.1712 41.3228 88.9593 42.2722C86.8625 43.9141 84.2798 45.638 81.4985 45.5501C80.5494 45.5271 79.6189 45.2812 78.7821 44.8322C78.1766 44.5184 77.6383 44.0891 77.1973 43.5686C77.4952 42.054 76.5913 40.2402 74.5939 40.2685L74.3922 40.2761C73.9285 40.2921 73.477 40.4298 73.0832 40.6754C72.6893 40.921 72.367 41.2658 72.1482 41.6753C71.0587 43.8187 72.4047 46.1833 73.9162 47.7582C75.5174 49.3476 77.5871 50.3795 79.8194 50.7013C85.1964 51.5044 89.8171 48.5557 93.7274 45.1831C95.4616 43.7 97.2128 41.915 97.6321 39.5696C98.0776 37.0708 96.9616 34.6975 95.087 33.0795C93.3588 31.5836 91.2664 30.8709 89.2955 29.806C87.3246 28.7412 86.6291 27.3842 87.8661 25.2991C89.243 22.9784 91.6855 21.1959 93.8764 19.7029C96.4303 17.9675 99.2022 16.5777 102.12 15.5696C105.339 14.4497 103.76 9.37384 100.514 10.5019C94.8996 12.4557 89.3479 15.6164 85.2771 20.0092C83.3406 22.0529 81.7216 24.7231 81.8298 27.6268Z" fill="#4B9691"/>
<path d="M117.539 51.5401C121.035 52.1757 124.405 50.4545 126.679 47.8804C131.099 42.8718 133.392 35.666 134.034 29.1209C134.416 25.2403 134.195 21.3237 133.379 17.5108C133.084 15.9574 132.443 14.4904 131.504 13.2191C132.615 11.0075 129.264 8.35945 127.004 10.3798C126.798 10.5648 126.592 10.7497 126.391 10.9451C125.969 11.0215 125.58 11.2239 125.275 11.5258C124.97 11.8277 124.763 12.2149 124.682 12.6365C120.877 16.6286 117.801 21.257 115.592 26.3118C114.245 29.3614 113.172 32.5247 112.384 35.7644C111.635 38.8668 110.919 42.2019 111.544 45.37C112.145 48.4787 114.374 50.9665 117.539 51.5401ZM116.654 41.5839C117.166 36.7812 118.773 31.8846 120.851 27.5413C122.633 23.7561 124.957 20.2507 127.748 17.1355C127.795 17.2544 127.838 17.3698 127.878 17.4853C128.266 18.6343 128.521 19.8242 128.638 21.0314C128.977 23.5462 129.027 26.0915 128.789 28.6178C128.271 33.7221 126.578 38.9837 123.621 43.2108C122.497 44.82 120.68 46.7246 118.51 46.3232C116.408 45.9263 116.478 43.2358 116.654 41.5839Z" fill="#4B9691"/>
<path d="M133.182 47.9823C134.727 48.3609 135.872 47.343 136.379 46.005C138.436 40.5597 140.275 35.0421 141.895 29.4523C142.559 35.9097 143.412 42.3459 144.454 48.7608C144.913 51.5557 148.906 52.3998 149.693 49.2748C152.918 36.4457 158.278 24.349 163.655 12.3049C165.045 9.19293 160.369 6.66866 158.972 9.7951C155.047 18.5582 151.155 27.3626 148.017 36.4439C147.043 28.6317 146.349 20.7924 145.936 12.9262C145.784 9.9816 141.33 9.42064 140.697 12.4122C138.364 23.4326 135.191 34.258 131.206 44.7936C130.71 46.117 131.919 47.6535 133.182 47.9823Z" fill="#4B9691"/>
<path d="M155.095 47.0419C155.661 49.503 157.907 49.7739 160.057 49.6477L175.187 48.6831C178.591 48.4676 178.408 43.1555 174.989 43.3715L166.544 43.9096L162.323 44.1768L160.803 44.276C161.8 40.2318 163.139 36.2139 164.362 32.2323C170.604 32.7633 176.891 32.2413 182.961 30.6882C186.271 29.8556 184.668 24.7701 181.354 25.6205C176.313 26.9241 171.095 27.4154 165.899 27.0758C167.064 23.146 168.242 19.2215 169.436 15.3025C173.887 15.8408 178.368 16.099 182.852 16.0755C186.274 16.0544 186.073 10.7429 182.654 10.7639C177.842 10.8025 173.033 10.4863 168.268 9.81775C167.757 9.73399 167.234 9.79917 166.759 10.0055C166.285 10.2119 165.88 10.5506 165.593 10.9812C165.228 11.3175 164.961 11.7465 164.821 12.2227C161.953 21.6036 159.17 31.0086 156.472 40.4375C155.924 42.3869 154.626 45.0097 155.095 47.0419Z" fill="#4B9691"/>
<path d="M197.396 49.6992C201.07 47.6753 204.505 45.2445 207.636 42.4525C210.504 39.906 213.29 36.9866 214.978 33.4983C218.781 25.6333 215.475 17.3808 211.561 10.2892C210.33 8.05143 207.459 9.17259 206.734 11.1038C202.813 21.5684 199.469 32.2406 196.717 43.0721C196.646 43.3463 196.616 43.6294 196.628 43.9123C196.088 44.0457 195.589 44.3076 195.172 44.6758L194.025 45.6547C191.621 47.7052 194.903 51.0686 197.396 49.6992ZM209.697 18.4649C211.492 22.8766 212.284 27.5881 209.763 32.0118C208.143 34.8416 205.798 37.3367 203.161 39.5094C205.077 32.4169 207.252 25.4022 209.687 18.4653L209.697 18.4649Z" fill="#4B9691"/>
<path d="M210.541 44.9897C208.989 48.0404 213.671 50.5468 215.241 47.499C217.38 43.2964 219.683 39.1918 222.149 35.1851C225.986 35.2655 229.825 35.2288 233.663 35.0503C235.454 34.9836 237.238 34.8462 239.023 34.7052C240.156 38.9372 241.241 43.1779 242.278 47.4276C242.031 47.8257 241.913 48.29 241.939 48.7578C241.964 49.2255 242.133 49.6741 242.422 50.0428L243.387 51.4252C245.15 53.941 248.86 52.129 248.163 49.1976C246.947 44.1012 245.666 39.0226 244.317 33.9618C244.895 33.7669 245.445 33.496 245.952 33.1563C248.772 31.2356 245.94 26.7384 243.102 28.6526C243.044 28.6938 242.977 28.7282 242.915 28.766C241.322 22.9815 239.644 17.2226 237.881 11.4894C237.316 9.64879 234.7 8.93783 233.404 10.4825C228.236 16.6523 223.477 23.1538 219.158 29.9456C218.069 30.2947 217.562 31.3525 217.609 32.4217C215.088 36.5132 212.732 40.7025 210.541 44.9897ZM232.078 29.7832C229.884 29.865 227.689 29.9043 225.492 29.901C228.236 25.7587 231.157 21.7362 234.255 17.8336C235.413 21.7029 236.528 25.5833 237.602 29.4746C235.759 29.6071 233.918 29.71 232.078 29.7832Z" fill="#4B9691"/>
<path d="M282.049 7.64501C276.161 13.8848 270.641 20.4616 265.515 27.3422C258.585 23.5829 252.59 18.3099 247.974 11.9147C245.986 9.15195 241.485 11.9792 243.492 14.7661C248.472 21.7148 254.914 27.4868 262.364 31.6759C258.91 36.5468 255.653 41.5522 252.594 46.6921C250.84 49.6404 255.532 52.1321 257.276 49.202C265.41 35.5388 275.022 22.8133 285.939 11.2553C288.292 8.77049 284.387 5.15369 282.049 7.64501Z" fill="#4B9691"/>
<path d="M31.9638 126.546C38.2143 115.383 45.2709 104.69 53.0776 94.5548C52.3608 103.841 52.353 113.168 53.0542 122.456C53.0885 123.033 53.3086 123.584 53.6816 124.026C54.0547 124.468 54.5607 124.777 55.1239 124.907C55.6871 125.037 56.2772 124.982 56.8062 124.748C57.3351 124.515 57.7743 124.117 58.0582 123.613C62.443 116.141 64.1001 107.452 66.9521 99.3568C69.9403 90.9514 73.6782 82.8321 78.1206 75.0972C79.8203 72.119 75.1313 69.62 73.4382 72.5873C69.009 80.3621 65.2545 88.5028 62.2157 96.9199C60.587 101.424 59.3701 106.139 57.858 110.727C57.7483 102.632 58.1974 94.5378 59.202 86.504C59.503 84.1205 56.5474 81.8336 54.6718 84.0842C47.9098 92.2692 41.6344 100.845 35.8777 109.766C38.7295 98.2418 42.0586 86.8497 45.8651 75.5899C46.9601 72.3577 41.781 71.1571 40.6922 74.3643C35.1248 90.834 30.5687 107.629 27.0494 124.655C26.4265 127.622 30.4718 129.205 31.9638 126.546Z" fill="#4B9691"/>
<path d="M94.5606 115.945C86.4308 115.878 78.3131 116.584 70.3168 118.054C72.6476 112.515 74.9207 106.953 77.1363 101.367C82.0947 101.823 87.0916 101.14 91.7459 99.369C94.9216 98.155 93.3503 93.0718 90.1397 94.3013C86.6476 95.6616 82.9186 96.3082 79.1727 96.2029C81.7355 89.6654 84.2275 83.0987 86.6487 76.5027C89.2451 76.6529 91.8487 76.6246 94.4412 76.418C97.8397 76.1424 97.6595 70.8301 94.2433 71.1064C91.2397 71.3473 88.2217 71.3471 85.2182 71.1058C84.0916 71.0166 83.1238 71.9604 82.7907 73.0047C82.313 73.4045 81.9528 73.9265 81.7485 74.5152C78.989 82.0505 76.1312 89.548 73.1752 97.0079C72.8958 97.4051 72.7138 97.8626 72.644 98.3433C69.7064 105.729 66.6731 113.078 63.5439 120.391C62.6019 122.593 64.3528 124.701 66.6861 124.175C75.8936 122.128 85.3058 121.148 94.7371 121.254C98.1792 121.292 97.9741 115.977 94.5606 115.945Z" fill="#4B9691"/>
<path d="M110.198 81.1432C111.79 77.9555 113.621 74.8929 115.675 71.9818C116.506 70.8019 115.734 69.0151 114.588 68.3841C113.199 67.6238 111.814 68.3067 110.993 69.472C108.936 72.3818 107.105 75.4445 105.516 78.6333C103.985 81.6938 108.668 84.2072 110.198 81.1432Z" fill="#4B9691"/>
<path d="M127.944 71.1697C126.794 70.5388 124.88 70.9293 124.345 72.2577L104.894 120.822C104.142 122.697 105.174 124.712 107.333 124.734C112.238 124.761 117.139 124.44 121.999 123.773C123.409 123.582 124.611 122.555 124.554 121.018C124.504 119.694 123.229 118.266 121.801 118.461C118.273 118.946 114.724 119.248 111.165 119.365C117.119 104.486 123.075 89.6202 129.035 74.7673C129.566 73.4248 129.297 71.9136 127.944 71.1697Z" fill="#4B9691"/>
<path d="M144.696 75.8008C145.74 72.5386 140.561 71.3451 139.523 74.5752C137.13 82.0507 134.704 89.5168 132.351 97.0051C130.029 104.4 127.912 111.869 126.777 119.553C126.514 121.335 127.634 122.765 129.461 122.818C137.873 123.065 146.285 123.199 154.698 123.221C158.118 123.229 157.913 117.917 154.5 117.91C147.158 117.89 139.816 117.784 132.477 117.592C133.674 111.023 135.536 104.595 137.524 98.2272C139.874 90.7461 142.303 83.2799 144.696 75.8008Z" fill="#4B9691"/>
<path d="M196.012 116.001C187.942 116.623 179.859 116.906 171.764 116.848C173.266 110.764 174.812 104.692 176.4 98.633C176.435 98.6317 176.467 98.6305 176.503 98.6504C181.181 99.2088 185.906 99.2515 190.593 98.7779C193.975 98.4214 193.805 93.1087 190.395 93.4662C186.198 93.928 181.962 93.9325 177.764 93.4795C179.463 87.1019 181.211 80.7378 183.009 74.3873C187.908 74.5552 192.812 74.2633 197.657 73.5152C199.066 73.296 200.269 72.315 200.212 70.7605C200.163 69.4538 198.885 67.9731 197.459 68.2036C191.5 69.1277 185.454 69.3601 179.441 68.8962C178.02 68.7825 176.837 70.3301 176.886 71.6509C176.892 71.9991 176.972 72.3421 177.12 72.657C177.269 72.9719 177.483 73.2514 177.748 73.4769C173.497 88.5286 169.512 103.652 165.793 118.847C165.362 120.604 166.782 122.08 168.477 122.112C177.732 122.294 186.975 122.028 196.206 121.313C199.608 121.037 199.428 115.725 196.012 116.001Z" fill="#4B9691"/>
<path d="M218.546 121.636C220.106 121.578 220.998 120.322 221.1 118.882C221.378 114.864 221.608 110.845 221.789 106.824C223.524 105.859 223.529 103.136 221.97 102.176C222.379 90.8961 222.413 79.6102 222.072 68.3182C221.981 65.8607 218.072 64.6057 217.068 67.1607C213.755 75.6835 210.438 84.2065 207.118 92.7295C203.946 100.879 200.66 109.037 198.832 117.616C198.114 120.962 203.287 122.187 204.005 118.841C204.888 114.852 206.013 110.919 207.376 107.067C210.399 107.334 213.435 107.436 216.469 107.374C216.289 111.279 216.064 115.182 215.796 119.083C215.69 120.516 217.219 121.686 218.546 121.636ZM209.229 101.938C210.155 99.478 211.116 97.0308 212.07 94.584L216.998 81.9148C217.026 88.6346 216.922 95.35 216.686 102.061C214.2 102.148 211.711 102.107 209.229 101.938Z" fill="#4B9691"/>
<path d="M231.352 119.546C233.603 103.902 236.093 88.2965 238.82 72.7295C241.362 72.6064 243.903 72.4479 246.442 72.254C249.841 71.9926 249.661 66.6767 246.244 66.9423C240.355 67.3982 234.459 67.6628 228.556 67.7362C225.135 67.7786 225.336 73.0901 228.754 73.0479C230.306 73.0279 231.857 72.9949 233.41 72.9488C230.776 88.0348 228.368 103.16 226.186 118.323C225.695 121.689 230.865 122.933 231.352 119.546Z" fill="#4B9691"/>
<path d="M272.199 62.5427C257.067 86.4678 242.415 110.688 228.243 135.204C226.525 138.172 231.218 140.671 232.925 137.714C247.093 113.203 261.745 88.9825 276.881 65.0526C278.715 62.1545 274.016 59.6666 272.199 62.5427Z" fill="#4B9691"/>
<path d="M28.5505 185.861L30.3521 183.811C30.7303 183.411 30.9657 182.896 31.0215 182.348C31.0773 181.799 30.9505 181.248 30.6609 180.779C34.9485 169.763 39.9411 159.035 45.608 148.662C45.7106 148.477 45.7924 148.282 45.852 148.079L51.0749 147.884C54.4896 147.757 54.2988 142.445 50.877 142.572L33.1383 143.233C29.7237 143.361 29.9145 148.673 33.3363 148.545L39.7658 148.305C33.7261 159.648 28.4643 171.388 24.017 183.445C23.0669 186.001 26.8981 187.731 28.5505 185.861Z" fill="#4B9691"/>
<path d="M57.2582 180.117C59.5765 169.952 63.2323 160.139 68.1299 150.936C69.7393 147.912 65.0536 145.405 63.4475 148.426C61.5599 151.972 59.8514 155.6 58.3219 159.312C56.7272 159.841 55.0732 160.171 53.3976 160.293C55.3405 156.328 57.411 152.429 59.6093 148.598C61.3126 145.623 56.6238 143.124 54.9271 146.088C51.6885 151.733 48.7278 157.517 46.0453 163.44C44.7102 166.409 43.4484 169.411 42.2599 172.446C41.7011 173.871 41.1555 175.301 40.6231 176.737C40.1209 178.093 39.1933 179.73 39.8427 181.181C40.2871 182.172 41.2468 183.203 42.4736 183.033C43.5665 182.883 44.4448 182.488 44.9589 181.451C45.2539 180.833 45.3243 180.13 45.1578 179.465C45.8355 177.114 47.0053 174.751 47.9079 172.537C48.8561 170.215 49.8475 167.913 50.8821 165.628L50.9459 165.626C52.6331 165.707 54.3242 165.612 55.9918 165.342C54.4277 169.777 53.1184 174.297 52.0705 178.882C51.3273 182.235 56.4969 183.461 57.2582 180.117Z" fill="#4B9691"/>
<path d="M90.1963 151.256C93.6054 151.075 93.4181 145.763 89.9983 145.944L71.8883 146.91C71.3608 146.92 70.8505 147.099 70.4316 147.42C70.0128 147.742 69.7073 148.188 69.5595 148.695C64.6649 159.058 60.7422 169.854 57.8418 180.943C57.4261 182.529 58.8206 184.389 60.5254 184.208C66.5672 183.552 72.6602 183.513 78.7097 184.094C80.1325 184.24 81.5274 183.635 81.9066 182.117C82.2144 180.868 81.3569 179.063 79.9307 178.921C74.6292 178.379 69.2922 178.27 63.9731 178.598C65.1252 174.522 66.422 170.493 67.8635 166.513L80.3146 166.404C83.7363 166.368 83.5348 161.057 80.1167 161.092L69.8941 161.193C71.1104 158.143 72.4154 155.126 73.809 152.143L90.1963 151.256Z" fill="#4B9691"/>
<path d="M100.514 176.427C103.516 176.722 106.542 176.679 109.534 176.297C114.495 175.64 120.182 174.382 123.713 170.535C126.873 167.098 127.683 161.057 123.977 157.66C122.279 156.106 120.052 155.505 117.829 155.187C116.825 155.043 115.815 154.943 114.821 154.721C114.393 154.618 113.972 154.485 113.563 154.321C115.614 152.319 118.405 151.13 121.043 150.056C123.994 148.858 127.041 147.914 130.151 147.235C133.483 146.501 131.87 141.433 128.545 142.167C125.224 142.887 121.977 143.911 118.844 145.227C116.077 146.394 113.023 147.643 110.734 149.629C108.674 151.415 107.272 154.289 108.79 156.896C110.187 159.291 113.068 159.868 115.59 160.22C117.481 160.483 120.529 160.494 121.056 162.854C121.583 165.213 119.897 167.212 118.023 168.364C115.563 169.874 112.48 170.542 109.657 170.948C107.888 171.199 106.104 171.325 104.317 171.325C103.424 171.326 102.545 171.302 101.638 171.237C101.208 171.21 100.777 171.169 100.348 171.114C100.23 171.072 100.111 171.036 99.9894 171.007C99.7122 170.523 99.2641 170.161 98.7331 169.991C98.2021 169.821 97.6267 169.856 97.1204 170.089L96.9214 170.168C96.3765 170.359 95.9051 170.716 95.5732 171.188C95.2413 171.661 95.0656 172.226 95.0707 172.804C95.0414 175.819 98.2529 176.231 100.514 176.427Z" fill="#4B9691"/>
<path d="M147.058 145.265C146.807 142.526 143.518 141.929 142.054 144.111L120.685 176.204C119.883 177.408 120.601 179.161 121.773 179.805C123.129 180.553 124.576 179.903 125.368 178.718L131.448 169.583L131.741 169.54L136.831 168.535C136.576 169.828 136.335 171.123 136.107 172.42C135.837 173.979 135.583 175.54 135.346 177.105C135.244 177.775 135.148 178.449 135.067 179.118C135.017 179.475 134.97 179.831 134.923 180.188C134.718 180.379 134.541 180.598 134.398 180.838C134.177 181.206 134.04 181.617 133.996 182.043C133.952 182.469 134.002 182.9 134.143 183.304C134.284 183.709 134.512 184.077 134.811 184.384C135.11 184.69 135.473 184.927 135.874 185.078C137.743 185.785 139.491 184.315 139.922 182.558C140.414 180.547 140.514 178.369 140.845 176.322C141.184 174.203 141.56 172.088 141.973 169.978C142.169 168.917 142.385 167.856 142.619 166.795C142.854 166.468 143.019 166.097 143.105 165.704C143.191 165.311 143.196 164.905 143.119 164.51C143.625 162.248 144.171 159.992 144.756 157.744C145.812 153.676 147.454 149.533 147.058 145.265ZM139.22 157.922C138.81 159.592 138.412 161.261 138.025 162.931L135.562 163.412L139.22 157.922Z" fill="#4B9691"/>
<path d="M147.602 185.619L160.578 185.153C163.993 185.026 163.802 179.714 160.38 179.842L150.762 180.2C152.97 169.276 155.59 158.45 158.62 147.72C159.56 144.419 154.38 143.215 153.45 146.494C150.111 158.325 147.267 170.281 144.918 182.361C144.832 182.758 144.837 183.169 144.933 183.564C145.029 183.959 145.213 184.327 145.471 184.641C145.729 184.954 146.055 185.205 146.424 185.374C146.793 185.544 147.196 185.628 147.602 185.619Z" fill="#4B9691"/>
<path d="M168.846 172.729C168.372 175.686 168.26 178.761 167.375 181.649C166.367 184.927 171.546 186.124 172.545 182.874C173.43 180.005 173.542 176.926 174.016 173.954C174.459 171.21 175.014 168.486 175.681 165.783C177.053 160.246 178.9 154.838 181.202 149.62L187.437 149.387C190.852 149.26 190.661 143.948 187.239 144.076L169.9 144.722C166.486 144.849 166.68 150.161 170.098 150.034L175.374 149.837C173.479 154.425 171.911 159.142 170.681 163.951C169.936 166.844 169.324 169.77 168.846 172.729Z" fill="#4B9691"/>
<path d="M207.911 181.897C210.589 181.684 212.824 179.678 214.381 177.627C217.549 173.449 218.604 168.268 218.876 163.13C219.12 158.455 218.981 152.719 215.931 149.031C216.493 147.947 216.474 146.692 215.494 145.76C214.513 144.829 212.578 144.738 211.739 145.9L211.51 146.217C209.616 146.178 208.254 148.314 208.88 149.908C203.24 158.022 197.418 168.274 201.865 177.69C202.992 180.073 205.074 182.127 207.911 181.897ZM207.319 163.359C208.662 159.926 210.581 156.755 212.664 153.706C214.266 156.838 213.763 161.615 213.477 164.669C213.307 166.923 212.803 169.139 211.982 171.245C211.332 172.826 209.788 175.99 207.925 176.482C206.282 176.897 205.779 172.622 205.729 171.478C205.615 168.706 206.32 165.921 207.319 163.359Z" fill="#4B9691"/>
<path d="M230.495 154.669L254.344 152.227C257.726 151.878 257.552 146.565 254.146 146.916L230.297 149.357C229.922 149.387 229.558 149.497 229.23 149.68C228.901 149.864 228.617 150.117 228.395 150.421C227.004 149.604 224.873 149.935 224.382 151.989C221.969 162.034 219.762 172.125 217.761 182.264C217.218 185.011 220.349 186.398 222.291 184.68C222.926 184.115 223.437 183.425 223.792 182.652C224 182.244 224.094 181.787 224.065 181.33C224.036 180.872 223.885 180.431 223.628 180.052C224.544 175.526 225.5 171.007 226.496 166.495C226.689 166.526 226.884 166.537 227.078 166.53L264.092 165.069C267.507 164.942 267.316 159.63 263.894 159.758L227.684 161.185C228.194 158.96 228.715 156.739 229.246 154.521C229.643 154.674 230.073 154.725 230.495 154.669Z" fill="#4B9691"/>
<path d="M35.8641 229.03L25.382 227.492L25.2076 227.473C26.9893 219.627 28.8485 211.799 30.7851 203.989C30.9803 203.956 31.1717 203.904 31.3568 203.833C34.3515 202.704 37.4323 203.696 40.468 204.143C43.765 204.636 47.1248 204.511 50.3759 203.774C53.7074 203.029 52.0941 197.961 48.7696 198.702C45.533 199.426 42.4497 199.126 39.2254 198.562C36.1687 198.027 33.0785 197.642 30.0937 198.654C28.707 197.957 26.7049 198.333 26.218 200.291C19.9893 225.161 14.5598 250.209 9.92952 275.435C9.31413 278.795 14.4804 280.024 15.0992 276.661C17.8034 261.936 20.7824 247.269 24.0366 232.659L24.1508 232.679L34.6366 234.221C38.0066 234.702 39.249 229.528 35.8641 229.03Z" fill="#4B9691"/>
<path d="M143.474 265.704C122.093 265.522 100.726 264.848 79.3722 263.681C81.3604 256.433 83.3463 249.187 85.3301 241.946L105.558 242.749L115.629 243.146C118.546 243.265 122.123 243.968 124.648 242.126C127.408 240.126 124.572 235.622 121.795 237.64C120.839 238.335 119.345 237.99 118.209 237.944L113.348 237.753L103.973 237.393L86.7544 236.708C89.2207 227.709 91.6869 218.707 94.153 209.703C94.2534 209.357 94.2821 208.993 94.2373 208.636L128.259 208.765C131.679 208.779 131.474 203.468 128.061 203.453L90.1978 203.311C87.3024 203.299 87.0048 207.104 89.0542 208.279C89.0317 208.34 89.0091 208.402 88.9903 208.47L73.5403 264.842C66.8438 252.659 60.8168 240.119 55.4863 227.278L55.6721 226.654C58.3308 225.637 60.893 224.383 63.3281 222.908C66.4468 221.019 69.8271 218.733 71.8482 215.63C76.3195 208.768 69.925 202.056 63.5011 200.069C63.5234 200 63.5419 199.929 63.5641 199.861C64.533 196.573 59.3537 195.369 58.3912 198.635L51.3621 222.535L50.9735 222.659C49.6809 223.062 48.7024 224.666 49.241 225.997C49.4517 226.517 49.6698 227.044 49.8838 227.558L47.7984 234.639C46.0563 240.569 44.2999 246.496 42.5865 252.435C41.75 255.346 40.9256 258.261 40.1131 261.18C39.678 262.754 39.25 264.328 38.8291 265.901L38.2881 267.929C38.22 268.194 38.152 268.459 38.0804 268.724C36.731 269.692 36.1882 271.677 37.5799 273.175C37.9782 273.595 38.4857 273.895 39.0452 274.042C39.6047 274.189 40.194 274.177 40.7469 274.007C42.2102 273.527 42.6706 272.187 43.0173 270.841C44.511 265.09 46.1123 259.378 47.7553 253.644C49.525 247.502 51.3175 241.369 53.1327 235.245C60.604 252.427 69.2995 269.049 79.1524 284.983C80.951 287.892 85.4409 285.047 83.635 282.132C80.9051 277.719 78.2653 273.252 75.7157 268.732C75.8182 268.749 75.9214 268.761 76.0251 268.767C98.5457 270.055 121.088 270.793 143.653 270.981C147.093 271.044 146.888 265.733 143.474 265.704ZM57.8388 219.378C59.2355 214.639 60.6309 209.896 62.025 205.152C62.0811 205.176 62.1387 205.196 62.1974 205.213C64.2726 205.845 66.5638 207.135 67.5951 209.136C68.7104 211.3 67.3651 213.141 65.7791 214.608C63.3429 216.802 60.6029 218.634 57.6439 220.045C57.7101 219.823 57.7727 219.601 57.8388 219.378Z" fill="#4B9691"/>
<path d="M187.317 204.749C187.43 204.248 187.538 203.747 187.651 203.25C188.398 199.907 183.229 198.688 182.482 202.025C182.403 202.382 182.327 202.711 182.251 203.058C181.847 203.298 181.511 203.639 181.278 204.048C181.045 204.462 180.935 204.934 180.962 205.408C180.989 205.882 181.152 206.339 181.431 206.723C177.967 222.251 174.501 237.779 171.03 253.305L168.673 253.283C166.685 253.26 164.699 253.23 162.713 253.193C158.86 253.121 155.005 253.021 151.15 252.893C144.572 252.665 137.998 252.358 131.428 251.972C132.903 245.513 134.378 239.051 135.855 232.588L148.276 232.235C154.293 232.064 160.631 232.402 166.53 230.966C169.852 230.161 168.246 225.09 164.924 225.898C162.115 226.577 159.256 226.606 156.399 226.687L147.373 226.942L137.069 227.234L141.127 209.473C150.091 209.994 159.076 210.063 168.047 209.679C171.461 209.534 171.27 204.222 167.849 204.368C157.545 204.809 147.223 204.653 136.937 203.899C135.515 203.796 134.332 205.333 134.382 206.654C134.39 207.119 134.529 207.573 134.783 207.963C135.037 208.353 135.395 208.663 135.817 208.859L131.586 227.392L129.324 227.455C125.908 227.551 126.103 232.862 129.522 232.767L130.361 232.736L125.547 253.812C125.133 255.632 126.53 256.966 128.235 257.077C137.332 257.648 146.435 258.064 155.545 258.325C159.983 258.45 164.423 258.538 168.864 258.587C169.171 258.576 169.499 258.606 169.832 258.626L167.294 269.993C167.05 270.238 166.859 270.529 166.731 270.849C166.604 271.17 166.543 271.513 166.552 271.858C166.55 272.489 166.545 273.12 166.544 273.752L166.545 273.776L164.113 275.537C163.492 275.589 162.912 275.863 162.476 276.307L160.664 278.077C158.524 280.167 161.572 283.898 164.036 282.129C169.858 277.947 175.687 273.762 181.244 269.232C186.461 264.985 191.833 260.515 195.924 255.129C200.033 249.802 202.208 243.234 202.093 236.506C202.011 230.179 200.57 223.944 197.869 218.224C195.441 212.975 191.829 208.363 187.317 204.749ZM191.861 251.741C188.143 256.575 183.364 260.685 178.659 264.531C176.789 266.061 174.874 267.548 172.965 268.998L175.315 258.471L175.526 258.407C176.372 258.118 177.08 257.522 177.51 256.737C177.94 255.952 178.061 255.034 177.848 254.164C177.645 253.517 177.208 252.969 176.621 252.628C179.751 238.597 182.883 224.566 186.02 210.534C192.6 216.718 196.223 225.888 196.737 234.819C197.091 241.011 195.67 246.812 191.879 251.751L191.861 251.741Z" fill="#4B9691"/>
<path d="M227.063 223.445C226.565 218.747 226.24 212.397 221.624 209.754C219.618 208.602 217.086 208.377 215.043 209.563C213.077 210.7 211.971 212.706 211.158 214.743C210.654 215.971 210.858 217.35 211.937 218.14C208.364 225.378 205.927 233.123 204.71 241.103C204.023 245.693 203.51 250.478 204.256 255.088C204.933 259.258 206.607 263.77 210.392 266.072C213.825 268.164 217.994 267.264 220.602 264.298C223.344 261.16 224.329 256.865 225.23 252.913C227.454 243.258 228.073 233.301 227.063 223.445ZM220.405 250.072C219.864 252.67 217.36 265.94 212.262 260.832C209.826 258.391 209.305 254.393 209.218 251.113C209.186 247.539 209.51 243.972 210.185 240.463C211.648 232.17 214.497 224.183 218.613 216.838C218.873 216.419 218.995 215.93 218.963 215.439C218.932 214.947 218.748 214.478 218.437 214.096C219.39 214.291 220.147 215.568 220.455 216.347C221.734 219.555 221.815 223.551 222.038 226.954C222.548 234.699 221.998 242.476 220.405 250.072Z" fill="#4B9691"/>
<path d="M269.541 194.614C268.587 194.103 267.028 194.215 266.344 195.152C254.913 210.765 252.295 230.093 245.627 247.791C245.87 234.772 247.44 221.811 250.312 209.11C251.073 205.745 246.116 204.636 245.139 207.885C239.549 226.554 233.956 245.224 228.361 263.895C227.378 267.176 232.557 268.377 233.534 265.121L240.521 241.811C240.223 247.884 240.203 253.962 240.46 260.047C240.576 262.667 244.212 263.542 245.464 261.201C250.823 251.147 253.809 240.1 257.029 229.232C259.091 222.265 261.304 215.208 264.45 208.623C262.67 229.228 262.804 249.954 264.851 270.535C265.19 273.923 270.502 273.75 270.159 270.337C267.716 246.133 267.961 221.732 270.888 197.581C271.021 196.389 270.662 195.214 269.541 194.614Z" fill="#4B9691"/>
</g>
<defs>
<clipPath id="clip0_555_324">
<rect width="286.513" height="278.393" fill="white" transform="translate(0 10.6802) rotate(-2.13408)"/>
</clipPath>
</defs>
</svg>
