<svg width="1017" height="96" viewBox="0 0 1017 96" fill="none" xmlns="http://www.w3.org/2000/svg">
<path d="M1.87728 79.7649C2.11394 82.217 5.68245 83.4599 6.88112 80.9189C11.0766 71.9802 15.6332 63.2279 20.5513 54.6618C20.9742 54.4046 21.3048 54.0198 21.4955 53.5628C21.6592 53.2021 21.8229 52.8414 21.9901 52.4806C22.0855 52.2707 22.1559 52.0502 22.1996 51.8238C25.6072 46.0232 29.174 40.31 32.9 34.6843C33.702 33.4807 32.9848 31.7309 31.8127 31.0866C30.4525 30.3395 29.006 30.9855 28.2176 32.1744C25.8151 35.7864 23.4792 39.4407 21.2098 43.1375C21.0415 39.7632 20.9287 36.3893 20.8715 33.0156C20.8184 29.5921 15.5107 29.7934 15.5637 33.2134C15.6623 39.219 15.9402 45.218 16.3973 51.2103C11.6169 59.4757 7.17062 67.9272 3.05846 76.5649C2.6189 76.7707 2.25805 77.1136 2.02993 77.5422C1.80182 77.9708 1.71882 78.462 1.79349 78.9418C1.82501 79.2172 1.85283 79.4892 1.87728 79.7649Z" fill="#4B9691"/>
<path d="M15.1148 80.9848C22.4627 80.5712 29.7458 79.3774 36.8416 77.4235C40.1352 76.5206 38.5395 71.449 35.2354 72.3558C30.1479 73.754 24.9545 74.7326 19.7072 75.2819L28.0642 60.0134L35.7664 59.1235C39.1393 58.7319 38.9697 53.4192 35.5684 53.8119L31.1797 54.33L40.5154 37.2733C40.8302 37.294 41.1461 37.2739 41.4557 37.2135C43.7668 36.7919 46.1188 36.6376 48.4652 36.7537C51.8825 36.8852 51.6668 31.5742 48.2673 31.442C45.4461 31.3529 42.624 31.5877 39.8564 32.1419C39.5703 32.1993 39.3011 32.3208 39.0689 32.4975C38.537 32.3842 37.9825 32.4507 37.4925 32.6865C37.0024 32.9223 36.6043 33.3141 36.3605 33.8006L12.6698 77.0831C11.7175 78.8207 13.0956 81.0955 15.1148 80.9848Z" fill="#4B9691"/>
<path d="M45.9359 49.514C46.0394 52.2903 47.7706 54.4349 50.0247 55.8757C51.8689 57.0587 54.7325 57.5478 56.1112 59.3616C57.4899 61.1754 54.2773 63.21 53.0654 64.1594C50.9686 65.8013 48.386 67.5252 45.6046 67.4373C44.6555 67.4143 43.725 67.1684 42.8883 66.7194C42.2827 66.4056 41.7444 65.9764 41.3034 65.4559C41.6013 63.9412 40.6974 62.1274 38.7 62.1557L38.4983 62.1633C38.0346 62.1793 37.5831 62.3171 37.1893 62.5626C36.7954 62.8082 36.4731 63.153 36.2543 63.5625C35.1649 65.7059 36.5108 68.0705 38.0223 69.6454C39.6235 71.2348 41.6932 72.2667 43.9255 72.5885C49.3025 73.3916 53.9232 70.4429 57.8335 67.0703C59.5677 65.5873 61.3189 63.8022 61.7382 61.4568C62.1837 58.958 61.0677 56.5848 59.1931 54.9667C57.4649 53.4709 55.3725 52.7581 53.4016 51.6932C51.4308 50.6284 50.7353 49.2714 51.9722 47.1863C53.3491 44.8656 55.7916 43.0831 57.9825 41.5901C60.5364 39.8547 63.3083 38.4649 66.2264 37.4568C69.4446 36.3369 67.8664 31.261 64.6201 32.3891C59.0057 34.3429 53.454 37.5036 49.3832 41.8964C47.4467 43.9401 45.8277 46.6103 45.9359 49.514Z" fill="#4B9691"/>
<path d="M81.6454 73.4278C85.1417 74.0634 88.5112 72.3422 90.7859 69.7681C95.2057 64.7595 97.4991 57.5537 98.1411 51.0086C98.5231 47.128 98.3019 43.2114 97.4853 39.3985C97.1907 37.8451 96.5499 36.3781 95.6104 35.1068C96.7221 32.8952 93.3704 30.2471 91.1105 32.2675C90.9048 32.4525 90.6991 32.6374 90.4973 32.8328C90.0751 32.9092 89.6861 33.1116 89.3812 33.4135C89.0762 33.7154 88.8695 34.1026 88.7886 34.5242C84.9837 38.5163 81.9074 43.1447 79.699 48.1995C78.352 51.2491 77.2782 54.4124 76.4902 57.6521C75.7412 60.7545 75.0257 64.0896 75.6505 67.2577C76.2518 70.3664 78.481 72.8542 81.6454 73.4278ZM80.7607 63.4716C81.2727 58.6689 82.8796 53.7723 84.9573 49.429C86.7396 45.6438 89.0632 42.1384 91.8549 39.0232C91.9018 39.1421 91.9451 39.2575 91.9849 39.373C92.3729 40.522 92.6277 41.7119 92.7442 42.9191C93.0831 45.4339 93.134 47.9792 92.8957 50.5055C92.3773 55.6098 90.6846 60.8714 87.7274 65.0985C86.6039 66.7077 84.7862 68.6123 82.6168 68.2109C80.5149 67.814 80.5849 65.1235 80.7607 63.4716Z" fill="#4B9691"/>
<path d="M97.2881 69.8695C98.833 70.2481 99.9786 69.2302 100.485 67.8923C102.543 62.4469 104.382 56.9293 106.002 51.3395C106.665 57.7969 107.518 64.2331 108.561 70.648C109.019 73.4429 113.012 74.287 113.799 71.162C117.024 58.3329 122.385 46.2362 127.761 34.1922C129.151 31.0801 124.475 28.5559 123.079 31.6823C119.153 40.4454 115.261 49.2498 112.123 58.3311C111.15 50.5189 110.456 42.6796 110.042 34.8134C109.89 31.8688 105.436 31.3078 104.804 34.2994C102.47 45.3198 99.2974 56.1452 95.3126 66.6808C94.8163 68.0042 96.025 69.5407 97.2881 69.8695Z" fill="#4B9691"/>
<path d="M119.201 68.9286C119.768 71.3897 122.014 71.6606 124.163 71.5344L139.293 70.5699C142.698 70.3544 142.514 65.0422 139.096 65.2582L130.65 65.7963L126.429 66.0635L124.909 66.1627C125.907 62.1185 127.245 58.1007 128.468 54.119C134.711 54.65 140.998 54.128 147.067 52.5749C150.377 51.7423 148.774 46.6568 145.461 47.5072C140.419 48.8108 135.202 49.3021 130.005 48.9626C131.17 45.0327 132.349 41.1083 133.542 37.1892C137.994 37.7275 142.475 37.9857 146.958 37.9622C150.381 37.9411 150.179 32.6296 146.76 32.6506C141.948 32.6892 137.14 32.373 132.374 31.7045C131.864 31.6207 131.34 31.6859 130.866 31.8922C130.391 32.0986 129.987 32.4373 129.7 32.8679C129.335 33.2042 129.068 33.6333 128.927 34.1094C126.059 43.4903 123.276 52.8953 120.578 62.3242C120.03 64.2737 118.732 66.8964 119.201 68.9286Z" fill="#4B9691"/>
<path d="M161.503 71.5864C165.177 69.5625 168.612 67.1317 171.743 64.3397C174.61 61.7932 177.397 58.8738 179.084 55.3855C182.888 47.5205 179.582 39.268 175.668 32.1764C174.437 29.9386 171.566 31.0598 170.84 32.991C166.92 43.4557 163.576 54.1278 160.824 64.9593C160.753 65.2335 160.723 65.5166 160.735 65.7995C160.195 65.9329 159.695 66.1949 159.278 66.563L158.131 67.5419C155.727 69.5924 159.01 72.9558 161.503 71.5864ZM173.804 40.3521C175.599 44.7638 176.391 49.4753 173.87 53.899C172.249 56.7288 169.905 59.2239 167.268 61.3966C169.184 54.3041 171.359 47.2894 173.794 40.3525L173.804 40.3521Z" fill="#4B9691"/>
<path d="M174.647 66.8774C173.095 69.9281 177.777 72.4345 179.347 69.3867C181.486 65.1841 183.789 61.0795 186.255 57.0728C190.092 57.1532 193.932 57.1165 197.77 56.938C199.56 56.8713 201.344 56.7339 203.129 56.5929C204.262 60.8248 205.347 65.0656 206.384 69.3153C206.138 69.7134 206.019 70.1777 206.045 70.6455C206.07 71.1132 206.239 71.5618 206.528 71.9305L207.494 73.3129C209.256 75.8287 212.966 74.0167 212.269 71.0853C211.053 65.9889 209.772 60.9103 208.423 55.8495C209.002 55.6546 209.551 55.3837 210.058 55.044C212.878 53.1233 210.046 48.6261 207.208 50.5403C207.15 50.5815 207.084 50.6159 207.021 50.6537C205.428 44.8692 203.75 39.1103 201.987 33.3771C201.422 31.5365 198.806 30.8255 197.51 32.3702C192.342 38.54 187.583 45.0415 183.264 51.8333C182.175 52.1824 181.669 53.2402 181.715 54.3094C179.194 58.4009 176.838 62.5902 174.647 66.8774ZM196.184 51.6709C193.99 51.7527 191.795 51.792 189.598 51.7887C192.342 47.6464 195.263 43.6239 198.361 39.7213C199.519 43.5906 200.634 47.471 201.708 51.3623C199.865 51.4948 198.024 51.5977 196.184 51.6709Z" fill="#4B9691"/>
<path d="M246.155 29.5322C240.268 35.772 234.747 42.3488 229.622 49.2294C222.692 45.4701 216.696 40.1971 212.081 33.8019C210.093 31.0392 205.592 33.8664 207.599 36.6533C212.579 43.602 219.021 49.374 226.47 53.5631C223.016 58.434 219.76 63.4394 216.701 68.5793C214.947 71.5276 219.639 74.0193 221.383 71.0892C229.517 57.426 239.129 44.7005 250.046 33.1425C252.398 30.6577 248.493 27.0409 246.155 29.5322Z" fill="#4B9691"/>
<path d="M260.03 76.2818C266.28 65.1179 273.337 54.4256 281.143 44.2901C280.427 53.5763 280.419 62.9037 281.12 72.1911C281.154 72.7685 281.374 73.3193 281.748 73.7612C282.121 74.203 282.627 74.5121 283.19 74.6424C283.753 74.7727 284.343 74.717 284.872 74.4838C285.401 74.2506 285.84 73.8523 286.124 73.3485C290.509 65.8768 292.166 57.1876 295.018 49.0921C298.006 40.6867 301.744 32.5674 306.186 24.8325C307.886 21.8543 303.197 19.3554 301.504 22.3226C297.075 30.0974 293.32 38.2381 290.282 46.6552C288.653 51.1591 287.436 55.8745 285.924 60.4627C285.814 52.3669 286.263 44.2732 287.268 36.2394C287.569 33.8559 284.613 31.5689 282.738 33.8196C275.976 42.0045 269.7 50.58 263.944 59.5016C266.795 47.9772 270.124 36.5851 273.931 25.3253C275.026 22.0931 269.847 20.8925 268.758 24.0996C263.191 40.5694 258.635 57.3643 255.115 74.3906C254.492 77.357 258.538 78.9402 260.03 76.2818Z" fill="#4B9691"/>
<path d="M322.626 65.6799C314.497 65.6134 306.379 66.3196 298.383 67.789C300.713 62.2507 302.987 56.6886 305.202 51.1026C310.161 51.5583 315.158 50.8749 319.812 49.1044C322.988 47.8903 321.416 42.8071 318.206 44.0367C314.713 45.3969 310.984 46.0435 307.239 45.9382C309.801 39.4008 312.293 32.8341 314.715 26.2381C317.311 26.3883 319.915 26.36 322.507 26.1534C325.906 25.8778 325.725 20.5655 322.309 20.8417C319.306 21.0826 316.288 21.0825 313.284 20.8412C312.157 20.7519 311.19 21.6958 310.857 22.7401C310.379 23.1398 310.019 23.6619 309.814 24.2505C307.055 31.7858 304.197 39.2834 301.241 46.7432C300.962 47.1404 300.78 47.5979 300.71 48.0786C297.772 55.4645 294.739 62.8138 291.61 70.1265C290.668 72.3282 292.419 74.4366 294.752 73.91C303.959 71.8638 313.372 70.8837 322.803 70.9889C326.245 71.0273 326.04 65.7123 322.626 65.6799Z" fill="#4B9691"/>
<path d="M338.264 30.878C339.856 27.6903 341.687 24.6278 343.741 21.7167C344.572 20.5368 343.8 18.75 342.653 18.119C341.264 17.3587 339.879 18.0415 339.058 19.2069C337.002 22.1166 335.171 25.1793 333.581 28.3682C332.051 31.4287 336.734 33.9421 338.264 30.878Z" fill="#4B9691"/>
<path d="M356.01 20.9051C354.86 20.2742 352.947 20.6647 352.411 21.9931L332.96 70.5572C332.208 72.4327 333.24 74.4474 335.399 74.4698C340.304 74.4965 345.205 74.1752 350.065 73.5084C351.475 73.3176 352.677 72.2906 352.62 70.7537C352.57 69.4294 351.295 68.0018 349.867 68.1968C346.34 68.6814 342.79 68.9829 339.231 69.1002C345.185 54.2214 351.141 39.3556 357.101 24.5027C357.632 23.1602 357.363 21.649 356.01 20.9051Z" fill="#4B9691"/>
<path d="M372.762 25.5362C373.806 22.2739 368.627 21.0804 367.589 24.3105C365.196 31.7861 362.77 39.2522 360.417 46.7404C358.095 54.1353 355.978 61.604 354.843 69.288C354.58 71.0708 355.7 72.5007 357.527 72.5532C365.939 72.8 374.351 72.9345 382.764 72.9567C386.184 72.964 385.979 67.6526 382.566 67.645C375.223 67.6255 367.882 67.5196 360.542 67.3274C361.74 60.7581 363.602 54.3308 365.59 47.9625C367.94 40.4815 370.369 33.0152 372.762 25.5362Z" fill="#4B9691"/>
<path d="M424.078 65.736C416.008 66.3582 407.925 66.6405 399.829 66.5828C401.332 60.4986 402.877 54.4269 404.466 48.3679C404.501 48.3666 404.533 48.3653 404.569 48.3853C409.247 48.9436 413.972 48.9864 418.659 48.5127C422.041 48.1562 421.871 42.8435 418.461 43.2011C414.264 43.6629 410.028 43.6673 405.829 43.2143C407.529 36.8367 409.277 30.4726 411.075 24.1221C415.974 24.2901 420.878 23.9982 425.722 23.2501C427.132 23.0309 428.335 22.0499 428.277 20.4954C428.229 19.1887 426.951 17.708 425.524 17.9384C419.565 18.8626 413.52 19.095 407.507 18.6311C406.085 18.5174 404.903 20.065 404.952 21.3858C404.958 21.734 405.038 22.077 405.186 22.3918C405.335 22.7067 405.549 22.9862 405.814 23.2118C401.563 38.2635 397.578 53.3869 393.859 68.5819C393.428 70.339 394.847 71.8144 396.542 71.847C405.798 72.0293 415.041 71.7629 424.272 71.0477C427.674 70.772 427.494 65.4597 424.078 65.736Z" fill="#4B9691"/>
<path d="M446.612 71.3712C448.172 71.3131 449.064 70.0565 449.166 68.6165C449.444 64.5992 449.674 60.5801 449.855 56.5593C451.59 55.5939 451.595 52.8704 450.036 51.9108C450.445 40.631 450.479 29.3451 450.138 18.053C450.047 15.5955 446.138 14.3405 445.134 16.8956C441.821 25.4184 438.504 33.9413 435.184 42.4644C432.011 50.6144 428.726 58.7721 426.898 67.3507C426.18 70.6965 431.353 71.9222 432.071 68.5763C432.954 64.5864 434.079 60.6543 435.442 56.802C438.465 57.0689 441.501 57.1712 444.535 57.1085C444.355 61.0135 444.13 64.9166 443.862 68.8177C443.756 70.2507 445.285 71.4207 446.612 71.3712ZM437.295 51.6728C438.221 49.2128 439.182 46.7657 440.136 44.3188L445.064 31.6497C445.092 38.3695 444.988 45.0848 444.752 51.7956C442.266 51.8827 439.777 51.8417 437.295 51.6728Z" fill="#4B9691"/>
<path d="M459.418 69.2806C461.67 53.6368 464.159 38.0314 466.886 22.4644C469.428 22.3413 471.969 22.1828 474.508 21.9889C477.907 21.7275 477.727 16.4116 474.31 16.6772C468.421 17.1331 462.526 17.3977 456.623 17.4711C453.201 17.5135 453.403 22.825 456.82 22.7827C458.372 22.7627 459.924 22.7297 461.476 22.6837C458.842 37.7697 456.434 52.8945 454.252 68.0582C453.761 71.424 458.931 72.6675 459.418 69.2806Z" fill="#4B9691"/>
<path d="M500.265 12.2776C485.133 36.2027 470.481 60.4231 456.309 84.9388C454.591 87.907 459.283 90.4059 460.991 87.4487C475.159 62.9378 489.811 38.7174 504.947 14.7874C506.781 11.8894 502.082 9.40145 500.265 12.2776Z" fill="#4B9691"/>
<path d="M510.304 68.7607L512.105 66.7113C512.483 66.3105 512.719 65.7959 512.775 65.2474C512.831 64.699 512.704 64.1475 512.414 63.6786C516.702 52.6627 521.694 41.935 527.361 31.562C527.464 31.3771 527.546 31.1815 527.605 30.9785L532.828 30.7839C536.243 30.6567 536.052 25.3447 532.63 25.4722L514.892 26.1333C511.477 26.2605 511.668 31.5724 515.09 31.4449L521.519 31.2053C515.479 42.5475 510.218 54.2877 505.77 66.3446C504.82 68.9012 508.651 70.6308 510.304 68.7607Z" fill="#4B9691"/>
<path d="M539.011 63.0181C541.33 52.8526 544.985 43.04 549.883 33.837C551.492 30.8126 546.807 28.3064 545.201 31.3271C543.313 34.8726 541.604 38.5012 540.075 42.213C538.48 42.742 536.826 43.0717 535.151 43.1943C537.094 39.2284 539.164 35.3298 541.362 31.4986C543.066 28.5238 538.377 26.0248 536.68 28.9887C533.442 34.6341 530.481 40.418 527.798 46.3406C526.463 49.3099 525.201 52.3119 524.013 55.3467C523.454 56.7717 522.909 58.2022 522.376 59.6381C521.874 60.9937 520.946 62.631 521.596 64.082C522.04 65.0725 523 66.1041 524.227 65.9343C525.32 65.7836 526.198 65.3892 526.712 64.3523C527.007 63.7336 527.077 63.0313 526.911 62.3662C527.589 60.0148 528.758 57.6521 529.661 55.4376C530.609 53.1163 531.601 50.8135 532.635 48.5291L532.699 48.5267C534.386 48.6077 536.077 48.5126 537.745 48.243C536.181 52.6775 534.871 57.1981 533.824 61.7824C533.08 65.1363 538.25 66.362 539.011 63.0181Z" fill="#4B9691"/>
<path d="M571.949 34.1551C575.359 33.9748 575.171 28.6628 571.751 28.8434L553.641 29.8091C553.114 29.8198 552.604 29.9987 552.185 30.3198C551.766 30.6409 551.46 31.0875 551.313 31.5944C546.418 41.9577 542.495 52.7533 539.595 63.8424C539.179 65.4287 540.574 67.2881 542.278 67.1075C548.32 66.451 554.413 66.4129 560.463 66.9938C561.886 67.1393 563.28 66.5341 563.66 65.0164C563.968 63.7674 563.11 61.9625 561.684 61.8206C556.382 61.278 551.045 61.1698 545.726 61.4969C546.878 57.421 548.175 53.3928 549.617 49.4125L562.068 49.3031C565.489 49.2678 565.288 43.9562 561.87 43.9914L551.647 44.0923C552.864 41.0423 554.168 38.0256 555.562 35.0423L571.949 34.1551Z" fill="#4B9691"/>
<path d="M582.267 59.3267C585.269 59.6219 588.295 59.5781 591.287 59.1963C596.248 58.5398 601.935 57.2818 605.466 53.434C608.626 49.9972 609.436 43.9565 605.73 40.5592C604.032 39.0055 601.805 38.404 599.582 38.0861C598.578 37.9427 597.568 37.8421 596.574 37.6203C596.146 37.5177 595.725 37.3841 595.316 37.2204C597.367 35.2184 600.158 34.0294 602.796 32.9559C605.747 31.7579 608.794 30.8139 611.904 30.1343C615.236 29.4002 613.623 24.3328 610.298 25.0666C606.977 25.7864 603.73 26.8107 600.597 28.1266C597.83 29.2935 594.776 30.542 592.487 32.528C590.427 34.3139 589.025 37.1888 590.543 39.7953C591.94 42.19 594.821 42.767 597.343 43.1198C599.234 43.3827 602.282 43.3932 602.809 45.753C603.336 48.1127 601.65 50.1117 599.776 51.263C597.316 52.7731 594.233 53.4412 591.41 53.8478C589.641 54.0986 587.857 54.2244 586.07 54.2241C585.177 54.2255 584.297 54.2015 583.391 54.136C582.961 54.1095 582.53 54.0688 582.101 54.0139C581.983 53.9717 581.864 53.9359 581.742 53.9066C581.465 53.4226 581.017 53.06 580.486 52.8901C579.955 52.7202 579.38 52.7554 578.873 52.9888L578.674 53.0671C578.129 53.2582 577.658 53.6151 577.326 54.0879C576.994 54.5607 576.819 55.1256 576.824 55.7034C576.794 58.7186 580.006 59.1308 582.267 59.3267Z" fill="#4B9691"/>
<path d="M628.811 28.164C628.56 25.4252 625.271 24.8279 623.807 27.0101L602.438 59.1036C601.636 60.3072 602.354 62.0606 603.526 62.7048C604.883 63.4521 606.329 62.8025 607.121 61.617L613.201 52.4828L613.494 52.4399L618.584 51.4347C618.33 52.7279 618.088 54.0228 617.86 55.3197C617.59 56.8782 617.336 58.4397 617.099 60.004C616.997 60.6745 616.902 61.3482 616.82 62.0179C616.77 62.3744 616.723 62.7307 616.676 63.0871C616.471 63.2781 616.294 63.4972 616.151 63.7379C615.93 64.105 615.793 64.5162 615.749 64.9424C615.705 65.3685 615.755 65.7991 615.896 66.2037C616.037 66.6083 616.265 66.9769 616.564 67.2834C616.863 67.5899 617.226 67.8266 617.627 67.977C619.496 68.684 621.245 67.2146 621.675 65.4575C622.167 63.4463 622.267 61.2688 622.598 59.2211C622.937 57.1021 623.313 54.9877 623.726 52.8778C623.922 51.8161 624.138 50.7549 624.373 49.6942C624.607 49.3677 624.773 48.9965 624.858 48.6036C624.944 48.2108 624.949 47.8044 624.872 47.4096C625.378 45.1473 625.924 42.8918 626.509 40.6432C627.565 36.5755 629.208 32.4329 628.811 28.164ZM620.973 40.821C620.563 42.4911 620.165 44.1608 619.778 45.83L617.316 46.3119L620.973 40.821Z" fill="#4B9691"/>
<path d="M629.355 68.5189L642.331 68.0531C645.746 67.9258 645.555 62.6139 642.133 62.7414L632.516 63.0998C634.724 52.1762 637.343 41.3495 640.373 30.6198C641.313 27.3189 636.134 26.1147 635.204 29.394C631.865 41.225 629.021 53.1806 626.672 65.2608C626.586 65.6579 626.591 66.0693 626.686 66.4641C626.782 66.859 626.966 67.2269 627.224 67.5405C627.483 67.854 627.808 68.1049 628.177 68.2744C628.546 68.4439 628.949 68.5274 629.355 68.5189Z" fill="#4B9691"/>
<path d="M650.6 55.6291C650.125 58.5864 650.013 61.6614 649.129 64.5489C648.12 67.8276 653.299 69.0246 654.298 65.7747C655.183 62.9049 655.295 59.8263 655.769 56.8548C656.213 54.1102 656.768 51.3862 657.435 48.683C658.806 43.1462 660.653 37.7384 662.956 32.5201L669.191 32.2878C672.605 32.1606 672.414 26.8486 668.993 26.9761L651.654 27.6223C648.239 27.7495 648.434 33.0613 651.852 32.9339L657.128 32.7373C655.233 37.3255 653.664 42.0421 652.434 46.8516C651.689 49.7446 651.078 52.6704 650.6 55.6291Z" fill="#4B9691"/>
<path d="M689.664 64.7977C692.342 64.5845 694.578 62.5792 696.135 60.5283C699.303 56.35 700.357 51.1691 700.63 46.0314C700.874 41.3557 700.734 35.6199 697.684 31.9322C698.246 30.8475 698.228 29.5928 697.247 28.6613C696.266 27.7298 694.332 27.6388 693.493 28.8012L693.264 29.1183C691.37 29.079 690.007 31.2147 690.634 32.8084C684.994 40.9226 679.171 51.1749 683.618 60.5905C684.745 62.974 686.827 65.0276 689.664 64.7977ZM689.073 46.2599C690.415 42.8269 692.335 39.6562 694.418 36.607C696.019 39.7388 695.517 44.5163 695.23 47.5694C695.061 49.8238 694.557 52.0402 693.736 54.1462C693.086 55.7271 691.542 58.891 689.679 59.3824C688.036 59.7982 687.533 55.5227 687.483 54.3792C687.369 51.6069 688.073 48.8219 689.073 46.2599Z" fill="#4B9691"/>
<path d="M712.249 37.569L736.097 35.1271C739.479 34.7777 739.306 29.4651 735.899 29.8154L712.051 32.2573C711.676 32.2865 711.312 32.3967 710.983 32.5804C710.655 32.764 710.37 33.0167 710.149 33.321C708.758 32.5041 706.626 32.8353 706.136 34.889C703.723 44.9338 701.515 55.0253 699.514 65.1635C698.972 67.9106 702.103 69.2975 704.044 67.5797C704.679 67.0148 705.19 66.3244 705.546 65.5522C705.753 65.1437 705.847 64.687 705.818 64.2297C705.79 63.7723 705.639 63.3311 705.381 62.952C706.297 58.4262 707.253 53.9073 708.25 49.395C708.442 49.4257 708.637 49.4374 708.832 49.43L745.846 47.9692C749.26 47.842 749.069 42.5301 745.648 42.6576L709.437 44.0849C709.947 41.8603 710.468 39.6388 711 37.4205C711.397 37.5742 711.826 37.6253 712.249 37.569Z" fill="#4B9691"/>
<path d="M778.961 36.2923L768.479 34.7538L768.305 34.7356C770.087 26.8892 771.946 19.0612 773.882 11.2516C774.078 11.2181 774.269 11.1659 774.454 11.0956C777.449 9.96629 780.53 10.9578 783.565 11.4049C786.862 11.8982 790.222 11.773 793.473 11.0357C796.805 10.291 795.191 5.22361 791.867 5.9645C788.63 6.68793 785.547 6.38798 782.323 5.82374C779.266 5.28873 776.176 4.90391 773.191 5.91582C771.804 5.21929 769.802 5.59529 769.315 7.55311C763.087 32.423 757.657 57.4711 753.027 82.6975C752.411 86.0572 757.578 87.2866 758.196 83.9232C760.901 69.1987 763.88 54.5313 767.134 39.9209L767.248 39.9414L777.734 41.4834C781.104 41.9641 782.346 36.7903 778.961 36.2923Z" fill="#4B9691"/>
<path d="M886.572 72.9647C865.191 72.7828 843.823 72.1085 822.47 70.9421C824.458 63.6933 826.444 56.448 828.428 49.2064L848.655 50.0094L858.726 50.4071C861.644 50.5254 865.22 51.229 867.745 49.3867C870.506 47.3867 867.67 42.8825 864.892 44.9008C863.937 45.596 862.443 45.251 861.307 45.2047L856.445 45.0135L847.07 44.6537L829.852 43.9691C832.318 34.9696 834.784 25.9677 837.251 16.9635C837.351 16.6173 837.38 16.2542 837.335 15.8965L871.357 16.0258C874.777 16.0402 874.572 10.7288 871.159 10.7142L833.295 10.572C830.4 10.5593 830.102 14.3646 832.152 15.54C832.129 15.6011 832.107 15.6623 832.088 15.7303L816.638 72.1027C809.941 59.9195 803.914 47.3794 798.584 34.5387L798.77 33.9148C801.428 32.8974 803.991 31.6437 806.426 30.1686C809.544 28.2794 812.925 25.9939 814.946 22.8903C819.417 16.0288 813.023 9.31687 806.599 7.32935C806.621 7.26115 806.639 7.18951 806.662 7.12131C807.63 3.8335 802.451 2.62937 801.489 5.89566L794.46 29.7953L794.071 29.9198C792.778 30.3225 791.8 31.9263 792.338 33.2573C792.549 33.7778 792.767 34.3051 792.981 34.8184L790.896 41.8995C789.154 47.8295 787.397 53.7566 785.684 59.6962C784.848 62.6068 784.023 65.5215 783.211 68.4407C782.775 70.0148 782.347 71.5886 781.927 73.1621L781.386 75.1894C781.318 75.4543 781.249 75.7193 781.178 75.9843C779.828 76.9531 779.286 78.9378 780.677 80.4355C781.076 80.8553 781.583 81.1556 782.143 81.3027C782.702 81.4497 783.291 81.4376 783.844 81.2678C785.308 80.7878 785.768 79.448 786.115 78.1017C787.608 72.3512 789.21 66.6391 790.853 60.9043C792.622 54.7628 794.415 48.6299 796.23 42.5057C803.701 59.6876 812.397 76.3099 822.25 92.2442C824.049 95.1523 828.538 92.3078 826.733 89.3929C824.003 84.9793 821.363 80.5128 818.813 75.9932C818.916 76.0099 819.019 76.0215 819.123 76.0278C841.643 77.3162 864.186 78.0541 886.751 78.2416C890.19 78.3049 889.985 72.9936 886.572 72.9647ZM800.936 26.6392C802.333 21.8993 803.728 17.1571 805.123 12.4126C805.179 12.4366 805.236 12.4569 805.295 12.4735C807.37 13.1054 809.661 14.3959 810.693 16.3964C811.808 18.5605 810.463 20.4014 808.877 21.8683C806.44 24.0629 803.7 25.8944 800.741 27.306C800.808 27.0837 800.87 26.8615 800.936 26.6392Z" fill="#4B9691"/>
<path d="M930.415 12.0098C930.527 11.5091 930.636 11.0087 930.749 10.5116C931.496 7.1682 926.327 5.94951 925.579 9.28579C925.5 9.64333 925.424 9.97237 925.348 10.3192C924.944 10.5596 924.609 10.9007 924.375 11.3093C924.142 11.723 924.033 12.195 924.06 12.6692C924.087 13.1434 924.249 13.5999 924.528 13.9844C921.065 29.5126 917.598 45.0398 914.128 60.5659L911.771 60.5438C909.783 60.521 907.796 60.491 905.811 60.4539C901.957 60.3824 898.103 60.2825 894.248 60.1543C887.67 59.9266 881.096 59.6196 874.526 59.2332C876 52.7742 877.476 46.3127 878.952 39.8488L891.373 39.4959C897.391 39.3249 903.728 39.6632 909.628 38.2271C912.95 37.4224 911.344 32.3512 908.022 33.1594C905.212 33.8385 902.354 33.867 899.497 33.9486L890.471 34.2034L880.167 34.4952L884.225 16.7345C893.189 17.2555 902.174 17.3242 911.145 16.9405C914.559 16.7955 914.368 11.4836 910.947 11.6288C900.642 12.0705 890.321 11.9141 880.034 11.1603C878.613 11.0572 877.43 12.5942 877.479 13.915C877.488 14.3804 877.627 14.8339 877.881 15.2239C878.135 15.6139 878.493 15.9245 878.915 16.1203L874.684 34.6534L872.422 34.7164C869.006 34.8118 869.2 40.1236 872.62 40.0281L873.458 39.9968L868.645 61.0729C868.231 62.8932 869.627 64.2277 871.332 64.3379C880.429 64.909 889.533 65.3252 898.642 65.5862C903.081 65.7115 907.52 65.799 911.961 65.8487C912.269 65.8372 912.596 65.8675 912.93 65.887L910.391 77.2544C910.148 77.4987 909.956 77.79 909.829 78.1105C909.701 78.431 909.64 78.7741 909.649 79.119C909.648 79.7502 909.643 80.3815 909.642 81.0128L909.643 81.0376L907.21 82.7984C906.59 82.8504 906.009 83.1238 905.573 83.5686L903.761 85.3382C901.621 87.4286 904.669 91.1589 907.133 89.3898C912.955 85.2084 918.784 81.0232 924.342 76.4935C929.559 72.246 934.931 67.7764 939.021 62.39C943.13 57.063 945.306 50.4955 945.191 43.7669C945.108 37.4404 943.668 31.2055 940.966 25.485C938.539 20.2367 934.926 15.6239 930.415 12.0098ZM934.958 59.0025C931.24 63.836 926.461 67.9466 921.757 71.792C919.886 73.3227 917.972 74.8089 916.063 76.2594L918.413 65.7324L918.623 65.6679C919.47 65.379 920.178 64.7833 920.608 63.9981C921.038 63.2129 921.158 62.295 920.945 61.4253C920.743 60.7778 920.305 60.2298 919.719 59.8895C922.848 45.8583 925.981 31.827 929.117 17.7956C935.697 23.9793 939.321 33.1491 939.834 42.0801C940.189 48.2724 938.768 54.0734 934.976 59.0125L934.958 59.0025Z" fill="#4B9691"/>
<path d="M970.16 30.7072C969.663 26.0096 969.337 19.6602 964.721 17.0166C962.715 15.8645 960.184 15.6397 958.141 16.8257C956.174 17.9628 955.069 19.9685 954.255 22.0058C953.752 23.2338 953.956 24.6126 955.034 25.4022C951.462 32.6403 949.024 40.3856 947.807 48.3661C947.121 52.9554 946.608 57.7404 947.354 62.3508C948.03 66.5205 949.704 71.0325 953.489 73.3346C956.923 75.4265 961.092 74.5265 963.699 71.5606C966.442 68.423 967.426 64.1276 968.328 60.1756C970.551 50.5202 971.17 40.5642 970.16 30.7072ZM963.502 57.3342C962.961 59.9324 960.458 73.2027 955.36 68.0949C952.923 65.6538 952.402 61.6556 952.315 58.3752C952.283 54.8021 952.607 51.2346 953.283 47.7259C954.745 39.4326 957.595 31.4454 961.711 24.1003C961.97 23.6817 962.092 23.1927 962.061 22.7013C962.029 22.2099 961.845 21.7405 961.534 21.3587C962.488 21.5536 963.244 22.8304 963.553 23.6097C964.831 26.8173 964.913 30.8142 965.135 34.2172C965.645 41.9614 965.096 49.7389 963.502 57.3342Z" fill="#4B9691"/>
<path d="M1012.64 1.87622C1011.68 1.3657 1010.13 1.47695 1009.44 2.41378C998.01 18.0273 995.393 37.3549 988.724 55.0534C988.967 42.0338 990.537 29.0731 993.41 16.3725C994.17 13.0074 989.214 11.8978 988.236 15.1469C982.646 33.8158 977.053 52.486 971.458 71.1574C970.475 74.4386 975.654 75.6392 976.631 72.383L983.619 49.0735C983.32 55.146 983.3 61.2247 983.558 67.3095C983.673 69.9293 987.309 70.8044 988.561 68.4634C993.92 58.4094 996.907 47.3621 1000.13 36.4941C1002.19 29.5274 1004.4 22.4699 1007.55 15.8848C1005.77 36.4902 1005.9 57.2166 1007.95 77.7975C1008.29 81.1855 1013.6 81.0123 1013.26 77.5997C1010.81 53.395 1011.06 28.9942 1013.99 4.84369C1014.12 3.65083 1013.76 2.47628 1012.64 1.87622Z" fill="#4B9691"/>
</svg>
